<?xml version="1.0" encoding="UTF-8" standalone="no"?>
<!DOCTYPE svg PUBLIC "-//W3C//DTD SVG 1.1//EN"
 "http://www.w3.org/Graphics/SVG/1.1/DTD/svg11.dtd">
<!-- Generated by graphviz version 2.40.1 (20161225.0304)
 -->
<!-- Title: atomic1 Pages: 1 -->
<svg width="816pt" height="59pt"
 viewBox="0.00 0.00 815.50 59.00" xmlns="http://www.w3.org/2000/svg" xmlns:xlink="http://www.w3.org/1999/xlink">
<g id="graph0" class="graph" transform="scale(1 1) rotate(0) translate(4 55)">
<title>atomic1</title>
<polygon fill="#ffffff" stroke="transparent" points="-4,4 -4,-55 811.5044,-55 811.5044,4 -4,4"/>
<!-- A -->
<g id="node1" class="node">
<title>A</title>
<polygon fill="none" stroke="#000000" points="299.9364,-36.5 124.2032,-36.5 124.2032,-.5 299.9364,-.5 299.9364,-36.5"/>
<text text-anchor="middle" x="212.0698" y="-14.3" font-family="Times,serif" font-size="14.00" fill="#000000">| ... | &lt;f1&gt; eetop | ... | tid | ... |</text>
<text text-anchor="middle" x="62.1934" y="-39.3" font-family="Times,serif" font-size="14.00" fill="#000000">oop(java.lang.Thread)</text>
</g>
<!-- B -->
<g id="node2" class="node">
<title>B</title>
<polygon fill="none" stroke="#000000" points="582.2,-36.5 317.9397,-36.5 317.9397,-.5 582.2,-.5 582.2,-36.5"/>
<text text-anchor="middle" x="450.0698" y="-14.3" font-family="Times,serif" font-size="14.00" fill="#000000"> | &lt;f2&gt; _osthread | ... | &lt;f3&gt; _threadObj | |...| </text>
<text text-anchor="middle" x="285.4961" y="-39.3" font-family="Times,serif" font-size="14.00" fill="#000000">JavaThread</text>
</g>
<!-- C -->
<g id="node3" class="node">
<title>C</title>
<polygon fill="none" stroke="#000000" points="600.6353,-.5 600.6353,-36.5 807.5044,-36.5 807.5044,-.5 600.6353,-.5"/>
<text text-anchor="middle" x="610.3853" y="-14.3" font-family="Times,serif" font-size="14.00" fill="#000000"> </text>
<polyline fill="none" stroke="#000000" points="620.1353,-.5 620.1353,-36.5 "/>
<text text-anchor="middle" x="633.3853" y="-14.3" font-family="Times,serif" font-size="14.00" fill="#000000">...</text>
<polyline fill="none" stroke="#000000" points="646.6353,-.5 646.6353,-36.5 "/>
<text text-anchor="middle" x="656.3853" y="-14.3" font-family="Times,serif" font-size="14.00" fill="#000000"> </text>
<polyline fill="none" stroke="#000000" points="666.1353,-.5 666.1353,-36.5 "/>
<text text-anchor="middle" x="704.0698" y="-14.3" font-family="Times,serif" font-size="14.00" fill="#000000">_thread_id</text>
<polyline fill="none" stroke="#000000" points="742.0044,-.5 742.0044,-36.5 "/>
<text text-anchor="middle" x="751.7544" y="-14.3" font-family="Times,serif" font-size="14.00" fill="#000000"> </text>
<polyline fill="none" stroke="#000000" points="761.5044,-.5 761.5044,-36.5 "/>
<text text-anchor="middle" x="774.7544" y="-14.3" font-family="Times,serif" font-size="14.00" fill="#000000">...</text>
<polyline fill="none" stroke="#000000" points="788.0044,-.5 788.0044,-36.5 "/>
<text text-anchor="middle" x="797.7544" y="-14.3" font-family="Times,serif" font-size="14.00" fill="#000000"> </text>
<text text-anchor="middle" x="571.8662" y="-39.8" font-family="Times,serif" font-size="14.00" fill="#000000">OSThread</text>
</g>
</g>
</svg>
