<?xml version="1.0" encoding="UTF-8" standalone="no"?>
<!DOCTYPE svg PUBLIC "-//W3C//DTD SVG 1.1//EN"
 "http://www.w3.org/Graphics/SVG/1.1/DTD/svg11.dtd">
<!-- Generated by graphviz version 2.40.1 (20161225.0304)
 -->
<!-- Title: atomic1 Pages: 1 -->
<svg width="170pt" height="120pt"
 viewBox="0.00 0.00 170.12 120.03" xmlns="http://www.w3.org/2000/svg" xmlns:xlink="http://www.w3.org/1999/xlink">
<g id="graph0" class="graph" transform="scale(1 1) rotate(0) translate(4 116.0322)">
<title>atomic1</title>
<polygon fill="#ffffff" stroke="transparent" points="-4,4 -4,-116.0322 166.1249,-116.0322 166.1249,4 -4,4"/>
<!-- A -->
<g id="node1" class="node">
<title>A</title>
<ellipse fill="none" stroke="#000000" cx="36.0624" cy="-92.5161" rx="36.125" ry="19.5322"/>
<text text-anchor="middle" x="36.0624" y="-91.116" font-family="Times,serif" font-size="14.00" fill="#000000">线程1</text>
</g>
<!-- C -->
<g id="node3" class="node">
<title>C</title>
<path fill="none" stroke="#000000" d="M23.9555,-.5C23.9555,-.5 146.1694,-.5 146.1694,-.5 152.1694,-.5 158.1694,-6.5 158.1694,-12.5 158.1694,-12.5 158.1694,-24.5 158.1694,-24.5 158.1694,-30.5 152.1694,-36.5 146.1694,-36.5 146.1694,-36.5 23.9555,-36.5 23.9555,-36.5 17.9555,-36.5 11.9555,-30.5 11.9555,-24.5 11.9555,-24.5 11.9555,-12.5 11.9555,-12.5 11.9555,-6.5 17.9555,-.5 23.9555,-.5"/>
<text text-anchor="middle" x="21.7055" y="-14.3" font-family="Times,serif" font-size="14.00" fill="#000000"> </text>
<polyline fill="none" stroke="#000000" points="31.4555,-.5 31.4555,-36.5 "/>
<text text-anchor="middle" x="41.2055" y="-14.3" font-family="Times,serif" font-size="14.00" fill="#000000"> </text>
<polyline fill="none" stroke="#000000" points="50.9555,-.5 50.9555,-36.5 "/>
<text text-anchor="middle" x="60.7055" y="-14.3" font-family="Times,serif" font-size="14.00" fill="#000000"> </text>
<polyline fill="none" stroke="#000000" points="70.4555,-.5 70.4555,-36.5 "/>
<text text-anchor="middle" x="81.5624" y="-14.3" font-family="Times,serif" font-size="14.00" fill="#000000">a</text>
<polyline fill="none" stroke="#000000" points="92.6694,-.5 92.6694,-36.5 "/>
<text text-anchor="middle" x="102.4194" y="-14.3" font-family="Times,serif" font-size="14.00" fill="#000000"> </text>
<polyline fill="none" stroke="#000000" points="112.1694,-.5 112.1694,-36.5 "/>
<text text-anchor="middle" x="125.4194" y="-14.3" font-family="Times,serif" font-size="14.00" fill="#000000">...</text>
<polyline fill="none" stroke="#000000" points="138.6694,-.5 138.6694,-36.5 "/>
<text text-anchor="middle" x="148.4194" y="-14.3" font-family="Times,serif" font-size="14.00" fill="#000000"> </text>
</g>
<!-- A&#45;&gt;C -->
<g id="edge1" class="edge">
<title>A&#45;&gt;C:f1</title>
<path fill="none" stroke="#000000" d="M58.0351,-76.9499C67.0486,-69.0265 76.1749,-58.5192 79.6241,-46.4719"/>
<polygon fill="#000000" stroke="#000000" points="83.0989,-46.8973 81.0624,-36.5 76.1706,-45.8979 83.0989,-46.8973"/>
</g>
<!-- B -->
<g id="node2" class="node">
<title>B</title>
<ellipse fill="none" stroke="#000000" cx="126.0624" cy="-92.5161" rx="36.125" ry="19.5322"/>
<text text-anchor="middle" x="126.0624" y="-91.116" font-family="Times,serif" font-size="14.00" fill="#000000">线程2</text>
</g>
<!-- B&#45;&gt;C -->
<g id="edge2" class="edge">
<title>B&#45;&gt;C:f1</title>
<path fill="none" stroke="#000000" d="M104.0897,-76.9499C95.0763,-69.0265 85.9499,-58.5192 82.5008,-46.4719"/>
<polygon fill="#000000" stroke="#000000" points="85.9543,-45.8979 81.0624,-36.5 79.026,-46.8973 85.9543,-45.8979"/>
</g>
</g>
</svg>
