<?xml version="1.0" encoding="UTF-8" standalone="no"?>
<!DOCTYPE svg PUBLIC "-//W3C//DTD SVG 1.1//EN"
 "http://www.w3.org/Graphics/SVG/1.1/DTD/svg11.dtd">
<!-- Generated by graphviz version 2.40.1 (20161225.0304)
 -->
<!-- Title: atomic1 Pages: 1 -->
<svg width="464pt" height="339pt"
 viewBox="0.00 0.00 464.00 338.60" xmlns="http://www.w3.org/2000/svg" xmlns:xlink="http://www.w3.org/1999/xlink">
<g id="graph0" class="graph" transform="scale(1 1) rotate(0) translate(4 334.5999)">
<title>atomic1</title>
<polygon fill="#ffffff" stroke="transparent" points="-4,4 -4,-334.5999 460,-334.5999 460,4 -4,4"/>
<g id="clust1" class="cluster">
<title>clusterA</title>
<polygon fill="none" stroke="#000000" points="8,-243 8,-322.5999 298,-322.5999 298,-243 8,-243"/>
<text text-anchor="middle" x="153" y="-307.3999" font-family="Times,serif" font-size="14.00" fill="#000000">线程1</text>
</g>
<g id="clust2" class="cluster">
<title>clusterB</title>
<polygon fill="none" stroke="#000000" points="306,-8 306,-322.5999 448,-322.5999 448,-8 306,-8"/>
<text text-anchor="middle" x="377" y="-307.3999" font-family="Times,serif" font-size="14.00" fill="#000000">线程2</text>
</g>
<!-- A1 -->
<g id="node1" class="node">
<title>A1</title>
<polygon fill="none" stroke="#000000" points="290,-287 236,-287 236,-251 290,-251 290,-287"/>
<text text-anchor="middle" x="263" y="-264.8" font-family="Times,serif" font-size="14.00" fill="#000000">a=1</text>
</g>
<!-- B1 -->
<g id="node2" class="node">
<title>B1</title>
<polygon fill="none" stroke="#000000" points="218,-287 164,-287 164,-251 218,-251 218,-287"/>
<text text-anchor="middle" x="191" y="-264.8" font-family="Times,serif" font-size="14.00" fill="#000000">b=2</text>
</g>
<!-- C1 -->
<g id="node3" class="node">
<title>C1</title>
<polygon fill="none" stroke="#000000" points="146,-287 92,-287 92,-251 146,-251 146,-287"/>
<text text-anchor="middle" x="119" y="-264.8" font-family="Times,serif" font-size="14.00" fill="#000000">c=3</text>
</g>
<!-- D1 -->
<g id="node4" class="node">
<title>D1</title>
<polygon fill="none" stroke="#000000" points="74.1095,-287 15.8905,-287 15.8905,-251 74.1095,-251 74.1095,-287"/>
<text text-anchor="middle" x="45" y="-264.8" font-family="Times,serif" font-size="14.00" fill="#000000">done=1</text>
</g>
<!-- A2 -->
<g id="node5" class="node">
<title>A2</title>
<polygon fill="none" stroke="#000000" points="403,-287 349,-287 349,-251 403,-251 403,-287"/>
<text text-anchor="middle" x="376" y="-264.8" font-family="Times,serif" font-size="14.00" fill="#000000">...</text>
</g>
<!-- B2 -->
<g id="node6" class="node">
<title>B2</title>
<polygon fill="none" stroke="#000000" points="412.2191,-176 339.7809,-176 339.7809,-140 412.2191,-140 412.2191,-176"/>
<text text-anchor="middle" x="376" y="-153.8" font-family="Times,serif" font-size="14.00" fill="#000000">done==1?</text>
</g>
<!-- A2&#45;&gt;B2 -->
<g id="edge1" class="edge">
<title>A2&#45;&gt;B2</title>
<path fill="none" stroke="#000000" d="M376,-250.6706C376,-233.2373 376,-206.7482 376,-186.5489"/>
<polygon fill="#000000" stroke="#000000" points="379.5001,-186.3566 376,-176.3566 372.5001,-186.3567 379.5001,-186.3566"/>
</g>
<!-- C2 -->
<g id="node7" class="node">
<title>C2</title>
<polygon fill="none" stroke="#000000" points="368,-52 314,-52 314,-16 368,-16 368,-52"/>
<text text-anchor="middle" x="341" y="-29.8" font-family="Times,serif" font-size="14.00" fill="#000000">d=c</text>
</g>
<!-- B2&#45;&gt;C2 -->
<g id="edge2" class="edge">
<title>B2&#45;&gt;C2</title>
<path fill="none" stroke="#000000" d="M370.9107,-139.9693C365.1303,-119.4903 355.6281,-85.8251 348.8861,-61.9395"/>
<polygon fill="#000000" stroke="#000000" points="352.1804,-60.7256 346.0954,-52.0524 345.4436,-62.6272 352.1804,-60.7256"/>
<text text-anchor="middle" x="373.2241" y="-91.8" font-family="Times,serif" font-size="14.00" fill="#000000">YES</text>
</g>
<!-- D2 -->
<g id="node8" class="node">
<title>D2</title>
<polygon fill="none" stroke="#000000" points="440,-52 386,-52 386,-16 440,-16 440,-52"/>
<text text-anchor="middle" x="413" y="-29.8" font-family="Times,serif" font-size="14.00" fill="#000000">...</text>
</g>
<!-- B2&#45;&gt;D2 -->
<g id="edge3" class="edge">
<title>B2&#45;&gt;D2</title>
<path fill="none" stroke="#000000" d="M381.3801,-139.9693C387.4908,-119.4903 397.536,-85.8251 404.6632,-61.9395"/>
<polygon fill="#000000" stroke="#000000" points="408.1079,-62.6357 407.6134,-52.0524 401.4001,-60.6342 408.1079,-62.6357"/>
<text text-anchor="middle" x="406.1104" y="-91.8" font-family="Times,serif" font-size="14.00" fill="#000000">NO</text>
</g>
</g>
</svg>
