<?xml version="1.0" encoding="UTF-8" standalone="no"?>
<!DOCTYPE svg PUBLIC "-//W3C//DTD SVG 1.1//EN"
 "http://www.w3.org/Graphics/SVG/1.1/DTD/svg11.dtd">
<!-- Generated by graphviz version 2.40.1 (20161225.0304)
 -->
<!-- Title: thread Pages: 1 -->
<svg width="442pt" height="251pt"
 viewBox="0.00 0.00 442.23 251.00" xmlns="http://www.w3.org/2000/svg" xmlns:xlink="http://www.w3.org/1999/xlink">
<g id="graph0" class="graph" transform="scale(1 1) rotate(0) translate(4 247)">
<title>thread</title>
<polygon fill="#ffffff" stroke="transparent" points="-4,4 -4,-247 438.2334,-247 438.2334,4 -4,4"/>
<!-- A -->
<g id="node1" class="node">
<title>A</title>
<polygon fill="none" stroke="#000000" points="124.3867,-14.5 124.3867,-124.5 178.3867,-124.5 178.3867,-14.5 124.3867,-14.5"/>
<text text-anchor="middle" x="151.3867" y="-109.3" font-family="Times,serif" font-size="14.00" fill="#000000">...</text>
<polyline fill="none" stroke="#000000" points="124.3867,-102.5 178.3867,-102.5 "/>
<text text-anchor="middle" x="151.3867" y="-87.3" font-family="Times,serif" font-size="14.00" fill="#000000">eetop</text>
<polyline fill="none" stroke="#000000" points="124.3867,-80.5 178.3867,-80.5 "/>
<text text-anchor="middle" x="151.3867" y="-65.3" font-family="Times,serif" font-size="14.00" fill="#000000">...</text>
<polyline fill="none" stroke="#000000" points="124.3867,-58.5 178.3867,-58.5 "/>
<text text-anchor="middle" x="151.3867" y="-43.3" font-family="Times,serif" font-size="14.00" fill="#000000">tid</text>
<polyline fill="none" stroke="#000000" points="124.3867,-36.5 178.3867,-36.5 "/>
<text text-anchor="middle" x="151.3867" y="-21.3" font-family="Times,serif" font-size="14.00" fill="#000000">...</text>
<text text-anchor="middle" x="62.1934" y="-2.8" font-family="Times,serif" font-size="14.00" fill="#000000">oop(java.lang.Thread)</text>
</g>
<!-- B -->
<g id="node2" class="node">
<title>B</title>
<polygon fill="none" stroke="#000000" points="214.3867,-36.5 214.3867,-146.5 293.3662,-146.5 293.3662,-36.5 214.3867,-36.5"/>
<text text-anchor="middle" x="253.8765" y="-131.3" font-family="Times,serif" font-size="14.00" fill="#000000">...</text>
<polyline fill="none" stroke="#000000" points="214.3867,-124.5 293.3662,-124.5 "/>
<text text-anchor="middle" x="253.8765" y="-109.3" font-family="Times,serif" font-size="14.00" fill="#000000">_osthread</text>
<polyline fill="none" stroke="#000000" points="214.3867,-102.5 293.3662,-102.5 "/>
<text text-anchor="middle" x="253.8765" y="-87.3" font-family="Times,serif" font-size="14.00" fill="#000000">_parker</text>
<polyline fill="none" stroke="#000000" points="214.3867,-80.5 293.3662,-80.5 "/>
<text text-anchor="middle" x="253.8765" y="-65.3" font-family="Times,serif" font-size="14.00" fill="#000000">_threadObj</text>
<polyline fill="none" stroke="#000000" points="214.3867,-58.5 293.3662,-58.5 "/>
<text text-anchor="middle" x="253.8765" y="-43.3" font-family="Times,serif" font-size="14.00" fill="#000000">...</text>
<text text-anchor="middle" x="261.1074" y="-24.8" font-family="Times,serif" font-size="14.00" fill="#000000">JavaThread</text>
</g>
<!-- A&#45;&gt;B -->
<g id="edge1" class="edge">
<title>A:f1&#45;&gt;B</title>
<path fill="none" stroke="#000000" d="M178.3867,-91.5C186.6792,-91.5 195.4842,-91.5 204.0416,-91.5"/>
<polygon fill="#000000" stroke="#000000" points="204.3061,-95.0001 214.306,-91.5 204.306,-88.0001 204.3061,-95.0001"/>
</g>
<!-- B&#45;&gt;A -->
<g id="edge3" class="edge">
<title>B:f2&#45;&gt;A</title>
<path fill="none" stroke="#000000" d="M214.8765,-69.5C206.4132,-69.5 197.3154,-69.5 188.725,-69.5"/>
<polygon fill="#000000" stroke="#000000" points="188.575,-66.0001 178.575,-69.5 188.5749,-73.0001 188.575,-66.0001"/>
</g>
<!-- C -->
<g id="node3" class="node">
<title>C</title>
<polygon fill="none" stroke="#000000" points="343.8652,-176.5 343.8652,-242.5 419.7344,-242.5 419.7344,-176.5 343.8652,-176.5"/>
<text text-anchor="middle" x="381.7998" y="-227.3" font-family="Times,serif" font-size="14.00" fill="#000000">...</text>
<polyline fill="none" stroke="#000000" points="343.8652,-220.5 419.7344,-220.5 "/>
<text text-anchor="middle" x="381.7998" y="-205.3" font-family="Times,serif" font-size="14.00" fill="#000000">_thread_id</text>
<polyline fill="none" stroke="#000000" points="343.8652,-198.5 419.7344,-198.5 "/>
<text text-anchor="middle" x="381.7998" y="-183.3" font-family="Times,serif" font-size="14.00" fill="#000000">...</text>
<text text-anchor="middle" x="315.0962" y="-164.8" font-family="Times,serif" font-size="14.00" fill="#000000">OSThread</text>
</g>
<!-- B&#45;&gt;C -->
<g id="edge2" class="edge">
<title>B:f1&#45;&gt;C</title>
<path fill="none" stroke="#000000" d="M292.8765,-113.5C321.8422,-113.5 309.7315,-146.2046 329.3662,-167.5 331.4045,-169.7107 333.564,-171.9021 335.7997,-174.0556"/>
<polygon fill="#000000" stroke="#000000" points="333.8843,-177.0463 343.6288,-181.205 338.6046,-171.8772 333.8843,-177.0463"/>
</g>
<!-- D -->
<g id="node4" class="node">
<title>D</title>
<polygon fill="none" stroke="#000000" points="329.3662,-25.5 329.3662,-157.5 434.2334,-157.5 434.2334,-25.5 329.3662,-25.5"/>
<text text-anchor="middle" x="381.7998" y="-142.3" font-family="Times,serif" font-size="14.00" fill="#000000">...</text>
<polyline fill="none" stroke="#000000" points="329.3662,-135.5 434.2334,-135.5 "/>
<text text-anchor="middle" x="381.7998" y="-120.3" font-family="Times,serif" font-size="14.00" fill="#000000">_mutex</text>
<polyline fill="none" stroke="#000000" points="329.3662,-113.5 434.2334,-113.5 "/>
<text text-anchor="middle" x="381.7998" y="-98.3" font-family="Times,serif" font-size="14.00" fill="#000000">_cond</text>
<polyline fill="none" stroke="#000000" points="329.3662,-91.5 434.2334,-91.5 "/>
<text text-anchor="middle" x="381.7998" y="-76.3" font-family="Times,serif" font-size="14.00" fill="#000000">_counter</text>
<polyline fill="none" stroke="#000000" points="329.3662,-69.5 434.2334,-69.5 "/>
<text text-anchor="middle" x="381.7998" y="-54.3" font-family="Times,serif" font-size="14.00" fill="#000000">AssociatedWith</text>
<polyline fill="none" stroke="#000000" points="329.3662,-47.5 434.2334,-47.5 "/>
<text text-anchor="middle" x="381.7998" y="-32.3" font-family="Times,serif" font-size="14.00" fill="#000000">...</text>
<text text-anchor="middle" x="415.9644" y="-13.8" font-family="Times,serif" font-size="14.00" fill="#000000">Parker</text>
</g>
<!-- B&#45;&gt;D -->
<g id="edge4" class="edge">
<title>B:f3&#45;&gt;D</title>
<path fill="none" stroke="#000000" d="M292.8765,-91.5C301.3095,-91.5 310.1924,-91.5 318.9493,-91.5"/>
<polygon fill="#000000" stroke="#000000" points="319.1366,-95.0001 329.1366,-91.5 319.1365,-88.0001 319.1366,-95.0001"/>
</g>
<!-- D&#45;&gt;B -->
<g id="edge5" class="edge">
<title>D:f1&#45;&gt;B</title>
<path fill="none" stroke="#000000" d="M329.7998,-58.5C320.8193,-58.5 311.6996,-60.466 303.0436,-63.4382"/>
<polygon fill="#000000" stroke="#000000" points="301.5385,-60.2686 293.5,-67.1704 304.0879,-66.7879 301.5385,-60.2686"/>
</g>
</g>
</svg>
