<?xml version="1.0" encoding="UTF-8" standalone="no"?>
<!DOCTYPE svg PUBLIC "-//W3C//DTD SVG 1.1//EN"
 "http://www.w3.org/Graphics/SVG/1.1/DTD/svg11.dtd">
<!-- Generated by graphviz version 2.40.1 (20161225.0304)
 -->
<!-- Title: atomic1 Pages: 1 -->
<svg width="876pt" height="288pt"
 viewBox="0.00 0.00 875.81 288.26" xmlns="http://www.w3.org/2000/svg" xmlns:xlink="http://www.w3.org/1999/xlink">
<g id="graph0" class="graph" transform="scale(1 1) rotate(0) translate(4 284.2642)">
<title>atomic1</title>
<polygon fill="#ffffff" stroke="transparent" points="-4,4 -4,-284.2642 871.8112,-284.2642 871.8112,4 -4,4"/>
<!-- t1 -->
<g id="node1" class="node">
<title>t1</title>
<ellipse fill="none" stroke="#000000" cx="60.8112" cy="-260.7481" rx="50.8235" ry="19.5322"/>
<text text-anchor="middle" x="60.8112" y="-259.348" font-family="Times,serif" font-size="14.00" fill="#000000">医疗诊断</text>
</g>
<!-- t2 -->
<g id="node2" class="node">
<title>t2</title>
<ellipse fill="none" stroke="#000000" cx="60.8112" cy="-185.7159" rx="50.8235" ry="19.5322"/>
<text text-anchor="middle" x="60.8112" y="-184.3159" font-family="Times,serif" font-size="14.00" fill="#000000">症状信息</text>
</g>
<!-- t1&#45;&gt;t2 -->
<g id="edge1" class="edge">
<title>t1&#45;&gt;t2</title>
<path fill="none" stroke="#000000" d="M60.8112,-241.0343C60.8112,-233.1937 60.8112,-224.0026 60.8112,-215.3889"/>
<polygon fill="#000000" stroke="#000000" points="64.3113,-215.298 60.8112,-205.2981 57.3113,-215.2981 64.3113,-215.298"/>
</g>
<!-- t3 -->
<g id="node3" class="node">
<title>t3</title>
<ellipse fill="none" stroke="#000000" cx="60.8112" cy="-102.5999" rx="60.623" ry="19.5322"/>
<text text-anchor="middle" x="60.8112" y="-101.1999" font-family="Times,serif" font-size="14.00" fill="#000000">病人等价类</text>
</g>
<!-- t2&#45;&gt;t3 -->
<g id="edge2" class="edge">
<title>t2&#45;&gt;t3</title>
<path fill="none" stroke="#000000" d="M60.8112,-166.0186C60.8112,-155.9781 60.8112,-143.5576 60.8112,-132.3771"/>
<polygon fill="#000000" stroke="#000000" points="64.3113,-132.1558 60.8112,-122.1559 57.3113,-132.1559 64.3113,-132.1558"/>
</g>
<!-- r -->
<g id="node5" class="node">
<title>r</title>
<polygon fill="none" stroke="#000000" points="100.8112,-6.5 100.8112,-31.5 176.8112,-31.5 176.8112,-6.5 100.8112,-6.5"/>
<text text-anchor="start" x="103.8112" y="-17.3" font-family="Times,serif" font-size="14.00" fill="#000000">决策粗糙集</text>
<polygon fill="none" stroke="#000000" points="178.8112,-6.5 178.8112,-31.5 268.8112,-31.5 268.8112,-6.5 178.8112,-6.5"/>
<text text-anchor="start" x="181.8112" y="-17.3" font-family="Times,serif" font-size="14.00" fill="#000000">三支决策规则</text>
<polygon fill="none" stroke="#000000" points="97.8112,-4 97.8112,-35 271.8112,-35 271.8112,-4 97.8112,-4"/>
</g>
<!-- t3&#45;&gt;r -->
<g id="edge3" class="edge">
<title>t3&#45;&gt;r</title>
<path fill="none" stroke="#000000" d="M87.1084,-84.9766C104.572,-73.2731 127.7685,-57.7278 147.1768,-44.7211"/>
<polygon fill="#000000" stroke="#000000" points="149.1547,-47.6089 155.5133,-39.1343 145.2577,-41.7939 149.1547,-47.6089"/>
</g>
<!-- c1 -->
<g id="node4" class="node">
<title>c1</title>
<polygon fill="none" stroke="#000000" points="309.8112,-130.3001 139.8112,-102.5999 309.8112,-74.8997 479.8112,-102.5999 309.8112,-130.3001"/>
<text text-anchor="middle" x="309.8112" y="-101.1999" font-family="Times,serif" font-size="14.00" fill="#000000">是否有决策成本损失信息</text>
</g>
<!-- c1&#45;&gt;r -->
<g id="edge4" class="edge">
<title>c1&#45;&gt;r</title>
<path fill="none" stroke="#000000" d="M276.3135,-80.3307C259.9325,-69.4406 240.1361,-56.28 223.1526,-44.9894"/>
<polygon fill="#000000" stroke="#000000" points="224.8261,-41.8991 214.5608,-39.2775 220.9508,-47.7285 224.8261,-41.8991"/>
</g>
<!-- l -->
<g id="node6" class="node">
<title>l</title>
<polygon fill="none" stroke="#000000" points="218.8112,-172.7159 218.8112,-197.7159 336.8112,-197.7159 336.8112,-172.7159 218.8112,-172.7159"/>
<text text-anchor="start" x="221.8112" y="-183.5159" font-family="Times,serif" font-size="14.00" fill="#000000">临床数据管理系统</text>
<polygon fill="none" stroke="#000000" points="338.8112,-172.7159 338.8112,-197.7159 400.8112,-197.7159 400.8112,-172.7159 338.8112,-172.7159"/>
<text text-anchor="start" x="341.8112" y="-183.5159" font-family="Times,serif" font-size="14.00" fill="#000000">知识管理</text>
<polygon fill="none" stroke="#000000" points="215.8112,-170.2159 215.8112,-201.2159 403.8112,-201.2159 403.8112,-170.2159 215.8112,-170.2159"/>
</g>
<!-- l&#45;&gt;c1 -->
<g id="edge5" class="edge">
<title>l&#45;&gt;c1</title>
<path fill="none" stroke="#000000" d="M309.8112,-166.0186C309.8112,-158.3588 309.8112,-149.3139 309.8112,-140.4911"/>
<polygon fill="#000000" stroke="#000000" points="313.3113,-140.3323 309.8112,-130.3323 306.3113,-140.3323 313.3113,-140.3323"/>
</g>
<!-- r3 -->
<g id="node7" class="node">
<title>r3</title>
<ellipse fill="none" stroke="#000000" cx="170.8112" cy="-260.7481" rx="41.0244" ry="19.5322"/>
<text text-anchor="middle" x="170.8112" y="-259.348" font-family="Times,serif" font-size="14.00" fill="#000000">病患类</text>
</g>
<!-- r4 -->
<g id="node8" class="node">
<title>r4</title>
<ellipse fill="none" stroke="#000000" cx="300.8112" cy="-260.7481" rx="70.922" ry="19.5322"/>
<text text-anchor="middle" x="300.8112" y="-259.348" font-family="Times,serif" font-size="14.00" fill="#000000">进一步观察类</text>
</g>
<!-- r5 -->
<g id="node9" class="node">
<title>r5</title>
<ellipse fill="none" stroke="#000000" cx="430.8112" cy="-260.7481" rx="41.0244" ry="19.5322"/>
<text text-anchor="middle" x="430.8112" y="-259.348" font-family="Times,serif" font-size="14.00" fill="#000000">患病类</text>
</g>
<!-- l3 -->
<g id="node10" class="node">
<title>l3</title>
<polygon fill="none" stroke="#000000" points="603.8112,-278.7481 489.8112,-278.7481 489.8112,-242.7481 603.8112,-242.7481 603.8112,-278.7481"/>
<text text-anchor="middle" x="546.8112" y="-259.348" font-family="Times,serif" font-size="14.00" fill="#000000">病人历史数据库</text>
</g>
<!-- l4 -->
<g id="node11" class="node">
<title>l4</title>
<polygon fill="none" stroke="#000000" points="777.8112,-278.7481 621.8112,-278.7481 621.8112,-242.7481 777.8112,-242.7481 777.8112,-278.7481"/>
<text text-anchor="middle" x="699.8112" y="-259.348" font-family="Times,serif" font-size="14.00" fill="#000000">集成机器学习分类预测</text>
</g>
<!-- l5 -->
<g id="node12" class="node">
<title>l5</title>
<polygon fill="none" stroke="#000000" points="867.8112,-278.7481 795.8112,-278.7481 795.8112,-242.7481 867.8112,-242.7481 867.8112,-278.7481"/>
<text text-anchor="middle" x="831.8112" y="-259.348" font-family="Times,serif" font-size="14.00" fill="#000000">未患病类</text>
</g>
</g>
</svg>
