<?xml version="1.0" encoding="UTF-8" standalone="no"?>
<!DOCTYPE svg PUBLIC "-//W3C//DTD SVG 1.1//EN"
 "http://www.w3.org/Graphics/SVG/1.1/DTD/svg11.dtd">
<!-- Generated by graphviz version 2.40.1 (20161225.0304)
 -->
<!-- Title: thread1 Pages: 1 -->
<svg width="161pt" height="360pt"
 viewBox="0.00 0.00 160.55 360.00" xmlns="http://www.w3.org/2000/svg" xmlns:xlink="http://www.w3.org/1999/xlink">
<g id="graph0" class="graph" transform="scale(.4501 .4501) rotate(0) translate(4 795.8426)">
<title>thread1</title>
<polygon fill="#ffffff" stroke="transparent" points="-4,4 -4,-795.8426 352.7182,-795.8426 352.7182,4 -4,4"/>
<!-- O -->
<g id="node1" class="node">
<title>O</title>
<ellipse fill="none" stroke="#000000" cx="84.345" cy="-34.2421" rx="18" ry="18"/>
<text text-anchor="middle" x="84.345" y="-30.0421" font-family="Times,serif" font-size="14.00" fill="#000000">O</text>
</g>
<!-- A -->
<g id="node2" class="node">
<title>A</title>
<ellipse fill="none" stroke="#000000" cx="314.4761" cy="-34.2421" rx="30.4575" ry="30.4575"/>
<ellipse fill="none" stroke="#000000" cx="314.4761" cy="-34.2421" rx="34.486" ry="34.486"/>
<text text-anchor="middle" x="314.4761" y="-30.0421" font-family="Times,serif" font-size="14.00" fill="#000000">NEW</text>
</g>
<!-- O&#45;&gt;A -->
<g id="edge1" class="edge">
<title>O&#45;&gt;A</title>
<path fill="none" stroke="#000000" d="M102.403,-34.2421C138.189,-34.2421 219.0402,-34.2421 269.9325,-34.2421"/>
<polygon fill="#000000" stroke="#000000" points="269.9998,-37.7422 279.9998,-34.2421 269.9998,-30.7422 269.9998,-37.7422"/>
<text text-anchor="middle" x="224.462" y="-37.0421" font-family="Times,serif" font-size="14.00" fill="#000000">new Thread()</text>
</g>
<!-- B -->
<g id="node3" class="node">
<title>B</title>
<ellipse fill="none" stroke="#000000" cx="84.345" cy="-132.2421" rx="58.024" ry="58.024"/>
<ellipse fill="none" stroke="#000000" cx="84.345" cy="-132.2421" rx="62.0082" ry="62.0082"/>
<text text-anchor="middle" x="84.345" y="-128.0421" font-family="Times,serif" font-size="14.00" fill="#000000">RUNNABLE</text>
</g>
<!-- C -->
<g id="node4" class="node">
<title>C</title>
<ellipse fill="none" stroke="#000000" cx="84.345" cy="-268.2421" rx="51.7441" ry="51.7441"/>
<ellipse fill="none" stroke="#000000" cx="84.345" cy="-268.2421" rx="55.7346" ry="55.7346"/>
<text text-anchor="middle" x="84.345" y="-264.0421" font-family="Times,serif" font-size="14.00" fill="#000000">BLOCKED</text>
</g>
<!-- D -->
<g id="node5" class="node">
<title>D</title>
<ellipse fill="none" stroke="#000000" cx="84.345" cy="-394.2421" rx="47.8554" ry="47.8554"/>
<ellipse fill="none" stroke="#000000" cx="84.345" cy="-394.2421" rx="51.8496" ry="51.8496"/>
<text text-anchor="middle" x="84.345" y="-390.0421" font-family="Times,serif" font-size="14.00" fill="#000000">WAITING</text>
</g>
<!-- E -->
<g id="node6" class="node">
<title>E</title>
<ellipse fill="none" stroke="#000000" cx="84.345" cy="-548.2421" rx="80.1976" ry="80.1976"/>
<ellipse fill="none" stroke="#000000" cx="84.345" cy="-548.2421" rx="84.1903" ry="84.1903"/>
<text text-anchor="middle" x="84.345" y="-544.0421" font-family="Times,serif" font-size="14.00" fill="#000000">TIMED_WAITING</text>
</g>
<!-- F -->
<g id="node7" class="node">
<title>F</title>
<ellipse fill="none" stroke="#000000" cx="84.345" cy="-721.2421" rx="66.6955" ry="66.6955"/>
<ellipse fill="none" stroke="#000000" cx="84.345" cy="-721.2421" rx="70.7012" ry="70.7012"/>
<text text-anchor="middle" x="84.345" y="-717.0421" font-family="Times,serif" font-size="14.00" fill="#000000">TERMINATED</text>
</g>
</g>
</svg>
