<?xml version="1.0" encoding="UTF-8" standalone="no"?>
<!DOCTYPE svg PUBLIC "-//W3C//DTD SVG 1.1//EN"
 "http://www.w3.org/Graphics/SVG/1.1/DTD/svg11.dtd">
<!-- Generated by graphviz version 2.40.1 (20161225.0304)
 -->
<!-- Title: atomic1 Pages: 1 -->
<svg width="140pt" height="320pt"
 viewBox="0.00 0.00 140.00 319.60" xmlns="http://www.w3.org/2000/svg" xmlns:xlink="http://www.w3.org/1999/xlink">
<g id="graph0" class="graph" transform="scale(1 1) rotate(0) translate(4 315.5999)">
<title>atomic1</title>
<polygon fill="#ffffff" stroke="transparent" points="-4,4 -4,-315.5999 136,-315.5999 136,4 -4,4"/>
<g id="clust1" class="cluster">
<title>clusterA</title>
<polygon fill="none" stroke="#000000" points="8,-8 8,-303.5999 124,-303.5999 124,-8 8,-8"/>
<text text-anchor="middle" x="66" y="-288.3999" font-family="Times,serif" font-size="14.00" fill="#000000">线程1</text>
</g>
<!-- A1 -->
<g id="node1" class="node">
<title>A1</title>
<polygon fill="none" stroke="#000000" points="105.2202,-268 26.7798,-268 26.7798,-232 105.2202,-232 105.2202,-268"/>
<text text-anchor="middle" x="66" y="-245.8" font-family="Times,serif" font-size="14.00" fill="#000000">LOCK a=1</text>
</g>
<!-- B1 -->
<g id="node2" class="node">
<title>B1</title>
<polygon fill="none" stroke="#000000" points="105.5074,-196 26.4926,-196 26.4926,-160 105.5074,-160 105.5074,-196"/>
<text text-anchor="middle" x="66" y="-173.8" font-family="Times,serif" font-size="14.00" fill="#000000">LOCK b=2</text>
</g>
<!-- A1&#45;&gt;B1 -->
<g id="edge1" class="edge">
<title>A1&#45;&gt;B1</title>
<path fill="none" stroke="#000000" d="M66,-231.8314C66,-224.131 66,-214.9743 66,-206.4166"/>
<polygon fill="#000000" stroke="#000000" points="69.5001,-206.4132 66,-196.4133 62.5001,-206.4133 69.5001,-206.4132"/>
</g>
<!-- C1 -->
<g id="node3" class="node">
<title>C1</title>
<polygon fill="none" stroke="#000000" points="105.2202,-124 26.7798,-124 26.7798,-88 105.2202,-88 105.2202,-124"/>
<text text-anchor="middle" x="66" y="-101.8" font-family="Times,serif" font-size="14.00" fill="#000000">LOCK c=3</text>
</g>
<!-- B1&#45;&gt;C1 -->
<g id="edge2" class="edge">
<title>B1&#45;&gt;C1</title>
<path fill="none" stroke="#000000" d="M66,-159.8314C66,-152.131 66,-142.9743 66,-134.4166"/>
<polygon fill="#000000" stroke="#000000" points="69.5001,-134.4132 66,-124.4133 62.5001,-134.4133 69.5001,-134.4132"/>
</g>
<!-- D1 -->
<g id="node4" class="node">
<title>D1</title>
<polygon fill="none" stroke="#000000" points="115.7201,-52 16.2799,-52 16.2799,-16 115.7201,-16 115.7201,-52"/>
<text text-anchor="middle" x="66" y="-29.8" font-family="Times,serif" font-size="14.00" fill="#000000">LOCK done=1</text>
</g>
<!-- C1&#45;&gt;D1 -->
<g id="edge3" class="edge">
<title>C1&#45;&gt;D1</title>
<path fill="none" stroke="#000000" d="M66,-87.8314C66,-80.131 66,-70.9743 66,-62.4166"/>
<polygon fill="#000000" stroke="#000000" points="69.5001,-62.4132 66,-52.4133 62.5001,-62.4133 69.5001,-62.4132"/>
</g>
</g>
</svg>
