<?xml version="1.0" encoding="UTF-8" standalone="no"?>
<!DOCTYPE svg PUBLIC "-//W3C//DTD SVG 1.1//EN"
 "http://www.w3.org/Graphics/SVG/1.1/DTD/svg11.dtd">
<!-- Generated by graphviz version 2.40.1 (20161225.0304)
 -->
<!-- Title: atomic1 Pages: 1 -->
<svg width="194pt" height="320pt"
 viewBox="0.00 0.00 194.00 319.60" xmlns="http://www.w3.org/2000/svg" xmlns:xlink="http://www.w3.org/1999/xlink">
<g id="graph0" class="graph" transform="scale(1 1) rotate(0) translate(4 315.5999)">
<title>atomic1</title>
<polygon fill="#ffffff" stroke="transparent" points="-4,4 -4,-315.5999 190,-315.5999 190,4 -4,4"/>
<g id="clust1" class="cluster">
<title>clusterA</title>
<polygon fill="none" stroke="#000000" points="8,-8 8,-303.5999 82,-303.5999 82,-8 8,-8"/>
<text text-anchor="middle" x="45" y="-288.3999" font-family="Times,serif" font-size="14.00" fill="#000000">线程1</text>
</g>
<g id="clust2" class="cluster">
<title>clusterB</title>
<polygon fill="none" stroke="#000000" points="90,-80 90,-303.5999 178,-303.5999 178,-80 90,-80"/>
<text text-anchor="middle" x="134" y="-288.3999" font-family="Times,serif" font-size="14.00" fill="#000000">线程B</text>
</g>
<!-- A1 -->
<g id="node1" class="node">
<title>A1</title>
<polygon fill="none" stroke="#000000" points="72,-268 18,-268 18,-232 72,-232 72,-268"/>
<text text-anchor="middle" x="45" y="-245.8" font-family="Times,serif" font-size="14.00" fill="#000000">a=1</text>
</g>
<!-- B1 -->
<g id="node2" class="node">
<title>B1</title>
<polygon fill="none" stroke="#000000" points="72,-196 18,-196 18,-160 72,-160 72,-196"/>
<text text-anchor="middle" x="45" y="-173.8" font-family="Times,serif" font-size="14.00" fill="#000000">b=2</text>
</g>
<!-- A1&#45;&gt;B1 -->
<g id="edge1" class="edge">
<title>A1&#45;&gt;B1</title>
<path fill="none" stroke="#000000" d="M45,-231.8314C45,-224.131 45,-214.9743 45,-206.4166"/>
<polygon fill="#000000" stroke="#000000" points="48.5001,-206.4132 45,-196.4133 41.5001,-206.4133 48.5001,-206.4132"/>
</g>
<!-- C1 -->
<g id="node3" class="node">
<title>C1</title>
<polygon fill="none" stroke="#000000" points="72,-124 18,-124 18,-88 72,-88 72,-124"/>
<text text-anchor="middle" x="45" y="-101.8" font-family="Times,serif" font-size="14.00" fill="#000000">c=3</text>
</g>
<!-- B1&#45;&gt;C1 -->
<g id="edge2" class="edge">
<title>B1&#45;&gt;C1</title>
<path fill="none" stroke="#000000" d="M45,-159.8314C45,-152.131 45,-142.9743 45,-134.4166"/>
<polygon fill="#000000" stroke="#000000" points="48.5001,-134.4132 45,-124.4133 41.5001,-134.4133 48.5001,-134.4132"/>
</g>
<!-- D1 -->
<g id="node4" class="node">
<title>D1</title>
<polygon fill="none" stroke="#000000" points="74.1095,-52 15.8905,-52 15.8905,-16 74.1095,-16 74.1095,-52"/>
<text text-anchor="middle" x="45" y="-29.8" font-family="Times,serif" font-size="14.00" fill="#000000">done=1</text>
</g>
<!-- C1&#45;&gt;D1 -->
<g id="edge3" class="edge">
<title>C1&#45;&gt;D1</title>
<path fill="none" stroke="#000000" d="M45,-87.8314C45,-80.131 45,-70.9743 45,-62.4166"/>
<polygon fill="#000000" stroke="#000000" points="48.5001,-62.4132 45,-52.4133 41.5001,-62.4133 48.5001,-62.4132"/>
</g>
<!-- A2 -->
<g id="node5" class="node">
<title>A2</title>
<polygon fill="none" stroke="#000000" points="161,-268 107,-268 107,-232 161,-232 161,-268"/>
<text text-anchor="middle" x="134" y="-245.8" font-family="Times,serif" font-size="14.00" fill="#000000">...</text>
</g>
<!-- B2 -->
<g id="node6" class="node">
<title>B2</title>
<polygon fill="none" stroke="#000000" points="170.2191,-196 97.7809,-196 97.7809,-160 170.2191,-160 170.2191,-196"/>
<text text-anchor="middle" x="134" y="-173.8" font-family="Times,serif" font-size="14.00" fill="#000000">done==1?</text>
</g>
<!-- A2&#45;&gt;B2 -->
<g id="edge4" class="edge">
<title>A2&#45;&gt;B2</title>
<path fill="none" stroke="#000000" d="M134,-231.8314C134,-224.131 134,-214.9743 134,-206.4166"/>
<polygon fill="#000000" stroke="#000000" points="137.5001,-206.4132 134,-196.4133 130.5001,-206.4133 137.5001,-206.4132"/>
</g>
<!-- C2 -->
<g id="node7" class="node">
<title>C2</title>
<polygon fill="none" stroke="#000000" points="161,-124 107,-124 107,-88 161,-88 161,-124"/>
<text text-anchor="middle" x="134" y="-101.8" font-family="Times,serif" font-size="14.00" fill="#000000">...</text>
</g>
<!-- B2&#45;&gt;C2 -->
<g id="edge5" class="edge">
<title>B2&#45;&gt;C2</title>
<path fill="none" stroke="#000000" d="M134,-159.8314C134,-152.131 134,-142.9743 134,-134.4166"/>
<polygon fill="#000000" stroke="#000000" points="137.5001,-134.4132 134,-124.4133 130.5001,-134.4133 137.5001,-134.4132"/>
</g>
</g>
</svg>
