<?xml version="1.0" encoding="UTF-8" standalone="no"?>
<!DOCTYPE svg PUBLIC "-//W3C//DTD SVG 1.1//EN"
 "http://www.w3.org/Graphics/SVG/1.1/DTD/svg11.dtd">
<!-- Generated by graphviz version 2.40.1 (20161225.0304)
 -->
<!-- Title: atomic1 Pages: 1 -->
<svg width="1872pt" height="301pt"
 viewBox="0.00 0.00 1872.00 301.26" xmlns="http://www.w3.org/2000/svg" xmlns:xlink="http://www.w3.org/1999/xlink">
<g id="graph0" class="graph" transform="scale(1 1) rotate(0) translate(4 297.2642)">
<title>atomic1</title>
<polygon fill="#ffffff" stroke="transparent" points="-4,4 -4,-297.2642 1868,-297.2642 1868,4 -4,4"/>
<g id="clust2" class="cluster">
<title>clusterA</title>
<polygon fill="none" stroke="#000000" points="8,-8 8,-60 228,-60 228,-8 8,-8"/>
</g>
<!-- t1 -->
<g id="node1" class="node">
<title>t1</title>
<ellipse fill="none" stroke="#000000" cx="177" cy="-265.6643" rx="50.8235" ry="19.5322"/>
<text text-anchor="middle" x="177" y="-264.2642" font-family="Times,serif" font-size="14.00" fill="#000000">医疗诊断</text>
</g>
<!-- t2 -->
<g id="node2" class="node">
<title>t2</title>
<ellipse fill="none" stroke="#000000" cx="177" cy="-182.5483" rx="50.8235" ry="19.5322"/>
<text text-anchor="middle" x="177" y="-181.1482" font-family="Times,serif" font-size="14.00" fill="#000000">症状信息</text>
</g>
<!-- t1&#45;&gt;t2 -->
<g id="edge1" class="edge">
<title>t1&#45;&gt;t2</title>
<path fill="none" stroke="#000000" d="M177,-245.9669C177,-235.9264 177,-223.5059 177,-212.3255"/>
<polygon fill="#000000" stroke="#000000" points="180.5001,-212.1042 177,-202.1042 173.5001,-212.1042 180.5001,-212.1042"/>
</g>
<!-- t3 -->
<g id="node3" class="node">
<title>t3</title>
<ellipse fill="none" stroke="#000000" cx="177" cy="-107.5161" rx="60.623" ry="19.5322"/>
<text text-anchor="middle" x="177" y="-106.116" font-family="Times,serif" font-size="14.00" fill="#000000">病人等价类</text>
</g>
<!-- t2&#45;&gt;t3 -->
<g id="edge2" class="edge">
<title>t2&#45;&gt;t3</title>
<path fill="none" stroke="#000000" d="M177,-162.8344C177,-154.9938 177,-145.8027 177,-137.1891"/>
<polygon fill="#000000" stroke="#000000" points="180.5001,-137.0982 177,-127.0982 173.5001,-137.0983 180.5001,-137.0982"/>
</g>
<!-- r1 -->
<g id="node5" class="node">
<title>r1</title>
<polygon fill="none" stroke="#000000" points="220,-52 134,-52 134,-16 220,-16 220,-52"/>
<text text-anchor="middle" x="177" y="-32.6" font-family="Times,serif" font-size="14.00" fill="#000000">决策粗糙集</text>
</g>
<!-- t3&#45;&gt;r1 -->
<g id="edge3" class="edge">
<title>t3&#45;&gt;r1</title>
<path fill="none" stroke="#000000" d="M177,-87.8151C177,-80.0398 177,-70.956 177,-62.4896"/>
<polygon fill="#000000" stroke="#000000" points="180.5001,-62.2404 177,-52.2404 173.5001,-62.2404 180.5001,-62.2404"/>
</g>
<!-- c1 -->
<g id="node4" class="node">
<title>c1</title>
<polygon fill="none" stroke="#000000" points="416,-293.3645 246,-265.6643 416,-237.9641 586,-265.6643 416,-293.3645"/>
<text text-anchor="middle" x="416" y="-264.2642" font-family="Times,serif" font-size="14.00" fill="#000000">是否有决策成本损失信息</text>
</g>
<!-- r2 -->
<g id="node6" class="node">
<title>r2</title>
<polygon fill="none" stroke="#000000" points="116,-52 16,-52 16,-16 116,-16 116,-52"/>
<text text-anchor="middle" x="66" y="-32.6" font-family="Times,serif" font-size="14.00" fill="#000000">三支决策规则</text>
</g>
<!-- r -->
<g id="node7" class="node">
<title>r</title>
<ellipse fill="none" stroke="#000000" cx="738" cy="-265.6643" rx="134.2007" ry="27.6545"/>
<polygon fill="none" stroke="#000000" points="654,-252.6643 654,-277.6643 730,-277.6643 730,-252.6643 654,-252.6643"/>
<text text-anchor="start" x="657" y="-263.4643" font-family="Times,serif" font-size="14.00" fill="#000000">决策粗糙集</text>
<polygon fill="none" stroke="#000000" points="732,-252.6643 732,-277.6643 822,-277.6643 822,-252.6643 732,-252.6643"/>
<text text-anchor="start" x="735" y="-263.4643" font-family="Times,serif" font-size="14.00" fill="#000000">三支决策规则</text>
<polygon fill="none" stroke="#000000" points="651,-250.1643 651,-281.1643 825,-281.1643 825,-250.1643 651,-250.1643"/>
</g>
<!-- r3 -->
<g id="node8" class="node">
<title>r3</title>
<ellipse fill="none" stroke="#000000" cx="931" cy="-265.6643" rx="41.0244" ry="19.5322"/>
<text text-anchor="middle" x="931" y="-264.2642" font-family="Times,serif" font-size="14.00" fill="#000000">病患类</text>
</g>
<!-- r4 -->
<g id="node9" class="node">
<title>r4</title>
<ellipse fill="none" stroke="#000000" cx="1061" cy="-265.6643" rx="70.922" ry="19.5322"/>
<text text-anchor="middle" x="1061" y="-264.2642" font-family="Times,serif" font-size="14.00" fill="#000000">进一步观察类</text>
</g>
<!-- r5 -->
<g id="node10" class="node">
<title>r5</title>
<ellipse fill="none" stroke="#000000" cx="1191" cy="-265.6643" rx="41.0244" ry="19.5322"/>
<text text-anchor="middle" x="1191" y="-264.2642" font-family="Times,serif" font-size="14.00" fill="#000000">患病类</text>
</g>
<!-- l1 -->
<g id="node11" class="node">
<title>l1</title>
<polygon fill="none" stroke="#000000" points="1378,-283.6643 1250,-283.6643 1250,-247.6643 1378,-247.6643 1378,-283.6643"/>
<text text-anchor="middle" x="1314" y="-264.2642" font-family="Times,serif" font-size="14.00" fill="#000000">临床数据管理系统</text>
</g>
<!-- l2 -->
<g id="node12" class="node">
<title>l2</title>
<polygon fill="none" stroke="#000000" points="1468,-283.6643 1396,-283.6643 1396,-247.6643 1468,-247.6643 1468,-283.6643"/>
<text text-anchor="middle" x="1432" y="-264.2642" font-family="Times,serif" font-size="14.00" fill="#000000">知识管理</text>
</g>
<!-- l3 -->
<g id="node13" class="node">
<title>l3</title>
<polygon fill="none" stroke="#000000" points="1600,-283.6643 1486,-283.6643 1486,-247.6643 1600,-247.6643 1600,-283.6643"/>
<text text-anchor="middle" x="1543" y="-264.2642" font-family="Times,serif" font-size="14.00" fill="#000000">病人历史数据库</text>
</g>
<!-- l4 -->
<g id="node14" class="node">
<title>l4</title>
<polygon fill="none" stroke="#000000" points="1774,-283.6643 1618,-283.6643 1618,-247.6643 1774,-247.6643 1774,-283.6643"/>
<text text-anchor="middle" x="1696" y="-264.2642" font-family="Times,serif" font-size="14.00" fill="#000000">集成机器学习分类预测</text>
</g>
<!-- l5 -->
<g id="node15" class="node">
<title>l5</title>
<polygon fill="none" stroke="#000000" points="1864,-283.6643 1792,-283.6643 1792,-247.6643 1864,-247.6643 1864,-283.6643"/>
<text text-anchor="middle" x="1828" y="-264.2642" font-family="Times,serif" font-size="14.00" fill="#000000">未患病类</text>
</g>
</g>
</svg>
