<?xml version="1.0" encoding="UTF-8" standalone="no"?>
<!DOCTYPE svg PUBLIC "-//W3C//DTD SVG 1.1//EN"
 "http://www.w3.org/Graphics/SVG/1.1/DTD/svg11.dtd">
<!-- Generated by graphviz version 2.40.1 (20161225.0304)
 -->
<!-- Title: atomic1 Pages: 1 -->
<svg width="194pt" height="134pt"
 viewBox="0.00 0.00 193.67 134.03" xmlns="http://www.w3.org/2000/svg" xmlns:xlink="http://www.w3.org/1999/xlink">
<g id="graph0" class="graph" transform="scale(1 1) rotate(0) translate(4 130.0322)">
<title>atomic1</title>
<polygon fill="#ffffff" stroke="transparent" points="-4,4 -4,-130.0322 189.6694,-130.0322 189.6694,4 -4,4"/>
<!-- A -->
<g id="node1" class="node">
<title>A</title>
<ellipse fill="none" stroke="#000000" cx="59.6069" cy="-106.5161" rx="36.125" ry="19.5322"/>
<text text-anchor="middle" x="59.6069" y="-105.116" font-family="Times,serif" font-size="14.00" fill="#000000">线程1</text>
</g>
<!-- C -->
<g id="node3" class="node">
<title>C</title>
<polygon fill="none" stroke="#000000" points="28,-.5 28,-36.5 181.2139,-36.5 181.2139,-.5 28,-.5"/>
<text text-anchor="middle" x="37.75" y="-14.3" font-family="Times,serif" font-size="14.00" fill="#000000"> </text>
<polyline fill="none" stroke="#000000" points="47.5,-.5 47.5,-36.5 "/>
<text text-anchor="middle" x="60.75" y="-14.3" font-family="Times,serif" font-size="14.00" fill="#000000">...</text>
<polyline fill="none" stroke="#000000" points="74,-.5 74,-36.5 "/>
<text text-anchor="middle" x="83.75" y="-14.3" font-family="Times,serif" font-size="14.00" fill="#000000"> </text>
<polyline fill="none" stroke="#000000" points="93.5,-.5 93.5,-36.5 "/>
<text text-anchor="middle" x="104.6069" y="-14.3" font-family="Times,serif" font-size="14.00" fill="#000000">a</text>
<polyline fill="none" stroke="#000000" points="115.7139,-.5 115.7139,-36.5 "/>
<text text-anchor="middle" x="125.4639" y="-14.3" font-family="Times,serif" font-size="14.00" fill="#000000"> </text>
<polyline fill="none" stroke="#000000" points="135.2139,-.5 135.2139,-36.5 "/>
<text text-anchor="middle" x="148.4639" y="-14.3" font-family="Times,serif" font-size="14.00" fill="#000000">...</text>
<polyline fill="none" stroke="#000000" points="161.7139,-.5 161.7139,-36.5 "/>
<text text-anchor="middle" x="171.4639" y="-14.3" font-family="Times,serif" font-size="14.00" fill="#000000"> </text>
<text text-anchor="middle" x="14" y="-45.3999" font-family="Times,serif" font-size="14.00" fill="#000000">内存</text>
</g>
<!-- A&#45;&gt;C -->
<g id="edge1" class="edge">
<title>A&#45;&gt;C:f1</title>
<path fill="none" stroke="#000000" d="M71.3661,-87.8682C77.5776,-78.0606 85.3525,-65.852 92.3882,-55 95.2359,-50.6076 98.5064,-48.4419 100.9468,-45.8993"/>
<polygon fill="#000000" stroke="#000000" points="104.2396,-47.0885 104.6069,-36.5 97.7167,-44.5484 104.2396,-47.0885"/>
<text text-anchor="middle" x="109.2163" y="-57.8" font-family="Times,serif" font-size="14.00" fill="#000000">a=a+1</text>
</g>
<!-- B -->
<g id="node2" class="node">
<title>B</title>
<ellipse fill="none" stroke="#000000" cx="149.6069" cy="-106.5161" rx="36.125" ry="19.5322"/>
<text text-anchor="middle" x="149.6069" y="-105.116" font-family="Times,serif" font-size="14.00" fill="#000000">线程2</text>
</g>
<!-- B&#45;&gt;C -->
<g id="edge2" class="edge">
<title>B&#45;&gt;C:f1</title>
<path fill="none" stroke="#000000" d="M143.901,-87.2169C140.2799,-76.998 134.8907,-64.611 127.6069,-55 122.6547,-48.4654 114.9084,-47.997 109.795,-45.3618"/>
<polygon fill="#000000" stroke="#000000" points="112.6798,-43.3615 104.6069,-36.5 106.6389,-46.8982 112.6798,-43.3615"/>
<text text-anchor="middle" x="153.2163" y="-57.8" font-family="Times,serif" font-size="14.00" fill="#000000">a=a+2</text>
</g>
</g>
</svg>
