<?xml version="1.0" encoding="UTF-8" standalone="no"?>
<!DOCTYPE svg PUBLIC "-//W3C//DTD SVG 1.1//EN"
 "http://www.w3.org/Graphics/SVG/1.1/DTD/svg11.dtd">
<!-- Generated by graphviz version 2.40.1 (20161225.0304)
 -->
<!-- Title: sleep Pages: 1 -->
<svg width="450pt" height="413pt"
 viewBox="0.00 0.00 450.01 413.00" xmlns="http://www.w3.org/2000/svg" xmlns:xlink="http://www.w3.org/1999/xlink">
<g id="graph0" class="graph" transform="scale(1 1) rotate(0) translate(4 409)">
<title>sleep</title>
<polygon fill="#ffffff" stroke="transparent" points="-4,4 -4,-409 446.0127,-409 446.0127,4 -4,4"/>
<!-- A -->
<g id="node1" class="node">
<title>A</title>
<polygon fill="none" stroke="#000000" points="124.3867,-138.5 124.3867,-248.5 178.3867,-248.5 178.3867,-138.5 124.3867,-138.5"/>
<text text-anchor="middle" x="151.3867" y="-233.3" font-family="Times,serif" font-size="14.00" fill="#000000">...</text>
<polyline fill="none" stroke="#000000" points="124.3867,-226.5 178.3867,-226.5 "/>
<text text-anchor="middle" x="151.3867" y="-211.3" font-family="Times,serif" font-size="14.00" fill="#000000">eetop</text>
<polyline fill="none" stroke="#000000" points="124.3867,-204.5 178.3867,-204.5 "/>
<text text-anchor="middle" x="151.3867" y="-189.3" font-family="Times,serif" font-size="14.00" fill="#000000">...</text>
<polyline fill="none" stroke="#000000" points="124.3867,-182.5 178.3867,-182.5 "/>
<text text-anchor="middle" x="151.3867" y="-167.3" font-family="Times,serif" font-size="14.00" fill="#000000">tid</text>
<polyline fill="none" stroke="#000000" points="124.3867,-160.5 178.3867,-160.5 "/>
<text text-anchor="middle" x="151.3867" y="-145.3" font-family="Times,serif" font-size="14.00" fill="#000000">...</text>
<text text-anchor="middle" x="62.1934" y="-126.8" font-family="Times,serif" font-size="14.00" fill="#000000">oop(java.lang.Thread)</text>
</g>
<!-- B -->
<g id="node2" class="node">
<title>B</title>
<polygon fill="none" stroke="#000000" points="214.3867,-154.5 214.3867,-286.5 301.1455,-286.5 301.1455,-154.5 214.3867,-154.5"/>
<text text-anchor="middle" x="257.7661" y="-271.3" font-family="Times,serif" font-size="14.00" fill="#000000">...</text>
<polyline fill="none" stroke="#000000" points="214.3867,-264.5 301.1455,-264.5 "/>
<text text-anchor="middle" x="257.7661" y="-249.3" font-family="Times,serif" font-size="14.00" fill="#000000">_osthread</text>
<polyline fill="none" stroke="#000000" points="214.3867,-242.5 301.1455,-242.5 "/>
<text text-anchor="middle" x="257.7661" y="-227.3" font-family="Times,serif" font-size="14.00" fill="#000000">_parker</text>
<polyline fill="none" stroke="#000000" points="214.3867,-220.5 301.1455,-220.5 "/>
<text text-anchor="middle" x="257.7661" y="-205.3" font-family="Times,serif" font-size="14.00" fill="#000000">_SleepEvent</text>
<polyline fill="none" stroke="#000000" points="214.3867,-198.5 301.1455,-198.5 "/>
<text text-anchor="middle" x="257.7661" y="-183.3" font-family="Times,serif" font-size="14.00" fill="#000000">_threadObj</text>
<polyline fill="none" stroke="#000000" points="214.3867,-176.5 301.1455,-176.5 "/>
<text text-anchor="middle" x="257.7661" y="-161.3" font-family="Times,serif" font-size="14.00" fill="#000000">...</text>
<text text-anchor="middle" x="268.8867" y="-142.8" font-family="Times,serif" font-size="14.00" fill="#000000">JavaThread</text>
</g>
<!-- A&#45;&gt;B -->
<g id="edge1" class="edge">
<title>A:f1&#45;&gt;B</title>
<path fill="none" stroke="#000000" d="M178.3867,-215.5C186.633,-215.5 195.3515,-215.7721 203.8734,-216.1893"/>
<polygon fill="#000000" stroke="#000000" points="203.946,-219.6987 214.1256,-216.7617 204.3362,-212.7096 203.946,-219.6987"/>
</g>
<!-- B&#45;&gt;A -->
<g id="edge3" class="edge">
<title>B:f2&#45;&gt;A</title>
<path fill="none" stroke="#000000" d="M214.7661,-187.5C206.2798,-187.5 197.1827,-188.0397 188.6045,-188.7954"/>
<polygon fill="#000000" stroke="#000000" points="188.0791,-185.3303 178.4744,-189.8026 188.7717,-192.296 188.0791,-185.3303"/>
</g>
<!-- C -->
<g id="node3" class="node">
<title>C</title>
<polygon fill="none" stroke="#000000" points="351.6445,-338.5 351.6445,-404.5 427.5137,-404.5 427.5137,-338.5 351.6445,-338.5"/>
<text text-anchor="middle" x="389.5791" y="-389.3" font-family="Times,serif" font-size="14.00" fill="#000000">...</text>
<polyline fill="none" stroke="#000000" points="351.6445,-382.5 427.5137,-382.5 "/>
<text text-anchor="middle" x="389.5791" y="-367.3" font-family="Times,serif" font-size="14.00" fill="#000000">_thread_id</text>
<polyline fill="none" stroke="#000000" points="351.6445,-360.5 427.5137,-360.5 "/>
<text text-anchor="middle" x="389.5791" y="-345.3" font-family="Times,serif" font-size="14.00" fill="#000000">...</text>
<text text-anchor="middle" x="322.8755" y="-326.8" font-family="Times,serif" font-size="14.00" fill="#000000">OSThread</text>
</g>
<!-- B&#45;&gt;C -->
<g id="edge2" class="edge">
<title>B:f1&#45;&gt;C</title>
<path fill="none" stroke="#000000" d="M300.7661,-253.5C338.2142,-253.5 313.8631,-300.1692 337.1455,-329.5 339.2484,-332.1492 341.5477,-334.7372 343.972,-337.2438"/>
<polygon fill="#000000" stroke="#000000" points="341.905,-340.1105 351.5481,-344.4994 346.7467,-335.0549 341.905,-340.1105"/>
</g>
<!-- D -->
<g id="node4" class="node">
<title>D</title>
<polygon fill="none" stroke="#000000" points="337.1455,-187.5 337.1455,-319.5 442.0127,-319.5 442.0127,-187.5 337.1455,-187.5"/>
<text text-anchor="middle" x="389.5791" y="-304.3" font-family="Times,serif" font-size="14.00" fill="#000000">...</text>
<polyline fill="none" stroke="#000000" points="337.1455,-297.5 442.0127,-297.5 "/>
<text text-anchor="middle" x="389.5791" y="-282.3" font-family="Times,serif" font-size="14.00" fill="#000000">_mutex</text>
<polyline fill="none" stroke="#000000" points="337.1455,-275.5 442.0127,-275.5 "/>
<text text-anchor="middle" x="389.5791" y="-260.3" font-family="Times,serif" font-size="14.00" fill="#000000">_cond</text>
<polyline fill="none" stroke="#000000" points="337.1455,-253.5 442.0127,-253.5 "/>
<text text-anchor="middle" x="389.5791" y="-238.3" font-family="Times,serif" font-size="14.00" fill="#000000">_counter</text>
<polyline fill="none" stroke="#000000" points="337.1455,-231.5 442.0127,-231.5 "/>
<text text-anchor="middle" x="389.5791" y="-216.3" font-family="Times,serif" font-size="14.00" fill="#000000">AssociatedWith</text>
<polyline fill="none" stroke="#000000" points="337.1455,-209.5 442.0127,-209.5 "/>
<text text-anchor="middle" x="389.5791" y="-194.3" font-family="Times,serif" font-size="14.00" fill="#000000">...</text>
<text text-anchor="middle" x="423.7437" y="-175.8" font-family="Times,serif" font-size="14.00" fill="#000000">Parker</text>
</g>
<!-- B&#45;&gt;D -->
<g id="edge4" class="edge">
<title>B:f3&#45;&gt;D</title>
<path fill="none" stroke="#000000" d="M300.7661,-231.5C309.4222,-231.5 318.4172,-232.4968 327.2148,-234.0661"/>
<polygon fill="#000000" stroke="#000000" points="326.5387,-237.5001 337.035,-236.0584 327.9306,-230.6399 326.5387,-237.5001"/>
</g>
<!-- E -->
<g id="node5" class="node">
<title>E</title>
<polygon fill="none" stroke="#000000" points="337.1455,-14.5 337.1455,-168.5 442.0127,-168.5 442.0127,-14.5 337.1455,-14.5"/>
<text text-anchor="middle" x="389.5791" y="-153.3" font-family="Times,serif" font-size="14.00" fill="#000000">...</text>
<polyline fill="none" stroke="#000000" points="337.1455,-146.5 442.0127,-146.5 "/>
<text text-anchor="middle" x="389.5791" y="-131.3" font-family="Times,serif" font-size="14.00" fill="#000000">_event</text>
<polyline fill="none" stroke="#000000" points="337.1455,-124.5 442.0127,-124.5 "/>
<text text-anchor="middle" x="389.5791" y="-109.3" font-family="Times,serif" font-size="14.00" fill="#000000">_nParked</text>
<polyline fill="none" stroke="#000000" points="337.1455,-102.5 442.0127,-102.5 "/>
<text text-anchor="middle" x="389.5791" y="-87.3" font-family="Times,serif" font-size="14.00" fill="#000000">_mutex</text>
<polyline fill="none" stroke="#000000" points="337.1455,-80.5 442.0127,-80.5 "/>
<text text-anchor="middle" x="389.5791" y="-65.3" font-family="Times,serif" font-size="14.00" fill="#000000">_cond</text>
<polyline fill="none" stroke="#000000" points="337.1455,-58.5 442.0127,-58.5 "/>
<text text-anchor="middle" x="389.5791" y="-43.3" font-family="Times,serif" font-size="14.00" fill="#000000">AssociatedWith</text>
<polyline fill="none" stroke="#000000" points="337.1455,-36.5 442.0127,-36.5 "/>
<text text-anchor="middle" x="389.5791" y="-21.3" font-family="Times,serif" font-size="14.00" fill="#000000">...</text>
<text text-anchor="middle" x="307.9868" y="-2.8" font-family="Times,serif" font-size="14.00" fill="#000000">ParkEvent</text>
</g>
<!-- B&#45;&gt;E -->
<g id="edge6" class="edge">
<title>B:f4&#45;&gt;E</title>
<path fill="none" stroke="#000000" d="M300.7661,-209.5C306.4591,-209.5 318.8912,-195.298 332.7013,-176.748"/>
<polygon fill="#000000" stroke="#000000" points="335.6109,-178.6985 338.6886,-168.5605 329.9605,-174.5664 335.6109,-178.6985"/>
</g>
<!-- D&#45;&gt;B -->
<g id="edge5" class="edge">
<title>D:f1&#45;&gt;B</title>
<path fill="none" stroke="#000000" d="M337.5791,-220.5C329.1137,-220.5 320.1432,-220.5 311.3909,-220.5"/>
<polygon fill="#000000" stroke="#000000" points="311.26,-217.0001 301.2599,-220.5 311.2599,-224.0001 311.26,-217.0001"/>
</g>
<!-- E&#45;&gt;B -->
<g id="edge7" class="edge">
<title>E:f1&#45;&gt;B</title>
<path fill="none" stroke="#000000" d="M337.5791,-47.5C314.7276,-47.5 293.293,-97.8971 278.4028,-144.2892"/>
<polygon fill="#000000" stroke="#000000" points="274.9763,-143.5194 275.3265,-154.1085 281.6561,-145.6122 274.9763,-143.5194"/>
</g>
</g>
</svg>
