<?xml version="1.0" encoding="UTF-8" standalone="no"?>
<!DOCTYPE svg PUBLIC "-//W3C//DTD SVG 1.1//EN"
 "http://www.w3.org/Graphics/SVG/1.1/DTD/svg11.dtd">
<!-- Generated by graphviz version 2.40.1 (20161225.0304)
 -->
<!-- Title: thread1 Pages: 1 -->
<svg width="289pt" height="360pt"
 viewBox="0.00 0.00 289.03 360.00" xmlns="http://www.w3.org/2000/svg" xmlns:xlink="http://www.w3.org/1999/xlink">
<g id="graph0" class="graph" transform="scale(.5249 .5249) rotate(0) translate(4 681.8541)">
<title>thread1</title>
<polygon fill="#ffffff" stroke="transparent" points="-4,4 -4,-681.8541 546.6532,-681.8541 546.6532,4 -4,4"/>
<!-- O -->
<g id="node1" class="node">
<title>O</title>
<ellipse fill="none" stroke="#000000" cx="84.345" cy="-62.2536" rx="18" ry="18"/>
<text text-anchor="middle" x="84.345" y="-58.0536" font-family="Times,serif" font-size="14.00" fill="#000000">O</text>
</g>
<!-- A -->
<g id="node2" class="node">
<title>A</title>
<ellipse fill="none" stroke="#000000" cx="314.4761" cy="-62.2536" rx="30.4575" ry="30.4575"/>
<ellipse fill="none" stroke="#000000" cx="314.4761" cy="-62.2536" rx="34.486" ry="34.486"/>
<text text-anchor="middle" x="314.4761" y="-58.0536" font-family="Times,serif" font-size="14.00" fill="#000000">NEW</text>
</g>
<!-- O&#45;&gt;A -->
<g id="edge1" class="edge">
<title>O&#45;&gt;A</title>
<path fill="none" stroke="#000000" d="M102.403,-62.2536C138.189,-62.2536 219.0402,-62.2536 269.9325,-62.2536"/>
<polygon fill="#000000" stroke="#000000" points="269.9998,-65.7537 279.9998,-62.2536 269.9998,-58.7537 269.9998,-65.7537"/>
<text text-anchor="middle" x="224.462" y="-65.0536" font-family="Times,serif" font-size="14.00" fill="#000000">new Thread()</text>
</g>
<!-- B -->
<g id="node3" class="node">
<title>B</title>
<ellipse fill="none" stroke="#000000" cx="480.3996" cy="-62.2536" rx="58.024" ry="58.024"/>
<ellipse fill="none" stroke="#000000" cx="480.3996" cy="-62.2536" rx="62.0082" ry="62.0082"/>
<text text-anchor="middle" x="480.3996" y="-58.0536" font-family="Times,serif" font-size="14.00" fill="#000000">RUNNABLE</text>
</g>
<!-- A&#45;&gt;B -->
<g id="edge2" class="edge">
<title>A&#45;&gt;B</title>
<path fill="none" stroke="#000000" d="M348.8555,-62.2536C365.9081,-62.2536 387.1889,-62.2536 407.6313,-62.2536"/>
<polygon fill="#000000" stroke="#000000" points="407.8964,-65.7537 417.8964,-62.2536 407.8963,-58.7537 407.8964,-65.7537"/>
<text text-anchor="middle" x="383.4321" y="-65.0536" font-family="Times,serif" font-size="14.00" fill="#000000">start()</text>
</g>
<!-- C -->
<g id="node4" class="node">
<title>C</title>
<ellipse fill="none" stroke="#000000" cx="84.345" cy="-154.2536" rx="51.7441" ry="51.7441"/>
<ellipse fill="none" stroke="#000000" cx="84.345" cy="-154.2536" rx="55.7346" ry="55.7346"/>
<text text-anchor="middle" x="84.345" y="-150.0536" font-family="Times,serif" font-size="14.00" fill="#000000">BLOCKED</text>
</g>
<!-- D -->
<g id="node5" class="node">
<title>D</title>
<ellipse fill="none" stroke="#000000" cx="84.345" cy="-280.2536" rx="47.8554" ry="47.8554"/>
<ellipse fill="none" stroke="#000000" cx="84.345" cy="-280.2536" rx="51.8496" ry="51.8496"/>
<text text-anchor="middle" x="84.345" y="-276.0536" font-family="Times,serif" font-size="14.00" fill="#000000">WAITING</text>
</g>
<!-- E -->
<g id="node6" class="node">
<title>E</title>
<ellipse fill="none" stroke="#000000" cx="84.345" cy="-434.2536" rx="80.1976" ry="80.1976"/>
<ellipse fill="none" stroke="#000000" cx="84.345" cy="-434.2536" rx="84.1903" ry="84.1903"/>
<text text-anchor="middle" x="84.345" y="-430.0536" font-family="Times,serif" font-size="14.00" fill="#000000">TIMED_WAITING</text>
</g>
<!-- F -->
<g id="node7" class="node">
<title>F</title>
<ellipse fill="none" stroke="#000000" cx="84.345" cy="-607.2536" rx="66.6955" ry="66.6955"/>
<ellipse fill="none" stroke="#000000" cx="84.345" cy="-607.2536" rx="70.7012" ry="70.7012"/>
<text text-anchor="middle" x="84.345" y="-603.0536" font-family="Times,serif" font-size="14.00" fill="#000000">TERMINATED</text>
</g>
</g>
</svg>
