<?xml version="1.0" encoding="UTF-8" standalone="no"?>
<!DOCTYPE svg PUBLIC "-//W3C//DTD SVG 1.1//EN"
 "http://www.w3.org/Graphics/SVG/1.1/DTD/svg11.dtd">
<!-- Generated by graphviz version 2.40.1 (20161225.0304)
 -->
<!-- Title: atomic1 Pages: 1 -->
<svg width="773pt" height="294pt"
 viewBox="0.00 0.00 772.91 293.66" xmlns="http://www.w3.org/2000/svg" xmlns:xlink="http://www.w3.org/1999/xlink">
<g id="graph0" class="graph" transform="scale(1 1) rotate(0) translate(4 289.6643)">
<title>atomic1</title>
<polygon fill="#ffffff" stroke="transparent" points="-4,4 -4,-289.6643 768.9117,-289.6643 768.9117,4 -4,4"/>
<!-- t1 -->
<g id="node1" class="node">
<title>t1</title>
<ellipse fill="none" stroke="#000000" cx="50.9117" cy="-190.1482" rx="50.8235" ry="19.5322"/>
<text text-anchor="middle" x="50.9117" y="-188.7481" font-family="Times,serif" font-size="14.00" fill="#000000">医疗诊断</text>
</g>
<!-- t2 -->
<g id="node2" class="node">
<title>t2</title>
<ellipse fill="none" stroke="#000000" cx="187.9117" cy="-190.1482" rx="50.8235" ry="19.5322"/>
<text text-anchor="middle" x="187.9117" y="-188.7481" font-family="Times,serif" font-size="14.00" fill="#000000">症状信息</text>
</g>
<!-- t1&#45;&gt;t2 -->
<g id="edge1" class="edge">
<title>t1&#45;&gt;t2</title>
<path fill="none" stroke="#000000" d="M102.0191,-190.1482C110.2882,-190.1482 118.5573,-190.1482 126.8265,-190.1482"/>
<polygon fill="#000000" stroke="#000000" points="126.913,-193.6483 136.913,-190.1482 126.9129,-186.6483 126.913,-193.6483"/>
</g>
<!-- t3 -->
<g id="node3" class="node">
<title>t3</title>
<ellipse fill="none" stroke="#000000" cx="334.9117" cy="-190.1482" rx="60.623" ry="19.5322"/>
<text text-anchor="middle" x="334.9117" y="-188.7481" font-family="Times,serif" font-size="14.00" fill="#000000">病人等价类</text>
</g>
<!-- t2&#45;&gt;t3 -->
<g id="edge2" class="edge">
<title>t2&#45;&gt;t3</title>
<path fill="none" stroke="#000000" d="M239.0172,-190.1482C247.2727,-190.1482 255.5283,-190.1482 263.7839,-190.1482"/>
<polygon fill="#000000" stroke="#000000" points="263.8539,-193.6483 273.8538,-190.1482 263.8538,-186.6483 263.8539,-193.6483"/>
</g>
<!-- r -->
<g id="node5" class="node">
<title>r</title>
<polygon fill="none" stroke="#000000" points="317.9117,-82.5322 317.9117,-107.5322 393.9117,-107.5322 393.9117,-82.5322 317.9117,-82.5322"/>
<text text-anchor="start" x="320.9117" y="-93.3322" font-family="Times,serif" font-size="14.00" fill="#000000">决策粗糙集</text>
<polygon fill="none" stroke="#000000" points="395.9117,-82.5322 395.9117,-107.5322 485.9117,-107.5322 485.9117,-82.5322 395.9117,-82.5322"/>
<text text-anchor="start" x="398.9117" y="-93.3322" font-family="Times,serif" font-size="14.00" fill="#000000">三支决策规则</text>
<polygon fill="none" stroke="#000000" points="314.9117,-80.0322 314.9117,-111.0322 488.9117,-111.0322 488.9117,-80.0322 314.9117,-80.0322"/>
</g>
<!-- t3&#45;&gt;r -->
<g id="edge3" class="edge">
<title>t3&#45;&gt;r</title>
<path fill="none" stroke="#000000" d="M348.4701,-171.0012C358.0594,-157.4595 371.0761,-139.0776 381.8621,-123.8458"/>
<polygon fill="#000000" stroke="#000000" points="384.9895,-125.4857 387.9122,-115.302 379.2767,-121.4404 384.9895,-125.4857"/>
</g>
<!-- c1 -->
<g id="node4" class="node">
<title>c1</title>
<polygon fill="none" stroke="#000000" points="583.9117,-208.1482 413.9117,-208.1482 413.9117,-172.1482 583.9117,-172.1482 583.9117,-208.1482"/>
<text text-anchor="middle" x="498.9117" y="-188.7481" font-family="Times,serif" font-size="14.00" fill="#000000">是否有决策成本损失信息</text>
</g>
<!-- c1&#45;&gt;r -->
<g id="edge4" class="edge">
<title>c1&#45;&gt;r</title>
<path fill="none" stroke="#000000" d="M480.2091,-171.9053C465.9212,-157.9685 446.0002,-138.5371 429.8281,-122.7624"/>
<polygon fill="#000000" stroke="#000000" points="431.8337,-119.8295 422.2313,-115.3524 426.9459,-124.8404 431.8337,-119.8295"/>
<text text-anchor="middle" x="466.9117" y="-141.4321" font-family="Times,serif" font-size="14.00" fill="#000000">是</text>
</g>
<!-- r3 -->
<g id="node7" class="node">
<title>r3</title>
<ellipse fill="none" stroke="#000000" cx="271.9117" cy="-19.5161" rx="41.0244" ry="19.5322"/>
<text text-anchor="middle" x="271.9117" y="-18.116" font-family="Times,serif" font-size="14.00" fill="#000000">病患类</text>
</g>
<!-- r&#45;&gt;r3 -->
<g id="edge5" class="edge">
<title>r&#45;&gt;r3</title>
<path fill="none" stroke="#000000" d="M368.4335,-75.9561C349.4695,-64.8672 325.7822,-51.0163 306.6194,-39.811"/>
<polygon fill="#000000" stroke="#000000" points="308.2913,-36.7343 297.8921,-34.7078 304.7579,-42.777 308.2913,-36.7343"/>
</g>
<!-- r4 -->
<g id="node8" class="node">
<title>r4</title>
<ellipse fill="none" stroke="#000000" cx="401.9117" cy="-19.5161" rx="70.922" ry="19.5322"/>
<text text-anchor="middle" x="401.9117" y="-18.116" font-family="Times,serif" font-size="14.00" fill="#000000">进一步观察类</text>
</g>
<!-- r&#45;&gt;r4 -->
<g id="edge6" class="edge">
<title>r&#45;&gt;r4</title>
<path fill="none" stroke="#000000" d="M401.9117,-75.9561C401.9117,-67.8619 401.9117,-58.2962 401.9117,-49.3619"/>
<polygon fill="#000000" stroke="#000000" points="405.4118,-49.2899 401.9117,-39.29 398.4118,-49.29 405.4118,-49.2899"/>
</g>
<!-- r5 -->
<g id="node9" class="node">
<title>r5</title>
<ellipse fill="none" stroke="#000000" cx="531.9117" cy="-19.5161" rx="41.0244" ry="19.5322"/>
<text text-anchor="middle" x="531.9117" y="-18.116" font-family="Times,serif" font-size="14.00" fill="#000000">患病类</text>
</g>
<!-- r&#45;&gt;r5 -->
<g id="edge7" class="edge">
<title>r&#45;&gt;r5</title>
<path fill="none" stroke="#000000" d="M435.3899,-75.9561C454.3539,-64.8672 478.0412,-51.0163 497.204,-39.811"/>
<polygon fill="#000000" stroke="#000000" points="499.0655,-42.777 505.9313,-34.7078 495.5321,-36.7343 499.0655,-42.777"/>
</g>
<!-- l -->
<g id="node6" class="node">
<title>l</title>
<polygon fill="none" stroke="#000000" points="486.9117,-253.1643 486.9117,-278.1643 604.9117,-278.1643 604.9117,-253.1643 486.9117,-253.1643"/>
<text text-anchor="start" x="489.9117" y="-263.9643" font-family="Times,serif" font-size="14.00" fill="#000000">临床数据管理系统</text>
<polygon fill="none" stroke="#000000" points="606.9117,-253.1643 606.9117,-278.1643 668.9117,-278.1643 668.9117,-253.1643 606.9117,-253.1643"/>
<text text-anchor="start" x="609.9117" y="-263.9643" font-family="Times,serif" font-size="14.00" fill="#000000">知识管理</text>
<polygon fill="none" stroke="#000000" points="483.9117,-250.6643 483.9117,-281.6643 671.9117,-281.6643 671.9117,-250.6643 483.9117,-250.6643"/>
</g>
<!-- l&#45;&gt;c1 -->
<g id="edge8" class="edge">
<title>l&#45;&gt;c1</title>
<path fill="none" stroke="#000000" d="M557.5672,-246.5882C547.7081,-237.1015 535.7481,-225.5932 525.2062,-215.4495"/>
<polygon fill="#000000" stroke="#000000" points="527.4637,-212.7645 517.831,-208.3529 522.6101,-217.8087 527.4637,-212.7645"/>
</g>
<!-- l3 -->
<g id="node10" class="node">
<title>l3</title>
<polygon fill="none" stroke="#000000" points="715.9117,-208.1482 601.9117,-208.1482 601.9117,-172.1482 715.9117,-172.1482 715.9117,-208.1482"/>
<text text-anchor="middle" x="658.9117" y="-188.7481" font-family="Times,serif" font-size="14.00" fill="#000000">病人历史数据库</text>
</g>
<!-- l&#45;&gt;l3 -->
<g id="edge9" class="edge">
<title>l&#45;&gt;l3</title>
<path fill="none" stroke="#000000" d="M598.7712,-246.5882C608.88,-237.1015 621.1427,-225.5932 631.9515,-215.4495"/>
<polygon fill="#000000" stroke="#000000" points="634.6166,-217.7483 639.5134,-208.3529 629.8264,-212.644 634.6166,-217.7483"/>
</g>
<!-- l4 -->
<g id="node11" class="node">
<title>l4</title>
<polygon fill="none" stroke="#000000" points="736.9117,-113.5322 580.9117,-113.5322 580.9117,-77.5322 736.9117,-77.5322 736.9117,-113.5322"/>
<text text-anchor="middle" x="658.9117" y="-94.1321" font-family="Times,serif" font-size="14.00" fill="#000000">集成机器学习分类预测</text>
</g>
<!-- l3&#45;&gt;l4 -->
<g id="edge10" class="edge">
<title>l3&#45;&gt;l4</title>
<path fill="none" stroke="#000000" d="M658.9117,-171.9053C658.9117,-158.2924 658.9117,-139.4372 658.9117,-123.868"/>
<polygon fill="#000000" stroke="#000000" points="662.4118,-123.7191 658.9117,-113.7191 655.4118,-123.7191 662.4118,-123.7191"/>
</g>
<!-- l5 -->
<g id="node12" class="node">
<title>l5</title>
<polygon fill="none" stroke="#000000" points="674.9117,-37.5161 616.9117,-37.5161 616.9117,-1.5161 674.9117,-1.5161 674.9117,-37.5161"/>
<text text-anchor="middle" x="645.9117" y="-18.116" font-family="Times,serif" font-size="14.00" fill="#000000">患病类</text>
</g>
<!-- l4&#45;&gt;l5 -->
<g id="edge11" class="edge">
<title>l4&#45;&gt;l5</title>
<path fill="none" stroke="#000000" d="M655.8309,-77.5174C654.304,-68.5891 652.4252,-57.6031 650.7149,-47.6024"/>
<polygon fill="#000000" stroke="#000000" points="654.1511,-46.9318 649.0154,-37.665 647.2513,-48.1119 654.1511,-46.9318"/>
</g>
<!-- l6 -->
<g id="node13" class="node">
<title>l6</title>
<polygon fill="none" stroke="#000000" points="764.9117,-37.5161 692.9117,-37.5161 692.9117,-1.5161 764.9117,-1.5161 764.9117,-37.5161"/>
<text text-anchor="middle" x="728.9117" y="-18.116" font-family="Times,serif" font-size="14.00" fill="#000000">未患病类</text>
</g>
<!-- l4&#45;&gt;l6 -->
<g id="edge12" class="edge">
<title>l4&#45;&gt;l6</title>
<path fill="none" stroke="#000000" d="M675.5007,-77.5174C684.4148,-67.8372 695.5563,-55.7382 705.3537,-45.0987"/>
<polygon fill="#000000" stroke="#000000" points="707.9998,-47.3921 712.1992,-37.665 702.8505,-42.6502 707.9998,-47.3921"/>
</g>
</g>
</svg>
