<?xml version="1.0" encoding="UTF-8" standalone="no"?>
<!DOCTYPE svg PUBLIC "-//W3C//DTD SVG 1.1//EN"
 "http://www.w3.org/Graphics/SVG/1.1/DTD/svg11.dtd">
<!-- Generated by graphviz version 2.40.1 (20161225.0304)
 -->
<!-- Title: atomic1 Pages: 1 -->
<svg width="542pt" height="370pt"
 viewBox="0.00 0.00 542.01 369.73" xmlns="http://www.w3.org/2000/svg" xmlns:xlink="http://www.w3.org/1999/xlink">
<g id="graph0" class="graph" transform="scale(1 1) rotate(0) translate(4 365.7286)">
<title>atomic1</title>
<polygon fill="#ffffff" stroke="transparent" points="-4,4 -4,-365.7286 538.0122,-365.7286 538.0122,4 -4,4"/>
<!-- t1 -->
<g id="node1" class="node">
<title>t1</title>
<ellipse fill="none" stroke="#000000" cx="104.0122" cy="-342.2125" rx="50.8235" ry="19.5322"/>
<text text-anchor="middle" x="104.0122" y="-340.8125" font-family="Times,serif" font-size="14.00" fill="#000000">医疗诊断</text>
</g>
<!-- t2 -->
<g id="node2" class="node">
<title>t2</title>
<ellipse fill="none" stroke="#000000" cx="104.0122" cy="-266.1803" rx="50.8235" ry="19.5322"/>
<text text-anchor="middle" x="104.0122" y="-264.7803" font-family="Times,serif" font-size="14.00" fill="#000000">症状信息</text>
</g>
<!-- t1&#45;&gt;t2 -->
<g id="edge1" class="edge">
<title>t1&#45;&gt;t2</title>
<path fill="none" stroke="#000000" d="M104.0122,-322.6323C104.0122,-314.5364 104.0122,-304.9686 104.0122,-296.0325"/>
<polygon fill="#000000" stroke="#000000" points="107.5123,-295.9584 104.0122,-285.9584 100.5123,-295.9585 107.5123,-295.9584"/>
</g>
<!-- t3 -->
<g id="node3" class="node">
<title>t3</title>
<ellipse fill="none" stroke="#000000" cx="104.0122" cy="-190.1482" rx="60.623" ry="19.5322"/>
<text text-anchor="middle" x="104.0122" y="-188.7481" font-family="Times,serif" font-size="14.00" fill="#000000">病人等价类</text>
</g>
<!-- t2&#45;&gt;t3 -->
<g id="edge2" class="edge">
<title>t2&#45;&gt;t3</title>
<path fill="none" stroke="#000000" d="M104.0122,-246.6002C104.0122,-238.5042 104.0122,-228.9365 104.0122,-220.0003"/>
<polygon fill="#000000" stroke="#000000" points="107.5123,-219.9262 104.0122,-209.9263 100.5123,-219.9263 107.5123,-219.9262"/>
</g>
<!-- r -->
<g id="node5" class="node">
<title>r</title>
<polygon fill="none" stroke="#000000" points="87.0122,-82.5322 87.0122,-107.5322 163.0122,-107.5322 163.0122,-82.5322 87.0122,-82.5322"/>
<text text-anchor="start" x="90.0122" y="-93.3322" font-family="Times,serif" font-size="14.00" fill="#000000">决策粗糙集</text>
<polygon fill="none" stroke="#000000" points="165.0122,-82.5322 165.0122,-107.5322 255.0122,-107.5322 255.0122,-82.5322 165.0122,-82.5322"/>
<text text-anchor="start" x="168.0122" y="-93.3322" font-family="Times,serif" font-size="14.00" fill="#000000">三支决策规则</text>
<polygon fill="none" stroke="#000000" points="84.0122,-80.0322 84.0122,-111.0322 258.0122,-111.0322 258.0122,-80.0322 84.0122,-80.0322"/>
</g>
<!-- t3&#45;&gt;r -->
<g id="edge3" class="edge">
<title>t3&#45;&gt;r</title>
<path fill="none" stroke="#000000" d="M117.5706,-171.0012C127.1599,-157.4595 140.1766,-139.0776 150.9626,-123.8458"/>
<polygon fill="#000000" stroke="#000000" points="154.09,-125.4857 157.0127,-115.302 148.3772,-121.4404 154.09,-125.4857"/>
</g>
<!-- c1 -->
<g id="node4" class="node">
<title>c1</title>
<polygon fill="none" stroke="#000000" points="353.0122,-208.1482 183.0122,-208.1482 183.0122,-172.1482 353.0122,-172.1482 353.0122,-208.1482"/>
<text text-anchor="middle" x="268.0122" y="-188.7481" font-family="Times,serif" font-size="14.00" fill="#000000">是否有决策成本损失信息</text>
</g>
<!-- c1&#45;&gt;r -->
<g id="edge4" class="edge">
<title>c1&#45;&gt;r</title>
<path fill="none" stroke="#000000" d="M249.3096,-171.9053C235.0217,-157.9685 215.1007,-138.5371 198.9286,-122.7624"/>
<polygon fill="#000000" stroke="#000000" points="200.9342,-119.8295 191.3318,-115.3524 196.0464,-124.8404 200.9342,-119.8295"/>
<text text-anchor="middle" x="236.0122" y="-141.4321" font-family="Times,serif" font-size="14.00" fill="#000000">是</text>
</g>
<!-- r3 -->
<g id="node7" class="node">
<title>r3</title>
<ellipse fill="none" stroke="#000000" cx="41.0122" cy="-19.5161" rx="41.0244" ry="19.5322"/>
<text text-anchor="middle" x="41.0122" y="-18.116" font-family="Times,serif" font-size="14.00" fill="#000000">病患类</text>
</g>
<!-- r&#45;&gt;r3 -->
<g id="edge5" class="edge">
<title>r&#45;&gt;r3</title>
<path fill="none" stroke="#000000" d="M137.534,-75.9561C118.57,-64.8672 94.8827,-51.0163 75.7199,-39.811"/>
<polygon fill="#000000" stroke="#000000" points="77.3918,-36.7343 66.9926,-34.7078 73.8584,-42.777 77.3918,-36.7343"/>
</g>
<!-- r4 -->
<g id="node8" class="node">
<title>r4</title>
<ellipse fill="none" stroke="#000000" cx="171.0122" cy="-19.5161" rx="70.922" ry="19.5322"/>
<text text-anchor="middle" x="171.0122" y="-18.116" font-family="Times,serif" font-size="14.00" fill="#000000">进一步观察类</text>
</g>
<!-- r&#45;&gt;r4 -->
<g id="edge6" class="edge">
<title>r&#45;&gt;r4</title>
<path fill="none" stroke="#000000" d="M171.0122,-75.9561C171.0122,-67.8619 171.0122,-58.2962 171.0122,-49.3619"/>
<polygon fill="#000000" stroke="#000000" points="174.5123,-49.2899 171.0122,-39.29 167.5123,-49.29 174.5123,-49.2899"/>
</g>
<!-- r5 -->
<g id="node9" class="node">
<title>r5</title>
<ellipse fill="none" stroke="#000000" cx="301.0122" cy="-19.5161" rx="41.0244" ry="19.5322"/>
<text text-anchor="middle" x="301.0122" y="-18.116" font-family="Times,serif" font-size="14.00" fill="#000000">患病类</text>
</g>
<!-- r&#45;&gt;r5 -->
<g id="edge7" class="edge">
<title>r&#45;&gt;r5</title>
<path fill="none" stroke="#000000" d="M204.4904,-75.9561C223.4544,-64.8672 247.1417,-51.0163 266.3045,-39.811"/>
<polygon fill="#000000" stroke="#000000" points="268.166,-42.777 275.0318,-34.7078 264.6326,-36.7343 268.166,-42.777"/>
</g>
<!-- l -->
<g id="node6" class="node">
<title>l</title>
<polygon fill="none" stroke="#000000" points="257.0122,-253.1803 257.0122,-278.1803 375.0122,-278.1803 375.0122,-253.1803 257.0122,-253.1803"/>
<text text-anchor="start" x="260.0122" y="-263.9803" font-family="Times,serif" font-size="14.00" fill="#000000">临床数据管理系统</text>
<polygon fill="none" stroke="#000000" points="377.0122,-253.1803 377.0122,-278.1803 439.0122,-278.1803 439.0122,-253.1803 377.0122,-253.1803"/>
<text text-anchor="start" x="380.0122" y="-263.9803" font-family="Times,serif" font-size="14.00" fill="#000000">知识管理</text>
<polygon fill="none" stroke="#000000" points="254.0122,-250.6803 254.0122,-281.6803 442.0122,-281.6803 442.0122,-250.6803 254.0122,-250.6803"/>
</g>
<!-- l&#45;&gt;c1 -->
<g id="edge8" class="edge">
<title>l&#45;&gt;c1</title>
<path fill="none" stroke="#000000" d="M327.4102,-246.6002C317.4262,-237.1114 305.3149,-225.6007 294.6396,-215.4549"/>
<polygon fill="#000000" stroke="#000000" points="296.8307,-212.7088 287.171,-208.3568 292.0084,-217.7828 296.8307,-212.7088"/>
</g>
<!-- l3 -->
<g id="node10" class="node">
<title>l3</title>
<polygon fill="none" stroke="#000000" points="485.0122,-208.1482 371.0122,-208.1482 371.0122,-172.1482 485.0122,-172.1482 485.0122,-208.1482"/>
<text text-anchor="middle" x="428.0122" y="-188.7481" font-family="Times,serif" font-size="14.00" fill="#000000">病人历史数据库</text>
</g>
<!-- l&#45;&gt;l3 -->
<g id="edge9" class="edge">
<title>l&#45;&gt;l3</title>
<path fill="none" stroke="#000000" d="M368.6142,-246.6002C378.5982,-237.1114 390.7095,-225.6007 401.3848,-215.4549"/>
<polygon fill="#000000" stroke="#000000" points="404.016,-217.7828 408.8534,-208.3568 399.1936,-212.7088 404.016,-217.7828"/>
</g>
<!-- l4 -->
<g id="node11" class="node">
<title>l4</title>
<polygon fill="none" stroke="#000000" points="506.0122,-113.5322 350.0122,-113.5322 350.0122,-77.5322 506.0122,-77.5322 506.0122,-113.5322"/>
<text text-anchor="middle" x="428.0122" y="-94.1321" font-family="Times,serif" font-size="14.00" fill="#000000">集成机器学习分类预测</text>
</g>
<!-- l3&#45;&gt;l4 -->
<g id="edge10" class="edge">
<title>l3&#45;&gt;l4</title>
<path fill="none" stroke="#000000" d="M428.0122,-171.9053C428.0122,-158.2924 428.0122,-139.4372 428.0122,-123.868"/>
<polygon fill="#000000" stroke="#000000" points="431.5123,-123.7191 428.0122,-113.7191 424.5123,-123.7191 431.5123,-123.7191"/>
</g>
<!-- l5 -->
<g id="node12" class="node">
<title>l5</title>
<polygon fill="none" stroke="#000000" points="444.0122,-37.5161 386.0122,-37.5161 386.0122,-1.5161 444.0122,-1.5161 444.0122,-37.5161"/>
<text text-anchor="middle" x="415.0122" y="-18.116" font-family="Times,serif" font-size="14.00" fill="#000000">患病类</text>
</g>
<!-- l4&#45;&gt;l5 -->
<g id="edge11" class="edge">
<title>l4&#45;&gt;l5</title>
<path fill="none" stroke="#000000" d="M424.9314,-77.5174C423.4045,-68.5891 421.5257,-57.6031 419.8154,-47.6024"/>
<polygon fill="#000000" stroke="#000000" points="423.2516,-46.9318 418.1159,-37.665 416.3518,-48.1119 423.2516,-46.9318"/>
</g>
<!-- l6 -->
<g id="node13" class="node">
<title>l6</title>
<polygon fill="none" stroke="#000000" points="534.0122,-37.5161 462.0122,-37.5161 462.0122,-1.5161 534.0122,-1.5161 534.0122,-37.5161"/>
<text text-anchor="middle" x="498.0122" y="-18.116" font-family="Times,serif" font-size="14.00" fill="#000000">未患病类</text>
</g>
<!-- l4&#45;&gt;l6 -->
<g id="edge12" class="edge">
<title>l4&#45;&gt;l6</title>
<path fill="none" stroke="#000000" d="M444.6012,-77.5174C453.5153,-67.8372 464.6568,-55.7382 474.4542,-45.0987"/>
<polygon fill="#000000" stroke="#000000" points="477.1003,-47.3921 481.2997,-37.665 471.951,-42.6502 477.1003,-47.3921"/>
</g>
</g>
</svg>
