<?xml version="1.0" encoding="UTF-8" standalone="no"?>
<!DOCTYPE svg PUBLIC "-//W3C//DTD SVG 1.1//EN"
 "http://www.w3.org/Graphics/SVG/1.1/DTD/svg11.dtd">
<!-- Generated by graphviz version 2.40.1 (20161225.0304)
 -->
<!-- Title: thread1 Pages: 1 -->
<svg width="576pt" height="251pt"
 viewBox="0.00 0.00 576.00 251.43" xmlns="http://www.w3.org/2000/svg" xmlns:xlink="http://www.w3.org/1999/xlink">
<g id="graph0" class="graph" transform="scale(.5872 .5872) rotate(0) translate(4 424.2122)">
<title>thread1</title>
<polygon fill="#ffffff" stroke="transparent" points="-4,4 -4,-424.2122 977.0026,-424.2122 977.0026,4 -4,4"/>
<!-- O -->
<g id="node1" class="node">
<title>O</title>
<ellipse fill="none" stroke="#000000" cx="70.6005" cy="-222.345" rx="18" ry="18"/>
<text text-anchor="middle" x="70.6005" y="-218.145" font-family="Times,serif" font-size="14.00" fill="#000000">O</text>
</g>
<!-- A -->
<g id="node2" class="node">
<title>A</title>
<ellipse fill="none" stroke="#000000" cx="286.9871" cy="-222.345" rx="30.4575" ry="30.4575"/>
<ellipse fill="none" stroke="#000000" cx="286.9871" cy="-222.345" rx="34.486" ry="34.486"/>
<text text-anchor="middle" x="286.9871" y="-218.145" font-family="Times,serif" font-size="14.00" fill="#000000">NEW</text>
</g>
<!-- O&#45;&gt;A -->
<g id="edge1" class="edge">
<title>O&#45;&gt;A</title>
<path fill="none" stroke="#000000" d="M88.6773,-222.345C122.2714,-222.345 195.2125,-222.345 242.6496,-222.345"/>
<polygon fill="#000000" stroke="#000000" points="242.6543,-225.8451 252.6542,-222.345 242.6542,-218.8451 242.6543,-225.8451"/>
<text text-anchor="middle" x="196.973" y="-225.145" font-family="Times,serif" font-size="14.00" fill="#000000">new Thread()</text>
</g>
<!-- B -->
<g id="node3" class="node">
<title>B</title>
<ellipse fill="none" stroke="#000000" cx="452.9105" cy="-222.345" rx="58.024" ry="58.024"/>
<ellipse fill="none" stroke="#000000" cx="452.9105" cy="-222.345" rx="62.0082" ry="62.0082"/>
<text text-anchor="middle" x="452.9105" y="-218.145" font-family="Times,serif" font-size="14.00" fill="#000000">RUNNABLE</text>
</g>
<!-- A&#45;&gt;B -->
<g id="edge2" class="edge">
<title>A&#45;&gt;B</title>
<path fill="none" stroke="#000000" d="M321.3665,-222.345C338.4191,-222.345 359.6999,-222.345 380.1423,-222.345"/>
<polygon fill="#000000" stroke="#000000" points="380.4074,-225.8451 390.4073,-222.345 380.4073,-218.8451 380.4074,-225.8451"/>
<text text-anchor="middle" x="355.943" y="-225.145" font-family="Times,serif" font-size="14.00" fill="#000000">start()</text>
</g>
<!-- C -->
<g id="node4" class="node">
<title>C</title>
<ellipse fill="none" stroke="#000000" cx="888.6576" cy="-364.345" rx="51.7441" ry="51.7441"/>
<ellipse fill="none" stroke="#000000" cx="888.6576" cy="-364.345" rx="55.7346" ry="55.7346"/>
<text text-anchor="middle" x="888.6576" y="-360.145" font-family="Times,serif" font-size="14.00" fill="#000000">BLOCKED</text>
</g>
<!-- B&#45;&gt;C -->
<g id="edge3" class="edge">
<title>B&#45;&gt;C</title>
<path fill="none" stroke="#000000" d="M483.176,-277.0863C496.1321,-295.4351 512.9737,-314.0757 533.1642,-325.345 623.7779,-375.9213 747.6033,-377.0807 822.6486,-371.7917"/>
<polygon fill="#000000" stroke="#000000" points="823.2016,-375.2597 832.9055,-371.007 822.6676,-368.2801 823.2016,-375.2597"/>
<text text-anchor="middle" x="659.7384" y="-376.145" font-family="Times,serif" font-size="14.00" fill="#000000">enter/reenter synchronized</text>
</g>
<!-- D -->
<g id="node5" class="node">
<title>D</title>
<ellipse fill="none" stroke="#000000" cx="888.6576" cy="-238.345" rx="47.8554" ry="47.8554"/>
<ellipse fill="none" stroke="#000000" cx="888.6576" cy="-238.345" rx="51.8496" ry="51.8496"/>
<text text-anchor="middle" x="888.6576" y="-234.145" font-family="Times,serif" font-size="14.00" fill="#000000">WAITING</text>
</g>
<!-- B&#45;&gt;D -->
<g id="edge5" class="edge">
<title>B&#45;&gt;D</title>
<path fill="none" stroke="#000000" d="M515.3425,-224.6374C598.2499,-227.6817 743.8169,-233.0267 826.557,-236.0648"/>
<polygon fill="#000000" stroke="#000000" points="826.4513,-239.5632 836.573,-236.4325 826.7082,-232.5679 826.4513,-239.5632"/>
<text text-anchor="middle" x="659.7384" y="-237.145" font-family="Times,serif" font-size="14.00" fill="#000000">park wait join</text>
</g>
<!-- E -->
<g id="node6" class="node">
<title>E</title>
<ellipse fill="none" stroke="#000000" cx="888.6576" cy="-84.345" rx="80.1976" ry="80.1976"/>
<ellipse fill="none" stroke="#000000" cx="888.6576" cy="-84.345" rx="84.1903" ry="84.1903"/>
<text text-anchor="middle" x="888.6576" y="-80.145" font-family="Times,serif" font-size="14.00" fill="#000000">TIMED_WAITING</text>
</g>
<!-- B&#45;&gt;E -->
<g id="edge7" class="edge">
<title>B&#45;&gt;E</title>
<path fill="none" stroke="#000000" d="M503.5422,-185.4035C513.0433,-179.6875 523.1473,-174.3593 533.1642,-170.345 639.461,-127.7458 675.9908,-153.05 786.3126,-122.345 790.9202,-121.0626 795.614,-119.6638 800.332,-118.184"/>
<polygon fill="#000000" stroke="#000000" points="801.5949,-121.454 810.0307,-115.0441 799.4388,-114.7943 801.5949,-121.454"/>
<text text-anchor="middle" x="659.7384" y="-173.145" font-family="Times,serif" font-size="14.00" fill="#000000">parkNanos parkUntil wait sleep join</text>
</g>
<!-- C&#45;&gt;B -->
<g id="edge4" class="edge">
<title>C&#45;&gt;B</title>
<path fill="none" stroke="#000000" d="M841.3895,-334.2028C824.525,-324.4913 805.054,-314.4218 786.3126,-307.345 678.6004,-266.673 643.628,-284.8084 533.1642,-252.345 529.0701,-251.1419 524.8859,-249.8316 520.6831,-248.4534"/>
<polygon fill="#000000" stroke="#000000" points="521.4706,-245.025 510.8764,-245.1327 519.2255,-251.6551 521.4706,-245.025"/>
<text text-anchor="middle" x="659.7384" y="-310.145" font-family="Times,serif" font-size="14.00" fill="#000000">exit synchronized</text>
</g>
<!-- D&#45;&gt;B -->
<g id="edge6" class="edge">
<title>D&#45;&gt;B</title>
<path fill="none" stroke="#000000" d="M840.9039,-217.4373C823.9988,-211.0717 804.6264,-204.9212 786.3126,-201.7451 675.457,-182.5196 644.7879,-187.6475 533.1642,-201.7451 529.8818,-202.1596 526.5414,-202.666 523.1799,-203.2443"/>
<polygon fill="#000000" stroke="#000000" points="522.2351,-199.8614 513.0692,-205.1752 523.5483,-206.7371 522.2351,-199.8614"/>
<text text-anchor="middle" x="659.7384" y="-209.7449" font-family="Times,serif" font-size="14.00" fill="#000000">unpark notify notifyAll 线程结束</text>
</g>
<!-- E&#45;&gt;B -->
<g id="edge8" class="edge">
<title>E&#45;&gt;B</title>
<path fill="none" stroke="#000000" d="M805.9007,-67.2833C729.8592,-56.111 616.6274,-51.2119 533.1642,-98.7451 510.6931,-111.5426 493.4559,-133.5019 480.8226,-155.3935"/>
<polygon fill="#000000" stroke="#000000" points="477.6137,-153.9651 475.8613,-164.414 483.7473,-157.3385 477.6137,-153.9651"/>
<text text-anchor="middle" x="659.7384" y="-107.7449" font-family="Times,serif" font-size="14.00" fill="#000000">unpark notify notifyAll 线程结束, 时间超时</text>
</g>
<!-- F -->
<g id="node7" class="node">
<title>F</title>
<ellipse fill="none" stroke="#000000" cx="70.6005" cy="-329.345" rx="66.6955" ry="66.6955"/>
<ellipse fill="none" stroke="#000000" cx="70.6005" cy="-329.345" rx="70.7012" ry="70.7012"/>
<text text-anchor="middle" x="70.6005" y="-325.145" font-family="Times,serif" font-size="14.00" fill="#000000">TERMINATED</text>
</g>
</g>
</svg>
