<?xml version="1.0" encoding="UTF-8" standalone="no"?>
<!DOCTYPE svg PUBLIC "-//W3C//DTD SVG 1.1//EN"
 "http://www.w3.org/Graphics/SVG/1.1/DTD/svg11.dtd">
<!-- Generated by graphviz version 2.40.1 (20161225.0304)
 -->
<!-- Title: atomic1 Pages: 1 -->
<svg width="371pt" height="203pt"
 viewBox="0.00 0.00 371.04 203.00" xmlns="http://www.w3.org/2000/svg" xmlns:xlink="http://www.w3.org/1999/xlink">
<g id="graph0" class="graph" transform="scale(1 1) rotate(0) translate(4 199)">
<title>atomic1</title>
<polygon fill="#ffffff" stroke="transparent" points="-4,4 -4,-199 367.0435,-199 367.0435,4 -4,4"/>
<!-- A -->
<g id="node1" class="node">
<title>A</title>
<polygon fill="none" stroke="#000000" points="340.6622,-181 124.2948,-181 124.2948,-145 340.6622,-145 340.6622,-181"/>
<text text-anchor="middle" x="232.4785" y="-158.8" font-family="Times,serif" font-size="14.00" fill="#000000"> name | ... | &lt;f1&gt; eetop | ... | tid | ... | </text>
<text text-anchor="middle" x="62.1934" y="-183.8" font-family="Times,serif" font-size="14.00" fill="#000000">oop(java.lang.Thread)</text>
</g>
<!-- B -->
<g id="node2" class="node">
<title>B</title>
<polygon fill="none" stroke="#000000" points="363.1084,-109 101.8486,-109 101.8486,-73 363.1084,-73 363.1084,-109"/>
<text text-anchor="middle" x="232.4785" y="-86.8" font-family="Times,serif" font-size="14.00" fill="#000000"> | &lt;f1&gt;_osthread | ... | &lt;f2&gt; _threadObj | |...| </text>
<text text-anchor="middle" x="69.6548" y="-111.8" font-family="Times,serif" font-size="14.00" fill="#000000">JavaThread</text>
</g>
<!-- A&#45;&gt;B -->
<g id="edge1" class="edge">
<title>A:f1&#45;&gt;B</title>
<path fill="none" stroke="#000000" d="M226.5261,-144.8314C225.7757,-137.131 225.5548,-127.9743 225.8634,-119.4166"/>
<polygon fill="#000000" stroke="#000000" points="229.3577,-119.6161 226.5025,-109.4133 222.372,-119.1697 229.3577,-119.6161"/>
</g>
<!-- B&#45;&gt;A -->
<g id="edge3" class="edge">
<title>B:f2&#45;&gt;A</title>
<path fill="none" stroke="#000000" d="M238.4545,-109.4133C239.1856,-117.0593 239.3988,-126.1084 239.094,-134.5726"/>
<polygon fill="#000000" stroke="#000000" points="235.5833,-134.6264 238.4309,-144.8314 242.5687,-135.078 235.5833,-134.6264"/>
</g>
<!-- C -->
<g id="node3" class="node">
<title>C</title>
<polygon fill="none" stroke="#000000" points="129.0439,-.5 129.0439,-36.5 335.9131,-36.5 335.9131,-.5 129.0439,-.5"/>
<text text-anchor="middle" x="138.7939" y="-14.3" font-family="Times,serif" font-size="14.00" fill="#000000"> </text>
<polyline fill="none" stroke="#000000" points="148.5439,-.5 148.5439,-36.5 "/>
<text text-anchor="middle" x="161.7939" y="-14.3" font-family="Times,serif" font-size="14.00" fill="#000000">...</text>
<polyline fill="none" stroke="#000000" points="175.0439,-.5 175.0439,-36.5 "/>
<text text-anchor="middle" x="184.7939" y="-14.3" font-family="Times,serif" font-size="14.00" fill="#000000"> </text>
<polyline fill="none" stroke="#000000" points="194.5439,-.5 194.5439,-36.5 "/>
<text text-anchor="middle" x="232.4785" y="-14.3" font-family="Times,serif" font-size="14.00" fill="#000000">_thread_id</text>
<polyline fill="none" stroke="#000000" points="270.4131,-.5 270.4131,-36.5 "/>
<text text-anchor="middle" x="280.1631" y="-14.3" font-family="Times,serif" font-size="14.00" fill="#000000"> </text>
<polyline fill="none" stroke="#000000" points="289.9131,-.5 289.9131,-36.5 "/>
<text text-anchor="middle" x="303.1631" y="-14.3" font-family="Times,serif" font-size="14.00" fill="#000000">...</text>
<polyline fill="none" stroke="#000000" points="316.4131,-.5 316.4131,-36.5 "/>
<text text-anchor="middle" x="326.1631" y="-14.3" font-family="Times,serif" font-size="14.00" fill="#000000"> </text>
<text text-anchor="middle" x="100.2749" y="-39.8" font-family="Times,serif" font-size="14.00" fill="#000000">OSThread</text>
</g>
<!-- B&#45;&gt;C -->
<g id="edge2" class="edge">
<title>B:f1&#45;&gt;C</title>
<path fill="none" stroke="#000000" d="M232.4785,-72.7052C232.4785,-64.832 232.4785,-55.4471 232.4785,-46.7167"/>
<polygon fill="#000000" stroke="#000000" points="235.9786,-46.5378 232.4785,-36.5378 228.9786,-46.5378 235.9786,-46.5378"/>
</g>
</g>
</svg>
