<?xml version="1.0" encoding="UTF-8" standalone="no"?>
<!DOCTYPE svg PUBLIC "-//W3C//DTD SVG 1.1//EN"
 "http://www.w3.org/Graphics/SVG/1.1/DTD/svg11.dtd">
<!-- Generated by graphviz version 2.40.1 (20161225.0304)
 -->
<!-- Title: atomic1 Pages: 1 -->
<svg width="620pt" height="347pt"
 viewBox="0.00 0.00 620.01 347.13" xmlns="http://www.w3.org/2000/svg" xmlns:xlink="http://www.w3.org/1999/xlink">
<g id="graph0" class="graph" transform="scale(1 1) rotate(0) translate(4 343.1287)">
<title>atomic1</title>
<polygon fill="#ffffff" stroke="transparent" points="-4,4 -4,-343.1287 616.0122,-343.1287 616.0122,4 -4,4"/>
<!-- t1 -->
<g id="node1" class="node">
<title>t1</title>
<ellipse fill="none" stroke="#000000" cx="99.0122" cy="-319.6126" rx="50.8235" ry="19.5322"/>
<text text-anchor="middle" x="99.0122" y="-318.2126" font-family="Times,serif" font-size="14.00" fill="#000000">医疗诊断</text>
</g>
<!-- t2 -->
<g id="node2" class="node">
<title>t2</title>
<ellipse fill="none" stroke="#000000" cx="99.0122" cy="-244.5804" rx="50.8235" ry="19.5322"/>
<text text-anchor="middle" x="99.0122" y="-243.1804" font-family="Times,serif" font-size="14.00" fill="#000000">症状信息</text>
</g>
<!-- t1&#45;&gt;t2 -->
<g id="edge1" class="edge">
<title>t1&#45;&gt;t2</title>
<path fill="none" stroke="#000000" d="M99.0122,-299.8988C99.0122,-292.0582 99.0122,-282.8671 99.0122,-274.2534"/>
<polygon fill="#000000" stroke="#000000" points="102.5123,-274.1626 99.0122,-264.1626 95.5123,-274.1626 102.5123,-274.1626"/>
</g>
<!-- t3 -->
<g id="node3" class="node">
<title>t3</title>
<ellipse fill="none" stroke="#000000" cx="99.0122" cy="-169.5483" rx="60.623" ry="19.5322"/>
<text text-anchor="middle" x="99.0122" y="-168.1482" font-family="Times,serif" font-size="14.00" fill="#000000">病人等价类</text>
</g>
<!-- t2&#45;&gt;t3 -->
<g id="edge2" class="edge">
<title>t2&#45;&gt;t3</title>
<path fill="none" stroke="#000000" d="M99.0122,-224.8666C99.0122,-217.026 99.0122,-207.8349 99.0122,-199.2212"/>
<polygon fill="#000000" stroke="#000000" points="102.5123,-199.1304 99.0122,-189.1304 95.5123,-199.1305 102.5123,-199.1304"/>
</g>
<!-- r -->
<g id="node5" class="node">
<title>r</title>
<polygon fill="none" stroke="#000000" points="87.0122,-81.5322 87.0122,-106.5322 163.0122,-106.5322 163.0122,-81.5322 87.0122,-81.5322"/>
<text text-anchor="start" x="90.0122" y="-92.3322" font-family="Times,serif" font-size="14.00" fill="#000000">决策粗糙集</text>
<polygon fill="none" stroke="#000000" points="165.0122,-81.5322 165.0122,-106.5322 255.0122,-106.5322 255.0122,-81.5322 165.0122,-81.5322"/>
<text text-anchor="start" x="168.0122" y="-92.3322" font-family="Times,serif" font-size="14.00" fill="#000000">三支决策规则</text>
<polygon fill="none" stroke="#000000" points="84.0122,-79.0322 84.0122,-110.0322 258.0122,-110.0322 258.0122,-79.0322 84.0122,-79.0322"/>
</g>
<!-- t3&#45;&gt;r -->
<g id="edge3" class="edge">
<title>t3&#45;&gt;r</title>
<path fill="none" stroke="#000000" d="M117.1808,-150.6185C125.596,-141.8509 135.7501,-131.2714 144.9613,-121.6744"/>
<polygon fill="#000000" stroke="#000000" points="147.6956,-123.88 152.095,-114.2418 142.6453,-119.0328 147.6956,-123.88"/>
</g>
<!-- c1 -->
<g id="node4" class="node">
<title>c1</title>
<polygon fill="none" stroke="#000000" points="306.0122,-187.5483 178.0122,-187.5483 178.0122,-151.5483 306.0122,-151.5483 306.0122,-187.5483"/>
<text text-anchor="middle" x="242.0122" y="-168.1482" font-family="Times,serif" font-size="14.00" fill="#000000">决策成本损失信息</text>
</g>
<!-- c1&#45;&gt;r -->
<g id="edge4" class="edge">
<title>c1&#45;&gt;r</title>
<path fill="none" stroke="#000000" d="M224.8251,-151.389C216.322,-142.4049 205.8887,-131.3815 196.4798,-121.4403"/>
<polygon fill="#000000" stroke="#000000" points="198.9493,-118.9579 189.5333,-114.101 193.8654,-123.7697 198.9493,-118.9579"/>
</g>
<!-- r3 -->
<g id="node7" class="node">
<title>r3</title>
<ellipse fill="none" stroke="#000000" cx="41.0122" cy="-19.5161" rx="41.0244" ry="19.5322"/>
<text text-anchor="middle" x="41.0122" y="-18.116" font-family="Times,serif" font-size="14.00" fill="#000000">患病类</text>
</g>
<!-- r&#45;&gt;r3 -->
<g id="edge5" class="edge">
<title>r&#45;&gt;r3</title>
<path fill="none" stroke="#000000" d="M137.1956,-75.0184C118.3613,-64.1502 94.9493,-50.6403 75.9394,-39.6707"/>
<polygon fill="#000000" stroke="#000000" points="77.6851,-36.6372 67.2744,-34.6706 74.1865,-42.7002 77.6851,-36.6372"/>
</g>
<!-- r4 -->
<g id="node8" class="node">
<title>r4</title>
<ellipse fill="none" stroke="#000000" cx="171.0122" cy="-19.5161" rx="70.922" ry="19.5322"/>
<text text-anchor="middle" x="171.0122" y="-18.116" font-family="Times,serif" font-size="14.00" fill="#000000">进一步观察类</text>
</g>
<!-- r&#45;&gt;r4 -->
<g id="edge6" class="edge">
<title>r&#45;&gt;r4</title>
<path fill="none" stroke="#000000" d="M171.0122,-74.8226C171.0122,-66.9837 171.0122,-57.7945 171.0122,-49.1827"/>
<polygon fill="#000000" stroke="#000000" points="174.5123,-49.094 171.0122,-39.094 167.5123,-49.0941 174.5123,-49.094"/>
</g>
<!-- r5 -->
<g id="node9" class="node">
<title>r5</title>
<ellipse fill="none" stroke="#000000" cx="301.0122" cy="-19.5161" rx="41.0244" ry="19.5322"/>
<text text-anchor="middle" x="301.0122" y="-18.116" font-family="Times,serif" font-size="14.00" fill="#000000">患病类</text>
</g>
<!-- r&#45;&gt;r5 -->
<g id="edge7" class="edge">
<title>r&#45;&gt;r5</title>
<path fill="none" stroke="#000000" d="M204.8288,-75.0184C223.6631,-64.1502 247.0751,-50.6403 266.085,-39.6707"/>
<polygon fill="#000000" stroke="#000000" points="267.8379,-42.7002 274.75,-34.6706 264.3393,-36.6372 267.8379,-42.7002"/>
</g>
<!-- l -->
<g id="node6" class="node">
<title>l</title>
<polygon fill="none" stroke="#000000" points="234.0122,-231.5804 234.0122,-256.5804 352.0122,-256.5804 352.0122,-231.5804 234.0122,-231.5804"/>
<text text-anchor="start" x="237.0122" y="-242.3804" font-family="Times,serif" font-size="14.00" fill="#000000">临床数据管理系统</text>
<polygon fill="none" stroke="#000000" points="354.0122,-231.5804 354.0122,-256.5804 416.0122,-256.5804 416.0122,-231.5804 354.0122,-231.5804"/>
<text text-anchor="start" x="357.0122" y="-242.3804" font-family="Times,serif" font-size="14.00" fill="#000000">知识管理</text>
<polygon fill="none" stroke="#000000" points="231.0122,-229.0804 231.0122,-260.0804 419.0122,-260.0804 419.0122,-229.0804 231.0122,-229.0804"/>
</g>
<!-- l&#45;&gt;c1 -->
<g id="edge8" class="edge">
<title>l&#45;&gt;c1</title>
<path fill="none" stroke="#000000" d="M303.2049,-224.8666C292.9242,-215.5728 280.5445,-204.3815 269.6176,-194.5036"/>
<polygon fill="#000000" stroke="#000000" points="271.734,-191.6986 261.9687,-187.5889 267.0397,-196.8914 271.734,-191.6986"/>
</g>
<!-- l3 -->
<g id="node10" class="node">
<title>l3</title>
<polygon fill="none" stroke="#000000" points="438.0122,-187.5483 324.0122,-187.5483 324.0122,-151.5483 438.0122,-151.5483 438.0122,-187.5483"/>
<text text-anchor="middle" x="381.0122" y="-168.1482" font-family="Times,serif" font-size="14.00" fill="#000000">病人历史数据库</text>
</g>
<!-- l&#45;&gt;l3 -->
<g id="edge9" class="edge">
<title>l&#45;&gt;l3</title>
<path fill="none" stroke="#000000" d="M339.7255,-224.8666C346.3925,-215.9337 354.3679,-205.2479 361.5237,-195.6602"/>
<polygon fill="#000000" stroke="#000000" points="364.3712,-197.6964 367.5476,-187.5889 358.7614,-193.5096 364.3712,-197.6964"/>
</g>
<!-- l4 -->
<g id="node11" class="node">
<title>l4</title>
<polygon fill="none" stroke="#000000" points="612.0122,-187.5483 456.0122,-187.5483 456.0122,-151.5483 612.0122,-151.5483 612.0122,-187.5483"/>
<text text-anchor="middle" x="534.0122" y="-168.1482" font-family="Times,serif" font-size="14.00" fill="#000000">集成机器学习分类预测</text>
</g>
<!-- l3&#45;&gt;l4 -->
<g id="edge10" class="edge">
<title>l3&#45;&gt;l4</title>
<path fill="none" stroke="#000000" d="M438.0884,-169.5483C440.5649,-169.5483 443.0415,-169.5483 445.518,-169.5483"/>
<polygon fill="#000000" stroke="#000000" points="445.6994,-173.0484 455.6994,-169.5483 445.6993,-166.0484 445.6994,-173.0484"/>
</g>
<!-- l5 -->
<g id="node12" class="node">
<title>l5</title>
<polygon fill="none" stroke="#000000" points="521.0122,-112.5322 463.0122,-112.5322 463.0122,-76.5322 521.0122,-76.5322 521.0122,-112.5322"/>
<text text-anchor="middle" x="492.0122" y="-93.1321" font-family="Times,serif" font-size="14.00" fill="#000000">患病类</text>
</g>
<!-- l4&#45;&gt;l5 -->
<g id="edge11" class="edge">
<title>l4&#45;&gt;l5</title>
<path fill="none" stroke="#000000" d="M523.8452,-151.389C518.8778,-142.5167 512.7968,-131.6555 507.2856,-121.812"/>
<polygon fill="#000000" stroke="#000000" points="510.1704,-119.7999 502.2312,-112.7843 504.0625,-123.2196 510.1704,-119.7999"/>
</g>
<!-- l6 -->
<g id="node13" class="node">
<title>l6</title>
<polygon fill="none" stroke="#000000" points="611.0122,-112.5322 539.0122,-112.5322 539.0122,-76.5322 611.0122,-76.5322 611.0122,-112.5322"/>
<text text-anchor="middle" x="575.0122" y="-93.1321" font-family="Times,serif" font-size="14.00" fill="#000000">未患病类</text>
</g>
<!-- l4&#45;&gt;l6 -->
<g id="edge12" class="edge">
<title>l4&#45;&gt;l6</title>
<path fill="none" stroke="#000000" d="M543.9371,-151.389C548.7863,-142.5167 554.7224,-131.6555 560.1024,-121.812"/>
<polygon fill="#000000" stroke="#000000" points="563.3118,-123.2378 565.0365,-112.7843 557.1693,-119.8806 563.3118,-123.2378"/>
</g>
</g>
</svg>
