<?xml version="1.0" encoding="UTF-8" standalone="no"?>
<!DOCTYPE svg PUBLIC "-//W3C//DTD SVG 1.1//EN"
 "http://www.w3.org/Graphics/SVG/1.1/DTD/svg11.dtd">
<!-- Generated by graphviz version 2.40.1 (20161225.0304)
 -->
<!-- Title: thread Pages: 1 -->
<svg width="413pt" height="155pt"
 viewBox="0.00 0.00 413.24 155.00" xmlns="http://www.w3.org/2000/svg" xmlns:xlink="http://www.w3.org/1999/xlink">
<g id="graph0" class="graph" transform="scale(1 1) rotate(0) translate(4 151)">
<title>thread</title>
<polygon fill="#ffffff" stroke="transparent" points="-4,4 -4,-151 409.2354,-151 409.2354,4 -4,4"/>
<!-- A -->
<g id="node1" class="node">
<title>A</title>
<polygon fill="none" stroke="#000000" points="124.3867,-14.5 124.3867,-124.5 178.3867,-124.5 178.3867,-14.5 124.3867,-14.5"/>
<text text-anchor="middle" x="151.3867" y="-109.3" font-family="Times,serif" font-size="14.00" fill="#000000">...</text>
<polyline fill="none" stroke="#000000" points="124.3867,-102.5 178.3867,-102.5 "/>
<text text-anchor="middle" x="151.3867" y="-87.3" font-family="Times,serif" font-size="14.00" fill="#000000">eetop</text>
<polyline fill="none" stroke="#000000" points="124.3867,-80.5 178.3867,-80.5 "/>
<text text-anchor="middle" x="151.3867" y="-65.3" font-family="Times,serif" font-size="14.00" fill="#000000">...</text>
<polyline fill="none" stroke="#000000" points="124.3867,-58.5 178.3867,-58.5 "/>
<text text-anchor="middle" x="151.3867" y="-43.3" font-family="Times,serif" font-size="14.00" fill="#000000">tid</text>
<polyline fill="none" stroke="#000000" points="124.3867,-36.5 178.3867,-36.5 "/>
<text text-anchor="middle" x="151.3867" y="-21.3" font-family="Times,serif" font-size="14.00" fill="#000000">...</text>
<text text-anchor="middle" x="62.1934" y="-2.8" font-family="Times,serif" font-size="14.00" fill="#000000">oop(java.lang.Thread)</text>
</g>
<!-- B -->
<g id="node2" class="node">
<title>B</title>
<polygon fill="none" stroke="#000000" points="214.3867,-36.5 214.3867,-146.5 293.3662,-146.5 293.3662,-36.5 214.3867,-36.5"/>
<text text-anchor="middle" x="253.8765" y="-131.3" font-family="Times,serif" font-size="14.00" fill="#000000">...</text>
<polyline fill="none" stroke="#000000" points="214.3867,-124.5 293.3662,-124.5 "/>
<text text-anchor="middle" x="253.8765" y="-109.3" font-family="Times,serif" font-size="14.00" fill="#000000">_osthread</text>
<polyline fill="none" stroke="#000000" points="214.3867,-102.5 293.3662,-102.5 "/>
<text text-anchor="middle" x="253.8765" y="-87.3" font-family="Times,serif" font-size="14.00" fill="#000000">...</text>
<polyline fill="none" stroke="#000000" points="214.3867,-80.5 293.3662,-80.5 "/>
<text text-anchor="middle" x="253.8765" y="-65.3" font-family="Times,serif" font-size="14.00" fill="#000000">_threadObj</text>
<polyline fill="none" stroke="#000000" points="214.3867,-58.5 293.3662,-58.5 "/>
<text text-anchor="middle" x="253.8765" y="-43.3" font-family="Times,serif" font-size="14.00" fill="#000000">...</text>
<text text-anchor="middle" x="261.1074" y="-24.8" font-family="Times,serif" font-size="14.00" fill="#000000">JavaThread</text>
</g>
<!-- A&#45;&gt;B -->
<g id="edge1" class="edge">
<title>A:f1&#45;&gt;B</title>
<path fill="none" stroke="#000000" d="M178.3867,-91.5C186.6792,-91.5 195.4842,-91.5 204.0416,-91.5"/>
<polygon fill="#000000" stroke="#000000" points="204.3061,-95.0001 214.306,-91.5 204.306,-88.0001 204.3061,-95.0001"/>
</g>
<!-- B&#45;&gt;A -->
<g id="edge3" class="edge">
<title>B:f2&#45;&gt;A</title>
<path fill="none" stroke="#000000" d="M214.8765,-69.5C206.4132,-69.5 197.3154,-69.5 188.725,-69.5"/>
<polygon fill="#000000" stroke="#000000" points="188.575,-66.0001 178.575,-69.5 188.5749,-73.0001 188.575,-66.0001"/>
</g>
<!-- C -->
<g id="node3" class="node">
<title>C</title>
<polygon fill="none" stroke="#000000" points="329.3662,-80.5 329.3662,-146.5 405.2354,-146.5 405.2354,-80.5 329.3662,-80.5"/>
<text text-anchor="middle" x="367.3008" y="-131.3" font-family="Times,serif" font-size="14.00" fill="#000000">...</text>
<polyline fill="none" stroke="#000000" points="329.3662,-124.5 405.2354,-124.5 "/>
<text text-anchor="middle" x="367.3008" y="-109.3" font-family="Times,serif" font-size="14.00" fill="#000000">_thread_id</text>
<polyline fill="none" stroke="#000000" points="329.3662,-102.5 405.2354,-102.5 "/>
<text text-anchor="middle" x="367.3008" y="-87.3" font-family="Times,serif" font-size="14.00" fill="#000000">...</text>
<text text-anchor="middle" x="376.4663" y="-68.8" font-family="Times,serif" font-size="14.00" fill="#000000">OSThread</text>
</g>
<!-- B&#45;&gt;C -->
<g id="edge2" class="edge">
<title>B:f1&#45;&gt;C</title>
<path fill="none" stroke="#000000" d="M292.8765,-113.5C301.3275,-113.5 310.3184,-113.5 319.0216,-113.5"/>
<polygon fill="#000000" stroke="#000000" points="319.0566,-117.0001 329.0566,-113.5 319.0566,-110.0001 319.0566,-117.0001"/>
</g>
</g>
</svg>
