<?xml version="1.0" encoding="UTF-8" standalone="no"?>
<!DOCTYPE svg PUBLIC "-//W3C//DTD SVG 1.1//EN"
 "http://www.w3.org/Graphics/SVG/1.1/DTD/svg11.dtd">
<!-- Generated by graphviz version 2.40.1 (20161225.0304)
 -->
<!-- Title: atomic2 Pages: 1 -->
<svg width="98pt" height="320pt"
 viewBox="0.00 0.00 98.00 319.60" xmlns="http://www.w3.org/2000/svg" xmlns:xlink="http://www.w3.org/1999/xlink">
<g id="graph0" class="graph" transform="scale(1 1) rotate(0) translate(4 315.5999)">
<title>atomic2</title>
<polygon fill="#ffffff" stroke="transparent" points="-4,4 -4,-315.5999 94,-315.5999 94,4 -4,4"/>
<g id="clust1" class="cluster">
<title>clusterC</title>
<polygon fill="none" stroke="#000000" points="8,-8 8,-303.5999 82,-303.5999 82,-8 8,-8"/>
<text text-anchor="middle" x="45" y="-288.3999" font-family="Times,serif" font-size="14.00" fill="#000000">线程1</text>
</g>
<!-- A3 -->
<g id="node1" class="node">
<title>A3</title>
<polygon fill="none" stroke="#000000" points="72,-268 18,-268 18,-232 72,-232 72,-268"/>
<text text-anchor="middle" x="45" y="-245.8" font-family="Times,serif" font-size="14.00" fill="#000000">a=1</text>
</g>
<!-- B3 -->
<g id="node2" class="node">
<title>B3</title>
<polygon fill="none" stroke="#000000" points="72,-196 18,-196 18,-160 72,-160 72,-196"/>
<text text-anchor="middle" x="45" y="-173.8" font-family="Times,serif" font-size="14.00" fill="#000000">b=2</text>
</g>
<!-- A3&#45;&gt;B3 -->
<g id="edge1" class="edge">
<title>A3&#45;&gt;B3</title>
<path fill="none" stroke="#000000" d="M45,-231.8314C45,-224.131 45,-214.9743 45,-206.4166"/>
<polygon fill="#000000" stroke="#000000" points="48.5001,-206.4132 45,-196.4133 41.5001,-206.4133 48.5001,-206.4132"/>
</g>
<!-- C3 -->
<g id="node3" class="node">
<title>C3</title>
<polygon fill="none" stroke="#000000" points="74.1095,-124 15.8905,-124 15.8905,-88 74.1095,-88 74.1095,-124"/>
<text text-anchor="middle" x="45" y="-101.8" font-family="Times,serif" font-size="14.00" fill="#000000">done=1</text>
</g>
<!-- B3&#45;&gt;C3 -->
<g id="edge2" class="edge">
<title>B3&#45;&gt;C3</title>
<path fill="none" stroke="#000000" d="M45,-159.8314C45,-152.131 45,-142.9743 45,-134.4166"/>
<polygon fill="#000000" stroke="#000000" points="48.5001,-134.4132 45,-124.4133 41.5001,-134.4133 48.5001,-134.4132"/>
</g>
<!-- D3 -->
<g id="node4" class="node">
<title>D3</title>
<polygon fill="none" stroke="#000000" points="72,-52 18,-52 18,-16 72,-16 72,-52"/>
<text text-anchor="middle" x="45" y="-29.8" font-family="Times,serif" font-size="14.00" fill="#000000">c=3</text>
</g>
<!-- C3&#45;&gt;D3 -->
<g id="edge3" class="edge">
<title>C3&#45;&gt;D3</title>
<path fill="none" stroke="#000000" d="M45,-87.8314C45,-80.131 45,-70.9743 45,-62.4166"/>
<polygon fill="#000000" stroke="#000000" points="48.5001,-62.4132 45,-52.4133 41.5001,-62.4133 48.5001,-62.4132"/>
</g>
</g>
</svg>
