<?xml version="1.0" encoding="UTF-8" standalone="no"?>
<!DOCTYPE svg PUBLIC "-//W3C//DTD SVG 1.1//EN"
 "http://www.w3.org/Graphics/SVG/1.1/DTD/svg11.dtd">
<!-- Generated by graphviz version 2.40.1 (20161225.0304)
 -->
<!-- Title: atomic1 Pages: 1 -->
<svg width="286pt" height="450pt"
 viewBox="0.00 0.00 286.00 449.60" xmlns="http://www.w3.org/2000/svg" xmlns:xlink="http://www.w3.org/1999/xlink">
<g id="graph0" class="graph" transform="scale(1 1) rotate(0) translate(4 445.5999)">
<title>atomic1</title>
<polygon fill="#ffffff" stroke="transparent" points="-4,4 -4,-445.5999 282,-445.5999 282,4 -4,4"/>
<g id="clust1" class="cluster">
<title>clusterA</title>
<polygon fill="none" stroke="#000000" points="8,-8 8,-433.5999 120,-433.5999 120,-8 8,-8"/>
<text text-anchor="middle" x="64" y="-418.3999" font-family="Times,serif" font-size="14.00" fill="#000000">线程1(处理器A)</text>
</g>
<g id="clust2" class="cluster">
<title>clusterB</title>
<polygon fill="none" stroke="#000000" points="128,-119 128,-433.5999 270,-433.5999 270,-119 128,-119"/>
<text text-anchor="middle" x="199" y="-418.3999" font-family="Times,serif" font-size="14.00" fill="#000000">线程2(处理器B)</text>
</g>
<!-- A1 -->
<g id="node1" class="node">
<title>A1</title>
<polygon fill="none" stroke="#000000" points="91,-398 37,-398 37,-362 91,-362 91,-398"/>
<text text-anchor="middle" x="64" y="-375.8" font-family="Times,serif" font-size="14.00" fill="#000000">a=1</text>
</g>
<!-- B1 -->
<g id="node2" class="node">
<title>B1</title>
<polygon fill="none" stroke="#000000" points="91,-287 37,-287 37,-251 91,-251 91,-287"/>
<text text-anchor="middle" x="64" y="-264.8" font-family="Times,serif" font-size="14.00" fill="#000000">b=2</text>
</g>
<!-- A1&#45;&gt;B1 -->
<g id="edge1" class="edge">
<title>A1&#45;&gt;B1</title>
<path fill="none" stroke="#000000" d="M64,-361.6706C64,-344.2373 64,-317.7482 64,-297.5489"/>
<polygon fill="#000000" stroke="#000000" points="67.5001,-297.3566 64,-287.3566 60.5001,-297.3567 67.5001,-297.3566"/>
</g>
<!-- C1 -->
<g id="node3" class="node">
<title>C1</title>
<polygon fill="none" stroke="#000000" points="91,-163 37,-163 37,-127 91,-127 91,-163"/>
<text text-anchor="middle" x="64" y="-140.8" font-family="Times,serif" font-size="14.00" fill="#000000">c=3</text>
</g>
<!-- B1&#45;&gt;C1 -->
<g id="edge2" class="edge">
<title>B1&#45;&gt;C1</title>
<path fill="none" stroke="#000000" d="M64,-250.9693C64,-230.5822 64,-197.1268 64,-173.2614"/>
<polygon fill="#000000" stroke="#000000" points="67.5001,-173.0524 64,-163.0524 60.5001,-173.0525 67.5001,-173.0524"/>
</g>
<!-- D1 -->
<g id="node4" class="node">
<title>D1</title>
<polygon fill="none" stroke="#000000" points="93.1095,-52 34.8905,-52 34.8905,-16 93.1095,-16 93.1095,-52"/>
<text text-anchor="middle" x="64" y="-29.8" font-family="Times,serif" font-size="14.00" fill="#000000">done=1</text>
</g>
<!-- C1&#45;&gt;D1 -->
<g id="edge3" class="edge">
<title>C1&#45;&gt;D1</title>
<path fill="none" stroke="#000000" d="M64,-126.6706C64,-109.2373 64,-82.7482 64,-62.5489"/>
<polygon fill="#000000" stroke="#000000" points="67.5001,-62.3566 64,-52.3566 60.5001,-62.3567 67.5001,-62.3566"/>
</g>
<!-- A2 -->
<g id="node5" class="node">
<title>A2</title>
<polygon fill="none" stroke="#000000" points="225,-398 171,-398 171,-362 225,-362 225,-398"/>
<text text-anchor="middle" x="198" y="-375.8" font-family="Times,serif" font-size="14.00" fill="#000000">...</text>
</g>
<!-- B2 -->
<g id="node6" class="node">
<title>B2</title>
<polygon fill="none" stroke="#000000" points="234.2191,-287 161.7809,-287 161.7809,-251 234.2191,-251 234.2191,-287"/>
<text text-anchor="middle" x="198" y="-264.8" font-family="Times,serif" font-size="14.00" fill="#000000">done==1?</text>
</g>
<!-- A2&#45;&gt;B2 -->
<g id="edge4" class="edge">
<title>A2&#45;&gt;B2</title>
<path fill="none" stroke="#000000" d="M198,-361.6706C198,-344.2373 198,-317.7482 198,-297.5489"/>
<polygon fill="#000000" stroke="#000000" points="201.5001,-297.3566 198,-287.3566 194.5001,-297.3567 201.5001,-297.3566"/>
</g>
<!-- C2 -->
<g id="node7" class="node">
<title>C2</title>
<polygon fill="none" stroke="#000000" points="190,-163 136,-163 136,-127 190,-127 190,-163"/>
<text text-anchor="middle" x="163" y="-140.8" font-family="Times,serif" font-size="14.00" fill="#000000">d=c</text>
</g>
<!-- B2&#45;&gt;C2 -->
<g id="edge5" class="edge">
<title>B2&#45;&gt;C2</title>
<path fill="none" stroke="#000000" d="M192.9107,-250.9693C187.1303,-230.4903 177.6281,-196.8251 170.8861,-172.9395"/>
<polygon fill="#000000" stroke="#000000" points="174.1804,-171.7256 168.0954,-163.0524 167.4436,-173.6272 174.1804,-171.7256"/>
<text text-anchor="middle" x="195.2241" y="-202.8" font-family="Times,serif" font-size="14.00" fill="#000000">YES</text>
</g>
<!-- D2 -->
<g id="node8" class="node">
<title>D2</title>
<polygon fill="none" stroke="#000000" points="262,-163 208,-163 208,-127 262,-127 262,-163"/>
<text text-anchor="middle" x="235" y="-140.8" font-family="Times,serif" font-size="14.00" fill="#000000">...</text>
</g>
<!-- B2&#45;&gt;D2 -->
<g id="edge6" class="edge">
<title>B2&#45;&gt;D2</title>
<path fill="none" stroke="#000000" d="M203.3801,-250.9693C209.4908,-230.4903 219.536,-196.8251 226.6632,-172.9395"/>
<polygon fill="#000000" stroke="#000000" points="230.1079,-173.6357 229.6134,-163.0524 223.4001,-171.6342 230.1079,-173.6357"/>
<text text-anchor="middle" x="228.1104" y="-202.8" font-family="Times,serif" font-size="14.00" fill="#000000">NO</text>
</g>
</g>
</svg>
