<?xml version="1.0" encoding="UTF-8" standalone="no"?>
<!DOCTYPE svg PUBLIC "-//W3C//DTD SVG 1.1//EN"
 "http://www.w3.org/Graphics/SVG/1.1/DTD/svg11.dtd">
<!-- Generated by graphviz version 2.40.1 (20161225.0304)
 -->
<!-- Title: atomic2 Pages: 1 -->
<svg width="90pt" height="183pt"
 viewBox="0.00 0.00 90.00 182.60" xmlns="http://www.w3.org/2000/svg" xmlns:xlink="http://www.w3.org/1999/xlink">
<g id="graph0" class="graph" transform="scale(1 1) rotate(0) translate(4 178.5999)">
<title>atomic2</title>
<polygon fill="#ffffff" stroke="transparent" points="-4,4 -4,-178.5999 86,-178.5999 86,4 -4,4"/>
<!-- C -->
<g id="node1" class="node">
<title>C</title>
<polygon fill="none" stroke="#000000" points="28,-20.0999 28,-174.0999 82,-174.0999 82,-20.0999 28,-20.0999"/>
<text text-anchor="middle" x="55" y="-158.8999" font-family="Times,serif" font-size="14.00" fill="#000000"> </text>
<polyline fill="none" stroke="#000000" points="28,-152.0999 82,-152.0999 "/>
<text text-anchor="middle" x="55" y="-136.8999" font-family="Times,serif" font-size="14.00" fill="#000000">a=a+1</text>
<polyline fill="none" stroke="#000000" points="28,-130.0999 82,-130.0999 "/>
<text text-anchor="middle" x="55" y="-114.8999" font-family="Times,serif" font-size="14.00" fill="#000000"> </text>
<polyline fill="none" stroke="#000000" points="28,-108.0999 82,-108.0999 "/>
<text text-anchor="middle" x="55" y="-92.8999" font-family="Times,serif" font-size="14.00" fill="#000000">a</text>
<polyline fill="none" stroke="#000000" points="28,-86.0999 82,-86.0999 "/>
<text text-anchor="middle" x="55" y="-70.8999" font-family="Times,serif" font-size="14.00" fill="#000000"> </text>
<polyline fill="none" stroke="#000000" points="28,-64.0999 82,-64.0999 "/>
<text text-anchor="middle" x="55" y="-48.8999" font-family="Times,serif" font-size="14.00" fill="#000000">...</text>
<polyline fill="none" stroke="#000000" points="28,-42.0999 82,-42.0999 "/>
<text text-anchor="middle" x="55" y="-26.8999" font-family="Times,serif" font-size="14.00" fill="#000000"> </text>
<text text-anchor="middle" x="14" y="-8.3999" font-family="Times,serif" font-size="14.00" fill="#000000">内存</text>
</g>
</g>
</svg>
