<?xml version="1.0" encoding="UTF-8" standalone="no"?>
<!DOCTYPE svg PUBLIC "-//W3C//DTD SVG 1.1//EN"
 "http://www.w3.org/Graphics/SVG/1.1/DTD/svg11.dtd">
<!-- Generated by graphviz version 2.40.1 (20161225.0304)
 -->
<!-- Title: atomic1 Pages: 1 -->
<svg width="202pt" height="292pt"
 viewBox="0.00 0.00 202.00 292.00" xmlns="http://www.w3.org/2000/svg" xmlns:xlink="http://www.w3.org/1999/xlink">
<g id="graph0" class="graph" transform="scale(1 1) rotate(0) translate(4 288)">
<title>atomic1</title>
<polygon fill="#ffffff" stroke="transparent" points="-4,4 -4,-288 198,-288 198,4 -4,4"/>
<g id="clust1" class="cluster">
<title>clusterA</title>
<polygon fill="none" stroke="#000000" points="8,-8 8,-276 90,-276 90,-8 8,-8"/>
</g>
<g id="clust2" class="cluster">
<title>clusterB</title>
<polygon fill="none" stroke="#000000" points="98,-80 98,-276 186,-276 186,-80 98,-80"/>
</g>
<!-- A1 -->
<g id="node1" class="node">
<title>A1</title>
<polygon fill="none" stroke="#000000" points="76,-268 22,-268 22,-232 76,-232 76,-268"/>
<text text-anchor="middle" x="49" y="-245.8" font-family="Times,serif" font-size="14.00" fill="#000000">a=1</text>
</g>
<!-- B1 -->
<g id="node2" class="node">
<title>B1</title>
<polygon fill="none" stroke="#000000" points="76,-196 22,-196 22,-160 76,-160 76,-196"/>
<text text-anchor="middle" x="49" y="-173.8" font-family="Times,serif" font-size="14.00" fill="#000000">b=2</text>
</g>
<!-- A1&#45;&gt;B1 -->
<g id="edge1" class="edge">
<title>A1&#45;&gt;B1</title>
<path fill="none" stroke="#000000" d="M49,-231.8314C49,-224.131 49,-214.9743 49,-206.4166"/>
<polygon fill="#000000" stroke="#000000" points="52.5001,-206.4132 49,-196.4133 45.5001,-206.4133 52.5001,-206.4132"/>
</g>
<!-- C1 -->
<g id="node3" class="node">
<title>C1</title>
<polygon fill="none" stroke="#000000" points="76,-124 22,-124 22,-88 76,-88 76,-124"/>
<text text-anchor="middle" x="49" y="-101.8" font-family="Times,serif" font-size="14.00" fill="#000000">c=3</text>
</g>
<!-- B1&#45;&gt;C1 -->
<g id="edge2" class="edge">
<title>B1&#45;&gt;C1</title>
<path fill="none" stroke="#000000" d="M49,-159.8314C49,-152.131 49,-142.9743 49,-134.4166"/>
<polygon fill="#000000" stroke="#000000" points="52.5001,-134.4132 49,-124.4133 45.5001,-134.4133 52.5001,-134.4132"/>
</g>
<!-- D1 -->
<g id="node4" class="node">
<title>D1</title>
<polygon fill="none" stroke="#000000" points="81.6095,-52 16.3905,-52 16.3905,-16 81.6095,-16 81.6095,-52"/>
<text text-anchor="middle" x="49" y="-29.8" font-family="Times,serif" font-size="14.00" fill="#000000">done1=1</text>
</g>
<!-- C1&#45;&gt;D1 -->
<g id="edge3" class="edge">
<title>C1&#45;&gt;D1</title>
<path fill="none" stroke="#000000" d="M49,-87.8314C49,-80.131 49,-70.9743 49,-62.4166"/>
<polygon fill="#000000" stroke="#000000" points="52.5001,-62.4132 49,-52.4133 45.5001,-62.4133 52.5001,-62.4132"/>
</g>
<!-- A2 -->
<g id="node5" class="node">
<title>A2</title>
<polygon fill="none" stroke="#000000" points="169,-268 115,-268 115,-232 169,-232 169,-268"/>
<text text-anchor="middle" x="142" y="-245.8" font-family="Times,serif" font-size="14.00" fill="#000000">...</text>
</g>
<!-- B2 -->
<g id="node6" class="node">
<title>B2</title>
<polygon fill="none" stroke="#000000" points="178.2191,-196 105.7809,-196 105.7809,-160 178.2191,-160 178.2191,-196"/>
<text text-anchor="middle" x="142" y="-173.8" font-family="Times,serif" font-size="14.00" fill="#000000">done==1?</text>
</g>
<!-- A2&#45;&gt;B2 -->
<g id="edge4" class="edge">
<title>A2&#45;&gt;B2</title>
<path fill="none" stroke="#000000" d="M142,-231.8314C142,-224.131 142,-214.9743 142,-206.4166"/>
<polygon fill="#000000" stroke="#000000" points="145.5001,-206.4132 142,-196.4133 138.5001,-206.4133 145.5001,-206.4132"/>
</g>
<!-- C2 -->
<g id="node7" class="node">
<title>C2</title>
<polygon fill="none" stroke="#000000" points="169,-124 115,-124 115,-88 169,-88 169,-124"/>
<text text-anchor="middle" x="142" y="-101.8" font-family="Times,serif" font-size="14.00" fill="#000000">...</text>
</g>
<!-- B2&#45;&gt;C2 -->
<g id="edge5" class="edge">
<title>B2&#45;&gt;C2</title>
<path fill="none" stroke="#000000" d="M142,-159.8314C142,-152.131 142,-142.9743 142,-134.4166"/>
<polygon fill="#000000" stroke="#000000" points="145.5001,-134.4132 142,-124.4133 138.5001,-134.4133 145.5001,-134.4132"/>
</g>
</g>
</svg>
