<?xml version="1.0" encoding="UTF-8" standalone="no"?>
<!DOCTYPE svg PUBLIC "-//W3C//DTD SVG 1.1//EN"
 "http://www.w3.org/Graphics/SVG/1.1/DTD/svg11.dtd">
<!-- Generated by graphviz version 2.40.1 (20161225.0304)
 -->
<!-- Title: atomic2 Pages: 1 -->
<svg width="214pt" height="65pt"
 viewBox="0.00 0.00 213.93 64.60" xmlns="http://www.w3.org/2000/svg" xmlns:xlink="http://www.w3.org/1999/xlink">
<g id="graph0" class="graph" transform="scale(1 1) rotate(0) translate(4 60.5999)">
<title>atomic2</title>
<polygon fill="#ffffff" stroke="transparent" points="-4,4 -4,-60.5999 209.9326,-60.5999 209.9326,4 -4,4"/>
<!-- C -->
<g id="node1" class="node">
<title>C</title>
<polygon fill="none" stroke="#000000" points="28,-.5 28,-36.5 205.9326,-36.5 205.9326,-.5 28,-.5"/>
<text text-anchor="middle" x="37.75" y="-14.3" font-family="Times,serif" font-size="14.00" fill="#000000"> </text>
<polyline fill="none" stroke="#000000" points="47.5,-.5 47.5,-36.5 "/>
<text text-anchor="middle" x="73.1094" y="-14.3" font-family="Times,serif" font-size="14.00" fill="#000000">a=a+1</text>
<polyline fill="none" stroke="#000000" points="98.7188,-.5 98.7188,-36.5 "/>
<text text-anchor="middle" x="108.4688" y="-14.3" font-family="Times,serif" font-size="14.00" fill="#000000"> </text>
<polyline fill="none" stroke="#000000" points="118.2188,-.5 118.2188,-36.5 "/>
<text text-anchor="middle" x="129.3257" y="-14.3" font-family="Times,serif" font-size="14.00" fill="#000000">a</text>
<polyline fill="none" stroke="#000000" points="140.4326,-.5 140.4326,-36.5 "/>
<text text-anchor="middle" x="150.1826" y="-14.3" font-family="Times,serif" font-size="14.00" fill="#000000"> </text>
<polyline fill="none" stroke="#000000" points="159.9326,-.5 159.9326,-36.5 "/>
<text text-anchor="middle" x="173.1826" y="-14.3" font-family="Times,serif" font-size="14.00" fill="#000000">...</text>
<polyline fill="none" stroke="#000000" points="186.4326,-.5 186.4326,-36.5 "/>
<text text-anchor="middle" x="196.1826" y="-14.3" font-family="Times,serif" font-size="14.00" fill="#000000"> </text>
<text text-anchor="middle" x="14" y="-45.3999" font-family="Times,serif" font-size="14.00" fill="#000000">内存</text>
</g>
</g>
</svg>
