<?xml version="1.0" encoding="UTF-8" standalone="no"?>
<!DOCTYPE svg PUBLIC "-//W3C//DTD SVG 1.1//EN"
 "http://www.w3.org/Graphics/SVG/1.1/DTD/svg11.dtd">
<!-- Generated by graphviz version 2.40.1 (20161225.0304)
 -->
<!-- Title: atomic1 Pages: 1 -->
<svg width="180pt" height="292pt"
 viewBox="0.00 0.00 180.00 292.00" xmlns="http://www.w3.org/2000/svg" xmlns:xlink="http://www.w3.org/1999/xlink">
<g id="graph0" class="graph" transform="scale(1 1) rotate(0) translate(4 288)">
<title>atomic1</title>
<polygon fill="#ffffff" stroke="transparent" points="-4,4 -4,-288 176,-288 176,4 -4,4"/>
<g id="clust1" class="cluster">
<title>clusterA</title>
<polygon fill="none" stroke="#000000" points="8,-8 8,-276 82,-276 82,-8 8,-8"/>
</g>
<g id="clust2" class="cluster">
<title>clusterB</title>
<polygon fill="none" stroke="#000000" points="90,-80 90,-276 164,-276 164,-80 90,-80"/>
</g>
<!-- D -->
<g id="node1" class="node">
<title>D</title>
<polygon fill="none" stroke="#000000" points="73,-52 19,-52 19,-16 73,-16 73,-52"/>
<text text-anchor="middle" x="46" y="-32.6" font-family="Times,serif" font-size="14.00" fill="#000000">内存</text>
</g>
<!-- A1 -->
<g id="node2" class="node">
<title>A1</title>
<polygon fill="none" stroke="#000000" points="72,-268 18,-268 18,-232 72,-232 72,-268"/>
<text text-anchor="middle" x="45" y="-245.8" font-family="Times,serif" font-size="14.00" fill="#000000">Core 1</text>
</g>
<!-- B1 -->
<g id="node3" class="node">
<title>B1</title>
<polygon fill="none" stroke="#000000" points="74,-196 16,-196 16,-160 74,-160 74,-196"/>
<text text-anchor="middle" x="45" y="-176.6" font-family="Times,serif" font-size="14.00" fill="#000000">寄存器</text>
</g>
<!-- A1&#45;&gt;B1 -->
<g id="edge1" class="edge">
<title>A1&#45;&gt;B1</title>
<path fill="none" stroke="#000000" d="M45,-231.8314C45,-224.131 45,-214.9743 45,-206.4166"/>
<polygon fill="#000000" stroke="#000000" points="48.5001,-206.4132 45,-196.4133 41.5001,-206.4133 48.5001,-206.4132"/>
</g>
<!-- C1 -->
<g id="node4" class="node">
<title>C1</title>
<polygon fill="none" stroke="#000000" points="72,-124 18,-124 18,-88 72,-88 72,-124"/>
<text text-anchor="middle" x="45" y="-104.6" font-family="Times,serif" font-size="14.00" fill="#000000">缓存</text>
</g>
<!-- B1&#45;&gt;C1 -->
<g id="edge2" class="edge">
<title>B1&#45;&gt;C1</title>
<path fill="none" stroke="#000000" d="M45,-159.8314C45,-152.131 45,-142.9743 45,-134.4166"/>
<polygon fill="#000000" stroke="#000000" points="48.5001,-134.4132 45,-124.4133 41.5001,-134.4133 48.5001,-134.4132"/>
</g>
<!-- C1&#45;&gt;D -->
<g id="edge3" class="edge">
<title>C1&#45;&gt;D</title>
<path fill="none" stroke="#000000" d="M45.2523,-87.8314C45.3593,-80.131 45.4865,-70.9743 45.6053,-62.4166"/>
<polygon fill="#000000" stroke="#000000" points="49.1049,-62.4609 45.7443,-52.4133 42.1056,-62.3637 49.1049,-62.4609"/>
</g>
<!-- A2 -->
<g id="node5" class="node">
<title>A2</title>
<polygon fill="none" stroke="#000000" points="154,-268 100,-268 100,-232 154,-232 154,-268"/>
<text text-anchor="middle" x="127" y="-245.8" font-family="Times,serif" font-size="14.00" fill="#000000">Core 2</text>
</g>
<!-- B2 -->
<g id="node6" class="node">
<title>B2</title>
<polygon fill="none" stroke="#000000" points="156,-196 98,-196 98,-160 156,-160 156,-196"/>
<text text-anchor="middle" x="127" y="-176.6" font-family="Times,serif" font-size="14.00" fill="#000000">寄存器</text>
</g>
<!-- A2&#45;&gt;B2 -->
<g id="edge4" class="edge">
<title>A2&#45;&gt;B2</title>
<path fill="none" stroke="#000000" d="M127,-231.8314C127,-224.131 127,-214.9743 127,-206.4166"/>
<polygon fill="#000000" stroke="#000000" points="130.5001,-206.4132 127,-196.4133 123.5001,-206.4133 130.5001,-206.4132"/>
</g>
<!-- C2 -->
<g id="node7" class="node">
<title>C2</title>
<polygon fill="none" stroke="#000000" points="153,-124 99,-124 99,-88 153,-88 153,-124"/>
<text text-anchor="middle" x="126" y="-104.6" font-family="Times,serif" font-size="14.00" fill="#000000">缓存</text>
</g>
<!-- B2&#45;&gt;C2 -->
<g id="edge5" class="edge">
<title>B2&#45;&gt;C2</title>
<path fill="none" stroke="#000000" d="M126.7477,-159.8314C126.6407,-152.131 126.5135,-142.9743 126.3947,-134.4166"/>
<polygon fill="#000000" stroke="#000000" points="129.8944,-134.3637 126.2557,-124.4133 122.8951,-134.4609 129.8944,-134.3637"/>
</g>
<!-- C2&#45;&gt;D -->
<g id="edge6" class="edge">
<title>C2&#45;&gt;D</title>
<path fill="none" stroke="#000000" d="M105.8126,-87.8314C96.1486,-79.1337 84.4204,-68.5783 73.9184,-59.1265"/>
<polygon fill="#000000" stroke="#000000" points="75.9553,-56.251 66.1809,-52.1628 71.2725,-61.454 75.9553,-56.251"/>
</g>
</g>
</svg>
