<?xml version="1.0" encoding="UTF-8" standalone="no"?>
<!DOCTYPE svg PUBLIC "-//W3C//DTD SVG 1.1//EN"
 "http://www.w3.org/Graphics/SVG/1.1/DTD/svg11.dtd">
<!-- Generated by graphviz version 2.40.1 (20161225.0304)
 -->
<!-- Title: atomic1 Pages: 1 -->
<svg width="822pt" height="59pt"
 viewBox="0.00 0.00 822.00 59.00" xmlns="http://www.w3.org/2000/svg" xmlns:xlink="http://www.w3.org/1999/xlink">
<g id="graph0" class="graph" transform="scale(1 1) rotate(0) translate(4 55)">
<title>atomic1</title>
<polygon fill="#ffffff" stroke="transparent" points="-4,4 -4,-55 818.0044,-55 818.0044,4 -4,4"/>
<!-- A -->
<g id="node1" class="node">
<title>A</title>
<polygon fill="none" stroke="#000000" points="306.9364,-36.5 124.2032,-36.5 124.2032,-.5 306.9364,-.5 306.9364,-36.5"/>
<text text-anchor="middle" x="215.5698" y="-14.3" font-family="Times,serif" font-size="14.00" fill="#000000"> | ... | &lt;f1&gt; eetop | ... | tid | ... | </text>
<text text-anchor="middle" x="62.1934" y="-39.3" font-family="Times,serif" font-size="14.00" fill="#000000">oop(java.lang.Thread)</text>
</g>
<!-- B -->
<g id="node2" class="node">
<title>B</title>
<polygon fill="none" stroke="#000000" points="588.7,-36.5 324.4397,-36.5 324.4397,-.5 588.7,-.5 588.7,-36.5"/>
<text text-anchor="middle" x="456.5698" y="-14.3" font-family="Times,serif" font-size="14.00" fill="#000000"> | &lt;f2&gt; _osthread | ... | &lt;f3&gt; _threadObj | |...| </text>
<text text-anchor="middle" x="291.9961" y="-39.3" font-family="Times,serif" font-size="14.00" fill="#000000">JavaThread</text>
</g>
<!-- C -->
<g id="node3" class="node">
<title>C</title>
<polygon fill="none" stroke="#000000" points="607.1353,-.5 607.1353,-36.5 814.0044,-36.5 814.0044,-.5 607.1353,-.5"/>
<text text-anchor="middle" x="616.8853" y="-14.3" font-family="Times,serif" font-size="14.00" fill="#000000"> </text>
<polyline fill="none" stroke="#000000" points="626.6353,-.5 626.6353,-36.5 "/>
<text text-anchor="middle" x="639.8853" y="-14.3" font-family="Times,serif" font-size="14.00" fill="#000000">...</text>
<polyline fill="none" stroke="#000000" points="653.1353,-.5 653.1353,-36.5 "/>
<text text-anchor="middle" x="662.8853" y="-14.3" font-family="Times,serif" font-size="14.00" fill="#000000"> </text>
<polyline fill="none" stroke="#000000" points="672.6353,-.5 672.6353,-36.5 "/>
<text text-anchor="middle" x="710.5698" y="-14.3" font-family="Times,serif" font-size="14.00" fill="#000000">_thread_id</text>
<polyline fill="none" stroke="#000000" points="748.5044,-.5 748.5044,-36.5 "/>
<text text-anchor="middle" x="758.2544" y="-14.3" font-family="Times,serif" font-size="14.00" fill="#000000"> </text>
<polyline fill="none" stroke="#000000" points="768.0044,-.5 768.0044,-36.5 "/>
<text text-anchor="middle" x="781.2544" y="-14.3" font-family="Times,serif" font-size="14.00" fill="#000000">...</text>
<polyline fill="none" stroke="#000000" points="794.5044,-.5 794.5044,-36.5 "/>
<text text-anchor="middle" x="804.2544" y="-14.3" font-family="Times,serif" font-size="14.00" fill="#000000"> </text>
<text text-anchor="middle" x="578.3662" y="-39.8" font-family="Times,serif" font-size="14.00" fill="#000000">OSThread</text>
</g>
</g>
</svg>
