<?xml version="1.0" encoding="UTF-8" standalone="no"?>
<!DOCTYPE svg PUBLIC "-//W3C//DTD SVG 1.1//EN"
 "http://www.w3.org/Graphics/SVG/1.1/DTD/svg11.dtd">
<!-- Generated by graphviz version 2.40.1 (20161225.0304)
 -->
<!-- Title: atomic1 Pages: 1 -->
<svg width="170pt" height="134pt"
 viewBox="0.00 0.00 170.12 134.03" xmlns="http://www.w3.org/2000/svg" xmlns:xlink="http://www.w3.org/1999/xlink">
<g id="graph0" class="graph" transform="scale(1 1) rotate(0) translate(4 130.0322)">
<title>atomic1</title>
<polygon fill="#ffffff" stroke="transparent" points="-4,4 -4,-130.0322 166.1249,-130.0322 166.1249,4 -4,4"/>
<!-- A -->
<g id="node1" class="node">
<title>A</title>
<ellipse fill="none" stroke="#000000" cx="36.0624" cy="-106.5161" rx="36.125" ry="19.5322"/>
<text text-anchor="middle" x="36.0624" y="-105.116" font-family="Times,serif" font-size="14.00" fill="#000000">线程1</text>
</g>
<!-- C -->
<g id="node3" class="node">
<title>C</title>
<polygon fill="none" stroke="#000000" points="4.4555,-.5 4.4555,-36.5 157.6694,-36.5 157.6694,-.5 4.4555,-.5"/>
<text text-anchor="middle" x="14.2055" y="-14.3" font-family="Times,serif" font-size="14.00" fill="#000000"> </text>
<polyline fill="none" stroke="#000000" points="23.9555,-.5 23.9555,-36.5 "/>
<text text-anchor="middle" x="37.2055" y="-14.3" font-family="Times,serif" font-size="14.00" fill="#000000">...</text>
<polyline fill="none" stroke="#000000" points="50.4555,-.5 50.4555,-36.5 "/>
<text text-anchor="middle" x="60.2055" y="-14.3" font-family="Times,serif" font-size="14.00" fill="#000000"> </text>
<polyline fill="none" stroke="#000000" points="69.9555,-.5 69.9555,-36.5 "/>
<text text-anchor="middle" x="81.0624" y="-14.3" font-family="Times,serif" font-size="14.00" fill="#000000">a</text>
<polyline fill="none" stroke="#000000" points="92.1694,-.5 92.1694,-36.5 "/>
<text text-anchor="middle" x="101.9194" y="-14.3" font-family="Times,serif" font-size="14.00" fill="#000000"> </text>
<polyline fill="none" stroke="#000000" points="111.6694,-.5 111.6694,-36.5 "/>
<text text-anchor="middle" x="124.9194" y="-14.3" font-family="Times,serif" font-size="14.00" fill="#000000">...</text>
<polyline fill="none" stroke="#000000" points="138.1694,-.5 138.1694,-36.5 "/>
<text text-anchor="middle" x="147.9194" y="-14.3" font-family="Times,serif" font-size="14.00" fill="#000000"> </text>
</g>
<!-- A&#45;&gt;C -->
<g id="edge1" class="edge">
<title>A&#45;&gt;C:f1</title>
<path fill="none" stroke="#000000" d="M54.6255,-89.7116C64.9876,-78.7415 76.4995,-63.3674 79.9979,-46.5478"/>
<polygon fill="#000000" stroke="#000000" points="83.4893,-46.8131 81.0624,-36.5 76.5282,-46.0756 83.4893,-46.8131"/>
<text text-anchor="middle" x="88.6171" y="-57.8" font-family="Times,serif" font-size="14.00" fill="#000000">a=1</text>
</g>
<!-- B -->
<g id="node2" class="node">
<title>B</title>
<ellipse fill="none" stroke="#000000" cx="126.0624" cy="-106.5161" rx="36.125" ry="19.5322"/>
<text text-anchor="middle" x="126.0624" y="-105.116" font-family="Times,serif" font-size="14.00" fill="#000000">线程2</text>
</g>
<!-- B&#45;&gt;C -->
<g id="edge2" class="edge">
<title>B&#45;&gt;C:f1</title>
<path fill="none" stroke="#000000" d="M119.8534,-87.2877C115.9962,-77.0896 110.3716,-64.6998 103.0624,-55 98.2573,-48.6231 90.8648,-47.9812 85.9962,-45.2774"/>
<polygon fill="#000000" stroke="#000000" points="89.0135,-43.5023 81.0624,-36.5 82.9114,-46.9323 89.0135,-43.5023"/>
<text text-anchor="middle" x="121.6171" y="-57.8" font-family="Times,serif" font-size="14.00" fill="#000000">a=2</text>
</g>
</g>
</svg>
