<?xml version="1.0" encoding="UTF-8" standalone="no"?>
<!DOCTYPE svg PUBLIC "-//W3C//DTD SVG 1.1//EN"
 "http://www.w3.org/Graphics/SVG/1.1/DTD/svg11.dtd">
<!-- Generated by graphviz version 2.40.1 (20161225.0304)
 -->
<!-- Title: atomic1 Pages: 1 -->
<svg width="340pt" height="286pt"
 viewBox="0.00 0.00 340.48 285.50" xmlns="http://www.w3.org/2000/svg" xmlns:xlink="http://www.w3.org/1999/xlink">
<g id="graph0" class="graph" transform="scale(1 1) rotate(0) translate(4 281.5)">
<title>atomic1</title>
<polygon fill="#ffffff" stroke="transparent" points="-4,4 -4,-281.5 336.4834,-281.5 336.4834,4 -4,4"/>
<!-- A -->
<g id="node1" class="node">
<title>A</title>
<polygon fill="none" stroke="#000000" points="275.7326,-50 124.6044,-50 124.6044,-14 275.7326,-14 275.7326,-50"/>
<text text-anchor="middle" x="200.1685" y="-27.8" font-family="Times,serif" font-size="14.00" fill="#000000"> |...| &lt;f1&gt; eetop|...| tid |...</text>
<text text-anchor="middle" x="62.1934" y="-2.8" font-family="Times,serif" font-size="14.00" fill="#000000">oop(java.lang.Thread)</text>
</g>
<!-- B -->
<g id="node2" class="node">
<title>B</title>
<polygon fill="none" stroke="#000000" points="332.2986,-104 68.0383,-104 68.0383,-68 332.2986,-68 332.2986,-104"/>
<text text-anchor="middle" x="200.1685" y="-81.8" font-family="Times,serif" font-size="14.00" fill="#000000"> | &lt;f2&gt; _osthread | ... | &lt;f3&gt; _threadObj | |...| </text>
<text text-anchor="middle" x="35.5947" y="-56.8" font-family="Times,serif" font-size="14.00" fill="#000000">JavaThread</text>
</g>
<!-- C -->
<g id="node3" class="node">
<title>C</title>
<polygon fill="none" stroke="#000000" points="162.2339,-123 162.2339,-277 238.103,-277 238.103,-123 162.2339,-123"/>
<text text-anchor="middle" x="200.1685" y="-261.8" font-family="Times,serif" font-size="14.00" fill="#000000"> </text>
<polyline fill="none" stroke="#000000" points="162.2339,-255 238.103,-255 "/>
<text text-anchor="middle" x="200.1685" y="-239.8" font-family="Times,serif" font-size="14.00" fill="#000000">...</text>
<polyline fill="none" stroke="#000000" points="162.2339,-233 238.103,-233 "/>
<text text-anchor="middle" x="200.1685" y="-217.8" font-family="Times,serif" font-size="14.00" fill="#000000"> </text>
<polyline fill="none" stroke="#000000" points="162.2339,-211 238.103,-211 "/>
<text text-anchor="middle" x="200.1685" y="-195.8" font-family="Times,serif" font-size="14.00" fill="#000000">_thread_id</text>
<polyline fill="none" stroke="#000000" points="162.2339,-189 238.103,-189 "/>
<text text-anchor="middle" x="200.1685" y="-173.8" font-family="Times,serif" font-size="14.00" fill="#000000"> </text>
<polyline fill="none" stroke="#000000" points="162.2339,-167 238.103,-167 "/>
<text text-anchor="middle" x="200.1685" y="-151.8" font-family="Times,serif" font-size="14.00" fill="#000000">...</text>
<polyline fill="none" stroke="#000000" points="162.2339,-145 238.103,-145 "/>
<text text-anchor="middle" x="200.1685" y="-129.8" font-family="Times,serif" font-size="14.00" fill="#000000"> </text>
<text text-anchor="middle" x="133.4648" y="-111.3" font-family="Times,serif" font-size="14.00" fill="#000000">OSThread</text>
</g>
</g>
</svg>
