<?xml version="1.0" encoding="UTF-8" standalone="no"?>
<!DOCTYPE svg PUBLIC "-//W3C//DTD SVG 1.1//EN"
 "http://www.w3.org/Graphics/SVG/1.1/DTD/svg11.dtd">
<!-- Generated by graphviz version 2.40.1 (20161225.0304)
 -->
<!-- Title: atomic1 Pages: 1 -->
<svg width="976pt" height="382pt"
 viewBox="0.00 0.00 976.24 381.52" xmlns="http://www.w3.org/2000/svg" xmlns:xlink="http://www.w3.org/1999/xlink">
<g id="graph0" class="graph" transform="scale(1 1) rotate(0) translate(4 377.5161)">
<title>atomic1</title>
<polygon fill="#ffffff" stroke="transparent" points="-4,4 -4,-377.5161 972.2447,-377.5161 972.2447,4 -4,4"/>
<!-- t1 -->
<g id="node1" class="node">
<title>t1</title>
<ellipse fill="none" stroke="#000000" cx="50.9117" cy="-326" rx="50.8235" ry="19.5322"/>
<text text-anchor="middle" x="50.9117" y="-324.6" font-family="Times,serif" font-size="14.00" fill="#000000">医疗诊断</text>
</g>
<!-- t2 -->
<g id="node2" class="node">
<title>t2</title>
<ellipse fill="none" stroke="#000000" cx="240.8234" cy="-326" rx="50.8235" ry="19.5322"/>
<text text-anchor="middle" x="240.8234" y="-324.6" font-family="Times,serif" font-size="14.00" fill="#000000">症状信息</text>
</g>
<!-- t1&#45;&gt;t2 -->
<g id="edge1" class="edge">
<title>t1&#45;&gt;t2</title>
<path fill="none" stroke="#000000" d="M102.3045,-326C126.1518,-326 154.6792,-326 179.6307,-326"/>
<polygon fill="#000000" stroke="#000000" points="179.7188,-329.5001 189.7188,-326 179.7188,-322.5001 179.7188,-329.5001"/>
</g>
<!-- t3 -->
<g id="node3" class="node">
<title>t3</title>
<ellipse fill="none" stroke="#000000" cx="464.8234" cy="-326" rx="60.623" ry="19.5322"/>
<text text-anchor="middle" x="464.8234" y="-324.6" font-family="Times,serif" font-size="14.00" fill="#000000">病人等价类</text>
</g>
<!-- t2&#45;&gt;t3 -->
<g id="edge2" class="edge">
<title>t2&#45;&gt;t3</title>
<path fill="none" stroke="#000000" d="M291.9327,-326C322.1235,-326 360.7952,-326 393.906,-326"/>
<polygon fill="#000000" stroke="#000000" points="393.9877,-329.5001 403.9876,-326 393.9876,-322.5001 393.9877,-329.5001"/>
</g>
<!-- r -->
<g id="node5" class="node">
<title>r</title>
<polygon fill="none" stroke="#000000" points="610.8234,-284 610.8234,-309 686.8234,-309 686.8234,-284 610.8234,-284"/>
<text text-anchor="start" x="613.8234" y="-294.8" font-family="Times,serif" font-size="14.00" fill="#000000">决策粗糙集</text>
<polygon fill="none" stroke="#000000" points="688.8234,-284 688.8234,-309 778.8234,-309 778.8234,-284 688.8234,-284"/>
<text text-anchor="start" x="691.8234" y="-294.8" font-family="Times,serif" font-size="14.00" fill="#000000">三支决策规则</text>
<polygon fill="none" stroke="#000000" points="607.8234,-281.5 607.8234,-312.5 781.8234,-312.5 781.8234,-281.5 607.8234,-281.5"/>
</g>
<!-- t3&#45;&gt;r -->
<g id="edge3" class="edge">
<title>t3&#45;&gt;r</title>
<path fill="none" stroke="#000000" d="M521.6773,-318.8315C542.2798,-316.2338 566.2611,-313.21 589.692,-310.2557"/>
<polygon fill="#000000" stroke="#000000" points="590.2051,-313.7188 599.6886,-308.9953 589.3293,-306.7738 590.2051,-313.7188"/>
</g>
<!-- c1 -->
<g id="node4" class="node">
<title>c1</title>
<polygon fill="none" stroke="#000000" points="549.8234,-288 379.8234,-288 379.8234,-252 549.8234,-252 549.8234,-288"/>
<text text-anchor="middle" x="464.8234" y="-268.6" font-family="Times,serif" font-size="14.00" fill="#000000">是否有决策成本损失信息</text>
</g>
<!-- c1&#45;&gt;r -->
<g id="edge4" class="edge">
<title>c1&#45;&gt;r</title>
<path fill="none" stroke="#000000" d="M550.14,-280.0154C562.9763,-281.5223 576.3422,-283.0913 589.5363,-284.6402"/>
<polygon fill="#000000" stroke="#000000" points="589.241,-288.1295 599.5809,-285.8194 590.0572,-281.1772 589.241,-288.1295"/>
<text text-anchor="middle" x="574.8234" y="-291.3999" font-family="Times,serif" font-size="14.00" fill="#000000">是</text>
</g>
<!-- r3 -->
<g id="node7" class="node">
<title>r3</title>
<ellipse fill="none" stroke="#000000" cx="897.5341" cy="-354" rx="41.0244" ry="19.5322"/>
<text text-anchor="middle" x="897.5341" y="-352.6" font-family="Times,serif" font-size="14.00" fill="#000000">病患类</text>
</g>
<!-- r&#45;&gt;r3 -->
<g id="edge5" class="edge">
<title>r&#45;&gt;r3</title>
<path fill="none" stroke="#000000" d="M764.3013,-316.5364C793.3399,-324.7017 826.2651,-333.96 852.1192,-341.2299"/>
<polygon fill="#000000" stroke="#000000" points="851.4416,-344.675 862.0157,-344.0126 853.3365,-337.9363 851.4416,-344.675"/>
</g>
<!-- r4 -->
<g id="node8" class="node">
<title>r4</title>
<ellipse fill="none" stroke="#000000" cx="897.5341" cy="-297" rx="70.922" ry="19.5322"/>
<text text-anchor="middle" x="897.5341" y="-295.6" font-family="Times,serif" font-size="14.00" fill="#000000">进一步观察类</text>
</g>
<!-- r&#45;&gt;r4 -->
<g id="edge6" class="edge">
<title>r&#45;&gt;r4</title>
<path fill="none" stroke="#000000" d="M789.9465,-297C798.8187,-297 807.7548,-297 816.4816,-297"/>
<polygon fill="#000000" stroke="#000000" points="816.6135,-300.5001 826.6135,-297 816.6134,-293.5001 816.6135,-300.5001"/>
</g>
<!-- r5 -->
<g id="node9" class="node">
<title>r5</title>
<ellipse fill="none" stroke="#000000" cx="897.5341" cy="-240" rx="41.0244" ry="19.5322"/>
<text text-anchor="middle" x="897.5341" y="-238.6" font-family="Times,serif" font-size="14.00" fill="#000000">患病类</text>
</g>
<!-- r&#45;&gt;r5 -->
<g id="edge7" class="edge">
<title>r&#45;&gt;r5</title>
<path fill="none" stroke="#000000" d="M764.3013,-277.4636C793.3399,-269.2983 826.2651,-260.04 852.1192,-252.7701"/>
<polygon fill="#000000" stroke="#000000" points="853.3365,-256.0637 862.0157,-249.9874 851.4416,-249.325 853.3365,-256.0637"/>
</g>
<!-- l -->
<g id="node6" class="node">
<title>l</title>
<polygon fill="none" stroke="#000000" points="149.8234,-244 149.8234,-269 267.8234,-269 267.8234,-244 149.8234,-244"/>
<text text-anchor="start" x="152.8234" y="-254.8" font-family="Times,serif" font-size="14.00" fill="#000000">临床数据管理系统</text>
<polygon fill="none" stroke="#000000" points="269.8234,-244 269.8234,-269 331.8234,-269 331.8234,-244 269.8234,-244"/>
<text text-anchor="start" x="272.8234" y="-254.8" font-family="Times,serif" font-size="14.00" fill="#000000">知识管理</text>
<polygon fill="none" stroke="#000000" points="146.8234,-241.5 146.8234,-272.5 334.8234,-272.5 334.8234,-241.5 146.8234,-241.5"/>
</g>
<!-- l&#45;&gt;c1 -->
<g id="edge8" class="edge">
<title>l&#45;&gt;c1</title>
<path fill="none" stroke="#000000" d="M342.9909,-262.9294C351.7819,-263.4396 360.6543,-263.9545 369.3892,-264.4614"/>
<polygon fill="#000000" stroke="#000000" points="369.381,-267.9667 379.567,-265.0521 369.7866,-260.9785 369.381,-267.9667"/>
</g>
<!-- l3 -->
<g id="node10" class="node">
<title>l3</title>
<polygon fill="none" stroke="#000000" points="521.8234,-234 407.8234,-234 407.8234,-198 521.8234,-198 521.8234,-234"/>
<text text-anchor="middle" x="464.8234" y="-214.6" font-family="Times,serif" font-size="14.00" fill="#000000">病人历史数据库</text>
</g>
<!-- l&#45;&gt;l3 -->
<g id="edge9" class="edge">
<title>l&#45;&gt;l3</title>
<path fill="none" stroke="#000000" d="M342.9909,-238.2997C361.6068,-234.8923 380.5879,-231.4181 397.8555,-228.2575"/>
<polygon fill="#000000" stroke="#000000" points="398.6023,-231.6791 407.8087,-226.4357 397.3419,-224.7934 398.6023,-231.6791"/>
</g>
<!-- l4 -->
<g id="node11" class="node">
<title>l4</title>
<polygon fill="none" stroke="#000000" points="542.8234,-162 386.8234,-162 386.8234,-126 542.8234,-126 542.8234,-162"/>
<text text-anchor="middle" x="464.8234" y="-142.6" font-family="Times,serif" font-size="14.00" fill="#000000">集成机器学习分类预测</text>
</g>
<!-- l3&#45;&gt;l4 -->
<g id="edge10" class="edge">
<title>l3&#45;&gt;l4</title>
<path fill="none" stroke="#000000" d="M464.8234,-197.9539C464.8234,-189.4073 464.8234,-180.8607 464.8234,-172.3142"/>
<polygon fill="#000000" stroke="#000000" points="468.3235,-172.2812 464.8234,-162.2813 461.3235,-172.2813 468.3235,-172.2812"/>
</g>
<!-- l5 -->
<g id="node12" class="node">
<title>l5</title>
<polygon fill="none" stroke="#000000" points="493.8234,-36 435.8234,-36 435.8234,0 493.8234,0 493.8234,-36"/>
<text text-anchor="middle" x="464.8234" y="-16.6" font-family="Times,serif" font-size="14.00" fill="#000000">患病类</text>
</g>
<!-- l4&#45;&gt;l5 -->
<g id="edge11" class="edge">
<title>l4&#45;&gt;l5</title>
<path fill="none" stroke="#000000" d="M404.5319,-125.9368C387.6008,-117.7763 371.1467,-106.2051 361.3234,-90 353.0293,-76.3176 352.8378,-67.5645 361.3234,-54 374.7706,-32.504 402.2688,-23.6328 425.5429,-20.0674"/>
<polygon fill="#000000" stroke="#000000" points="426.054,-23.5308 435.5387,-18.8094 425.1799,-16.5856 426.054,-23.5308"/>
</g>
<!-- l6 -->
<g id="node13" class="node">
<title>l6</title>
<polygon fill="none" stroke="#000000" points="500.8234,-90 428.8234,-90 428.8234,-54 500.8234,-54 500.8234,-90"/>
<text text-anchor="middle" x="464.8234" y="-70.6" font-family="Times,serif" font-size="14.00" fill="#000000">未患病类</text>
</g>
<!-- l4&#45;&gt;l6 -->
<g id="edge12" class="edge">
<title>l4&#45;&gt;l6</title>
<path fill="none" stroke="#000000" d="M464.8234,-125.9539C464.8234,-117.4073 464.8234,-108.8607 464.8234,-100.3142"/>
<polygon fill="#000000" stroke="#000000" points="468.3235,-100.2812 464.8234,-90.2813 461.3235,-100.2813 468.3235,-100.2812"/>
</g>
</g>
</svg>
