<?xml version="1.0" encoding="UTF-8" standalone="no"?>
<!DOCTYPE svg PUBLIC "-//W3C//DTD SVG 1.1//EN"
 "http://www.w3.org/Graphics/SVG/1.1/DTD/svg11.dtd">
<!-- Generated by graphviz version 2.40.1 (20161225.0304)
 -->
<!-- Title: thread1 Pages: 1 -->
<svg width="576pt" height="319pt"
 viewBox="0.00 0.00 576.00 319.31" xmlns="http://www.w3.org/2000/svg" xmlns:xlink="http://www.w3.org/1999/xlink">
<g id="graph0" class="graph" transform="scale(.6798 .6798) rotate(0) translate(4 465.6873)">
<title>thread1</title>
<polygon fill="#ffffff" stroke="transparent" points="-4,4 -4,-465.6873 843.2537,-465.6873 843.2537,4 -4,4"/>
<!-- O -->
<g id="node1" class="node">
<title>O</title>
<ellipse fill="none" stroke="#000000" cx="84.345" cy="-98.0868" rx="18" ry="18"/>
<text text-anchor="middle" x="84.345" y="-93.8868" font-family="Times,serif" font-size="14.00" fill="#000000">O</text>
</g>
<!-- A -->
<g id="node2" class="node">
<title>A</title>
<ellipse fill="none" stroke="#000000" cx="314.4761" cy="-98.0868" rx="30.4575" ry="30.4575"/>
<ellipse fill="none" stroke="#000000" cx="314.4761" cy="-98.0868" rx="34.486" ry="34.486"/>
<text text-anchor="middle" x="314.4761" y="-93.8868" font-family="Times,serif" font-size="14.00" fill="#000000">NEW</text>
</g>
<!-- O&#45;&gt;A -->
<g id="edge1" class="edge">
<title>O&#45;&gt;A</title>
<path fill="none" stroke="#000000" d="M102.403,-98.0868C138.189,-98.0868 219.0402,-98.0868 269.9325,-98.0868"/>
<polygon fill="#000000" stroke="#000000" points="269.9998,-101.5869 279.9998,-98.0868 269.9998,-94.5869 269.9998,-101.5869"/>
<text text-anchor="middle" x="224.462" y="-100.8868" font-family="Times,serif" font-size="14.00" fill="#000000">new Thread()</text>
</g>
<!-- B -->
<g id="node3" class="node">
<title>B</title>
<ellipse fill="none" stroke="#000000" cx="480.3996" cy="-98.0868" rx="58.024" ry="58.024"/>
<ellipse fill="none" stroke="#000000" cx="480.3996" cy="-98.0868" rx="62.0082" ry="62.0082"/>
<text text-anchor="middle" x="480.3996" y="-93.8868" font-family="Times,serif" font-size="14.00" fill="#000000">RUNNABLE</text>
</g>
<!-- A&#45;&gt;B -->
<g id="edge2" class="edge">
<title>A&#45;&gt;B</title>
<path fill="none" stroke="#000000" d="M348.8555,-98.0868C365.9081,-98.0868 387.1889,-98.0868 407.6313,-98.0868"/>
<polygon fill="#000000" stroke="#000000" points="407.8964,-101.5869 417.8964,-98.0868 407.8963,-94.5869 407.8964,-101.5869"/>
<text text-anchor="middle" x="383.4321" y="-100.8868" font-family="Times,serif" font-size="14.00" fill="#000000">start()</text>
</g>
<!-- C -->
<g id="node4" class="node">
<title>C</title>
<ellipse fill="none" stroke="#000000" cx="783.3865" cy="-185.0868" rx="51.7441" ry="51.7441"/>
<ellipse fill="none" stroke="#000000" cx="783.3865" cy="-185.0868" rx="55.7346" ry="55.7346"/>
<text text-anchor="middle" x="783.3865" y="-180.8868" font-family="Times,serif" font-size="14.00" fill="#000000">BLOCKED</text>
</g>
<!-- B&#45;&gt;C -->
<g id="edge3" class="edge">
<title>B&#45;&gt;C</title>
<path fill="none" stroke="#000000" d="M522.5865,-144.4406C533.9522,-154.2221 546.9341,-163.3187 560.6532,-169.0868 610.3253,-189.971 671.7152,-192.8944 717.4576,-191.2038"/>
<polygon fill="#000000" stroke="#000000" points="717.7243,-194.6954 727.5558,-190.7468 717.4077,-187.7025 717.7243,-194.6954"/>
<text text-anchor="middle" x="635.0863" y="-193.8868" font-family="Times,serif" font-size="14.00" fill="#000000">enter/reenter synchronized</text>
</g>
<!-- D -->
<g id="node5" class="node">
<title>D</title>
<ellipse fill="none" stroke="#000000" cx="783.3865" cy="-54.0868" rx="47.8554" ry="47.8554"/>
<ellipse fill="none" stroke="#000000" cx="783.3865" cy="-54.0868" rx="51.8496" ry="51.8496"/>
<text text-anchor="middle" x="783.3865" y="-49.8868" font-family="Times,serif" font-size="14.00" fill="#000000">WAITING</text>
</g>
<!-- B&#45;&gt;D -->
<g id="edge5" class="edge">
<title>B&#45;&gt;D</title>
<path fill="none" stroke="#000000" d="M542.29,-105.3573C589.0389,-108.9233 654.3507,-109.7571 709.5194,-95.0868 716.6332,-93.1951 723.7968,-90.4693 730.7172,-87.3092"/>
<polygon fill="#000000" stroke="#000000" points="732.5387,-90.3142 739.9758,-82.7683 729.4563,-84.0294 732.5387,-90.3142"/>
<text text-anchor="middle" x="635.0863" y="-110.8868" font-family="Times,serif" font-size="14.00" fill="#000000">LockSupport.park</text>
</g>
<!-- B&#45;&gt;D -->
<g id="edge7" class="edge">
<title>B&#45;&gt;D</title>
<path fill="none" stroke="#000000" d="M540.6515,-81.2639C547.3674,-79.7044 554.1346,-78.269 560.6532,-77.0868 614.4151,-67.3362 676.2826,-61.3594 721.1496,-57.9517"/>
<polygon fill="#000000" stroke="#000000" points="721.5978,-61.4282 731.313,-57.2015 721.0825,-54.4472 721.5978,-61.4282"/>
<text text-anchor="middle" x="635.0863" y="-79.8868" font-family="Times,serif" font-size="14.00" fill="#000000">Object.wait</text>
</g>
<!-- C&#45;&gt;B -->
<g id="edge4" class="edge">
<title>C&#45;&gt;B</title>
<path fill="none" stroke="#000000" d="M733.2193,-159.8585C725.4155,-156.5615 717.3445,-153.4978 709.5194,-151.0868 645.4044,-131.3324 625.6395,-142.7523 560.6532,-126.0868 556.633,-125.0558 552.5275,-123.9134 548.4039,-122.6965"/>
<polygon fill="#000000" stroke="#000000" points="549.3682,-119.3314 538.7812,-119.7393 547.3118,-126.0225 549.3682,-119.3314"/>
<text text-anchor="middle" x="635.0863" y="-153.8868" font-family="Times,serif" font-size="14.00" fill="#000000">exit synchronized</text>
</g>
<!-- D&#45;&gt;B -->
<g id="edge6" class="edge">
<title>D&#45;&gt;B</title>
<path fill="none" stroke="#000000" d="M732.6392,-42.3042C686.6895,-33.843 617.6685,-26.6906 560.6532,-44.0868 552.9734,-46.43 545.3628,-49.7816 538.0636,-53.6831"/>
<polygon fill="#000000" stroke="#000000" points="535.9326,-50.8707 529.0025,-58.8847 539.4176,-56.9415 535.9326,-50.8707"/>
<text text-anchor="middle" x="635.0863" y="-46.8868" font-family="Times,serif" font-size="14.00" fill="#000000">LockSupport.unpark</text>
</g>
<!-- D&#45;&gt;B -->
<g id="edge8" class="edge">
<title>D&#45;&gt;B</title>
<path fill="none" stroke="#000000" d="M739.0046,-27.0095C729.5846,-22.4925 719.4711,-18.4965 709.5194,-16.0868 645.2149,-.5162 621.6425,9.5612 560.6532,-16.0868 547.3751,-21.6706 535.1949,-30.6427 524.5519,-40.6433"/>
<polygon fill="#000000" stroke="#000000" points="522.0702,-38.1752 517.4346,-47.7021 526.9995,-43.1453 522.0702,-38.1752"/>
<text text-anchor="middle" x="635.0863" y="-18.8868" font-family="Times,serif" font-size="14.00" fill="#000000">Object.notify/notifyAll</text>
</g>
<!-- E -->
<g id="node6" class="node">
<title>E</title>
<ellipse fill="none" stroke="#000000" cx="84.345" cy="-218.0868" rx="80.1976" ry="80.1976"/>
<ellipse fill="none" stroke="#000000" cx="84.345" cy="-218.0868" rx="84.1903" ry="84.1903"/>
<text text-anchor="middle" x="84.345" y="-213.8868" font-family="Times,serif" font-size="14.00" fill="#000000">TIMED_WAITING</text>
</g>
<!-- F -->
<g id="node7" class="node">
<title>F</title>
<ellipse fill="none" stroke="#000000" cx="84.345" cy="-391.0868" rx="66.6955" ry="66.6955"/>
<ellipse fill="none" stroke="#000000" cx="84.345" cy="-391.0868" rx="70.7012" ry="70.7012"/>
<text text-anchor="middle" x="84.345" y="-386.8868" font-family="Times,serif" font-size="14.00" fill="#000000">TERMINATED</text>
</g>
</g>
</svg>
