<?xml version="1.0" encoding="UTF-8" standalone="no"?>
<!DOCTYPE svg PUBLIC "-//W3C//DTD SVG 1.1//EN"
 "http://www.w3.org/Graphics/SVG/1.1/DTD/svg11.dtd">
<!-- Generated by graphviz version 2.40.1 (20161225.0304)
 -->
<!-- Title: atomic1 Pages: 1 -->
<svg width="188pt" height="392pt"
 viewBox="0.00 0.00 188.00 391.60" xmlns="http://www.w3.org/2000/svg" xmlns:xlink="http://www.w3.org/1999/xlink">
<g id="graph0" class="graph" transform="scale(1 1) rotate(0) translate(4 387.5999)">
<title>atomic1</title>
<polygon fill="#ffffff" stroke="transparent" points="-4,4 -4,-387.5999 184,-387.5999 184,4 -4,4"/>
<g id="clust1" class="cluster">
<title>clusterA</title>
<polygon fill="none" stroke="#000000" points="8,-8 8,-375.5999 172,-375.5999 172,-8 8,-8"/>
<text text-anchor="middle" x="90" y="-360.3999" font-family="Times,serif" font-size="14.00" fill="#000000">线程1</text>
</g>
<!-- A1 -->
<g id="node1" class="node">
<title>A1</title>
<polygon fill="none" stroke="#000000" points="117,-340 63,-340 63,-304 117,-304 117,-340"/>
<text text-anchor="middle" x="90" y="-317.8" font-family="Times,serif" font-size="14.00" fill="#000000">a=1</text>
</g>
<!-- B1 -->
<g id="node2" class="node">
<title>B1</title>
<polygon fill="none" stroke="#000000" points="117,-268 63,-268 63,-232 117,-232 117,-268"/>
<text text-anchor="middle" x="90" y="-245.8" font-family="Times,serif" font-size="14.00" fill="#000000">b=2</text>
</g>
<!-- A1&#45;&gt;B1 -->
<g id="edge1" class="edge">
<title>A1&#45;&gt;B1</title>
<path fill="none" stroke="#000000" d="M90,-303.8314C90,-296.131 90,-286.9743 90,-278.4166"/>
<polygon fill="#000000" stroke="#000000" points="93.5001,-278.4132 90,-268.4133 86.5001,-278.4133 93.5001,-278.4132"/>
</g>
<!-- C1 -->
<g id="node3" class="node">
<title>C1</title>
<polygon fill="none" stroke="#000000" points="117,-196 63,-196 63,-160 117,-160 117,-196"/>
<text text-anchor="middle" x="90" y="-173.8" font-family="Times,serif" font-size="14.00" fill="#000000">c=3</text>
</g>
<!-- B1&#45;&gt;C1 -->
<g id="edge2" class="edge">
<title>B1&#45;&gt;C1</title>
<path fill="none" stroke="#000000" d="M90,-231.8314C90,-224.131 90,-214.9743 90,-206.4166"/>
<polygon fill="#000000" stroke="#000000" points="93.5001,-206.4132 90,-196.4133 86.5001,-206.4133 93.5001,-206.4132"/>
</g>
<!-- D1 -->
<g id="node4" class="node">
<title>D1</title>
<polygon fill="none" stroke="#000000" points="163.5176,-124 16.4824,-124 16.4824,-88 163.5176,-88 163.5176,-124"/>
<text text-anchor="middle" x="90" y="-101.8" font-family="Times,serif" font-size="14.00" fill="#000000">lock addl $0,0(%%esp)</text>
</g>
<!-- C1&#45;&gt;D1 -->
<g id="edge3" class="edge">
<title>C1&#45;&gt;D1</title>
<path fill="none" stroke="#000000" d="M90,-159.8314C90,-152.131 90,-142.9743 90,-134.4166"/>
<polygon fill="#000000" stroke="#000000" points="93.5001,-134.4132 90,-124.4133 86.5001,-134.4133 93.5001,-134.4132"/>
</g>
<!-- E1 -->
<g id="node5" class="node">
<title>E1</title>
<polygon fill="none" stroke="#000000" points="119.1095,-52 60.8905,-52 60.8905,-16 119.1095,-16 119.1095,-52"/>
<text text-anchor="middle" x="90" y="-29.8" font-family="Times,serif" font-size="14.00" fill="#000000">done=1</text>
</g>
<!-- D1&#45;&gt;E1 -->
<g id="edge4" class="edge">
<title>D1&#45;&gt;E1</title>
<path fill="none" stroke="#000000" d="M90,-87.8314C90,-80.131 90,-70.9743 90,-62.4166"/>
<polygon fill="#000000" stroke="#000000" points="93.5001,-62.4132 90,-52.4133 86.5001,-62.4133 93.5001,-62.4132"/>
</g>
</g>
</svg>
