<?xml version="1.0" encoding="UTF-8" standalone="no"?>
<!DOCTYPE svg PUBLIC "-//W3C//DTD SVG 1.1//EN"
 "http://www.w3.org/Graphics/SVG/1.1/DTD/svg11.dtd">
<!-- Generated by graphviz version 2.40.1 (20161225.0304)
 -->
<!-- Title: atomic1 Pages: 1 -->
<svg width="855pt" height="370pt"
 viewBox="0.00 0.00 855.01 369.73" xmlns="http://www.w3.org/2000/svg" xmlns:xlink="http://www.w3.org/1999/xlink">
<g id="graph0" class="graph" transform="scale(1 1) rotate(0) translate(4 365.7286)">
<title>atomic1</title>
<polygon fill="#ffffff" stroke="transparent" points="-4,4 -4,-365.7286 851.0122,-365.7286 851.0122,4 -4,4"/>
<!-- t1 -->
<g id="node1" class="node">
<title>t1</title>
<ellipse fill="none" stroke="#000000" cx="90.0122" cy="-342.2125" rx="50.8235" ry="19.5322"/>
<text text-anchor="middle" x="90.0122" y="-340.8125" font-family="Times,serif" font-size="14.00" fill="#000000">医疗诊断</text>
</g>
<!-- t2 -->
<g id="node2" class="node">
<title>t2</title>
<ellipse fill="none" stroke="#000000" cx="90.0122" cy="-266.1803" rx="50.8235" ry="19.5322"/>
<text text-anchor="middle" x="90.0122" y="-264.7803" font-family="Times,serif" font-size="14.00" fill="#000000">症状信息</text>
</g>
<!-- t1&#45;&gt;t2 -->
<g id="edge1" class="edge">
<title>t1&#45;&gt;t2</title>
<path fill="none" stroke="#000000" d="M90.0122,-322.6323C90.0122,-314.5364 90.0122,-304.9686 90.0122,-296.0325"/>
<polygon fill="#000000" stroke="#000000" points="93.5123,-295.9584 90.0122,-285.9584 86.5123,-295.9585 93.5123,-295.9584"/>
</g>
<!-- t3 -->
<g id="node3" class="node">
<title>t3</title>
<ellipse fill="none" stroke="#000000" cx="90.0122" cy="-190.1482" rx="60.623" ry="19.5322"/>
<text text-anchor="middle" x="90.0122" y="-188.7481" font-family="Times,serif" font-size="14.00" fill="#000000">病人等价类</text>
</g>
<!-- t2&#45;&gt;t3 -->
<g id="edge2" class="edge">
<title>t2&#45;&gt;t3</title>
<path fill="none" stroke="#000000" d="M90.0122,-246.6002C90.0122,-238.5042 90.0122,-228.9365 90.0122,-220.0003"/>
<polygon fill="#000000" stroke="#000000" points="93.5123,-219.9262 90.0122,-209.9263 86.5123,-219.9263 93.5123,-219.9262"/>
</g>
<!-- r -->
<g id="node5" class="node">
<title>r</title>
<polygon fill="none" stroke="#000000" points="87.0122,-82.5322 87.0122,-107.5322 163.0122,-107.5322 163.0122,-82.5322 87.0122,-82.5322"/>
<text text-anchor="start" x="90.0122" y="-93.3322" font-family="Times,serif" font-size="14.00" fill="#000000">决策粗糙集</text>
<polygon fill="none" stroke="#000000" points="165.0122,-82.5322 165.0122,-107.5322 255.0122,-107.5322 255.0122,-82.5322 165.0122,-82.5322"/>
<text text-anchor="start" x="168.0122" y="-93.3322" font-family="Times,serif" font-size="14.00" fill="#000000">三支决策规则</text>
<polygon fill="none" stroke="#000000" points="84.0122,-80.0322 84.0122,-111.0322 258.0122,-111.0322 258.0122,-80.0322 84.0122,-80.0322"/>
</g>
<!-- t3&#45;&gt;r -->
<g id="edge3" class="edge">
<title>t3&#45;&gt;r</title>
<path fill="none" stroke="#000000" d="M106.4038,-171.0012C118.2134,-157.2064 134.3231,-138.3887 147.5015,-122.995"/>
<polygon fill="#000000" stroke="#000000" points="150.2429,-125.1747 154.0874,-115.302 144.9253,-120.6223 150.2429,-125.1747"/>
</g>
<!-- c1 -->
<g id="node4" class="node">
<title>c1</title>
<polygon fill="none" stroke="#000000" points="339.0122,-208.1482 169.0122,-208.1482 169.0122,-172.1482 339.0122,-172.1482 339.0122,-208.1482"/>
<text text-anchor="middle" x="254.0122" y="-188.7481" font-family="Times,serif" font-size="14.00" fill="#000000">是否有决策成本损失信息</text>
</g>
<!-- c1&#45;&gt;r -->
<g id="edge4" class="edge">
<title>c1&#45;&gt;r</title>
<path fill="none" stroke="#000000" d="M238.009,-171.9053C225.8943,-158.0952 209.0469,-138.8899 195.2776,-123.1936"/>
<polygon fill="#000000" stroke="#000000" points="197.6248,-120.5618 188.3991,-115.3524 192.3625,-125.178 197.6248,-120.5618"/>
<text text-anchor="middle" x="227.0122" y="-141.4321" font-family="Times,serif" font-size="14.00" fill="#000000">是</text>
</g>
<!-- r3 -->
<g id="node7" class="node">
<title>r3</title>
<ellipse fill="none" stroke="#000000" cx="41.0122" cy="-19.5161" rx="41.0244" ry="19.5322"/>
<text text-anchor="middle" x="41.0122" y="-18.116" font-family="Times,serif" font-size="14.00" fill="#000000">病患类</text>
</g>
<!-- r&#45;&gt;r3 -->
<g id="edge5" class="edge">
<title>r&#45;&gt;r3</title>
<path fill="none" stroke="#000000" d="M137.534,-75.9561C118.57,-64.8672 94.8827,-51.0163 75.7199,-39.811"/>
<polygon fill="#000000" stroke="#000000" points="77.3918,-36.7343 66.9926,-34.7078 73.8584,-42.777 77.3918,-36.7343"/>
</g>
<!-- r4 -->
<g id="node8" class="node">
<title>r4</title>
<ellipse fill="none" stroke="#000000" cx="171.0122" cy="-19.5161" rx="70.922" ry="19.5322"/>
<text text-anchor="middle" x="171.0122" y="-18.116" font-family="Times,serif" font-size="14.00" fill="#000000">进一步观察类</text>
</g>
<!-- r&#45;&gt;r4 -->
<g id="edge6" class="edge">
<title>r&#45;&gt;r4</title>
<path fill="none" stroke="#000000" d="M171.0122,-75.9561C171.0122,-67.8619 171.0122,-58.2962 171.0122,-49.3619"/>
<polygon fill="#000000" stroke="#000000" points="174.5123,-49.2899 171.0122,-39.29 167.5123,-49.29 174.5123,-49.2899"/>
</g>
<!-- r5 -->
<g id="node9" class="node">
<title>r5</title>
<ellipse fill="none" stroke="#000000" cx="301.0122" cy="-19.5161" rx="41.0244" ry="19.5322"/>
<text text-anchor="middle" x="301.0122" y="-18.116" font-family="Times,serif" font-size="14.00" fill="#000000">患病类</text>
</g>
<!-- r&#45;&gt;r5 -->
<g id="edge7" class="edge">
<title>r&#45;&gt;r5</title>
<path fill="none" stroke="#000000" d="M204.4904,-75.9561C223.4544,-64.8672 247.1417,-51.0163 266.3045,-39.811"/>
<polygon fill="#000000" stroke="#000000" points="268.166,-42.777 275.0318,-34.7078 264.6326,-36.7343 268.166,-42.777"/>
</g>
<!-- l -->
<g id="node6" class="node">
<title>l</title>
<polygon fill="none" stroke="#000000" points="243.0122,-253.1803 243.0122,-278.1803 361.0122,-278.1803 361.0122,-253.1803 243.0122,-253.1803"/>
<text text-anchor="start" x="246.0122" y="-263.9803" font-family="Times,serif" font-size="14.00" fill="#000000">临床数据管理系统</text>
<polygon fill="none" stroke="#000000" points="363.0122,-253.1803 363.0122,-278.1803 425.0122,-278.1803 425.0122,-253.1803 363.0122,-253.1803"/>
<text text-anchor="start" x="366.0122" y="-263.9803" font-family="Times,serif" font-size="14.00" fill="#000000">知识管理</text>
<polygon fill="none" stroke="#000000" points="240.0122,-250.6803 240.0122,-281.6803 428.0122,-281.6803 428.0122,-250.6803 240.0122,-250.6803"/>
</g>
<!-- l&#45;&gt;c1 -->
<g id="edge8" class="edge">
<title>l&#45;&gt;c1</title>
<path fill="none" stroke="#000000" d="M313.4102,-246.6002C303.4262,-237.1114 291.3149,-225.6007 280.6396,-215.4549"/>
<polygon fill="#000000" stroke="#000000" points="282.8307,-212.7088 273.171,-208.3568 278.0084,-217.7828 282.8307,-212.7088"/>
</g>
<!-- l3 -->
<g id="node10" class="node">
<title>l3</title>
<polygon fill="none" stroke="#000000" points="471.0122,-208.1482 357.0122,-208.1482 357.0122,-172.1482 471.0122,-172.1482 471.0122,-208.1482"/>
<text text-anchor="middle" x="414.0122" y="-188.7481" font-family="Times,serif" font-size="14.00" fill="#000000">病人历史数据库</text>
</g>
<!-- l&#45;&gt;l3 -->
<g id="edge9" class="edge">
<title>l&#45;&gt;l3</title>
<path fill="none" stroke="#000000" d="M354.6142,-246.6002C364.5982,-237.1114 376.7095,-225.6007 387.3848,-215.4549"/>
<polygon fill="#000000" stroke="#000000" points="390.016,-217.7828 394.8534,-208.3568 385.1936,-212.7088 390.016,-217.7828"/>
</g>
<!-- l4 -->
<g id="node11" class="node">
<title>l4</title>
<polygon fill="none" stroke="#000000" points="663.0122,-208.1482 507.0122,-208.1482 507.0122,-172.1482 663.0122,-172.1482 663.0122,-208.1482"/>
<text text-anchor="middle" x="585.0122" y="-188.7481" font-family="Times,serif" font-size="14.00" fill="#000000">集成机器学习分类预测</text>
</g>
<!-- l3&#45;&gt;l4 -->
<g id="edge10" class="edge">
<title>l3&#45;&gt;l4</title>
<path fill="none" stroke="#000000" d="M471.1235,-190.1482C479.6503,-190.1482 488.1772,-190.1482 496.704,-190.1482"/>
<polygon fill="#000000" stroke="#000000" points="496.7138,-193.6483 506.7137,-190.1482 496.7137,-186.6483 496.7138,-193.6483"/>
</g>
<!-- l5 -->
<g id="node12" class="node">
<title>l5</title>
<polygon fill="none" stroke="#000000" points="847.0122,-208.1482 789.0122,-208.1482 789.0122,-172.1482 847.0122,-172.1482 847.0122,-208.1482"/>
<text text-anchor="middle" x="818.0122" y="-188.7481" font-family="Times,serif" font-size="14.00" fill="#000000">患病类</text>
</g>
<!-- l4&#45;&gt;l5 -->
<g id="edge11" class="edge">
<title>l4&#45;&gt;l5</title>
<path fill="none" stroke="#000000" d="M619.7219,-208.1769C657.6736,-225.3944 719.899,-246.2482 771.0122,-228.1643 779.0819,-225.3092 786.7804,-220.4145 793.5251,-215.0695"/>
<polygon fill="#000000" stroke="#000000" points="796.2282,-217.3601 801.5144,-208.1782 791.6561,-212.0595 796.2282,-217.3601"/>
</g>
<!-- l6 -->
<g id="node13" class="node">
<title>l6</title>
<polygon fill="none" stroke="#000000" points="771.0122,-208.1482 699.0122,-208.1482 699.0122,-172.1482 771.0122,-172.1482 771.0122,-208.1482"/>
<text text-anchor="middle" x="735.0122" y="-188.7481" font-family="Times,serif" font-size="14.00" fill="#000000">未患病类</text>
</g>
<!-- l4&#45;&gt;l6 -->
<g id="edge12" class="edge">
<title>l4&#45;&gt;l6</title>
<path fill="none" stroke="#000000" d="M663.2348,-190.1482C671.766,-190.1482 680.2972,-190.1482 688.8283,-190.1482"/>
<polygon fill="#000000" stroke="#000000" points="688.8432,-193.6483 698.8431,-190.1482 688.8431,-186.6483 688.8432,-193.6483"/>
</g>
</g>
</svg>
