<?xml version="1.0" encoding="UTF-8" standalone="no"?>
<!DOCTYPE svg PUBLIC "-//W3C//DTD SVG 1.1//EN"
 "http://www.w3.org/Graphics/SVG/1.1/DTD/svg11.dtd">
<!-- Generated by graphviz version 2.40.1 (20161225.0304)
 -->
<!-- Title: foo Pages: 1 -->
<svg width="176pt" height="148pt"
 viewBox="0.00 0.00 176.07 148.00" xmlns="http://www.w3.org/2000/svg" xmlns:xlink="http://www.w3.org/1999/xlink">
<g id="graph0" class="graph" transform="scale(1 1) rotate(0) translate(4 144)">
<title>foo</title>
<polygon fill="#ffffff" stroke="transparent" points="-4,4 -4,-144 172.0658,-144 172.0658,4 -4,4"/>
<g id="clust1" class="cluster">
<title>clusterA</title>
<polygon fill="none" stroke="#000000" points="8,-8 8,-132 78,-132 78,-8 8,-8"/>
</g>
<!-- B -->
<g id="node1" class="node">
<title>B</title>
<ellipse fill="none" stroke="#000000" cx="43" cy="-106" rx="27" ry="18"/>
<text text-anchor="middle" x="43" y="-101.8" font-family="Times,serif" font-size="14.00" fill="#000000">B</text>
</g>
<!-- C -->
<g id="node2" class="node">
<title>C</title>
<ellipse fill="none" stroke="#000000" cx="43" cy="-34" rx="27" ry="18"/>
<text text-anchor="middle" x="43" y="-29.8" font-family="Times,serif" font-size="14.00" fill="#000000">C</text>
</g>
<!-- B&#45;&gt;C -->
<g id="edge1" class="edge">
<title>B&#45;&gt;C</title>
<path fill="none" stroke="#000000" d="M43,-87.8314C43,-80.131 43,-70.9743 43,-62.4166"/>
<polygon fill="#000000" stroke="#000000" points="46.5001,-62.4132 43,-52.4133 39.5001,-62.4133 46.5001,-62.4132"/>
</g>
<!-- A -->
<g id="node3" class="node">
<title>A</title>
<ellipse fill="none" stroke="#000000" cx="128" cy="-106" rx="27" ry="18"/>
<text text-anchor="middle" x="128" y="-101.8" font-family="Times,serif" font-size="14.00" fill="#000000">A</text>
</g>
<!-- clusterA -->
<g id="node4" class="node">
<title>clusterA</title>
<ellipse fill="none" stroke="#000000" cx="128" cy="-34" rx="40.1317" ry="18"/>
<text text-anchor="middle" x="128" y="-29.8" font-family="Times,serif" font-size="14.00" fill="#000000">clusterA</text>
</g>
<!-- A&#45;&gt;clusterA -->
<g id="edge2" class="edge">
<title>A&#45;&gt;clusterA</title>
<path fill="none" stroke="#000000" d="M128,-87.8314C128,-80.131 128,-70.9743 128,-62.4166"/>
<polygon fill="#000000" stroke="#000000" points="131.5001,-62.4132 128,-52.4133 124.5001,-62.4133 131.5001,-62.4132"/>
</g>
</g>
</svg>
