<?xml version="1.0" encoding="UTF-8" standalone="no"?>
<!DOCTYPE svg PUBLIC "-//W3C//DTD SVG 1.1//EN"
 "http://www.w3.org/Graphics/SVG/1.1/DTD/svg11.dtd">
<!-- Generated by graphviz version 2.40.1 (20161225.0304)
 -->
<!-- Title: thread1 Pages: 1 -->
<svg width="177pt" height="816pt"
 viewBox="0.00 0.00 176.69 815.84" xmlns="http://www.w3.org/2000/svg" xmlns:xlink="http://www.w3.org/1999/xlink">
<g id="graph0" class="graph" transform="scale(1 1) rotate(0) translate(4 811.8426)">
<title>thread1</title>
<polygon fill="#ffffff" stroke="transparent" points="-4,4 -4,-811.8426 172.69,-811.8426 172.69,4 -4,4"/>
<!-- A -->
<g id="node1" class="node">
<title>A</title>
<ellipse fill="none" stroke="#000000" cx="84.345" cy="-34.2421" rx="30.4575" ry="30.4575"/>
<ellipse fill="none" stroke="#000000" cx="84.345" cy="-34.2421" rx="34.486" ry="34.486"/>
<text text-anchor="middle" x="84.345" y="-30.0421" font-family="Times,serif" font-size="14.00" fill="#000000">NEW</text>
</g>
<!-- B -->
<g id="node2" class="node">
<title>B</title>
<ellipse fill="none" stroke="#000000" cx="84.345" cy="-148.2421" rx="58.024" ry="58.024"/>
<ellipse fill="none" stroke="#000000" cx="84.345" cy="-148.2421" rx="62.0082" ry="62.0082"/>
<text text-anchor="middle" x="84.345" y="-144.0421" font-family="Times,serif" font-size="14.00" fill="#000000">RUNNABLE</text>
</g>
<!-- C -->
<g id="node3" class="node">
<title>C</title>
<ellipse fill="none" stroke="#000000" cx="84.345" cy="-284.2421" rx="51.7441" ry="51.7441"/>
<ellipse fill="none" stroke="#000000" cx="84.345" cy="-284.2421" rx="55.7346" ry="55.7346"/>
<text text-anchor="middle" x="84.345" y="-280.0421" font-family="Times,serif" font-size="14.00" fill="#000000">BLOCKED</text>
</g>
<!-- D -->
<g id="node4" class="node">
<title>D</title>
<ellipse fill="none" stroke="#000000" cx="84.345" cy="-410.2421" rx="47.8554" ry="47.8554"/>
<ellipse fill="none" stroke="#000000" cx="84.345" cy="-410.2421" rx="51.8496" ry="51.8496"/>
<text text-anchor="middle" x="84.345" y="-406.0421" font-family="Times,serif" font-size="14.00" fill="#000000">WAITING</text>
</g>
<!-- E -->
<g id="node5" class="node">
<title>E</title>
<ellipse fill="none" stroke="#000000" cx="84.345" cy="-564.2421" rx="80.1976" ry="80.1976"/>
<ellipse fill="none" stroke="#000000" cx="84.345" cy="-564.2421" rx="84.1903" ry="84.1903"/>
<text text-anchor="middle" x="84.345" y="-560.0421" font-family="Times,serif" font-size="14.00" fill="#000000">TIMED_WAITING</text>
</g>
<!-- F -->
<g id="node6" class="node">
<title>F</title>
<ellipse fill="none" stroke="#000000" cx="84.345" cy="-737.2421" rx="66.6955" ry="66.6955"/>
<ellipse fill="none" stroke="#000000" cx="84.345" cy="-737.2421" rx="70.7012" ry="70.7012"/>
<text text-anchor="middle" x="84.345" y="-733.0421" font-family="Times,serif" font-size="14.00" fill="#000000">TERMINATED</text>
</g>
</g>
</svg>
