<?xml version="1.0" encoding="UTF-8" standalone="no"?>
<!DOCTYPE svg PUBLIC "-//W3C//DTD SVG 1.1//EN"
 "http://www.w3.org/Graphics/SVG/1.1/DTD/svg11.dtd">
<!-- Generated by graphviz version 2.40.1 (20161225.0304)
 -->
<!-- Title: atomic1 Pages: 1 -->
<svg width="170pt" height="134pt"
 viewBox="0.00 0.00 170.12 134.03" xmlns="http://www.w3.org/2000/svg" xmlns:xlink="http://www.w3.org/1999/xlink">
<g id="graph0" class="graph" transform="scale(1 1) rotate(0) translate(4 130.0322)">
<title>atomic1</title>
<polygon fill="#ffffff" stroke="transparent" points="-4,4 -4,-130.0322 166.1249,-130.0322 166.1249,4 -4,4"/>
<!-- A -->
<g id="node1" class="node">
<title>A</title>
<ellipse fill="none" stroke="#000000" cx="36.0624" cy="-106.5161" rx="36.125" ry="19.5322"/>
<text text-anchor="middle" x="36.0624" y="-105.116" font-family="Times,serif" font-size="14.00" fill="#000000">线程1</text>
</g>
<!-- C -->
<g id="node3" class="node">
<title>C</title>
<polygon fill="none" stroke="#000000" points="11.9555,-.5 11.9555,-36.5 158.1694,-36.5 158.1694,-.5 11.9555,-.5"/>
<text text-anchor="middle" x="21.7055" y="-14.3" font-family="Times,serif" font-size="14.00" fill="#000000"> </text>
<polyline fill="none" stroke="#000000" points="31.4555,-.5 31.4555,-36.5 "/>
<text text-anchor="middle" x="41.2055" y="-14.3" font-family="Times,serif" font-size="14.00" fill="#000000"> </text>
<polyline fill="none" stroke="#000000" points="50.9555,-.5 50.9555,-36.5 "/>
<text text-anchor="middle" x="60.7055" y="-14.3" font-family="Times,serif" font-size="14.00" fill="#000000"> </text>
<polyline fill="none" stroke="#000000" points="70.4555,-.5 70.4555,-36.5 "/>
<text text-anchor="middle" x="81.5624" y="-14.3" font-family="Times,serif" font-size="14.00" fill="#000000">a</text>
<polyline fill="none" stroke="#000000" points="92.6694,-.5 92.6694,-36.5 "/>
<text text-anchor="middle" x="102.4194" y="-14.3" font-family="Times,serif" font-size="14.00" fill="#000000"> </text>
<polyline fill="none" stroke="#000000" points="112.1694,-.5 112.1694,-36.5 "/>
<text text-anchor="middle" x="125.4194" y="-14.3" font-family="Times,serif" font-size="14.00" fill="#000000">...</text>
<polyline fill="none" stroke="#000000" points="138.6694,-.5 138.6694,-36.5 "/>
<text text-anchor="middle" x="148.4194" y="-14.3" font-family="Times,serif" font-size="14.00" fill="#000000"> </text>
</g>
<!-- A&#45;&gt;C -->
<g id="edge1" class="edge">
<title>A&#45;&gt;C:f1</title>
<path fill="none" stroke="#000000" d="M42.9216,-86.862C46.9804,-76.7791 52.7442,-64.6278 59.9531,-55 64.5094,-48.9148 71.3514,-48.0086 76.0015,-45.4063"/>
<polygon fill="#000000" stroke="#000000" points="79.1649,-46.9235 81.0624,-36.5 73.0789,-43.4652 79.1649,-46.9235"/>
<text text-anchor="middle" x="70.6171" y="-57.8" font-family="Times,serif" font-size="14.00" fill="#000000">a=1</text>
</g>
<!-- B -->
<g id="node2" class="node">
<title>B</title>
<ellipse fill="none" stroke="#000000" cx="126.0624" cy="-106.5161" rx="36.125" ry="19.5322"/>
<text text-anchor="middle" x="126.0624" y="-105.116" font-family="Times,serif" font-size="14.00" fill="#000000">线程2</text>
</g>
<!-- B&#45;&gt;C -->
<g id="edge2" class="edge">
<title>B&#45;&gt;C:f1</title>
<path fill="none" stroke="#000000" d="M107.4994,-89.7116C97.1373,-78.7415 85.6254,-63.3674 82.127,-46.5478"/>
<polygon fill="#000000" stroke="#000000" points="85.5966,-46.0756 81.0624,-36.5 78.6356,-46.8131 85.5966,-46.0756"/>
<text text-anchor="middle" x="100.6171" y="-57.8" font-family="Times,serif" font-size="14.00" fill="#000000">a=2</text>
</g>
</g>
</svg>
