<?xml version="1.0" encoding="UTF-8" standalone="no"?>
<!DOCTYPE svg PUBLIC "-//W3C//DTD SVG 1.1//EN"
 "http://www.w3.org/Graphics/SVG/1.1/DTD/svg11.dtd">
<!-- Generated by graphviz version 2.40.1 (20161225.0304)
 -->
<!-- Title: atomic1 Pages: 1 -->
<svg width="222pt" height="450pt"
 viewBox="0.00 0.00 222.00 449.60" xmlns="http://www.w3.org/2000/svg" xmlns:xlink="http://www.w3.org/1999/xlink">
<g id="graph0" class="graph" transform="scale(1 1) rotate(0) translate(4 445.5999)">
<title>atomic1</title>
<polygon fill="#ffffff" stroke="transparent" points="-4,4 -4,-445.5999 218,-445.5999 218,4 -4,4"/>
<g id="clust1" class="cluster">
<title>clusterA</title>
<polygon fill="none" stroke="#000000" points="8,-8 8,-433.5999 82,-433.5999 82,-8 8,-8"/>
<text text-anchor="middle" x="45" y="-418.3999" font-family="Times,serif" font-size="14.00" fill="#000000">线程1</text>
</g>
<g id="clust2" class="cluster">
<title>clusterB</title>
<polygon fill="none" stroke="#000000" points="90,-119 90,-433.5999 206,-433.5999 206,-119 90,-119"/>
<text text-anchor="middle" x="148" y="-418.3999" font-family="Times,serif" font-size="14.00" fill="#000000">线程B</text>
</g>
<!-- A1 -->
<g id="node1" class="node">
<title>A1</title>
<polygon fill="none" stroke="#000000" points="72,-398 18,-398 18,-362 72,-362 72,-398"/>
<text text-anchor="middle" x="45" y="-375.8" font-family="Times,serif" font-size="14.00" fill="#000000">a=1</text>
</g>
<!-- B1 -->
<g id="node2" class="node">
<title>B1</title>
<polygon fill="none" stroke="#000000" points="72,-287 18,-287 18,-251 72,-251 72,-287"/>
<text text-anchor="middle" x="45" y="-264.8" font-family="Times,serif" font-size="14.00" fill="#000000">b=2</text>
</g>
<!-- A1&#45;&gt;B1 -->
<g id="edge1" class="edge">
<title>A1&#45;&gt;B1</title>
<path fill="none" stroke="#000000" d="M45,-361.6706C45,-344.2373 45,-317.7482 45,-297.5489"/>
<polygon fill="#000000" stroke="#000000" points="48.5001,-297.3566 45,-287.3566 41.5001,-297.3567 48.5001,-297.3566"/>
</g>
<!-- C1 -->
<g id="node3" class="node">
<title>C1</title>
<polygon fill="none" stroke="#000000" points="72,-163 18,-163 18,-127 72,-127 72,-163"/>
<text text-anchor="middle" x="45" y="-140.8" font-family="Times,serif" font-size="14.00" fill="#000000">c=3</text>
</g>
<!-- B1&#45;&gt;C1 -->
<g id="edge2" class="edge">
<title>B1&#45;&gt;C1</title>
<path fill="none" stroke="#000000" d="M45,-250.9693C45,-230.5822 45,-197.1268 45,-173.2614"/>
<polygon fill="#000000" stroke="#000000" points="48.5001,-173.0524 45,-163.0524 41.5001,-173.0525 48.5001,-173.0524"/>
</g>
<!-- D1 -->
<g id="node4" class="node">
<title>D1</title>
<polygon fill="none" stroke="#000000" points="74.1095,-52 15.8905,-52 15.8905,-16 74.1095,-16 74.1095,-52"/>
<text text-anchor="middle" x="45" y="-29.8" font-family="Times,serif" font-size="14.00" fill="#000000">done=1</text>
</g>
<!-- C1&#45;&gt;D1 -->
<g id="edge3" class="edge">
<title>C1&#45;&gt;D1</title>
<path fill="none" stroke="#000000" d="M45,-126.6706C45,-109.2373 45,-82.7482 45,-62.5489"/>
<polygon fill="#000000" stroke="#000000" points="48.5001,-62.3566 45,-52.3566 41.5001,-62.3567 48.5001,-62.3566"/>
</g>
<!-- A2 -->
<g id="node5" class="node">
<title>A2</title>
<polygon fill="none" stroke="#000000" points="175,-398 121,-398 121,-362 175,-362 175,-398"/>
<text text-anchor="middle" x="148" y="-375.8" font-family="Times,serif" font-size="14.00" fill="#000000">...</text>
</g>
<!-- B2 -->
<g id="node6" class="node">
<title>B2</title>
<polygon fill="none" stroke="#000000" points="184.2191,-287 111.7809,-287 111.7809,-251 184.2191,-251 184.2191,-287"/>
<text text-anchor="middle" x="148" y="-264.8" font-family="Times,serif" font-size="14.00" fill="#000000">done==1?</text>
</g>
<!-- A2&#45;&gt;B2 -->
<g id="edge4" class="edge">
<title>A2&#45;&gt;B2</title>
<path fill="none" stroke="#000000" d="M148,-361.6706C148,-344.2373 148,-317.7482 148,-297.5489"/>
<polygon fill="#000000" stroke="#000000" points="151.5001,-297.3566 148,-287.3566 144.5001,-297.3567 151.5001,-297.3566"/>
</g>
<!-- C2 -->
<g id="node7" class="node">
<title>C2</title>
<polygon fill="none" stroke="#000000" points="175,-163 121,-163 121,-127 175,-127 175,-163"/>
<text text-anchor="middle" x="148" y="-140.8" font-family="Times,serif" font-size="14.00" fill="#000000">...</text>
</g>
<!-- B2&#45;&gt;C2 -->
<g id="edge5" class="edge">
<title>B2&#45;&gt;C2</title>
<path fill="none" stroke="#000000" d="M140.2376,-250.794C136.1688,-240.2583 131.6125,-226.6236 129.5518,-214 127.2976,-200.1912 130.6145,-185.1504 135.0294,-172.6463"/>
<polygon fill="#000000" stroke="#000000" points="138.328,-173.8217 138.72,-163.2341 131.811,-171.2663 138.328,-173.8217"/>
<text text-anchor="middle" x="142.2241" y="-202.8" font-family="Times,serif" font-size="14.00" fill="#000000">YES</text>
</g>
<!-- B2&#45;&gt;C2 -->
<g id="edge6" class="edge">
<title>B2&#45;&gt;C2</title>
<path fill="none" stroke="#000000" d="M151.9734,-250.8807C154.5652,-236.9873 157.2531,-217.3203 156,-200 155.3664,-191.2422 154.1724,-181.761 152.8964,-173.1772"/>
<polygon fill="#000000" stroke="#000000" points="156.3477,-172.5932 151.3316,-163.261 149.4332,-173.6844 156.3477,-172.5932"/>
<text text-anchor="middle" x="166.1104" y="-202.8" font-family="Times,serif" font-size="14.00" fill="#000000">NO</text>
</g>
</g>
</svg>
