<?xml version="1.0" encoding="UTF-8" standalone="no"?>
<!DOCTYPE svg PUBLIC "-//W3C//DTD SVG 1.1//EN"
 "http://www.w3.org/Graphics/SVG/1.1/DTD/svg11.dtd">
<!-- Generated by graphviz version 2.40.1 (20161225.0304)
 -->
<!-- Title: thread1 Pages: 1 -->
<svg width="337pt" height="286pt"
 viewBox="0.00 0.00 337.15 285.50" xmlns="http://www.w3.org/2000/svg" xmlns:xlink="http://www.w3.org/1999/xlink">
<g id="graph0" class="graph" transform="scale(1 1) rotate(0) translate(4 281.5)">
<title>thread1</title>
<polygon fill="#ffffff" stroke="transparent" points="-4,4 -4,-281.5 333.1475,-281.5 333.1475,4 -4,4"/>
<!-- A -->
<g id="node1" class="node">
<title>A</title>
<polygon fill="none" stroke="#000000" points="250.9879,-50 142.6771,-50 142.6771,-14 250.9879,-14 250.9879,-50"/>
<text text-anchor="middle" x="196.8325" y="-27.8" font-family="Times,serif" font-size="14.00" fill="#000000">&lt;f1&gt; eetop|tid|...</text>
<text text-anchor="middle" x="132.2549" y="-2.8" font-family="Times,serif" font-size="14.00" fill="#000000">oop</text>
</g>
<!-- B -->
<g id="node2" class="node">
<title>B</title>
<polygon fill="none" stroke="#000000" points="328.9627,-104 64.7024,-104 64.7024,-68 328.9627,-68 328.9627,-104"/>
<text text-anchor="middle" x="196.8325" y="-81.8" font-family="Times,serif" font-size="14.00" fill="#000000"> | &lt;f2&gt; _osthread | ... | &lt;f3&gt; _threadObj | |...| </text>
<text text-anchor="middle" x="32.2588" y="-56.8" font-family="Times,serif" font-size="14.00" fill="#000000">JavaThread</text>
</g>
<!-- C -->
<g id="node3" class="node">
<title>C</title>
<polygon fill="none" stroke="#000000" points="158.8979,-123 158.8979,-277 234.7671,-277 234.7671,-123 158.8979,-123"/>
<text text-anchor="middle" x="196.8325" y="-261.8" font-family="Times,serif" font-size="14.00" fill="#000000"> </text>
<polyline fill="none" stroke="#000000" points="158.8979,-255 234.7671,-255 "/>
<text text-anchor="middle" x="196.8325" y="-239.8" font-family="Times,serif" font-size="14.00" fill="#000000">...</text>
<polyline fill="none" stroke="#000000" points="158.8979,-233 234.7671,-233 "/>
<text text-anchor="middle" x="196.8325" y="-217.8" font-family="Times,serif" font-size="14.00" fill="#000000"> </text>
<polyline fill="none" stroke="#000000" points="158.8979,-211 234.7671,-211 "/>
<text text-anchor="middle" x="196.8325" y="-195.8" font-family="Times,serif" font-size="14.00" fill="#000000">_thread_id</text>
<polyline fill="none" stroke="#000000" points="158.8979,-189 234.7671,-189 "/>
<text text-anchor="middle" x="196.8325" y="-173.8" font-family="Times,serif" font-size="14.00" fill="#000000"> </text>
<polyline fill="none" stroke="#000000" points="158.8979,-167 234.7671,-167 "/>
<text text-anchor="middle" x="196.8325" y="-151.8" font-family="Times,serif" font-size="14.00" fill="#000000">...</text>
<polyline fill="none" stroke="#000000" points="158.8979,-145 234.7671,-145 "/>
<text text-anchor="middle" x="196.8325" y="-129.8" font-family="Times,serif" font-size="14.00" fill="#000000"> </text>
<text text-anchor="middle" x="130.1289" y="-111.3" font-family="Times,serif" font-size="14.00" fill="#000000">OSThread</text>
</g>
</g>
</svg>
