<?xml version="1.0" encoding="UTF-8" standalone="no"?>
<!DOCTYPE svg PUBLIC "-//W3C//DTD SVG 1.1//EN"
 "http://www.w3.org/Graphics/SVG/1.1/DTD/svg11.dtd">
<!-- Generated by graphviz version 2.40.1 (20161225.0304)
 -->
<!-- Title: atomic1 Pages: 1 -->
<svg width="1998pt" height="308pt"
 viewBox="0.00 0.00 1998.00 308.29" xmlns="http://www.w3.org/2000/svg" xmlns:xlink="http://www.w3.org/1999/xlink">
<g id="graph0" class="graph" transform="scale(1 1) rotate(0) translate(4 304.2897)">
<title>atomic1</title>
<polygon fill="#ffffff" stroke="transparent" points="-4,4 -4,-304.2897 1994,-304.2897 1994,4 -4,4"/>
<g id="clust2" class="cluster">
<title>clusterA</title>
<polygon fill="none" stroke="#000000" points="8,-8 8,-60 228,-60 228,-8 8,-8"/>
</g>
<!-- t1 -->
<g id="node1" class="node">
<title>t1</title>
<ellipse fill="none" stroke="#000000" cx="177" cy="-269.177" rx="50.8235" ry="19.5322"/>
<text text-anchor="middle" x="177" y="-267.777" font-family="Times,serif" font-size="14.00" fill="#000000">医疗诊断</text>
</g>
<!-- t2 -->
<g id="node2" class="node">
<title>t2</title>
<ellipse fill="none" stroke="#000000" cx="177" cy="-182.5483" rx="50.8235" ry="19.5322"/>
<text text-anchor="middle" x="177" y="-181.1482" font-family="Times,serif" font-size="14.00" fill="#000000">症状信息</text>
</g>
<!-- t1&#45;&gt;t2 -->
<g id="edge1" class="edge">
<title>t1&#45;&gt;t2</title>
<path fill="none" stroke="#000000" d="M177,-249.5196C177,-238.5544 177,-224.6712 177,-212.3921"/>
<polygon fill="#000000" stroke="#000000" points="180.5001,-212.1278 177,-202.1279 173.5001,-212.1279 180.5001,-212.1278"/>
</g>
<!-- t3 -->
<g id="node3" class="node">
<title>t3</title>
<ellipse fill="none" stroke="#000000" cx="177" cy="-107.5161" rx="60.623" ry="19.5322"/>
<text text-anchor="middle" x="177" y="-106.116" font-family="Times,serif" font-size="14.00" fill="#000000">病人等价类</text>
</g>
<!-- t2&#45;&gt;t3 -->
<g id="edge2" class="edge">
<title>t2&#45;&gt;t3</title>
<path fill="none" stroke="#000000" d="M177,-162.8344C177,-154.9938 177,-145.8027 177,-137.1891"/>
<polygon fill="#000000" stroke="#000000" points="180.5001,-137.0982 177,-127.0982 173.5001,-137.0983 180.5001,-137.0982"/>
</g>
<!-- r1 -->
<g id="node5" class="node">
<title>r1</title>
<polygon fill="none" stroke="#000000" points="220,-52 134,-52 134,-16 220,-16 220,-52"/>
<text text-anchor="middle" x="177" y="-32.6" font-family="Times,serif" font-size="14.00" fill="#000000">决策粗糙集</text>
</g>
<!-- t3&#45;&gt;r1 -->
<g id="edge3" class="edge">
<title>t3&#45;&gt;r1</title>
<path fill="none" stroke="#000000" d="M177,-87.8151C177,-80.0398 177,-70.956 177,-62.4896"/>
<polygon fill="#000000" stroke="#000000" points="180.5001,-62.2404 177,-52.2404 173.5001,-62.2404 180.5001,-62.2404"/>
</g>
<!-- c1 -->
<g id="node4" class="node">
<title>c1</title>
<polygon fill="none" stroke="#000000" points="416,-296.8772 246,-269.177 416,-241.4769 586,-269.177 416,-296.8772"/>
<text text-anchor="middle" x="416" y="-267.777" font-family="Times,serif" font-size="14.00" fill="#000000">是否有决策成本损失信息</text>
</g>
<!-- r2 -->
<g id="node6" class="node">
<title>r2</title>
<polygon fill="none" stroke="#000000" points="116,-52 16,-52 16,-16 116,-16 116,-52"/>
<text text-anchor="middle" x="66" y="-32.6" font-family="Times,serif" font-size="14.00" fill="#000000">三支决策规则</text>
</g>
<!-- r -->
<g id="node7" class="node">
<title>r</title>
<ellipse fill="none" stroke="#000000" cx="801" cy="-269.177" rx="197.0658" ry="31.2258"/>
<polygon fill="none" stroke="#000000" points="673,-254.177 673,-284.177 710,-284.177 710,-254.177 673,-254.177"/>
<text text-anchor="start" x="675.7534" y="-264.977" font-family="Times,serif" font-size="14.00" fill="#000000">line 1</text>
<polygon fill="#0000ff" stroke="transparent" points="712,-254.177 712,-284.177 745,-284.177 745,-254.177 712,-254.177"/>
<polygon fill="none" stroke="#000000" points="712,-254.177 712,-284.177 745,-284.177 745,-254.177 712,-254.177"/>
<text text-anchor="start" x="714.5034" y="-264.977" font-family="Times,serif" font-size="14.00" fill="#ffffff">line2</text>
<polygon fill="#c0c0c0" stroke="transparent" points="747,-254.177 747,-284.177 800,-284.177 800,-254.177 747,-254.177"/>
<polygon fill="none" stroke="#000000" points="747,-254.177 747,-284.177 800,-284.177 800,-254.177 747,-254.177"/>
<text text-anchor="start" x="749.5059" y="-261.977" font-family="Times,serif" font-size="24.00" fill="#000000">line3</text>
<polygon fill="#ffff00" stroke="transparent" points="802,-254.177 802,-284.177 858,-284.177 858,-254.177 802,-254.177"/>
<polygon fill="none" stroke="#000000" points="802,-254.177 802,-284.177 858,-284.177 858,-254.177 802,-254.177"/>
<text text-anchor="start" x="804.6465" y="-261.977" font-family="ambrosia" font-size="24.00" fill="#000000">line4</text>
<polygon fill="none" stroke="#000000" points="860,-254.177 860,-284.177 930,-284.177 930,-254.177 860,-254.177"/>
<text text-anchor="start" x="862.7241" y="-264.977" font-family="Times,serif" font-size="14.00" fill="#00ff00">Mixed</text>
<text text-anchor="start" x="899" y="-264.977" font-family="Times,serif" font-size="14.00" fill="#ff0000">fonts</text>
<polygon fill="none" stroke="#000000" points="669.5,-251.177 669.5,-287.177 932.5,-287.177 932.5,-251.177 669.5,-251.177"/>
</g>
<!-- r3 -->
<g id="node8" class="node">
<title>r3</title>
<ellipse fill="none" stroke="#000000" cx="1057" cy="-269.177" rx="41.0244" ry="19.5322"/>
<text text-anchor="middle" x="1057" y="-267.777" font-family="Times,serif" font-size="14.00" fill="#000000">病患类</text>
</g>
<!-- r4 -->
<g id="node9" class="node">
<title>r4</title>
<ellipse fill="none" stroke="#000000" cx="1187" cy="-269.177" rx="70.922" ry="19.5322"/>
<text text-anchor="middle" x="1187" y="-267.777" font-family="Times,serif" font-size="14.00" fill="#000000">进一步观察类</text>
</g>
<!-- r5 -->
<g id="node10" class="node">
<title>r5</title>
<ellipse fill="none" stroke="#000000" cx="1317" cy="-269.177" rx="41.0244" ry="19.5322"/>
<text text-anchor="middle" x="1317" y="-267.777" font-family="Times,serif" font-size="14.00" fill="#000000">患病类</text>
</g>
<!-- l1 -->
<g id="node11" class="node">
<title>l1</title>
<polygon fill="none" stroke="#000000" points="1504,-287.177 1376,-287.177 1376,-251.177 1504,-251.177 1504,-287.177"/>
<text text-anchor="middle" x="1440" y="-267.777" font-family="Times,serif" font-size="14.00" fill="#000000">临床数据管理系统</text>
</g>
<!-- l2 -->
<g id="node12" class="node">
<title>l2</title>
<polygon fill="none" stroke="#000000" points="1594,-287.177 1522,-287.177 1522,-251.177 1594,-251.177 1594,-287.177"/>
<text text-anchor="middle" x="1558" y="-267.777" font-family="Times,serif" font-size="14.00" fill="#000000">知识管理</text>
</g>
<!-- l3 -->
<g id="node13" class="node">
<title>l3</title>
<polygon fill="none" stroke="#000000" points="1726,-287.177 1612,-287.177 1612,-251.177 1726,-251.177 1726,-287.177"/>
<text text-anchor="middle" x="1669" y="-267.777" font-family="Times,serif" font-size="14.00" fill="#000000">病人历史数据库</text>
</g>
<!-- l4 -->
<g id="node14" class="node">
<title>l4</title>
<polygon fill="none" stroke="#000000" points="1900,-287.177 1744,-287.177 1744,-251.177 1900,-251.177 1900,-287.177"/>
<text text-anchor="middle" x="1822" y="-267.777" font-family="Times,serif" font-size="14.00" fill="#000000">集成机器学习分类预测</text>
</g>
<!-- l5 -->
<g id="node15" class="node">
<title>l5</title>
<polygon fill="none" stroke="#000000" points="1990,-287.177 1918,-287.177 1918,-251.177 1990,-251.177 1990,-287.177"/>
<text text-anchor="middle" x="1954" y="-267.777" font-family="Times,serif" font-size="14.00" fill="#000000">未患病类</text>
</g>
</g>
</svg>
