<?xml version="1.0" encoding="UTF-8" standalone="no"?>
<!DOCTYPE svg PUBLIC "-//W3C//DTD SVG 1.1//EN"
 "http://www.w3.org/Graphics/SVG/1.1/DTD/svg11.dtd">
<!-- Generated by graphviz version 2.40.1 (20161225.0304)
 -->
<!-- Title: atomic1 Pages: 1 -->
<svg width="180pt" height="276pt"
 viewBox="0.00 0.00 180.00 276.00" xmlns="http://www.w3.org/2000/svg" xmlns:xlink="http://www.w3.org/1999/xlink">
<g id="graph0" class="graph" transform="scale(1 1) rotate(0) translate(4 272)">
<title>atomic1</title>
<polygon fill="#ffffff" stroke="transparent" points="-4,4 -4,-272 176,-272 176,4 -4,4"/>
<g id="clust1" class="cluster">
<title>clusterA</title>
<polygon fill="none" stroke="#000000" points="8,-64 8,-260 82,-260 82,-64 8,-64"/>
</g>
<g id="clust2" class="cluster">
<title>clusterB</title>
<polygon fill="none" stroke="#000000" points="90,-64 90,-260 164,-260 164,-64 90,-64"/>
</g>
<!-- A1 -->
<g id="node1" class="node">
<title>A1</title>
<polygon fill="none" stroke="#000000" points="72,-252 18,-252 18,-216 72,-216 72,-252"/>
<text text-anchor="middle" x="45" y="-229.8" font-family="Times,serif" font-size="14.00" fill="#000000">Core 1</text>
</g>
<!-- B1 -->
<g id="node2" class="node">
<title>B1</title>
<polygon fill="none" stroke="#000000" points="74,-180 16,-180 16,-144 74,-144 74,-180"/>
<text text-anchor="middle" x="45" y="-160.6" font-family="Times,serif" font-size="14.00" fill="#000000">寄存器</text>
</g>
<!-- A1&#45;&gt;B1 -->
<g id="edge1" class="edge">
<title>A1&#45;&gt;B1</title>
<path fill="none" stroke="#000000" d="M45,-215.8314C45,-208.131 45,-198.9743 45,-190.4166"/>
<polygon fill="#000000" stroke="#000000" points="48.5001,-190.4132 45,-180.4133 41.5001,-190.4133 48.5001,-190.4132"/>
</g>
<!-- C1 -->
<g id="node3" class="node">
<title>C1</title>
<polygon fill="none" stroke="#000000" points="73,-108 19,-108 19,-72 73,-72 73,-108"/>
<text text-anchor="middle" x="46" y="-88.6" font-family="Times,serif" font-size="14.00" fill="#000000">缓存</text>
</g>
<!-- B1&#45;&gt;C1 -->
<g id="edge2" class="edge">
<title>B1&#45;&gt;C1</title>
<path fill="none" stroke="#000000" d="M45.2523,-143.8314C45.3593,-136.131 45.4865,-126.9743 45.6053,-118.4166"/>
<polygon fill="#000000" stroke="#000000" points="49.1049,-118.4609 45.7443,-108.4133 42.1056,-118.3637 49.1049,-118.4609"/>
</g>
<!-- D -->
<g id="node7" class="node">
<title>D</title>
<polygon fill="none" stroke="#000000" points="113,-36 59,-36 59,0 113,0 113,-36"/>
<text text-anchor="middle" x="86" y="-16.6" font-family="Times,serif" font-size="14.00" fill="#000000">内存</text>
</g>
<!-- C1&#45;&gt;D -->
<g id="edge5" class="edge">
<title>C1&#45;&gt;D</title>
<path fill="none" stroke="#000000" d="M56.0937,-71.8314C60.5597,-63.7925 65.9075,-54.1666 70.8379,-45.2918"/>
<polygon fill="#000000" stroke="#000000" points="73.9735,-46.8546 75.7704,-36.4133 67.8544,-43.4551 73.9735,-46.8546"/>
</g>
<!-- A2 -->
<g id="node4" class="node">
<title>A2</title>
<polygon fill="none" stroke="#000000" points="154,-252 100,-252 100,-216 154,-216 154,-252"/>
<text text-anchor="middle" x="127" y="-229.8" font-family="Times,serif" font-size="14.00" fill="#000000">Core 2</text>
</g>
<!-- B2 -->
<g id="node5" class="node">
<title>B2</title>
<polygon fill="none" stroke="#000000" points="156,-180 98,-180 98,-144 156,-144 156,-180"/>
<text text-anchor="middle" x="127" y="-160.6" font-family="Times,serif" font-size="14.00" fill="#000000">寄存器</text>
</g>
<!-- A2&#45;&gt;B2 -->
<g id="edge3" class="edge">
<title>A2&#45;&gt;B2</title>
<path fill="none" stroke="#000000" d="M127,-215.8314C127,-208.131 127,-198.9743 127,-190.4166"/>
<polygon fill="#000000" stroke="#000000" points="130.5001,-190.4132 127,-180.4133 123.5001,-190.4133 130.5001,-190.4132"/>
</g>
<!-- C2 -->
<g id="node6" class="node">
<title>C2</title>
<polygon fill="none" stroke="#000000" points="153,-108 99,-108 99,-72 153,-72 153,-108"/>
<text text-anchor="middle" x="126" y="-88.6" font-family="Times,serif" font-size="14.00" fill="#000000">缓存</text>
</g>
<!-- B2&#45;&gt;C2 -->
<g id="edge4" class="edge">
<title>B2&#45;&gt;C2</title>
<path fill="none" stroke="#000000" d="M126.7477,-143.8314C126.6407,-136.131 126.5135,-126.9743 126.3947,-118.4166"/>
<polygon fill="#000000" stroke="#000000" points="129.8944,-118.3637 126.2557,-108.4133 122.8951,-118.4609 129.8944,-118.3637"/>
</g>
<!-- C2&#45;&gt;D -->
<g id="edge6" class="edge">
<title>C2&#45;&gt;D</title>
<path fill="none" stroke="#000000" d="M115.9063,-71.8314C111.4403,-63.7925 106.0925,-54.1666 101.1621,-45.2918"/>
<polygon fill="#000000" stroke="#000000" points="104.1456,-43.4551 96.2296,-36.4133 98.0265,-46.8546 104.1456,-43.4551"/>
</g>
</g>
</svg>
