<?xml version="1.0" encoding="UTF-8" standalone="no"?>
<!DOCTYPE svg PUBLIC "-//W3C//DTD SVG 1.1//EN"
 "http://www.w3.org/Graphics/SVG/1.1/DTD/svg11.dtd">
<!-- Generated by graphviz version 2.40.1 (20161225.0304)
 -->
<!-- Title: object1 Pages: 1 -->
<svg width="588pt" height="452pt"
 viewBox="0.00 0.00 588.10 452.00" xmlns="http://www.w3.org/2000/svg" xmlns:xlink="http://www.w3.org/1999/xlink">
<g id="graph0" class="graph" transform="scale(1 1) rotate(0) translate(4 448)">
<title>object1</title>
<polygon fill="#ffffff" stroke="transparent" points="-4,4 -4,-448 584.0977,-448 584.0977,4 -4,4"/>
<!-- A -->
<g id="node1" class="node">
<title>A</title>
<polygon fill="none" stroke="#000000" points="76.9795,-234.5 76.9795,-410.5 169.1797,-410.5 169.1797,-234.5 76.9795,-234.5"/>
<text text-anchor="middle" x="123.0796" y="-395.3" font-family="Times,serif" font-size="14.00" fill="#000000">_name</text>
<polyline fill="none" stroke="#000000" points="76.9795,-388.5 169.1797,-388.5 "/>
<text text-anchor="middle" x="123.0796" y="-373.3" font-family="Times,serif" font-size="14.00" fill="#000000">_super</text>
<polyline fill="none" stroke="#000000" points="76.9795,-366.5 169.1797,-366.5 "/>
<text text-anchor="middle" x="123.0796" y="-351.3" font-family="Times,serif" font-size="14.00" fill="#000000">_access_flags</text>
<polyline fill="none" stroke="#000000" points="76.9795,-344.5 169.1797,-344.5 "/>
<text text-anchor="middle" x="123.0796" y="-329.3" font-family="Times,serif" font-size="14.00" fill="#000000">...</text>
<polyline fill="none" stroke="#000000" points="76.9795,-322.5 169.1797,-322.5 "/>
<text text-anchor="middle" x="123.0796" y="-307.3" font-family="Times,serif" font-size="14.00" fill="#000000">_constants</text>
<polyline fill="none" stroke="#000000" points="76.9795,-300.5 169.1797,-300.5 "/>
<text text-anchor="middle" x="123.0796" y="-285.3" font-family="Times,serif" font-size="14.00" fill="#000000">_init_thread</text>
<polyline fill="none" stroke="#000000" points="76.9795,-278.5 169.1797,-278.5 "/>
<text text-anchor="middle" x="123.0796" y="-263.3" font-family="Times,serif" font-size="14.00" fill="#000000">_methods</text>
<polyline fill="none" stroke="#000000" points="76.9795,-256.5 169.1797,-256.5 "/>
<text text-anchor="middle" x="123.0796" y="-241.3" font-family="Times,serif" font-size="14.00" fill="#000000">_fields</text>
<text text-anchor="middle" x="38.4897" y="-222.8" font-family="Times,serif" font-size="14.00" fill="#000000">instanceKlass</text>
</g>
<!-- B -->
<g id="node2" class="node">
<title>B</title>
<polygon fill="none" stroke="#000000" points="215.6694,-187.7 215.6694,-347.3 311.7729,-347.3 311.7729,-187.7 215.6694,-187.7"/>
<text text-anchor="middle" x="263.7212" y="-332.1" font-family="Times,serif" font-size="14.00" fill="#000000">...</text>
<polyline fill="none" stroke="#000000" points="215.6694,-325.3 311.7729,-325.3 "/>
<text text-anchor="middle" x="263.7212" y="-310.1" font-family="Times,serif" font-size="14.00" fill="#000000">_constMethod</text>
<polyline fill="none" stroke="#000000" points="215.6694,-303.3 311.7729,-303.3 "/>
<text text-anchor="middle" x="263.7212" y="-288.1" font-family="Times,serif" font-size="14.00" fill="#000000">_method_data</text>
<polyline fill="none" stroke="#000000" points="215.6694,-281.3 311.7729,-281.3 "/>
<text text-anchor="middle" x="263.7212" y="-266.1" font-family="Times,serif" font-size="14.00" fill="#000000">_access_flags</text>
<polyline fill="none" stroke="#000000" points="215.6694,-259.3 311.7729,-259.3 "/>
<text text-anchor="middle" x="263.7212" y="-244.1" font-family="Times,serif" font-size="14.00" fill="#000000">_code</text>
<polyline fill="none" stroke="#000000" points="215.6694,-237.3 311.7729,-237.3 "/>
<text text-anchor="middle" x="263.7212" y="-222.1" font-family="Times,serif" font-size="14.00" fill="#000000">字节码</text>
<polyline fill="none" stroke="#000000" points="215.6694,-209.7 311.7729,-209.7 "/>
<text text-anchor="middle" x="263.7212" y="-194.5" font-family="Times,serif" font-size="14.00" fill="#000000">...</text>
<text text-anchor="middle" x="191.1694" y="-176" font-family="Times,serif" font-size="14.00" fill="#000000">Methods</text>
</g>
<!-- A&#45;&gt;B -->
<g id="edge2" class="edge">
<title>A:f2&#45;&gt;B</title>
<path fill="none" stroke="#000000" d="M169.0796,-267.5C180.7712,-267.5 193.2751,-267.5 205.2367,-267.5"/>
<polygon fill="#000000" stroke="#000000" points="205.5746,-271.0001 215.5746,-267.5 205.5746,-264.0001 205.5746,-271.0001"/>
</g>
<!-- D -->
<g id="node4" class="node">
<title>D</title>
<polygon fill="none" stroke="#000000" points="526.0977,-311.5 526.0977,-443.5 580.0977,-443.5 580.0977,-311.5 526.0977,-311.5"/>
<text text-anchor="middle" x="553.0977" y="-428.3" font-family="Times,serif" font-size="14.00" fill="#000000">...</text>
<polyline fill="none" stroke="#000000" points="526.0977,-421.5 580.0977,-421.5 "/>
<text text-anchor="middle" x="553.0977" y="-406.3" font-family="Times,serif" font-size="14.00" fill="#000000"> </text>
<polyline fill="none" stroke="#000000" points="526.0977,-399.5 580.0977,-399.5 "/>
<text text-anchor="middle" x="553.0977" y="-384.3" font-family="Times,serif" font-size="14.00" fill="#000000"> </text>
<polyline fill="none" stroke="#000000" points="526.0977,-377.5 580.0977,-377.5 "/>
<text text-anchor="middle" x="553.0977" y="-362.3" font-family="Times,serif" font-size="14.00" fill="#000000"> </text>
<polyline fill="none" stroke="#000000" points="526.0977,-355.5 580.0977,-355.5 "/>
<text text-anchor="middle" x="553.0977" y="-340.3" font-family="Times,serif" font-size="14.00" fill="#000000"> </text>
<polyline fill="none" stroke="#000000" points="526.0977,-333.5 580.0977,-333.5 "/>
<text text-anchor="middle" x="553.0977" y="-318.3" font-family="Times,serif" font-size="14.00" fill="#000000">...</text>
<text text-anchor="middle" x="542.3701" y="-299.8" font-family="Times,serif" font-size="14.00" fill="#000000">ConstantPool</text>
</g>
<!-- A&#45;&gt;D -->
<g id="edge1" class="edge">
<title>A:f1&#45;&gt;D</title>
<path fill="none" stroke="#000000" d="M169.0796,-311.5C194.7199,-311.5 182.9122,-343.7884 205.1797,-356.5 264.8738,-390.577 289.7018,-373.5986 358.2627,-378.5 412.9667,-382.4107 476.5302,-380.9667 515.7883,-379.382"/>
<polygon fill="#000000" stroke="#000000" points="516.1069,-382.8717 525.9479,-378.9466 515.8072,-375.8781 516.1069,-382.8717"/>
</g>
<!-- E -->
<g id="node5" class="node">
<title>E</title>
<polygon fill="none" stroke="#000000" points="205.1797,-14.5 205.1797,-168.5 322.2627,-168.5 322.2627,-14.5 205.1797,-14.5"/>
<text text-anchor="middle" x="263.7212" y="-153.3" font-family="Times,serif" font-size="14.00" fill="#000000">...</text>
<polyline fill="none" stroke="#000000" points="205.1797,-146.5 322.2627,-146.5 "/>
<text text-anchor="middle" x="263.7212" y="-131.3" font-family="Times,serif" font-size="14.00" fill="#000000">access</text>
<polyline fill="none" stroke="#000000" points="205.1797,-124.5 322.2627,-124.5 "/>
<text text-anchor="middle" x="263.7212" y="-109.3" font-family="Times,serif" font-size="14.00" fill="#000000">name index</text>
<polyline fill="none" stroke="#000000" points="205.1797,-102.5 322.2627,-102.5 "/>
<text text-anchor="middle" x="263.7212" y="-87.3" font-family="Times,serif" font-size="14.00" fill="#000000">initial value index</text>
<polyline fill="none" stroke="#000000" points="205.1797,-80.5 322.2627,-80.5 "/>
<text text-anchor="middle" x="263.7212" y="-65.3" font-family="Times,serif" font-size="14.00" fill="#000000">low_offset</text>
<polyline fill="none" stroke="#000000" points="205.1797,-58.5 322.2627,-58.5 "/>
<text text-anchor="middle" x="263.7212" y="-43.3" font-family="Times,serif" font-size="14.00" fill="#000000">high_offset</text>
<polyline fill="none" stroke="#000000" points="205.1797,-36.5 322.2627,-36.5 "/>
<text text-anchor="middle" x="263.7212" y="-21.3" font-family="Times,serif" font-size="14.00" fill="#000000">...</text>
<text text-anchor="middle" x="190.0107" y="-2.8" font-family="Times,serif" font-size="14.00" fill="#000000">fields</text>
</g>
<!-- A&#45;&gt;E -->
<g id="edge3" class="edge">
<title>A:f3&#45;&gt;E</title>
<path fill="none" stroke="#000000" d="M169.0796,-245.5C202.9048,-245.5 187.6946,-207.4554 205.1797,-178.5 205.4267,-178.0909 205.6748,-177.6811 205.924,-177.2705"/>
<polygon fill="#000000" stroke="#000000" points="209.0219,-178.915 211.2928,-168.5664 203.0641,-175.2401 209.0219,-178.915"/>
</g>
<!-- C -->
<g id="node3" class="node">
<title>C</title>
<polygon fill="none" stroke="#000000" points="358.2627,-214.5 358.2627,-368.5 490.0977,-368.5 490.0977,-214.5 358.2627,-214.5"/>
<text text-anchor="middle" x="424.1802" y="-353.3" font-family="Times,serif" font-size="14.00" fill="#000000">_constants</text>
<polyline fill="none" stroke="#000000" points="358.2627,-346.5 490.0977,-346.5 "/>
<text text-anchor="middle" x="424.1802" y="-331.3" font-family="Times,serif" font-size="14.00" fill="#000000">_result_type</text>
<polyline fill="none" stroke="#000000" points="358.2627,-324.5 490.0977,-324.5 "/>
<text text-anchor="middle" x="424.1802" y="-309.3" font-family="Times,serif" font-size="14.00" fill="#000000">_code_size</text>
<polyline fill="none" stroke="#000000" points="358.2627,-302.5 490.0977,-302.5 "/>
<text text-anchor="middle" x="424.1802" y="-287.3" font-family="Times,serif" font-size="14.00" fill="#000000">_name_index</text>
<polyline fill="none" stroke="#000000" points="358.2627,-280.5 490.0977,-280.5 "/>
<text text-anchor="middle" x="424.1802" y="-265.3" font-family="Times,serif" font-size="14.00" fill="#000000">_max_stack</text>
<polyline fill="none" stroke="#000000" points="358.2627,-258.5 490.0977,-258.5 "/>
<text text-anchor="middle" x="424.1802" y="-243.3" font-family="Times,serif" font-size="14.00" fill="#000000">_max_locals</text>
<polyline fill="none" stroke="#000000" points="358.2627,-236.5 490.0977,-236.5 "/>
<text text-anchor="middle" x="424.1802" y="-221.3" font-family="Times,serif" font-size="14.00" fill="#000000">_size_of_parameters</text>
<text text-anchor="middle" x="451.9839" y="-202.8" font-family="Times,serif" font-size="14.00" fill="#000000">ConstMethod</text>
</g>
<!-- B&#45;&gt;C -->
<g id="edge4" class="edge">
<title>B:f1&#45;&gt;C</title>
<path fill="none" stroke="#000000" d="M311.7212,-314.5C323.5536,-314.5 335.9469,-313.2628 348.0043,-311.3622"/>
<polygon fill="#000000" stroke="#000000" points="348.7794,-314.7801 358.0339,-309.6223 347.5828,-307.8831 348.7794,-314.7801"/>
</g>
<!-- C&#45;&gt;D -->
<g id="edge5" class="edge">
<title>C:f1&#45;&gt;D</title>
<path fill="none" stroke="#000000" d="M490.0977,-357.5C498.8405,-357.5 507.9594,-359.2714 516.4561,-361.7598"/>
<polygon fill="#000000" stroke="#000000" points="515.4917,-365.1273 526.085,-364.9473 517.6915,-358.4819 515.4917,-365.1273"/>
</g>
</g>
</svg>
