<?xml version="1.0" encoding="UTF-8" standalone="no"?>
<!DOCTYPE svg PUBLIC "-//W3C//DTD SVG 1.1//EN"
 "http://www.w3.org/Graphics/SVG/1.1/DTD/svg11.dtd">
<!-- Generated by graphviz version 2.40.1 (20161225.0304)
 -->
<!-- Title: thread1 Pages: 1 -->
<svg width="576pt" height="318pt"
 viewBox="0.00 0.00 576.00 317.99" xmlns="http://www.w3.org/2000/svg" xmlns:xlink="http://www.w3.org/1999/xlink">
<g id="graph0" class="graph" transform="scale(.6483 .6483) rotate(0) translate(4 486.5252)">
<title>thread1</title>
<polygon fill="#ffffff" stroke="transparent" points="-4,4 -4,-486.5252 884.5359,-486.5252 884.5359,4 -4,4"/>
<!-- O -->
<g id="node1" class="node">
<title>O</title>
<ellipse fill="none" stroke="#000000" cx="84.345" cy="-118.9247" rx="18" ry="18"/>
<text text-anchor="middle" x="84.345" y="-114.7247" font-family="Times,serif" font-size="14.00" fill="#000000">O</text>
</g>
<!-- A -->
<g id="node2" class="node">
<title>A</title>
<ellipse fill="none" stroke="#000000" cx="314.4761" cy="-118.9247" rx="30.4575" ry="30.4575"/>
<ellipse fill="none" stroke="#000000" cx="314.4761" cy="-118.9247" rx="34.486" ry="34.486"/>
<text text-anchor="middle" x="314.4761" y="-114.7247" font-family="Times,serif" font-size="14.00" fill="#000000">NEW</text>
</g>
<!-- O&#45;&gt;A -->
<g id="edge1" class="edge">
<title>O&#45;&gt;A</title>
<path fill="none" stroke="#000000" d="M102.403,-118.9247C138.189,-118.9247 219.0402,-118.9247 269.9325,-118.9247"/>
<polygon fill="#000000" stroke="#000000" points="269.9998,-122.4248 279.9998,-118.9247 269.9998,-115.4248 269.9998,-122.4248"/>
<text text-anchor="middle" x="224.462" y="-121.7247" font-family="Times,serif" font-size="14.00" fill="#000000">new Thread()</text>
</g>
<!-- B -->
<g id="node3" class="node">
<title>B</title>
<ellipse fill="none" stroke="#000000" cx="480.3996" cy="-118.9247" rx="58.024" ry="58.024"/>
<ellipse fill="none" stroke="#000000" cx="480.3996" cy="-118.9247" rx="62.0082" ry="62.0082"/>
<text text-anchor="middle" x="480.3996" y="-114.7247" font-family="Times,serif" font-size="14.00" fill="#000000">RUNNABLE</text>
</g>
<!-- A&#45;&gt;B -->
<g id="edge2" class="edge">
<title>A&#45;&gt;B</title>
<path fill="none" stroke="#000000" d="M348.8555,-118.9247C365.9081,-118.9247 387.1889,-118.9247 407.6313,-118.9247"/>
<polygon fill="#000000" stroke="#000000" points="407.8964,-122.4248 417.8964,-118.9247 407.8963,-115.4248 407.8964,-122.4248"/>
<text text-anchor="middle" x="383.4321" y="-121.7247" font-family="Times,serif" font-size="14.00" fill="#000000">start()</text>
</g>
<!-- C -->
<g id="node4" class="node">
<title>C</title>
<ellipse fill="none" stroke="#000000" cx="824.6688" cy="-177.9247" rx="51.7441" ry="51.7441"/>
<ellipse fill="none" stroke="#000000" cx="824.6688" cy="-177.9247" rx="55.7346" ry="55.7346"/>
<text text-anchor="middle" x="824.6688" y="-173.7247" font-family="Times,serif" font-size="14.00" fill="#000000">BLOCKED</text>
</g>
<!-- B&#45;&gt;C -->
<g id="edge3" class="edge">
<title>B&#45;&gt;C</title>
<path fill="none" stroke="#000000" d="M536.0985,-146.7464C544.1842,-149.9454 552.5245,-152.812 560.6532,-154.9247 626.5417,-172.0498 704.4637,-177.0624 758.4977,-178.2432"/>
<polygon fill="#000000" stroke="#000000" points="758.5763,-181.7451 768.6378,-178.4259 758.7025,-174.7462 758.5763,-181.7451"/>
<text text-anchor="middle" x="655.7274" y="-180.7247" font-family="Times,serif" font-size="14.00" fill="#000000">enter/reenter synchronized</text>
</g>
<!-- D -->
<g id="node5" class="node">
<title>D</title>
<ellipse fill="none" stroke="#000000" cx="824.6688" cy="-51.9247" rx="47.8554" ry="47.8554"/>
<ellipse fill="none" stroke="#000000" cx="824.6688" cy="-51.9247" rx="51.8496" ry="51.8496"/>
<text text-anchor="middle" x="824.6688" y="-47.7247" font-family="Times,serif" font-size="14.00" fill="#000000">WAITING</text>
</g>
<!-- B&#45;&gt;D -->
<g id="edge5" class="edge">
<title>B&#45;&gt;D</title>
<path fill="none" stroke="#000000" d="M541.6616,-106.2441C548.0631,-105.0588 554.4831,-103.9279 560.6532,-102.9247 644.7302,-89.2554 668.0217,-99.0064 750.8016,-78.9247 756.0263,-77.6573 761.3913,-76.1409 766.7298,-74.4823"/>
<polygon fill="#000000" stroke="#000000" points="767.8546,-77.797 776.2745,-71.3661 765.682,-71.1426 767.8546,-77.797"/>
<text text-anchor="middle" x="655.7274" y="-105.7247" font-family="Times,serif" font-size="14.00" fill="#000000">park wait join</text>
</g>
<!-- C&#45;&gt;B -->
<g id="edge4" class="edge">
<title>C&#45;&gt;B</title>
<path fill="none" stroke="#000000" d="M777.5378,-147.8088C768.9245,-143.4676 759.8057,-139.5783 750.8016,-136.9247 715.0656,-126.3932 620.0598,-122.0032 552.7931,-120.1866"/>
<polygon fill="#000000" stroke="#000000" points="552.7514,-116.6845 542.6648,-119.9267 552.5717,-123.6822 552.7514,-116.6845"/>
<text text-anchor="middle" x="655.7274" y="-139.7247" font-family="Times,serif" font-size="14.00" fill="#000000">exit synchronized</text>
</g>
<!-- D&#45;&gt;B -->
<g id="edge6" class="edge">
<title>D&#45;&gt;B</title>
<path fill="none" stroke="#000000" d="M773.3297,-43.0373C718.8408,-35.7648 631.0571,-30.3007 560.6532,-55.3248 551.2307,-58.6739 542.0744,-63.6218 533.5221,-69.3042"/>
<polygon fill="#000000" stroke="#000000" points="531.3286,-66.5686 525.1837,-75.1995 535.3697,-72.2844 531.3286,-66.5686"/>
<text text-anchor="middle" x="655.7274" y="-64.3246" font-family="Times,serif" font-size="14.00" fill="#000000">unpark notify notifyAll 线程结束</text>
</g>
<!-- E -->
<g id="node6" class="node">
<title>E</title>
<ellipse fill="none" stroke="#000000" cx="84.345" cy="-238.9247" rx="80.1976" ry="80.1976"/>
<ellipse fill="none" stroke="#000000" cx="84.345" cy="-238.9247" rx="84.1903" ry="84.1903"/>
<text text-anchor="middle" x="84.345" y="-234.7247" font-family="Times,serif" font-size="14.00" fill="#000000">TIMED_WAITING</text>
</g>
<!-- F -->
<g id="node7" class="node">
<title>F</title>
<ellipse fill="none" stroke="#000000" cx="84.345" cy="-411.9247" rx="66.6955" ry="66.6955"/>
<ellipse fill="none" stroke="#000000" cx="84.345" cy="-411.9247" rx="70.7012" ry="70.7012"/>
<text text-anchor="middle" x="84.345" y="-407.7247" font-family="Times,serif" font-size="14.00" fill="#000000">TERMINATED</text>
</g>
</g>
</svg>
