<?xml version="1.0" encoding="UTF-8" standalone="no"?>
<!DOCTYPE svg PUBLIC "-//W3C//DTD SVG 1.1//EN"
 "http://www.w3.org/Graphics/SVG/1.1/DTD/svg11.dtd">
<!-- Generated by graphviz version 2.40.1 (20161225.0304)
 -->
<!-- Title: atomic1 Pages: 1 -->
<svg width="819pt" height="59pt"
 viewBox="0.00 0.00 819.25 59.00" xmlns="http://www.w3.org/2000/svg" xmlns:xlink="http://www.w3.org/1999/xlink">
<g id="graph0" class="graph" transform="scale(1 1) rotate(0) translate(4 55)">
<title>atomic1</title>
<polygon fill="#ffffff" stroke="transparent" points="-4,4 -4,-55 815.2544,-55 815.2544,4 -4,4"/>
<!-- A -->
<g id="node1" class="node">
<title>A</title>
<polygon fill="none" stroke="#000000" points="303.1861,-36.5 124.4536,-36.5 124.4536,-.5 303.1861,-.5 303.1861,-36.5"/>
<text text-anchor="middle" x="213.8198" y="-14.3" font-family="Times,serif" font-size="14.00" fill="#000000"> | ... | &lt;f1&gt; eetop | ... | tid | ... |</text>
<text text-anchor="middle" x="62.1934" y="-39.3" font-family="Times,serif" font-size="14.00" fill="#000000">oop(java.lang.Thread)</text>
</g>
<!-- B -->
<g id="node2" class="node">
<title>B</title>
<polygon fill="none" stroke="#000000" points="585.95,-36.5 321.6897,-36.5 321.6897,-.5 585.95,-.5 585.95,-36.5"/>
<text text-anchor="middle" x="453.8198" y="-14.3" font-family="Times,serif" font-size="14.00" fill="#000000"> | &lt;f2&gt; _osthread | ... | &lt;f3&gt; _threadObj | |...| </text>
<text text-anchor="middle" x="289.2461" y="-39.3" font-family="Times,serif" font-size="14.00" fill="#000000">JavaThread</text>
</g>
<!-- C -->
<g id="node3" class="node">
<title>C</title>
<polygon fill="none" stroke="#000000" points="604.3853,-.5 604.3853,-36.5 811.2544,-36.5 811.2544,-.5 604.3853,-.5"/>
<text text-anchor="middle" x="614.1353" y="-14.3" font-family="Times,serif" font-size="14.00" fill="#000000"> </text>
<polyline fill="none" stroke="#000000" points="623.8853,-.5 623.8853,-36.5 "/>
<text text-anchor="middle" x="637.1353" y="-14.3" font-family="Times,serif" font-size="14.00" fill="#000000">...</text>
<polyline fill="none" stroke="#000000" points="650.3853,-.5 650.3853,-36.5 "/>
<text text-anchor="middle" x="660.1353" y="-14.3" font-family="Times,serif" font-size="14.00" fill="#000000"> </text>
<polyline fill="none" stroke="#000000" points="669.8853,-.5 669.8853,-36.5 "/>
<text text-anchor="middle" x="707.8198" y="-14.3" font-family="Times,serif" font-size="14.00" fill="#000000">_thread_id</text>
<polyline fill="none" stroke="#000000" points="745.7544,-.5 745.7544,-36.5 "/>
<text text-anchor="middle" x="755.5044" y="-14.3" font-family="Times,serif" font-size="14.00" fill="#000000"> </text>
<polyline fill="none" stroke="#000000" points="765.2544,-.5 765.2544,-36.5 "/>
<text text-anchor="middle" x="778.5044" y="-14.3" font-family="Times,serif" font-size="14.00" fill="#000000">...</text>
<polyline fill="none" stroke="#000000" points="791.7544,-.5 791.7544,-36.5 "/>
<text text-anchor="middle" x="801.5044" y="-14.3" font-family="Times,serif" font-size="14.00" fill="#000000"> </text>
<text text-anchor="middle" x="575.6162" y="-39.8" font-family="Times,serif" font-size="14.00" fill="#000000">OSThread</text>
</g>
</g>
</svg>
