<?xml version="1.0" encoding="UTF-8" standalone="no"?>
<!DOCTYPE svg PUBLIC "-//W3C//DTD SVG 1.1//EN"
 "http://www.w3.org/Graphics/SVG/1.1/DTD/svg11.dtd">
<!-- Generated by graphviz version 2.40.1 (20161225.0304)
 -->
<!-- Title: atomic1 Pages: 1 -->
<svg width="98pt" height="292pt"
 viewBox="0.00 0.00 98.00 292.00" xmlns="http://www.w3.org/2000/svg" xmlns:xlink="http://www.w3.org/1999/xlink">
<g id="graph0" class="graph" transform="scale(1 1) rotate(0) translate(4 288)">
<title>atomic1</title>
<polygon fill="#ffffff" stroke="transparent" points="-4,4 -4,-288 94,-288 94,4 -4,4"/>
<g id="clust1" class="cluster">
<title>clusterA</title>
<polygon fill="none" stroke="#000000" points="8,-8 8,-276 82,-276 82,-8 8,-8"/>
</g>
<!-- A -->
<g id="node1" class="node">
<title>A</title>
<polygon fill="none" stroke="#000000" points="72,-268 18,-268 18,-232 72,-232 72,-268"/>
<text text-anchor="middle" x="45" y="-245.8" font-family="Times,serif" font-size="14.00" fill="#000000">a=1</text>
</g>
<!-- B -->
<g id="node2" class="node">
<title>B</title>
<polygon fill="none" stroke="#000000" points="72,-196 18,-196 18,-160 72,-160 72,-196"/>
<text text-anchor="middle" x="45" y="-173.8" font-family="Times,serif" font-size="14.00" fill="#000000">b=2</text>
</g>
<!-- A&#45;&gt;B -->
<g id="edge1" class="edge">
<title>A&#45;&gt;B</title>
<path fill="none" stroke="#000000" d="M39.0476,-231.8314C38.2972,-224.131 38.0763,-214.9743 38.3849,-206.4166"/>
<polygon fill="#000000" stroke="#000000" points="41.8792,-206.6161 39.024,-196.4133 34.8935,-206.1697 41.8792,-206.6161"/>
</g>
<!-- A&#45;&gt;B -->
<g id="edge4" class="edge">
<title>A&#45;&gt;B</title>
<path fill="none" stroke="#000000" d="M50.9524,-231.8314C51.7028,-224.131 51.9237,-214.9743 51.6151,-206.4166"/>
<polygon fill="#000000" stroke="#000000" points="55.1065,-206.1697 50.976,-196.4133 48.1208,-206.6161 55.1065,-206.1697"/>
</g>
<!-- C -->
<g id="node3" class="node">
<title>C</title>
<polygon fill="none" stroke="#000000" points="72,-124 18,-124 18,-88 72,-88 72,-124"/>
<text text-anchor="middle" x="45" y="-101.8" font-family="Times,serif" font-size="14.00" fill="#000000">c=3</text>
</g>
<!-- B&#45;&gt;C -->
<g id="edge2" class="edge">
<title>B&#45;&gt;C</title>
<path fill="none" stroke="#000000" d="M39.0476,-159.8314C38.2972,-152.131 38.0763,-142.9743 38.3849,-134.4166"/>
<polygon fill="#000000" stroke="#000000" points="41.8792,-134.6161 39.024,-124.4133 34.8935,-134.1697 41.8792,-134.6161"/>
</g>
<!-- B&#45;&gt;C -->
<g id="edge5" class="edge">
<title>B&#45;&gt;C</title>
<path fill="none" stroke="#000000" d="M50.9524,-159.8314C51.7028,-152.131 51.9237,-142.9743 51.6151,-134.4166"/>
<polygon fill="#000000" stroke="#000000" points="55.1065,-134.1697 50.976,-124.4133 48.1208,-134.6161 55.1065,-134.1697"/>
</g>
<!-- D -->
<g id="node4" class="node">
<title>D</title>
<polygon fill="none" stroke="#000000" points="74.1095,-52 15.8905,-52 15.8905,-16 74.1095,-16 74.1095,-52"/>
<text text-anchor="middle" x="45" y="-29.8" font-family="Times,serif" font-size="14.00" fill="#000000">done=1</text>
</g>
<!-- C&#45;&gt;D -->
<g id="edge3" class="edge">
<title>C&#45;&gt;D</title>
<path fill="none" stroke="#000000" d="M39.0476,-87.8314C38.2972,-80.131 38.0763,-70.9743 38.3849,-62.4166"/>
<polygon fill="#000000" stroke="#000000" points="41.8792,-62.6161 39.024,-52.4133 34.8935,-62.1697 41.8792,-62.6161"/>
</g>
<!-- C&#45;&gt;D -->
<g id="edge6" class="edge">
<title>C&#45;&gt;D</title>
<path fill="none" stroke="#000000" d="M50.9524,-87.8314C51.7028,-80.131 51.9237,-70.9743 51.6151,-62.4166"/>
<polygon fill="#000000" stroke="#000000" points="55.1065,-62.1697 50.976,-52.4133 48.1208,-62.6161 55.1065,-62.1697"/>
</g>
</g>
</svg>
