<?xml version="1.0" encoding="UTF-8" standalone="no"?>
<!DOCTYPE svg PUBLIC "-//W3C//DTD SVG 1.1//EN"
 "http://www.w3.org/Graphics/SVG/1.1/DTD/svg11.dtd">
<!-- Generated by graphviz version 2.40.1 (20161225.0304)
 -->
<!-- Title: atomic1 Pages: 1 -->
<svg width="478pt" height="213pt"
 viewBox="0.00 0.00 477.81 213.26" xmlns="http://www.w3.org/2000/svg" xmlns:xlink="http://www.w3.org/1999/xlink">
<g id="graph0" class="graph" transform="scale(1 1) rotate(0) translate(4 209.2642)">
<title>atomic1</title>
<polygon fill="#ffffff" stroke="transparent" points="-4,4 -4,-209.2642 473.8112,-209.2642 473.8112,4 -4,4"/>
<!-- a1 -->
<g id="node1" class="node">
<title>a1</title>
<ellipse fill="none" stroke="#000000" cx="60.8112" cy="-177.6643" rx="50.8235" ry="19.5322"/>
<text text-anchor="middle" x="60.8112" y="-176.2642" font-family="Times,serif" font-size="14.00" fill="#000000">医疗诊断</text>
</g>
<!-- a2 -->
<g id="node2" class="node">
<title>a2</title>
<ellipse fill="none" stroke="#000000" cx="60.8112" cy="-94.5483" rx="50.8235" ry="19.5322"/>
<text text-anchor="middle" x="60.8112" y="-93.1482" font-family="Times,serif" font-size="14.00" fill="#000000">症状信息</text>
</g>
<!-- a1&#45;&gt;a2 -->
<g id="edge1" class="edge">
<title>a1&#45;&gt;a2</title>
<path fill="none" stroke="#000000" d="M60.8112,-157.9669C60.8112,-147.9264 60.8112,-135.5059 60.8112,-124.3255"/>
<polygon fill="#000000" stroke="#000000" points="64.3113,-124.1042 60.8112,-114.1042 57.3113,-124.1042 64.3113,-124.1042"/>
</g>
<!-- a3 -->
<g id="node3" class="node">
<title>a3</title>
<ellipse fill="none" stroke="#000000" cx="60.8112" cy="-19.5161" rx="60.623" ry="19.5322"/>
<text text-anchor="middle" x="60.8112" y="-18.116" font-family="Times,serif" font-size="14.00" fill="#000000">病人等价类</text>
</g>
<!-- a2&#45;&gt;a3 -->
<g id="edge2" class="edge">
<title>a2&#45;&gt;a3</title>
<path fill="none" stroke="#000000" d="M60.8112,-74.8344C60.8112,-66.9938 60.8112,-57.8027 60.8112,-49.1891"/>
<polygon fill="#000000" stroke="#000000" points="64.3113,-49.0982 60.8112,-39.0982 57.3113,-49.0983 64.3113,-49.0982"/>
</g>
<!-- c1 -->
<g id="node4" class="node">
<title>c1</title>
<polygon fill="none" stroke="#000000" points="299.8112,-205.3645 129.8112,-177.6643 299.8112,-149.9641 469.8112,-177.6643 299.8112,-205.3645"/>
<text text-anchor="middle" x="299.8112" y="-176.2642" font-family="Times,serif" font-size="14.00" fill="#000000">是否有决策成本损失信息</text>
</g>
</g>
</svg>
