<?xml version="1.0" encoding="UTF-8" standalone="no"?>
<!DOCTYPE svg PUBLIC "-//W3C//DTD SVG 1.1//EN"
 "http://www.w3.org/Graphics/SVG/1.1/DTD/svg11.dtd">
<!-- Generated by graphviz version 2.40.1 (20161225.0304)
 -->
<!-- Title: atomic1 Pages: 1 -->
<svg width="1726pt" height="295pt"
 viewBox="0.00 0.00 1726.00 294.66" xmlns="http://www.w3.org/2000/svg" xmlns:xlink="http://www.w3.org/1999/xlink">
<g id="graph0" class="graph" transform="scale(1 1) rotate(0) translate(4 290.6643)">
<title>atomic1</title>
<polygon fill="#ffffff" stroke="transparent" points="-4,4 -4,-290.6643 1722,-290.6643 1722,4 -4,4"/>
<g id="clust2" class="cluster">
<title>clusterA</title>
<polygon fill="none" stroke="#000000" points="514,-226.6643 514,-278.6643 734,-278.6643 734,-226.6643 514,-226.6643"/>
</g>
<!-- t1 -->
<g id="node1" class="node">
<title>t1</title>
<ellipse fill="none" stroke="#000000" cx="95" cy="-252.6643" rx="50.8235" ry="19.5322"/>
<text text-anchor="middle" x="95" y="-251.2642" font-family="Times,serif" font-size="14.00" fill="#000000">医疗诊断</text>
</g>
<!-- t2 -->
<g id="node2" class="node">
<title>t2</title>
<ellipse fill="none" stroke="#000000" cx="95" cy="-169.5483" rx="50.8235" ry="19.5322"/>
<text text-anchor="middle" x="95" y="-168.1482" font-family="Times,serif" font-size="14.00" fill="#000000">症状信息</text>
</g>
<!-- t1&#45;&gt;t2 -->
<g id="edge1" class="edge">
<title>t1&#45;&gt;t2</title>
<path fill="none" stroke="#000000" d="M95,-232.9669C95,-222.9264 95,-210.5059 95,-199.3255"/>
<polygon fill="#000000" stroke="#000000" points="98.5001,-199.1042 95,-189.1042 91.5001,-199.1042 98.5001,-199.1042"/>
</g>
<!-- t3 -->
<g id="node3" class="node">
<title>t3</title>
<ellipse fill="none" stroke="#000000" cx="95" cy="-94.5161" rx="60.623" ry="19.5322"/>
<text text-anchor="middle" x="95" y="-93.116" font-family="Times,serif" font-size="14.00" fill="#000000">病人等价类</text>
</g>
<!-- t2&#45;&gt;t3 -->
<g id="edge2" class="edge">
<title>t2&#45;&gt;t3</title>
<path fill="none" stroke="#000000" d="M95,-149.8344C95,-141.9938 95,-132.8027 95,-124.1891"/>
<polygon fill="#000000" stroke="#000000" points="98.5001,-124.0982 95,-114.0982 91.5001,-124.0983 98.5001,-124.0982"/>
</g>
<!-- r -->
<g id="node7" class="node">
<title>r</title>
<polygon fill="none" stroke="#000000" points="11,-6.5 11,-31.5 87,-31.5 87,-6.5 11,-6.5"/>
<text text-anchor="start" x="14" y="-17.3" font-family="Times,serif" font-size="14.00" fill="#000000">决策粗糙集</text>
<polygon fill="none" stroke="#000000" points="89,-6.5 89,-31.5 179,-31.5 179,-6.5 89,-6.5"/>
<text text-anchor="start" x="92" y="-17.3" font-family="Times,serif" font-size="14.00" fill="#000000">三支决策规则</text>
<polygon fill="none" stroke="#000000" points="8,-4 8,-35 182,-35 182,-4 8,-4"/>
</g>
<!-- t3&#45;&gt;r -->
<g id="edge3" class="edge">
<title>t3&#45;&gt;r</title>
<path fill="none" stroke="#000000" d="M95,-74.8065C95,-66.9676 95,-57.7785 95,-49.1666"/>
<polygon fill="#000000" stroke="#000000" points="98.5001,-49.0779 95,-39.078 91.5001,-49.078 98.5001,-49.0779"/>
</g>
<!-- c1 -->
<g id="node4" class="node">
<title>c1</title>
<polygon fill="none" stroke="#000000" points="334,-280.3645 164,-252.6643 334,-224.9641 504,-252.6643 334,-280.3645"/>
<text text-anchor="middle" x="334" y="-251.2642" font-family="Times,serif" font-size="14.00" fill="#000000">是否有决策成本损失信息</text>
</g>
<!-- r1 -->
<g id="node5" class="node">
<title>r1</title>
<polygon fill="none" stroke="#000000" points="726,-270.6643 640,-270.6643 640,-234.6643 726,-234.6643 726,-270.6643"/>
<text text-anchor="middle" x="683" y="-251.2642" font-family="Times,serif" font-size="14.00" fill="#000000">决策粗糙集</text>
</g>
<!-- r2 -->
<g id="node6" class="node">
<title>r2</title>
<polygon fill="none" stroke="#000000" points="622,-270.6643 522,-270.6643 522,-234.6643 622,-234.6643 622,-270.6643"/>
<text text-anchor="middle" x="572" y="-251.2642" font-family="Times,serif" font-size="14.00" fill="#000000">三支决策规则</text>
</g>
<!-- r3 -->
<g id="node8" class="node">
<title>r3</title>
<ellipse fill="none" stroke="#000000" cx="785" cy="-252.6643" rx="41.0244" ry="19.5322"/>
<text text-anchor="middle" x="785" y="-251.2642" font-family="Times,serif" font-size="14.00" fill="#000000">病患类</text>
</g>
<!-- r4 -->
<g id="node9" class="node">
<title>r4</title>
<ellipse fill="none" stroke="#000000" cx="915" cy="-252.6643" rx="70.922" ry="19.5322"/>
<text text-anchor="middle" x="915" y="-251.2642" font-family="Times,serif" font-size="14.00" fill="#000000">进一步观察类</text>
</g>
<!-- r5 -->
<g id="node10" class="node">
<title>r5</title>
<ellipse fill="none" stroke="#000000" cx="1045" cy="-252.6643" rx="41.0244" ry="19.5322"/>
<text text-anchor="middle" x="1045" y="-251.2642" font-family="Times,serif" font-size="14.00" fill="#000000">患病类</text>
</g>
<!-- l1 -->
<g id="node11" class="node">
<title>l1</title>
<polygon fill="none" stroke="#000000" points="1232,-270.6643 1104,-270.6643 1104,-234.6643 1232,-234.6643 1232,-270.6643"/>
<text text-anchor="middle" x="1168" y="-251.2642" font-family="Times,serif" font-size="14.00" fill="#000000">临床数据管理系统</text>
</g>
<!-- l2 -->
<g id="node12" class="node">
<title>l2</title>
<polygon fill="none" stroke="#000000" points="1322,-270.6643 1250,-270.6643 1250,-234.6643 1322,-234.6643 1322,-270.6643"/>
<text text-anchor="middle" x="1286" y="-251.2642" font-family="Times,serif" font-size="14.00" fill="#000000">知识管理</text>
</g>
<!-- l3 -->
<g id="node13" class="node">
<title>l3</title>
<polygon fill="none" stroke="#000000" points="1454,-270.6643 1340,-270.6643 1340,-234.6643 1454,-234.6643 1454,-270.6643"/>
<text text-anchor="middle" x="1397" y="-251.2642" font-family="Times,serif" font-size="14.00" fill="#000000">病人历史数据库</text>
</g>
<!-- l4 -->
<g id="node14" class="node">
<title>l4</title>
<polygon fill="none" stroke="#000000" points="1628,-270.6643 1472,-270.6643 1472,-234.6643 1628,-234.6643 1628,-270.6643"/>
<text text-anchor="middle" x="1550" y="-251.2642" font-family="Times,serif" font-size="14.00" fill="#000000">集成机器学习分类预测</text>
</g>
<!-- l5 -->
<g id="node15" class="node">
<title>l5</title>
<polygon fill="none" stroke="#000000" points="1718,-270.6643 1646,-270.6643 1646,-234.6643 1718,-234.6643 1718,-270.6643"/>
<text text-anchor="middle" x="1682" y="-251.2642" font-family="Times,serif" font-size="14.00" fill="#000000">未患病类</text>
</g>
</g>
</svg>
