<?xml version="1.0" encoding="UTF-8" standalone="no"?>
<!DOCTYPE svg PUBLIC "-//W3C//DTD SVG 1.1//EN"
 "http://www.w3.org/Graphics/SVG/1.1/DTD/svg11.dtd">
<!-- Generated by graphviz version 2.40.1 (20161225.0304)
 -->
<!-- Title: atomic1 Pages: 1 -->
<svg width="98pt" height="392pt"
 viewBox="0.00 0.00 98.00 391.60" xmlns="http://www.w3.org/2000/svg" xmlns:xlink="http://www.w3.org/1999/xlink">
<g id="graph0" class="graph" transform="scale(1 1) rotate(0) translate(4 387.5999)">
<title>atomic1</title>
<polygon fill="#ffffff" stroke="transparent" points="-4,4 -4,-387.5999 94,-387.5999 94,4 -4,4"/>
<g id="clust1" class="cluster">
<title>clusterA</title>
<polygon fill="none" stroke="#000000" points="8,-8 8,-375.5999 82,-375.5999 82,-8 8,-8"/>
<text text-anchor="middle" x="45" y="-360.3999" font-family="Times,serif" font-size="14.00" fill="#000000">线程1</text>
</g>
<!-- A1 -->
<g id="node1" class="node">
<title>A1</title>
<polygon fill="none" stroke="#000000" points="72,-340 18,-340 18,-304 72,-304 72,-340"/>
<text text-anchor="middle" x="45" y="-317.8" font-family="Times,serif" font-size="14.00" fill="#000000">a=1</text>
</g>
<!-- B1 -->
<g id="node2" class="node">
<title>B1</title>
<polygon fill="none" stroke="#000000" points="72,-268 18,-268 18,-232 72,-232 72,-268"/>
<text text-anchor="middle" x="45" y="-245.8" font-family="Times,serif" font-size="14.00" fill="#000000">b=2</text>
</g>
<!-- A1&#45;&gt;B1 -->
<g id="edge1" class="edge">
<title>A1&#45;&gt;B1</title>
<path fill="none" stroke="#000000" d="M45,-303.8314C45,-296.131 45,-286.9743 45,-278.4166"/>
<polygon fill="#000000" stroke="#000000" points="48.5001,-278.4132 45,-268.4133 41.5001,-278.4133 48.5001,-278.4132"/>
</g>
<!-- C1 -->
<g id="node3" class="node">
<title>C1</title>
<polygon fill="none" stroke="#000000" points="72,-196 18,-196 18,-160 72,-160 72,-196"/>
<text text-anchor="middle" x="45" y="-173.8" font-family="Times,serif" font-size="14.00" fill="#000000">c=3</text>
</g>
<!-- B1&#45;&gt;C1 -->
<g id="edge2" class="edge">
<title>B1&#45;&gt;C1</title>
<path fill="none" stroke="#000000" d="M45,-231.8314C45,-224.131 45,-214.9743 45,-206.4166"/>
<polygon fill="#000000" stroke="#000000" points="48.5001,-206.4132 45,-196.4133 41.5001,-206.4133 48.5001,-206.4132"/>
</g>
<!-- D1 -->
<g id="node4" class="node">
<title>D1</title>
<polygon fill="none" stroke="#000000" points="74.0068,-124 15.9932,-124 15.9932,-88 74.0068,-88 74.0068,-124"/>
<text text-anchor="middle" x="45" y="-101.8" font-family="Times,serif" font-size="14.00" fill="#000000">CPUID</text>
</g>
<!-- C1&#45;&gt;D1 -->
<g id="edge3" class="edge">
<title>C1&#45;&gt;D1</title>
<path fill="none" stroke="#000000" d="M45,-159.8314C45,-152.131 45,-142.9743 45,-134.4166"/>
<polygon fill="#000000" stroke="#000000" points="48.5001,-134.4132 45,-124.4133 41.5001,-134.4133 48.5001,-134.4132"/>
</g>
<!-- E1 -->
<g id="node5" class="node">
<title>E1</title>
<polygon fill="none" stroke="#000000" points="74.1095,-52 15.8905,-52 15.8905,-16 74.1095,-16 74.1095,-52"/>
<text text-anchor="middle" x="45" y="-29.8" font-family="Times,serif" font-size="14.00" fill="#000000">done=1</text>
</g>
<!-- D1&#45;&gt;E1 -->
<g id="edge4" class="edge">
<title>D1&#45;&gt;E1</title>
<path fill="none" stroke="#000000" d="M45,-87.8314C45,-80.131 45,-70.9743 45,-62.4166"/>
<polygon fill="#000000" stroke="#000000" points="48.5001,-62.4132 45,-52.4133 41.5001,-62.4133 48.5001,-62.4132"/>
</g>
</g>
</svg>
