<?xml version="1.0" encoding="UTF-8" standalone="no"?>
<!DOCTYPE svg PUBLIC "-//W3C//DTD SVG 1.1//EN"
 "http://www.w3.org/Graphics/SVG/1.1/DTD/svg11.dtd">
<!-- Generated by graphviz version 2.40.1 (20161225.0304)
 -->
<!-- Title: atomic1 Pages: 1 -->
<svg width="248pt" height="450pt"
 viewBox="0.00 0.00 248.00 449.60" xmlns="http://www.w3.org/2000/svg" xmlns:xlink="http://www.w3.org/1999/xlink">
<g id="graph0" class="graph" transform="scale(1 1) rotate(0) translate(4 445.5999)">
<title>atomic1</title>
<polygon fill="#ffffff" stroke="transparent" points="-4,4 -4,-445.5999 244,-445.5999 244,4 -4,4"/>
<g id="clust1" class="cluster">
<title>clusterA</title>
<polygon fill="none" stroke="#000000" points="8,-8 8,-433.5999 82,-433.5999 82,-8 8,-8"/>
<text text-anchor="middle" x="45" y="-418.3999" font-family="Times,serif" font-size="14.00" fill="#000000">线程1</text>
</g>
<g id="clust2" class="cluster">
<title>clusterB</title>
<polygon fill="none" stroke="#000000" points="90,-119 90,-433.5999 232,-433.5999 232,-119 90,-119"/>
<text text-anchor="middle" x="161" y="-418.3999" font-family="Times,serif" font-size="14.00" fill="#000000">线程2</text>
</g>
<!-- A1 -->
<g id="node1" class="node">
<title>A1</title>
<polygon fill="none" stroke="#000000" points="72,-398 18,-398 18,-362 72,-362 72,-398"/>
<text text-anchor="middle" x="45" y="-375.8" font-family="Times,serif" font-size="14.00" fill="#000000">a=1</text>
</g>
<!-- B1 -->
<g id="node2" class="node">
<title>B1</title>
<polygon fill="none" stroke="#000000" points="72,-287 18,-287 18,-251 72,-251 72,-287"/>
<text text-anchor="middle" x="45" y="-264.8" font-family="Times,serif" font-size="14.00" fill="#000000">b=2</text>
</g>
<!-- A1&#45;&gt;B1 -->
<g id="edge1" class="edge">
<title>A1&#45;&gt;B1</title>
<path fill="none" stroke="#000000" d="M45,-361.6706C45,-344.2373 45,-317.7482 45,-297.5489"/>
<polygon fill="#000000" stroke="#000000" points="48.5001,-297.3566 45,-287.3566 41.5001,-297.3567 48.5001,-297.3566"/>
</g>
<!-- C1 -->
<g id="node3" class="node">
<title>C1</title>
<polygon fill="none" stroke="#000000" points="72,-163 18,-163 18,-127 72,-127 72,-163"/>
<text text-anchor="middle" x="45" y="-140.8" font-family="Times,serif" font-size="14.00" fill="#000000">c=3</text>
</g>
<!-- B1&#45;&gt;C1 -->
<g id="edge2" class="edge">
<title>B1&#45;&gt;C1</title>
<path fill="none" stroke="#000000" d="M45,-250.9693C45,-230.5822 45,-197.1268 45,-173.2614"/>
<polygon fill="#000000" stroke="#000000" points="48.5001,-173.0524 45,-163.0524 41.5001,-173.0525 48.5001,-173.0524"/>
</g>
<!-- D1 -->
<g id="node4" class="node">
<title>D1</title>
<polygon fill="none" stroke="#000000" points="74.1095,-52 15.8905,-52 15.8905,-16 74.1095,-16 74.1095,-52"/>
<text text-anchor="middle" x="45" y="-29.8" font-family="Times,serif" font-size="14.00" fill="#000000">done=1</text>
</g>
<!-- C1&#45;&gt;D1 -->
<g id="edge3" class="edge">
<title>C1&#45;&gt;D1</title>
<path fill="none" stroke="#000000" d="M45,-126.6706C45,-109.2373 45,-82.7482 45,-62.5489"/>
<polygon fill="#000000" stroke="#000000" points="48.5001,-62.3566 45,-52.3566 41.5001,-62.3567 48.5001,-62.3566"/>
</g>
<!-- A2 -->
<g id="node5" class="node">
<title>A2</title>
<polygon fill="none" stroke="#000000" points="187,-398 133,-398 133,-362 187,-362 187,-398"/>
<text text-anchor="middle" x="160" y="-375.8" font-family="Times,serif" font-size="14.00" fill="#000000">...</text>
</g>
<!-- B2 -->
<g id="node6" class="node">
<title>B2</title>
<polygon fill="none" stroke="#000000" points="196.2191,-287 123.7809,-287 123.7809,-251 196.2191,-251 196.2191,-287"/>
<text text-anchor="middle" x="160" y="-264.8" font-family="Times,serif" font-size="14.00" fill="#000000">done==1?</text>
</g>
<!-- A2&#45;&gt;B2 -->
<g id="edge4" class="edge">
<title>A2&#45;&gt;B2</title>
<path fill="none" stroke="#000000" d="M160,-361.6706C160,-344.2373 160,-317.7482 160,-297.5489"/>
<polygon fill="#000000" stroke="#000000" points="163.5001,-297.3566 160,-287.3566 156.5001,-297.3567 163.5001,-297.3566"/>
</g>
<!-- C2 -->
<g id="node7" class="node">
<title>C2</title>
<polygon fill="none" stroke="#000000" points="152,-163 98,-163 98,-127 152,-127 152,-163"/>
<text text-anchor="middle" x="125" y="-140.8" font-family="Times,serif" font-size="14.00" fill="#000000">d=c</text>
</g>
<!-- B2&#45;&gt;C2 -->
<g id="edge5" class="edge">
<title>B2&#45;&gt;C2</title>
<path fill="none" stroke="#000000" d="M154.9107,-250.9693C149.1303,-230.4903 139.6281,-196.8251 132.8861,-172.9395"/>
<polygon fill="#000000" stroke="#000000" points="136.1804,-171.7256 130.0954,-163.0524 129.4436,-173.6272 136.1804,-171.7256"/>
<text text-anchor="middle" x="157.2241" y="-202.8" font-family="Times,serif" font-size="14.00" fill="#000000">YES</text>
</g>
<!-- D2 -->
<g id="node8" class="node">
<title>D2</title>
<polygon fill="none" stroke="#000000" points="224,-163 170,-163 170,-127 224,-127 224,-163"/>
<text text-anchor="middle" x="197" y="-140.8" font-family="Times,serif" font-size="14.00" fill="#000000">...</text>
</g>
<!-- B2&#45;&gt;D2 -->
<g id="edge6" class="edge">
<title>B2&#45;&gt;D2</title>
<path fill="none" stroke="#000000" d="M165.3801,-250.9693C171.4908,-230.4903 181.536,-196.8251 188.6632,-172.9395"/>
<polygon fill="#000000" stroke="#000000" points="192.1079,-173.6357 191.6134,-163.0524 185.4001,-171.6342 192.1079,-173.6357"/>
<text text-anchor="middle" x="190.1104" y="-202.8" font-family="Times,serif" font-size="14.00" fill="#000000">NO</text>
</g>
</g>
</svg>
