<?xml version="1.0" encoding="UTF-8" standalone="no"?>
<!DOCTYPE svg PUBLIC "-//W3C//DTD SVG 1.1//EN"
 "http://www.w3.org/Graphics/SVG/1.1/DTD/svg11.dtd">
<!-- Generated by graphviz version 2.40.1 (20161225.0304)
 -->
<!-- Title: atomic1 Pages: 1 -->
<svg width="641pt" height="363pt"
 viewBox="0.00 0.00 640.81 363.30" xmlns="http://www.w3.org/2000/svg" xmlns:xlink="http://www.w3.org/1999/xlink">
<g id="graph0" class="graph" transform="scale(1 1) rotate(0) translate(4 359.2963)">
<title>atomic1</title>
<polygon fill="#ffffff" stroke="transparent" points="-4,4 -4,-359.2963 636.8112,-359.2963 636.8112,4 -4,4"/>
<!-- t1 -->
<g id="node1" class="node">
<title>t1</title>
<ellipse fill="none" stroke="#000000" cx="60.8112" cy="-335.7803" rx="50.8235" ry="19.5322"/>
<text text-anchor="middle" x="60.8112" y="-334.3802" font-family="Times,serif" font-size="14.00" fill="#000000">医疗诊断</text>
</g>
<!-- t2 -->
<g id="node2" class="node">
<title>t2</title>
<ellipse fill="none" stroke="#000000" cx="60.8112" cy="-260.7481" rx="50.8235" ry="19.5322"/>
<text text-anchor="middle" x="60.8112" y="-259.348" font-family="Times,serif" font-size="14.00" fill="#000000">症状信息</text>
</g>
<!-- t1&#45;&gt;t2 -->
<g id="edge1" class="edge">
<title>t1&#45;&gt;t2</title>
<path fill="none" stroke="#000000" d="M60.8112,-316.0664C60.8112,-308.2258 60.8112,-299.0347 60.8112,-290.4211"/>
<polygon fill="#000000" stroke="#000000" points="64.3113,-290.3302 60.8112,-280.3302 57.3113,-290.3303 64.3113,-290.3302"/>
</g>
<!-- t3 -->
<g id="node3" class="node">
<title>t3</title>
<ellipse fill="none" stroke="#000000" cx="60.8112" cy="-177.6321" rx="60.623" ry="19.5322"/>
<text text-anchor="middle" x="60.8112" y="-176.232" font-family="Times,serif" font-size="14.00" fill="#000000">病人等价类</text>
</g>
<!-- t2&#45;&gt;t3 -->
<g id="edge2" class="edge">
<title>t2&#45;&gt;t3</title>
<path fill="none" stroke="#000000" d="M60.8112,-241.0508C60.8112,-231.0102 60.8112,-218.5897 60.8112,-207.4093"/>
<polygon fill="#000000" stroke="#000000" points="64.3113,-207.188 60.8112,-197.188 57.3113,-207.1881 64.3113,-207.188"/>
</g>
<!-- r -->
<g id="node5" class="node">
<title>r</title>
<polygon fill="none" stroke="#000000" points="101.8112,-81.5322 101.8112,-106.5322 177.8112,-106.5322 177.8112,-81.5322 101.8112,-81.5322"/>
<text text-anchor="start" x="104.8112" y="-92.3322" font-family="Times,serif" font-size="14.00" fill="#000000">决策粗糙集</text>
<polygon fill="none" stroke="#000000" points="179.8112,-81.5322 179.8112,-106.5322 269.8112,-106.5322 269.8112,-81.5322 179.8112,-81.5322"/>
<text text-anchor="start" x="182.8112" y="-92.3322" font-family="Times,serif" font-size="14.00" fill="#000000">三支决策规则</text>
<polygon fill="none" stroke="#000000" points="98.8112,-79.0322 98.8112,-110.0322 272.8112,-110.0322 272.8112,-79.0322 98.8112,-79.0322"/>
</g>
<!-- t3&#45;&gt;r -->
<g id="edge3" class="edge">
<title>t3&#45;&gt;r</title>
<path fill="none" stroke="#000000" d="M87.3205,-160.0087C104.9249,-148.3053 128.3084,-132.76 147.8733,-119.7533"/>
<polygon fill="#000000" stroke="#000000" points="149.887,-122.6174 156.277,-114.1665 146.0116,-116.7881 149.887,-122.6174"/>
</g>
<!-- c1 -->
<g id="node4" class="node">
<title>c1</title>
<polygon fill="none" stroke="#000000" points="309.8112,-205.3323 139.8112,-177.6321 309.8112,-149.9319 479.8112,-177.6321 309.8112,-205.3323"/>
<text text-anchor="middle" x="309.8112" y="-176.232" font-family="Times,serif" font-size="14.00" fill="#000000">是否有决策成本损失信息</text>
</g>
<!-- c1&#45;&gt;r -->
<g id="edge4" class="edge">
<title>c1&#45;&gt;r</title>
<path fill="none" stroke="#000000" d="M276.255,-155.1441C260.0082,-144.2561 240.4345,-131.1385 223.6576,-119.8953"/>
<polygon fill="#000000" stroke="#000000" points="225.4273,-116.8681 215.1717,-114.2084 221.5303,-122.683 225.4273,-116.8681"/>
</g>
<!-- r3 -->
<g id="node7" class="node">
<title>r3</title>
<ellipse fill="none" stroke="#000000" cx="55.8112" cy="-19.5161" rx="41.0244" ry="19.5322"/>
<text text-anchor="middle" x="55.8112" y="-18.116" font-family="Times,serif" font-size="14.00" fill="#000000">病患类</text>
</g>
<!-- r&#45;&gt;r3 -->
<g id="edge5" class="edge">
<title>r&#45;&gt;r3</title>
<path fill="none" stroke="#000000" d="M151.9946,-75.0184C133.1603,-64.1502 109.7483,-50.6403 90.7384,-39.6707"/>
<polygon fill="#000000" stroke="#000000" points="92.4841,-36.6372 82.0734,-34.6706 88.9855,-42.7002 92.4841,-36.6372"/>
</g>
<!-- r4 -->
<g id="node8" class="node">
<title>r4</title>
<ellipse fill="none" stroke="#000000" cx="185.8112" cy="-19.5161" rx="70.922" ry="19.5322"/>
<text text-anchor="middle" x="185.8112" y="-18.116" font-family="Times,serif" font-size="14.00" fill="#000000">进一步观察类</text>
</g>
<!-- r&#45;&gt;r4 -->
<g id="edge6" class="edge">
<title>r&#45;&gt;r4</title>
<path fill="none" stroke="#000000" d="M185.8112,-74.8226C185.8112,-66.9837 185.8112,-57.7945 185.8112,-49.1827"/>
<polygon fill="#000000" stroke="#000000" points="189.3113,-49.094 185.8112,-39.094 182.3113,-49.0941 189.3113,-49.094"/>
</g>
<!-- r5 -->
<g id="node9" class="node">
<title>r5</title>
<ellipse fill="none" stroke="#000000" cx="315.8112" cy="-19.5161" rx="41.0244" ry="19.5322"/>
<text text-anchor="middle" x="315.8112" y="-18.116" font-family="Times,serif" font-size="14.00" fill="#000000">患病类</text>
</g>
<!-- r&#45;&gt;r5 -->
<g id="edge7" class="edge">
<title>r&#45;&gt;r5</title>
<path fill="none" stroke="#000000" d="M219.6278,-75.0184C238.4621,-64.1502 261.8741,-50.6403 280.884,-39.6707"/>
<polygon fill="#000000" stroke="#000000" points="282.6369,-42.7002 289.549,-34.6706 279.1382,-36.6372 282.6369,-42.7002"/>
</g>
<!-- l -->
<g id="node6" class="node">
<title>l</title>
<polygon fill="none" stroke="#000000" points="340.8112,-247.7481 340.8112,-272.7481 458.8112,-272.7481 458.8112,-247.7481 340.8112,-247.7481"/>
<text text-anchor="start" x="343.8112" y="-258.5481" font-family="Times,serif" font-size="14.00" fill="#000000">临床数据管理系统</text>
<polygon fill="none" stroke="#000000" points="460.8112,-247.7481 460.8112,-272.7481 522.8112,-272.7481 522.8112,-247.7481 460.8112,-247.7481"/>
<text text-anchor="start" x="463.8112" y="-258.5481" font-family="Times,serif" font-size="14.00" fill="#000000">知识管理</text>
<polygon fill="none" stroke="#000000" points="337.8112,-245.2481 337.8112,-276.2481 525.8112,-276.2481 525.8112,-245.2481 337.8112,-245.2481"/>
</g>
<!-- l&#45;&gt;c1 -->
<g id="edge8" class="edge">
<title>l&#45;&gt;c1</title>
<path fill="none" stroke="#000000" d="M402.8989,-241.0508C387.538,-230.5857 368.382,-217.5351 351.4474,-205.998"/>
<polygon fill="#000000" stroke="#000000" points="353.0611,-202.8623 342.8261,-200.1245 349.1199,-208.6474 353.0611,-202.8623"/>
</g>
<!-- l3 -->
<g id="node10" class="node">
<title>l3</title>
<polygon fill="none" stroke="#000000" points="611.8112,-195.6321 497.8112,-195.6321 497.8112,-159.6321 611.8112,-159.6321 611.8112,-195.6321"/>
<text text-anchor="middle" x="554.8112" y="-176.232" font-family="Times,serif" font-size="14.00" fill="#000000">病人历史数据库</text>
</g>
<!-- l&#45;&gt;l3 -->
<g id="edge9" class="edge">
<title>l&#45;&gt;l3</title>
<path fill="none" stroke="#000000" d="M460.9605,-241.0508C478.5003,-229.1984 500.9479,-214.0297 519.4912,-201.4992"/>
<polygon fill="#000000" stroke="#000000" points="521.6467,-204.2669 527.9727,-195.7679 517.7274,-198.4669 521.6467,-204.2669"/>
</g>
<!-- l4 -->
<g id="node11" class="node">
<title>l4</title>
<polygon fill="none" stroke="#000000" points="632.8112,-112.5322 476.8112,-112.5322 476.8112,-76.5322 632.8112,-76.5322 632.8112,-112.5322"/>
<text text-anchor="middle" x="554.8112" y="-93.1321" font-family="Times,serif" font-size="14.00" fill="#000000">集成机器学习分类预测</text>
</g>
<!-- l3&#45;&gt;l4 -->
<g id="edge10" class="edge">
<title>l3&#45;&gt;l4</title>
<path fill="none" stroke="#000000" d="M554.8112,-159.6006C554.8112,-148.8938 554.8112,-135.0803 554.8112,-122.9369"/>
<polygon fill="#000000" stroke="#000000" points="558.3113,-122.8154 554.8112,-112.8154 551.3113,-122.8154 558.3113,-122.8154"/>
</g>
<!-- l5 -->
<g id="node12" class="node">
<title>l5</title>
<polygon fill="none" stroke="#000000" points="542.8112,-37.5161 484.8112,-37.5161 484.8112,-1.5161 542.8112,-1.5161 542.8112,-37.5161"/>
<text text-anchor="middle" x="513.8112" y="-18.116" font-family="Times,serif" font-size="14.00" fill="#000000">患病类</text>
</g>
<!-- l4&#45;&gt;l5 -->
<g id="edge11" class="edge">
<title>l4&#45;&gt;l5</title>
<path fill="none" stroke="#000000" d="M544.8862,-76.3729C540.0371,-67.5006 534.1009,-56.6394 528.7209,-46.7959"/>
<polygon fill="#000000" stroke="#000000" points="531.654,-44.8645 523.7868,-37.7682 525.5116,-48.2217 531.654,-44.8645"/>
</g>
<!-- l6 -->
<g id="node13" class="node">
<title>l6</title>
<polygon fill="none" stroke="#000000" points="632.8112,-37.5161 560.8112,-37.5161 560.8112,-1.5161 632.8112,-1.5161 632.8112,-37.5161"/>
<text text-anchor="middle" x="596.8112" y="-18.116" font-family="Times,serif" font-size="14.00" fill="#000000">未患病类</text>
</g>
<!-- l4&#45;&gt;l6 -->
<g id="edge12" class="edge">
<title>l4&#45;&gt;l6</title>
<path fill="none" stroke="#000000" d="M564.9782,-76.3729C569.9456,-67.5006 576.0266,-56.6394 581.5378,-46.7959"/>
<polygon fill="#000000" stroke="#000000" points="584.7609,-48.2035 586.5922,-37.7682 578.653,-44.7838 584.7609,-48.2035"/>
</g>
</g>
</svg>
