<?xml version="1.0" encoding="UTF-8" standalone="no"?>
<!DOCTYPE svg PUBLIC "-//W3C//DTD SVG 1.1//EN"
 "http://www.w3.org/Graphics/SVG/1.1/DTD/svg11.dtd">
<!-- Generated by graphviz version 2.40.1 (20161225.0304)
 -->
<!-- Title: thread1 Pages: 1 -->
<svg width="576pt" height="244pt"
 viewBox="0.00 0.00 576.00 244.45" xmlns="http://www.w3.org/2000/svg" xmlns:xlink="http://www.w3.org/1999/xlink">
<g id="graph0" class="graph" transform="scale(.5709 .5709) rotate(0) translate(4 424.2122)">
<title>thread1</title>
<polygon fill="#ffffff" stroke="transparent" points="-4,4 -4,-424.2122 1005.0026,-424.2122 1005.0026,4 -4,4"/>
<!-- O -->
<g id="node1" class="node">
<title>O</title>
<ellipse fill="none" stroke="#000000" cx="70.6005" cy="-222.345" rx="18" ry="18"/>
<text text-anchor="middle" x="70.6005" y="-218.145" font-family="Times,serif" font-size="14.00" fill="#000000">O</text>
</g>
<!-- A -->
<g id="node2" class="node">
<title>A</title>
<ellipse fill="none" stroke="#000000" cx="286.9871" cy="-222.345" rx="30.4575" ry="30.4575"/>
<ellipse fill="none" stroke="#000000" cx="286.9871" cy="-222.345" rx="34.486" ry="34.486"/>
<text text-anchor="middle" x="286.9871" y="-218.145" font-family="Times,serif" font-size="14.00" fill="#000000">NEW</text>
</g>
<!-- O&#45;&gt;A -->
<g id="edge1" class="edge">
<title>O&#45;&gt;A</title>
<path fill="none" stroke="#000000" d="M88.6773,-222.345C122.2714,-222.345 195.2125,-222.345 242.6496,-222.345"/>
<polygon fill="#000000" stroke="#000000" points="242.6543,-225.8451 252.6542,-222.345 242.6542,-218.8451 242.6543,-225.8451"/>
<text text-anchor="middle" x="196.973" y="-225.145" font-family="Times,serif" font-size="14.00" fill="#000000">new Thread()</text>
</g>
<!-- B -->
<g id="node3" class="node">
<title>B</title>
<ellipse fill="none" stroke="#000000" cx="452.9105" cy="-222.345" rx="58.024" ry="58.024"/>
<ellipse fill="none" stroke="#000000" cx="452.9105" cy="-222.345" rx="62.0082" ry="62.0082"/>
<text text-anchor="middle" x="452.9105" y="-218.145" font-family="Times,serif" font-size="14.00" fill="#000000">RUNNABLE</text>
</g>
<!-- A&#45;&gt;B -->
<g id="edge2" class="edge">
<title>A&#45;&gt;B</title>
<path fill="none" stroke="#000000" d="M321.3665,-222.345C338.4191,-222.345 359.6999,-222.345 380.1423,-222.345"/>
<polygon fill="#000000" stroke="#000000" points="380.4074,-225.8451 390.4073,-222.345 380.4073,-218.8451 380.4074,-225.8451"/>
<text text-anchor="middle" x="355.943" y="-225.145" font-family="Times,serif" font-size="14.00" fill="#000000">start()</text>
</g>
<!-- C -->
<g id="node4" class="node">
<title>C</title>
<ellipse fill="none" stroke="#000000" cx="916.6576" cy="-364.345" rx="51.7441" ry="51.7441"/>
<ellipse fill="none" stroke="#000000" cx="916.6576" cy="-364.345" rx="55.7346" ry="55.7346"/>
<text text-anchor="middle" x="916.6576" y="-360.145" font-family="Times,serif" font-size="14.00" fill="#000000">BLOCKED</text>
</g>
<!-- B&#45;&gt;C -->
<g id="edge3" class="edge">
<title>B&#45;&gt;C</title>
<path fill="none" stroke="#000000" d="M482.9375,-276.9032C495.9135,-295.3486 512.8301,-314.1009 533.1642,-325.345 633.4144,-380.7803 771.0624,-379.5176 851.2715,-372.5951"/>
<polygon fill="#000000" stroke="#000000" points="851.6024,-376.0795 861.2404,-371.6798 850.9623,-369.1088 851.6024,-376.0795"/>
<text text-anchor="middle" x="673.7384" y="-378.145" font-family="Times,serif" font-size="14.00" fill="#000000">enter/reenter synchronized</text>
</g>
<!-- D -->
<g id="node5" class="node">
<title>D</title>
<ellipse fill="none" stroke="#000000" cx="916.6576" cy="-238.345" rx="47.8554" ry="47.8554"/>
<ellipse fill="none" stroke="#000000" cx="916.6576" cy="-238.345" rx="51.8496" ry="51.8496"/>
<text text-anchor="middle" x="916.6576" y="-234.145" font-family="Times,serif" font-size="14.00" fill="#000000">WAITING</text>
</g>
<!-- B&#45;&gt;D -->
<g id="edge5" class="edge">
<title>B&#45;&gt;D</title>
<path fill="none" stroke="#000000" d="M515.4535,-224.5028C604.278,-227.5674 765.9956,-233.1469 854.5701,-236.2029"/>
<polygon fill="#000000" stroke="#000000" points="854.6233,-239.7067 864.7381,-236.5537 854.8648,-232.7109 854.6233,-239.7067"/>
<text text-anchor="middle" x="673.7384" y="-237.145" font-family="Times,serif" font-size="14.00" fill="#000000">park wait join</text>
</g>
<!-- E -->
<g id="node6" class="node">
<title>E</title>
<ellipse fill="none" stroke="#000000" cx="916.6576" cy="-84.345" rx="80.1976" ry="80.1976"/>
<ellipse fill="none" stroke="#000000" cx="916.6576" cy="-84.345" rx="84.1903" ry="84.1903"/>
<text text-anchor="middle" x="916.6576" y="-80.145" font-family="Times,serif" font-size="14.00" fill="#000000">TIMED_WAITING</text>
</g>
<!-- B&#45;&gt;E -->
<g id="edge7" class="edge">
<title>B&#45;&gt;E</title>
<path fill="none" stroke="#000000" d="M502.9641,-184.7611C512.6067,-178.8539 522.9085,-173.3777 533.1642,-169.345 651.0654,-122.9839 691.9006,-154.9851 814.3126,-122.345 818.9339,-121.1128 823.6386,-119.7542 828.3653,-118.3063"/>
<polygon fill="#000000" stroke="#000000" points="829.6079,-121.584 838.0788,-115.2204 827.4884,-114.9126 829.6079,-121.584"/>
<text text-anchor="middle" x="673.7384" y="-172.145" font-family="Times,serif" font-size="14.00" fill="#000000">parkNanos parkUntil wait sleep join</text>
</g>
<!-- C&#45;&gt;B -->
<g id="edge4" class="edge">
<title>C&#45;&gt;B</title>
<path fill="none" stroke="#000000" d="M869.4717,-333.9816C852.6141,-324.2515 833.1264,-314.2269 814.3126,-307.345 694.7378,-263.6059 655.6875,-286.9755 533.1642,-252.345 529.0579,-251.1844 524.8641,-249.9072 520.654,-248.5541"/>
<polygon fill="#000000" stroke="#000000" points="521.4281,-245.1227 510.8344,-245.2782 519.2128,-251.763 521.4281,-245.1227"/>
<text text-anchor="middle" x="673.7384" y="-310.145" font-family="Times,serif" font-size="14.00" fill="#000000">exit synchronized</text>
</g>
<!-- D&#45;&gt;B -->
<g id="edge6" class="edge">
<title>D&#45;&gt;B</title>
<path fill="none" stroke="#000000" d="M868.9039,-217.4373C851.9988,-211.0717 832.6264,-204.9212 814.3126,-201.7451 691.1955,-180.3931 657.1342,-186.0882 533.1642,-201.7451 529.8818,-202.1596 526.5414,-202.666 523.1799,-203.2443"/>
<polygon fill="#000000" stroke="#000000" points="522.2351,-199.8614 513.0692,-205.1752 523.5483,-206.7371 522.2351,-199.8614"/>
<text text-anchor="middle" x="673.7384" y="-209.7449" font-family="Times,serif" font-size="14.00" fill="#000000">unpark notify notifyAll 线程结束 中断</text>
</g>
<!-- E&#45;&gt;B -->
<g id="edge8" class="edge">
<title>E&#45;&gt;B</title>
<path fill="none" stroke="#000000" d="M834.0455,-66.6419C752.1031,-53.6331 625.7292,-46.2092 533.1642,-98.7451 510.6742,-111.5094 493.4331,-133.4617 480.8018,-155.357"/>
<polygon fill="#000000" stroke="#000000" points="477.5921,-153.9304 475.8418,-164.3796 483.7263,-157.3026 477.5921,-153.9304"/>
<text text-anchor="middle" x="673.7384" y="-107.7449" font-family="Times,serif" font-size="14.00" fill="#000000">unpark notify notifyAll 线程结束 时间超时 中断</text>
</g>
<!-- F -->
<g id="node7" class="node">
<title>F</title>
<ellipse fill="none" stroke="#000000" cx="70.6005" cy="-329.345" rx="66.6955" ry="66.6955"/>
<ellipse fill="none" stroke="#000000" cx="70.6005" cy="-329.345" rx="70.7012" ry="70.7012"/>
<text text-anchor="middle" x="70.6005" y="-325.145" font-family="Times,serif" font-size="14.00" fill="#000000">TERMINATED</text>
</g>
</g>
</svg>
