<?xml version="1.0" encoding="UTF-8" standalone="no"?>
<!DOCTYPE svg PUBLIC "-//W3C//DTD SVG 1.1//EN"
 "http://www.w3.org/Graphics/SVG/1.1/DTD/svg11.dtd">
<!-- Generated by graphviz version 2.40.1 (20161225.0304)
 -->
<!-- Title: atomic1 Pages: 1 -->
<svg width="356pt" height="203pt"
 viewBox="0.00 0.00 355.88 203.00" xmlns="http://www.w3.org/2000/svg" xmlns:xlink="http://www.w3.org/1999/xlink">
<g id="graph0" class="graph" transform="scale(1 1) rotate(0) translate(4 199)">
<title>atomic1</title>
<polygon fill="#ffffff" stroke="transparent" points="-4,4 -4,-199 351.8848,-199 351.8848,4 -4,4"/>
<!-- A -->
<g id="node1" class="node">
<title>A</title>
<polygon fill="none" stroke="#000000" points="306.9364,-181 124.2032,-181 124.2032,-145 306.9364,-145 306.9364,-181"/>
<text text-anchor="middle" x="215.5698" y="-158.8" font-family="Times,serif" font-size="14.00" fill="#000000"> | ... | &lt;f1&gt; eetop | ... | tid | ... | </text>
<text text-anchor="middle" x="62.1934" y="-183.8" font-family="Times,serif" font-size="14.00" fill="#000000">oop(java.lang.Thread)</text>
</g>
<!-- B -->
<g id="node2" class="node">
<title>B</title>
<polygon fill="none" stroke="#000000" points="347.7,-109 83.4397,-109 83.4397,-73 347.7,-73 347.7,-109"/>
<text text-anchor="middle" x="215.5698" y="-86.8" font-family="Times,serif" font-size="14.00" fill="#000000"> | &lt;f1&gt; _osthread | ... | &lt;f2&gt; _threadObj | |...| </text>
<text text-anchor="middle" x="50.9961" y="-111.8" font-family="Times,serif" font-size="14.00" fill="#000000">JavaThread</text>
</g>
<!-- A&#45;&gt;B -->
<g id="edge1" class="edge">
<title>A:f1&#45;&gt;B</title>
<path fill="none" stroke="#000000" d="M209.6174,-144.8314C208.867,-137.131 208.6461,-127.9743 208.9547,-119.4166"/>
<polygon fill="#000000" stroke="#000000" points="212.449,-119.6161 209.5938,-109.4133 205.4633,-119.1697 212.449,-119.6161"/>
</g>
<!-- B&#45;&gt;A -->
<g id="edge3" class="edge">
<title>B:f2&#45;&gt;A</title>
<path fill="none" stroke="#000000" d="M221.5458,-109.4133C222.2769,-117.0593 222.4901,-126.1084 222.1853,-134.5726"/>
<polygon fill="#000000" stroke="#000000" points="218.6746,-134.6264 221.5222,-144.8314 225.66,-135.078 218.6746,-134.6264"/>
</g>
<!-- C -->
<g id="node3" class="node">
<title>C</title>
<polygon fill="none" stroke="#000000" points="112.1353,-.5 112.1353,-36.5 319.0044,-36.5 319.0044,-.5 112.1353,-.5"/>
<text text-anchor="middle" x="121.8853" y="-14.3" font-family="Times,serif" font-size="14.00" fill="#000000"> </text>
<polyline fill="none" stroke="#000000" points="131.6353,-.5 131.6353,-36.5 "/>
<text text-anchor="middle" x="144.8853" y="-14.3" font-family="Times,serif" font-size="14.00" fill="#000000">...</text>
<polyline fill="none" stroke="#000000" points="158.1353,-.5 158.1353,-36.5 "/>
<text text-anchor="middle" x="167.8853" y="-14.3" font-family="Times,serif" font-size="14.00" fill="#000000"> </text>
<polyline fill="none" stroke="#000000" points="177.6353,-.5 177.6353,-36.5 "/>
<text text-anchor="middle" x="215.5698" y="-14.3" font-family="Times,serif" font-size="14.00" fill="#000000">_thread_id</text>
<polyline fill="none" stroke="#000000" points="253.5044,-.5 253.5044,-36.5 "/>
<text text-anchor="middle" x="263.2544" y="-14.3" font-family="Times,serif" font-size="14.00" fill="#000000"> </text>
<polyline fill="none" stroke="#000000" points="273.0044,-.5 273.0044,-36.5 "/>
<text text-anchor="middle" x="286.2544" y="-14.3" font-family="Times,serif" font-size="14.00" fill="#000000">...</text>
<polyline fill="none" stroke="#000000" points="299.5044,-.5 299.5044,-36.5 "/>
<text text-anchor="middle" x="309.2544" y="-14.3" font-family="Times,serif" font-size="14.00" fill="#000000"> </text>
<text text-anchor="middle" x="83.3662" y="-39.8" font-family="Times,serif" font-size="14.00" fill="#000000">OSThread</text>
</g>
<!-- B&#45;&gt;C -->
<g id="edge2" class="edge">
<title>B:f1&#45;&gt;C</title>
<path fill="none" stroke="#000000" d="M215.5698,-72.7052C215.5698,-64.832 215.5698,-55.4471 215.5698,-46.7167"/>
<polygon fill="#000000" stroke="#000000" points="219.0699,-46.5378 215.5698,-36.5378 212.0699,-46.5378 219.0699,-46.5378"/>
</g>
</g>
</svg>
