<?xml version="1.0" encoding="UTF-8" standalone="no"?>
<!DOCTYPE svg PUBLIC "-//W3C//DTD SVG 1.1//EN"
 "http://www.w3.org/Graphics/SVG/1.1/DTD/svg11.dtd">
<!-- Generated by graphviz version 2.40.1 (20161225.0304)
 -->
<!-- Title: atomic1 Pages: 1 -->
<svg width="569pt" height="347pt"
 viewBox="0.00 0.00 569.01 347.13" xmlns="http://www.w3.org/2000/svg" xmlns:xlink="http://www.w3.org/1999/xlink">
<g id="graph0" class="graph" transform="scale(1 1) rotate(0) translate(4 343.1287)">
<title>atomic1</title>
<polygon fill="#ffffff" stroke="transparent" points="-4,4 -4,-343.1287 565.0122,-343.1287 565.0122,4 -4,4"/>
<!-- t1 -->
<g id="node1" class="node">
<title>t1</title>
<ellipse fill="none" stroke="#000000" cx="144.0122" cy="-319.6126" rx="50.8235" ry="19.5322"/>
<text text-anchor="middle" x="144.0122" y="-318.2126" font-family="Times,serif" font-size="14.00" fill="#000000">医疗诊断</text>
</g>
<!-- t2 -->
<g id="node2" class="node">
<title>t2</title>
<ellipse fill="none" stroke="#000000" cx="144.0122" cy="-244.5804" rx="50.8235" ry="19.5322"/>
<text text-anchor="middle" x="144.0122" y="-243.1804" font-family="Times,serif" font-size="14.00" fill="#000000">症状信息</text>
</g>
<!-- t1&#45;&gt;t2 -->
<g id="edge1" class="edge">
<title>t1&#45;&gt;t2</title>
<path fill="none" stroke="#000000" d="M144.0122,-299.8988C144.0122,-292.0582 144.0122,-282.8671 144.0122,-274.2534"/>
<polygon fill="#000000" stroke="#000000" points="147.5123,-274.1626 144.0122,-264.1626 140.5123,-274.1626 147.5123,-274.1626"/>
</g>
<!-- t3 -->
<g id="node3" class="node">
<title>t3</title>
<ellipse fill="none" stroke="#000000" cx="144.0122" cy="-169.5483" rx="60.623" ry="19.5322"/>
<text text-anchor="middle" x="144.0122" y="-168.1482" font-family="Times,serif" font-size="14.00" fill="#000000">病人等价类</text>
</g>
<!-- t2&#45;&gt;t3 -->
<g id="edge2" class="edge">
<title>t2&#45;&gt;t3</title>
<path fill="none" stroke="#000000" d="M144.0122,-224.8666C144.0122,-217.026 144.0122,-207.8349 144.0122,-199.2212"/>
<polygon fill="#000000" stroke="#000000" points="147.5123,-199.1304 144.0122,-189.1304 140.5123,-199.1305 147.5123,-199.1304"/>
</g>
<!-- r -->
<g id="node5" class="node">
<title>r</title>
<polygon fill="none" stroke="#000000" points="87.0122,-81.5322 87.0122,-106.5322 163.0122,-106.5322 163.0122,-81.5322 87.0122,-81.5322"/>
<text text-anchor="start" x="90.0122" y="-92.3322" font-family="Times,serif" font-size="14.00" fill="#000000">决策粗糙集</text>
<polygon fill="none" stroke="#000000" points="165.0122,-81.5322 165.0122,-106.5322 255.0122,-106.5322 255.0122,-81.5322 165.0122,-81.5322"/>
<text text-anchor="start" x="168.0122" y="-92.3322" font-family="Times,serif" font-size="14.00" fill="#000000">三支决策规则</text>
<polygon fill="none" stroke="#000000" points="84.0122,-79.0322 84.0122,-110.0322 258.0122,-110.0322 258.0122,-79.0322 84.0122,-79.0322"/>
</g>
<!-- t3&#45;&gt;r -->
<g id="edge3" class="edge">
<title>t3&#45;&gt;r</title>
<path fill="none" stroke="#000000" d="M151.1061,-149.8387C153.9895,-141.8275 157.3805,-132.4061 160.5386,-123.6318"/>
<polygon fill="#000000" stroke="#000000" points="163.8722,-124.7046 163.9656,-114.1101 157.2858,-122.3339 163.8722,-124.7046"/>
</g>
<!-- c1 -->
<g id="node4" class="node">
<title>c1</title>
<polygon fill="none" stroke="#000000" points="393.0122,-187.5483 223.0122,-187.5483 223.0122,-151.5483 393.0122,-151.5483 393.0122,-187.5483"/>
<text text-anchor="middle" x="308.0122" y="-168.1482" font-family="Times,serif" font-size="14.00" fill="#000000">是否有决策成本损失信息</text>
</g>
<!-- c1&#45;&gt;r -->
<g id="edge4" class="edge">
<title>c1&#45;&gt;r</title>
<path fill="none" stroke="#000000" d="M274.8483,-151.389C257.0738,-141.6563 234.928,-129.5301 215.6596,-118.9794"/>
<polygon fill="#000000" stroke="#000000" points="217.2023,-115.8339 206.7502,-114.101 213.8404,-121.9737 217.2023,-115.8339"/>
</g>
<!-- r3 -->
<g id="node7" class="node">
<title>r3</title>
<ellipse fill="none" stroke="#000000" cx="41.0122" cy="-19.5161" rx="41.0244" ry="19.5322"/>
<text text-anchor="middle" x="41.0122" y="-18.116" font-family="Times,serif" font-size="14.00" fill="#000000">病患类</text>
</g>
<!-- r&#45;&gt;r3 -->
<g id="edge5" class="edge">
<title>r&#45;&gt;r3</title>
<path fill="none" stroke="#000000" d="M137.1956,-75.0184C118.3613,-64.1502 94.9493,-50.6403 75.9394,-39.6707"/>
<polygon fill="#000000" stroke="#000000" points="77.6851,-36.6372 67.2744,-34.6706 74.1865,-42.7002 77.6851,-36.6372"/>
</g>
<!-- r4 -->
<g id="node8" class="node">
<title>r4</title>
<ellipse fill="none" stroke="#000000" cx="171.0122" cy="-19.5161" rx="70.922" ry="19.5322"/>
<text text-anchor="middle" x="171.0122" y="-18.116" font-family="Times,serif" font-size="14.00" fill="#000000">进一步观察类</text>
</g>
<!-- r&#45;&gt;r4 -->
<g id="edge6" class="edge">
<title>r&#45;&gt;r4</title>
<path fill="none" stroke="#000000" d="M171.0122,-74.8226C171.0122,-66.9837 171.0122,-57.7945 171.0122,-49.1827"/>
<polygon fill="#000000" stroke="#000000" points="174.5123,-49.094 171.0122,-39.094 167.5123,-49.0941 174.5123,-49.094"/>
</g>
<!-- r5 -->
<g id="node9" class="node">
<title>r5</title>
<ellipse fill="none" stroke="#000000" cx="301.0122" cy="-19.5161" rx="41.0244" ry="19.5322"/>
<text text-anchor="middle" x="301.0122" y="-18.116" font-family="Times,serif" font-size="14.00" fill="#000000">患病类</text>
</g>
<!-- r&#45;&gt;r5 -->
<g id="edge7" class="edge">
<title>r&#45;&gt;r5</title>
<path fill="none" stroke="#000000" d="M204.8288,-75.0184C223.6631,-64.1502 247.0751,-50.6403 266.085,-39.6707"/>
<polygon fill="#000000" stroke="#000000" points="267.8379,-42.7002 274.75,-34.6706 264.3393,-36.6372 267.8379,-42.7002"/>
</g>
<!-- l -->
<g id="node6" class="node">
<title>l</title>
<polygon fill="none" stroke="#000000" points="300.0122,-231.5804 300.0122,-256.5804 418.0122,-256.5804 418.0122,-231.5804 300.0122,-231.5804"/>
<text text-anchor="start" x="303.0122" y="-242.3804" font-family="Times,serif" font-size="14.00" fill="#000000">临床数据管理系统</text>
<polygon fill="none" stroke="#000000" points="420.0122,-231.5804 420.0122,-256.5804 482.0122,-256.5804 482.0122,-231.5804 420.0122,-231.5804"/>
<text text-anchor="start" x="423.0122" y="-242.3804" font-family="Times,serif" font-size="14.00" fill="#000000">知识管理</text>
<polygon fill="none" stroke="#000000" points="297.0122,-229.0804 297.0122,-260.0804 485.0122,-260.0804 485.0122,-229.0804 297.0122,-229.0804"/>
</g>
<!-- l&#45;&gt;c1 -->
<g id="edge8" class="edge">
<title>l&#45;&gt;c1</title>
<path fill="none" stroke="#000000" d="M369.2049,-224.8666C358.9242,-215.5728 346.5445,-204.3815 335.6176,-194.5036"/>
<polygon fill="#000000" stroke="#000000" points="337.734,-191.6986 327.9687,-187.5889 333.0397,-196.8914 337.734,-191.6986"/>
</g>
<!-- l3 -->
<g id="node10" class="node">
<title>l3</title>
<polygon fill="none" stroke="#000000" points="525.0122,-187.5483 411.0122,-187.5483 411.0122,-151.5483 525.0122,-151.5483 525.0122,-187.5483"/>
<text text-anchor="middle" x="468.0122" y="-168.1482" font-family="Times,serif" font-size="14.00" fill="#000000">病人历史数据库</text>
</g>
<!-- l&#45;&gt;l3 -->
<g id="edge9" class="edge">
<title>l&#45;&gt;l3</title>
<path fill="none" stroke="#000000" d="M411.243,-224.8666C420.688,-215.6631 432.0425,-204.5987 442.1067,-194.7917"/>
<polygon fill="#000000" stroke="#000000" points="444.779,-197.0746 449.4984,-187.5889 439.8937,-192.0612 444.779,-197.0746"/>
</g>
<!-- l4 -->
<g id="node11" class="node">
<title>l4</title>
<polygon fill="none" stroke="#000000" points="546.0122,-112.5322 390.0122,-112.5322 390.0122,-76.5322 546.0122,-76.5322 546.0122,-112.5322"/>
<text text-anchor="middle" x="468.0122" y="-93.1321" font-family="Times,serif" font-size="14.00" fill="#000000">集成机器学习分类预测</text>
</g>
<!-- l3&#45;&gt;l4 -->
<g id="edge10" class="edge">
<title>l3&#45;&gt;l4</title>
<path fill="none" stroke="#000000" d="M468.0122,-151.389C468.0122,-142.8826 468.0122,-132.5479 468.0122,-123.0347"/>
<polygon fill="#000000" stroke="#000000" points="471.5123,-122.7842 468.0122,-112.7843 464.5123,-122.7843 471.5123,-122.7842"/>
</g>
<!-- l5 -->
<g id="node12" class="node">
<title>l5</title>
<polygon fill="none" stroke="#000000" points="471.0122,-37.5161 413.0122,-37.5161 413.0122,-1.5161 471.0122,-1.5161 471.0122,-37.5161"/>
<text text-anchor="middle" x="442.0122" y="-18.116" font-family="Times,serif" font-size="14.00" fill="#000000">患病类</text>
</g>
<!-- l4&#45;&gt;l5 -->
<g id="edge11" class="edge">
<title>l4&#45;&gt;l5</title>
<path fill="none" stroke="#000000" d="M461.7183,-76.3729C458.7067,-67.6836 455.0338,-57.0865 451.6786,-47.406"/>
<polygon fill="#000000" stroke="#000000" points="454.9201,-46.0705 448.3382,-37.7682 448.3061,-48.363 454.9201,-46.0705"/>
</g>
<!-- l6 -->
<g id="node13" class="node">
<title>l6</title>
<polygon fill="none" stroke="#000000" points="561.0122,-37.5161 489.0122,-37.5161 489.0122,-1.5161 561.0122,-1.5161 561.0122,-37.5161"/>
<text text-anchor="middle" x="525.0122" y="-18.116" font-family="Times,serif" font-size="14.00" fill="#000000">未患病类</text>
</g>
<!-- l4&#45;&gt;l6 -->
<g id="edge12" class="edge">
<title>l4&#45;&gt;l6</title>
<path fill="none" stroke="#000000" d="M481.8103,-76.3729C488.7602,-67.2263 497.3164,-55.9657 504.9757,-45.8856"/>
<polygon fill="#000000" stroke="#000000" points="507.8803,-47.8479 511.1436,-37.7682 502.3067,-43.6129 507.8803,-47.8479"/>
</g>
</g>
</svg>
