<?xml version="1.0" encoding="UTF-8" standalone="no"?>
<!DOCTYPE svg PUBLIC "-//W3C//DTD SVG 1.1//EN"
 "http://www.w3.org/Graphics/SVG/1.1/DTD/svg11.dtd">
<!-- Generated by graphviz version 2.40.1 (20161225.0304)
 -->
<!-- Title: thread Pages: 1 -->
<svg width="199pt" height="347pt"
 viewBox="0.00 0.00 198.88 347.00" xmlns="http://www.w3.org/2000/svg" xmlns:xlink="http://www.w3.org/1999/xlink">
<g id="graph0" class="graph" transform="scale(1 1) rotate(0) translate(4 343)">
<title>thread</title>
<polygon fill="#ffffff" stroke="transparent" points="-4,4 -4,-343 194.8765,-343 194.8765,4 -4,4"/>
<!-- A -->
<g id="node1" class="node">
<title>A</title>
<polygon fill="none" stroke="#000000" points="124.3867,-14.5 124.3867,-124.5 178.3867,-124.5 178.3867,-14.5 124.3867,-14.5"/>
<text text-anchor="middle" x="151.3867" y="-109.3" font-family="Times,serif" font-size="14.00" fill="#000000">...</text>
<polyline fill="none" stroke="#000000" points="124.3867,-102.5 178.3867,-102.5 "/>
<text text-anchor="middle" x="151.3867" y="-87.3" font-family="Times,serif" font-size="14.00" fill="#000000">eetop</text>
<polyline fill="none" stroke="#000000" points="124.3867,-80.5 178.3867,-80.5 "/>
<text text-anchor="middle" x="151.3867" y="-65.3" font-family="Times,serif" font-size="14.00" fill="#000000">...</text>
<polyline fill="none" stroke="#000000" points="124.3867,-58.5 178.3867,-58.5 "/>
<text text-anchor="middle" x="151.3867" y="-43.3" font-family="Times,serif" font-size="14.00" fill="#000000">tid</text>
<polyline fill="none" stroke="#000000" points="124.3867,-36.5 178.3867,-36.5 "/>
<text text-anchor="middle" x="151.3867" y="-21.3" font-family="Times,serif" font-size="14.00" fill="#000000">...</text>
<text text-anchor="middle" x="62.1934" y="-2.8" font-family="Times,serif" font-size="14.00" fill="#000000">oop(java.lang.Thread)</text>
</g>
<!-- B -->
<g id="node2" class="node">
<title>B</title>
<polygon fill="none" stroke="#000000" points="111.897,-143.5 111.897,-253.5 190.8765,-253.5 190.8765,-143.5 111.897,-143.5"/>
<text text-anchor="middle" x="151.3867" y="-238.3" font-family="Times,serif" font-size="14.00" fill="#000000">...</text>
<polyline fill="none" stroke="#000000" points="111.897,-231.5 190.8765,-231.5 "/>
<text text-anchor="middle" x="151.3867" y="-216.3" font-family="Times,serif" font-size="14.00" fill="#000000">_osthread</text>
<polyline fill="none" stroke="#000000" points="111.897,-209.5 190.8765,-209.5 "/>
<text text-anchor="middle" x="151.3867" y="-194.3" font-family="Times,serif" font-size="14.00" fill="#000000">...</text>
<polyline fill="none" stroke="#000000" points="111.897,-187.5 190.8765,-187.5 "/>
<text text-anchor="middle" x="151.3867" y="-172.3" font-family="Times,serif" font-size="14.00" fill="#000000">_threadObj</text>
<polyline fill="none" stroke="#000000" points="111.897,-165.5 190.8765,-165.5 "/>
<text text-anchor="middle" x="151.3867" y="-150.3" font-family="Times,serif" font-size="14.00" fill="#000000">...</text>
<text text-anchor="middle" x="79.6382" y="-131.8" font-family="Times,serif" font-size="14.00" fill="#000000">JavaThread</text>
</g>
<!-- C -->
<g id="node3" class="node">
<title>C</title>
<polygon fill="none" stroke="#000000" points="113.4521,-272.5 113.4521,-338.5 189.3213,-338.5 189.3213,-272.5 113.4521,-272.5"/>
<text text-anchor="middle" x="151.3867" y="-323.3" font-family="Times,serif" font-size="14.00" fill="#000000">...</text>
<polyline fill="none" stroke="#000000" points="113.4521,-316.5 189.3213,-316.5 "/>
<text text-anchor="middle" x="151.3867" y="-301.3" font-family="Times,serif" font-size="14.00" fill="#000000">_thread_id</text>
<polyline fill="none" stroke="#000000" points="113.4521,-294.5 189.3213,-294.5 "/>
<text text-anchor="middle" x="151.3867" y="-279.3" font-family="Times,serif" font-size="14.00" fill="#000000">...</text>
<text text-anchor="middle" x="84.6831" y="-260.8" font-family="Times,serif" font-size="14.00" fill="#000000">OSThread</text>
</g>
</g>
</svg>
