<?xml version="1.0" encoding="UTF-8" standalone="no"?>
<!DOCTYPE svg PUBLIC "-//W3C//DTD SVG 1.1//EN"
 "http://www.w3.org/Graphics/SVG/1.1/DTD/svg11.dtd">
<!-- Generated by graphviz version 2.40.1 (20161225.0304)
 -->
<!-- Title: atomic1 Pages: 1 -->
<svg width="344pt" height="286pt"
 viewBox="0.00 0.00 343.98 285.50" xmlns="http://www.w3.org/2000/svg" xmlns:xlink="http://www.w3.org/1999/xlink">
<g id="graph0" class="graph" transform="scale(1 1) rotate(0) translate(4 281.5)">
<title>atomic1</title>
<polygon fill="#ffffff" stroke="transparent" points="-4,4 -4,-281.5 339.9834,-281.5 339.9834,4 -4,4"/>
<!-- A -->
<g id="node1" class="node">
<title>A</title>
<polygon fill="none" stroke="#000000" points="282.7325,-50 124.6044,-50 124.6044,-14 282.7325,-14 282.7325,-50"/>
<text text-anchor="middle" x="203.6685" y="-27.8" font-family="Times,serif" font-size="14.00" fill="#000000"> | ... | &lt;f1&gt; eetop|...| tid |...</text>
<text text-anchor="middle" x="62.1934" y="-2.8" font-family="Times,serif" font-size="14.00" fill="#000000">oop(java.lang.Thread)</text>
</g>
<!-- B -->
<g id="node2" class="node">
<title>B</title>
<polygon fill="none" stroke="#000000" points="335.7986,-104 71.5383,-104 71.5383,-68 335.7986,-68 335.7986,-104"/>
<text text-anchor="middle" x="203.6685" y="-81.8" font-family="Times,serif" font-size="14.00" fill="#000000"> | &lt;f2&gt; _osthread | ... | &lt;f3&gt; _threadObj | |...| </text>
<text text-anchor="middle" x="39.0947" y="-56.8" font-family="Times,serif" font-size="14.00" fill="#000000">JavaThread</text>
</g>
<!-- C -->
<g id="node3" class="node">
<title>C</title>
<polygon fill="none" stroke="#000000" points="165.7339,-123 165.7339,-277 241.603,-277 241.603,-123 165.7339,-123"/>
<text text-anchor="middle" x="203.6685" y="-261.8" font-family="Times,serif" font-size="14.00" fill="#000000"> </text>
<polyline fill="none" stroke="#000000" points="165.7339,-255 241.603,-255 "/>
<text text-anchor="middle" x="203.6685" y="-239.8" font-family="Times,serif" font-size="14.00" fill="#000000">...</text>
<polyline fill="none" stroke="#000000" points="165.7339,-233 241.603,-233 "/>
<text text-anchor="middle" x="203.6685" y="-217.8" font-family="Times,serif" font-size="14.00" fill="#000000"> </text>
<polyline fill="none" stroke="#000000" points="165.7339,-211 241.603,-211 "/>
<text text-anchor="middle" x="203.6685" y="-195.8" font-family="Times,serif" font-size="14.00" fill="#000000">_thread_id</text>
<polyline fill="none" stroke="#000000" points="165.7339,-189 241.603,-189 "/>
<text text-anchor="middle" x="203.6685" y="-173.8" font-family="Times,serif" font-size="14.00" fill="#000000"> </text>
<polyline fill="none" stroke="#000000" points="165.7339,-167 241.603,-167 "/>
<text text-anchor="middle" x="203.6685" y="-151.8" font-family="Times,serif" font-size="14.00" fill="#000000">...</text>
<polyline fill="none" stroke="#000000" points="165.7339,-145 241.603,-145 "/>
<text text-anchor="middle" x="203.6685" y="-129.8" font-family="Times,serif" font-size="14.00" fill="#000000"> </text>
<text text-anchor="middle" x="136.9648" y="-111.3" font-family="Times,serif" font-size="14.00" fill="#000000">OSThread</text>
</g>
</g>
</svg>
