<?xml version="1.0" encoding="UTF-8" standalone="no"?>
<!DOCTYPE svg PUBLIC "-//W3C//DTD SVG 1.1//EN"
 "http://www.w3.org/Graphics/SVG/1.1/DTD/svg11.dtd">
<!-- Generated by graphviz version 2.40.1 (20161225.0304)
 -->
<!-- Title: thread1 Pages: 1 -->
<svg width="554pt" height="360pt"
 viewBox="0.00 0.00 553.85 360.00" xmlns="http://www.w3.org/2000/svg" xmlns:xlink="http://www.w3.org/1999/xlink">
<g id="graph0" class="graph" transform="scale(.6128 .6128) rotate(0) translate(4 583.4677)">
<title>thread1</title>
<polygon fill="#ffffff" stroke="transparent" points="-4,4 -4,-583.4677 899.8016,-583.4677 899.8016,4 -4,4"/>
<!-- O -->
<g id="node1" class="node">
<title>O</title>
<ellipse fill="none" stroke="#000000" cx="18" cy="-354.6005" rx="18" ry="18"/>
<text text-anchor="middle" x="18" y="-350.4005" font-family="Times,serif" font-size="14.00" fill="#000000">O</text>
</g>
<!-- A -->
<g id="node2" class="node">
<title>A</title>
<ellipse fill="none" stroke="#000000" cx="181.7861" cy="-354.6005" rx="30.4575" ry="30.4575"/>
<ellipse fill="none" stroke="#000000" cx="181.7861" cy="-354.6005" rx="34.486" ry="34.486"/>
<text text-anchor="middle" x="181.7861" y="-350.4005" font-family="Times,serif" font-size="14.00" fill="#000000">NEW</text>
</g>
<!-- O&#45;&gt;A -->
<g id="edge1" class="edge">
<title>O&#45;&gt;A</title>
<path fill="none" stroke="#000000" d="M36.1538,-354.6005C60.2785,-354.6005 103.7164,-354.6005 136.8945,-354.6005"/>
<polygon fill="#000000" stroke="#000000" points="137.2686,-358.1006 147.2686,-354.6005 137.2685,-351.1006 137.2686,-358.1006"/>
<text text-anchor="middle" x="91.772" y="-357.4005" font-family="Times,serif" font-size="14.00" fill="#000000">new Thread()</text>
</g>
<!-- B -->
<g id="node3" class="node">
<title>B</title>
<ellipse fill="none" stroke="#000000" cx="347.7095" cy="-354.6005" rx="58.024" ry="58.024"/>
<ellipse fill="none" stroke="#000000" cx="347.7095" cy="-354.6005" rx="62.0082" ry="62.0082"/>
<text text-anchor="middle" x="347.7095" y="-350.4005" font-family="Times,serif" font-size="14.00" fill="#000000">RUNNABLE</text>
</g>
<!-- A&#45;&gt;B -->
<g id="edge2" class="edge">
<title>A&#45;&gt;B</title>
<path fill="none" stroke="#000000" d="M216.1655,-354.6005C233.2181,-354.6005 254.4989,-354.6005 274.9413,-354.6005"/>
<polygon fill="#000000" stroke="#000000" points="275.2064,-358.1006 285.2063,-354.6005 275.2063,-351.1006 275.2064,-358.1006"/>
<text text-anchor="middle" x="250.742" y="-357.4005" font-family="Times,serif" font-size="14.00" fill="#000000">start()</text>
</g>
<!-- C -->
<g id="node4" class="node">
<title>C</title>
<ellipse fill="none" stroke="#000000" cx="811.4566" cy="-523.6005" rx="51.7441" ry="51.7441"/>
<ellipse fill="none" stroke="#000000" cx="811.4566" cy="-523.6005" rx="55.7346" ry="55.7346"/>
<text text-anchor="middle" x="811.4566" y="-519.4005" font-family="Times,serif" font-size="14.00" fill="#000000">BLOCKED</text>
</g>
<!-- B&#45;&gt;C -->
<g id="edge3" class="edge">
<title>B&#45;&gt;C</title>
<path fill="none" stroke="#000000" d="M371.4831,-412.4765C384.5132,-436.8778 403.1425,-463.1566 427.9631,-478.6005 525.6659,-539.3931 664.7692,-538.891 745.8222,-531.9616"/>
<polygon fill="#000000" stroke="#000000" points="746.2555,-535.4366 755.8957,-531.0415 745.6187,-528.4657 746.2555,-535.4366"/>
<text text-anchor="middle" x="568.5374" y="-537.4005" font-family="Times,serif" font-size="14.00" fill="#000000">enter/reenter synchronized</text>
</g>
<!-- D -->
<g id="node5" class="node">
<title>D</title>
<ellipse fill="none" stroke="#000000" cx="811.4566" cy="-397.6005" rx="47.8554" ry="47.8554"/>
<ellipse fill="none" stroke="#000000" cx="811.4566" cy="-397.6005" rx="51.8496" ry="51.8496"/>
<text text-anchor="middle" x="811.4566" y="-393.4005" font-family="Times,serif" font-size="14.00" fill="#000000">WAITING</text>
</g>
<!-- B&#45;&gt;D -->
<g id="edge5" class="edge">
<title>B&#45;&gt;D</title>
<path fill="none" stroke="#000000" d="M407.9105,-371.724C414.636,-373.2271 421.4193,-374.5672 427.9631,-375.6005 540.1053,-393.3091 672.6918,-397.1941 748.9376,-397.8098"/>
<polygon fill="#000000" stroke="#000000" points="749.2921,-401.3121 759.3143,-397.8761 749.3369,-394.3122 749.2921,-401.3121"/>
<text text-anchor="middle" x="568.5374" y="-399.4005" font-family="Times,serif" font-size="14.00" fill="#000000">park wait join</text>
</g>
<!-- E -->
<g id="node6" class="node">
<title>E</title>
<ellipse fill="none" stroke="#000000" cx="811.4566" cy="-243.6005" rx="80.1976" ry="80.1976"/>
<ellipse fill="none" stroke="#000000" cx="811.4566" cy="-243.6005" rx="84.1903" ry="84.1903"/>
<text text-anchor="middle" x="811.4566" y="-239.4005" font-family="Times,serif" font-size="14.00" fill="#000000">TIMED_WAITING</text>
</g>
<!-- B&#45;&gt;E -->
<g id="edge7" class="edge">
<title>B&#45;&gt;E</title>
<path fill="none" stroke="#000000" d="M404.0363,-327.9002C411.9549,-324.778 420.0821,-321.8945 427.9631,-319.6005 549.3994,-284.2539 585.9416,-304.3282 709.1116,-275.6005 713.1398,-274.661 717.2398,-273.6435 721.3686,-272.5686"/>
<polygon fill="#000000" stroke="#000000" points="722.2887,-275.9456 731.035,-269.9663 720.4689,-269.1863 722.2887,-275.9456"/>
<text text-anchor="middle" x="568.5374" y="-322.4005" font-family="Times,serif" font-size="14.00" fill="#000000">parkNanos parkUntil wait sleep join</text>
</g>
<!-- F -->
<g id="node7" class="node">
<title>F</title>
<ellipse fill="none" stroke="#000000" cx="811.4566" cy="-70.6005" rx="66.6955" ry="66.6955"/>
<ellipse fill="none" stroke="#000000" cx="811.4566" cy="-70.6005" rx="70.7012" ry="70.7012"/>
<text text-anchor="middle" x="811.4566" y="-66.4005" font-family="Times,serif" font-size="14.00" fill="#000000">TERMINATED</text>
</g>
<!-- B&#45;&gt;F -->
<g id="edge9" class="edge">
<title>B&#45;&gt;F</title>
<path fill="none" stroke="#000000" d="M364.3303,-294.58C376.7027,-260.173 396.9129,-218.6593 427.9631,-192.0006 514.3926,-117.7952 646.3788,-88.8659 730.7751,-77.642"/>
<polygon fill="#000000" stroke="#000000" points="731.3488,-81.0972 740.8251,-76.3591 730.4624,-74.1536 731.3488,-81.0972"/>
<text text-anchor="middle" x="568.5374" y="-200.0004" font-family="Times,serif" font-size="14.00" fill="#000000">线程结束</text>
</g>
<!-- C&#45;&gt;B -->
<g id="edge4" class="edge">
<title>C&#45;&gt;B</title>
<path fill="none" stroke="#000000" d="M766.3016,-490.5445C749.1509,-479.4368 728.9542,-468.001 709.1116,-460.6005 590.4777,-416.3547 544.4817,-464.1497 427.9631,-414.6005 419.616,-411.0509 411.3398,-406.4582 403.452,-401.3946"/>
<polygon fill="#000000" stroke="#000000" points="405.3097,-398.426 395.0604,-395.7423 401.3991,-404.2318 405.3097,-398.426"/>
<text text-anchor="middle" x="568.5374" y="-463.4005" font-family="Times,serif" font-size="14.00" fill="#000000">exit synchronized</text>
</g>
<!-- D&#45;&gt;B -->
<g id="edge6" class="edge">
<title>D&#45;&gt;B</title>
<path fill="none" stroke="#000000" d="M765.9758,-372.4305C748.7081,-364.206 728.5186,-356.1284 709.1116,-352.0006 610.4915,-331.0244 493.2833,-337.4062 419.68,-345.0655"/>
<polygon fill="#000000" stroke="#000000" points="419.1579,-341.6014 409.5902,-346.152 419.9074,-348.5612 419.1579,-341.6014"/>
<text text-anchor="middle" x="568.5374" y="-360.0004" font-family="Times,serif" font-size="14.00" fill="#000000">unpark notify notifyAll 线程结束 中断</text>
</g>
<!-- E&#45;&gt;B -->
<g id="edge8" class="edge">
<title>E&#45;&gt;B</title>
<path fill="none" stroke="#000000" d="M728.7807,-225.8762C647.6398,-212.8174 522.6319,-204.5709 427.9631,-252.0006 410.2291,-260.8855 395.2262,-275.7262 383.1648,-291.3985"/>
<polygon fill="#000000" stroke="#000000" points="380.2118,-289.5071 377.1267,-299.6428 385.8592,-293.6432 380.2118,-289.5071"/>
<text text-anchor="middle" x="568.5374" y="-260.0004" font-family="Times,serif" font-size="14.00" fill="#000000">unpark notify notifyAll 线程结束 时间超时 中断</text>
</g>
</g>
</svg>
