<?xml version="1.0" encoding="UTF-8" standalone="no"?>
<!DOCTYPE svg PUBLIC "-//W3C//DTD SVG 1.1//EN"
 "http://www.w3.org/Graphics/SVG/1.1/DTD/svg11.dtd">
<!-- Generated by graphviz version 2.40.1 (20161225.0304)
 -->
<!-- Title: atomic1 Pages: 1 -->
<svg width="170pt" height="163pt"
 viewBox="0.00 0.00 170.12 163.00" xmlns="http://www.w3.org/2000/svg" xmlns:xlink="http://www.w3.org/1999/xlink">
<g id="graph0" class="graph" transform="scale(1 1) rotate(0) translate(4 159)">
<title>atomic1</title>
<polygon fill="#ffffff" stroke="transparent" points="-4,4 -4,-159 166.1249,-159 166.1249,4 -4,4"/>
<!-- A -->
<g id="node1" class="node">
<title>A</title>
<ellipse fill="none" stroke="#000000" cx="36.0624" cy="-106.5" rx="36.125" ry="19.5322"/>
<text text-anchor="middle" x="36.0624" y="-105.1" font-family="Times,serif" font-size="14.00" fill="#000000">线程1</text>
</g>
<!-- C -->
<g id="node3" class="node">
<title>C</title>
<path fill="none" stroke="#000000" d="M120.1249,-.5C120.1249,-.5 150.1249,-.5 150.1249,-.5 156.1249,-.5 162.1249,-6.5 162.1249,-12.5 162.1249,-12.5 162.1249,-142.5 162.1249,-142.5 162.1249,-148.5 156.1249,-154.5 150.1249,-154.5 150.1249,-154.5 120.1249,-154.5 120.1249,-154.5 114.1249,-154.5 108.1249,-148.5 108.1249,-142.5 108.1249,-142.5 108.1249,-12.5 108.1249,-12.5 108.1249,-6.5 114.1249,-.5 120.1249,-.5"/>
<text text-anchor="middle" x="135.1249" y="-139.3" font-family="Times,serif" font-size="14.00" fill="#000000"> </text>
<polyline fill="none" stroke="#000000" points="108.1249,-132.5 162.1249,-132.5 "/>
<text text-anchor="middle" x="135.1249" y="-117.3" font-family="Times,serif" font-size="14.00" fill="#000000"> </text>
<polyline fill="none" stroke="#000000" points="108.1249,-110.5 162.1249,-110.5 "/>
<text text-anchor="middle" x="135.1249" y="-95.3" font-family="Times,serif" font-size="14.00" fill="#000000"> </text>
<polyline fill="none" stroke="#000000" points="108.1249,-88.5 162.1249,-88.5 "/>
<text text-anchor="middle" x="135.1249" y="-73.3" font-family="Times,serif" font-size="14.00" fill="#000000">2</text>
<polyline fill="none" stroke="#000000" points="108.1249,-66.5 162.1249,-66.5 "/>
<text text-anchor="middle" x="135.1249" y="-51.3" font-family="Times,serif" font-size="14.00" fill="#000000"> </text>
<polyline fill="none" stroke="#000000" points="108.1249,-44.5 162.1249,-44.5 "/>
<text text-anchor="middle" x="135.1249" y="-29.3" font-family="Times,serif" font-size="14.00" fill="#000000">...</text>
<polyline fill="none" stroke="#000000" points="108.1249,-22.5 162.1249,-22.5 "/>
<text text-anchor="middle" x="135.1249" y="-7.3" font-family="Times,serif" font-size="14.00" fill="#000000"> </text>
</g>
<!-- A&#45;&gt;C -->
<g id="edge1" class="edge">
<title>A&#45;&gt;C:f1</title>
<path fill="none" stroke="#000000" d="M59.7925,-91.6602C70.7504,-85.9188 84.3664,-80.2484 98.121,-78.2524"/>
<polygon fill="#000000" stroke="#000000" points="98.4156,-81.7403 108.1249,-77.5 97.8905,-74.76 98.4156,-81.7403"/>
</g>
<!-- B -->
<g id="node2" class="node">
<title>B</title>
<ellipse fill="none" stroke="#000000" cx="36.0624" cy="-49.5" rx="36.125" ry="19.5322"/>
<text text-anchor="middle" x="36.0624" y="-48.1" font-family="Times,serif" font-size="14.00" fill="#000000">线程2</text>
</g>
<!-- B&#45;&gt;C -->
<g id="edge2" class="edge">
<title>B&#45;&gt;C:f1</title>
<path fill="none" stroke="#000000" d="M60.5072,-64.156C71.3025,-69.5546 84.5618,-74.8227 97.9249,-76.7402"/>
<polygon fill="#000000" stroke="#000000" points="97.8925,-80.2474 108.1249,-77.5 98.4126,-73.2667 97.8925,-80.2474"/>
</g>
</g>
</svg>
