<?xml version="1.0" encoding="UTF-8" standalone="no"?>
<!DOCTYPE svg PUBLIC "-//W3C//DTD SVG 1.1//EN"
 "http://www.w3.org/Graphics/SVG/1.1/DTD/svg11.dtd">
<!-- Generated by graphviz version 2.40.1 (20161225.0304)
 -->
<!-- Title: atomic1 Pages: 1 -->
<svg width="108pt" height="392pt"
 viewBox="0.00 0.00 108.00 391.60" xmlns="http://www.w3.org/2000/svg" xmlns:xlink="http://www.w3.org/1999/xlink">
<g id="graph0" class="graph" transform="scale(1 1) rotate(0) translate(4 387.5999)">
<title>atomic1</title>
<polygon fill="#ffffff" stroke="transparent" points="-4,4 -4,-387.5999 104,-387.5999 104,4 -4,4"/>
<g id="clust1" class="cluster">
<title>clusterA</title>
<polygon fill="none" stroke="#000000" points="8,-8 8,-375.5999 92,-375.5999 92,-8 8,-8"/>
<text text-anchor="middle" x="50" y="-360.3999" font-family="Times,serif" font-size="14.00" fill="#000000">线程1</text>
</g>
<!-- A1 -->
<g id="node1" class="node">
<title>A1</title>
<polygon fill="none" stroke="#000000" points="77,-340 23,-340 23,-304 77,-304 77,-340"/>
<text text-anchor="middle" x="50" y="-317.8" font-family="Times,serif" font-size="14.00" fill="#000000">a=1</text>
</g>
<!-- B1 -->
<g id="node2" class="node">
<title>B1</title>
<polygon fill="none" stroke="#000000" points="77,-268 23,-268 23,-232 77,-232 77,-268"/>
<text text-anchor="middle" x="50" y="-245.8" font-family="Times,serif" font-size="14.00" fill="#000000">b=2</text>
</g>
<!-- A1&#45;&gt;B1 -->
<g id="edge1" class="edge">
<title>A1&#45;&gt;B1</title>
<path fill="none" stroke="#000000" d="M50,-303.8314C50,-296.131 50,-286.9743 50,-278.4166"/>
<polygon fill="#000000" stroke="#000000" points="53.5001,-278.4132 50,-268.4133 46.5001,-278.4133 53.5001,-278.4132"/>
</g>
<!-- C1 -->
<g id="node3" class="node">
<title>C1</title>
<polygon fill="none" stroke="#000000" points="77,-196 23,-196 23,-160 77,-160 77,-196"/>
<text text-anchor="middle" x="50" y="-173.8" font-family="Times,serif" font-size="14.00" fill="#000000">c=3</text>
</g>
<!-- B1&#45;&gt;C1 -->
<g id="edge2" class="edge">
<title>B1&#45;&gt;C1</title>
<path fill="none" stroke="#000000" d="M50,-231.8314C50,-224.131 50,-214.9743 50,-206.4166"/>
<polygon fill="#000000" stroke="#000000" points="53.5001,-206.4132 50,-196.4133 46.5001,-206.4133 53.5001,-206.4132"/>
</g>
<!-- D1 -->
<g id="node4" class="node">
<title>D1</title>
<polygon fill="none" stroke="#000000" points="84.1241,-124 15.8759,-124 15.8759,-88 84.1241,-88 84.1241,-124"/>
<text text-anchor="middle" x="50" y="-101.8" font-family="Times,serif" font-size="14.00" fill="#000000">SFENCE</text>
</g>
<!-- C1&#45;&gt;D1 -->
<g id="edge3" class="edge">
<title>C1&#45;&gt;D1</title>
<path fill="none" stroke="#000000" d="M50,-159.8314C50,-152.131 50,-142.9743 50,-134.4166"/>
<polygon fill="#000000" stroke="#000000" points="53.5001,-134.4132 50,-124.4133 46.5001,-134.4133 53.5001,-134.4132"/>
</g>
<!-- E1 -->
<g id="node5" class="node">
<title>E1</title>
<polygon fill="none" stroke="#000000" points="79.1095,-52 20.8905,-52 20.8905,-16 79.1095,-16 79.1095,-52"/>
<text text-anchor="middle" x="50" y="-29.8" font-family="Times,serif" font-size="14.00" fill="#000000">done=1</text>
</g>
<!-- D1&#45;&gt;E1 -->
<g id="edge4" class="edge">
<title>D1&#45;&gt;E1</title>
<path fill="none" stroke="#000000" d="M50,-87.8314C50,-80.131 50,-70.9743 50,-62.4166"/>
<polygon fill="#000000" stroke="#000000" points="53.5001,-62.4132 50,-52.4133 46.5001,-62.4133 53.5001,-62.4132"/>
</g>
</g>
</svg>
