<?xml version="1.0" encoding="UTF-8" standalone="no"?>
<!DOCTYPE svg PUBLIC "-//W3C//DTD SVG 1.1//EN"
 "http://www.w3.org/Graphics/SVG/1.1/DTD/svg11.dtd">
<!-- Generated by graphviz version 2.40.1 (20161225.0304)
 -->
<!-- Title: atomic1 Pages: 1 -->
<svg width="349pt" height="286pt"
 viewBox="0.00 0.00 349.23 285.50" xmlns="http://www.w3.org/2000/svg" xmlns:xlink="http://www.w3.org/1999/xlink">
<g id="graph0" class="graph" transform="scale(1 1) rotate(0) translate(4 281.5)">
<title>atomic1</title>
<polygon fill="#ffffff" stroke="transparent" points="-4,4 -4,-281.5 345.2334,-281.5 345.2334,4 -4,4"/>
<!-- A -->
<g id="node1" class="node">
<title>A</title>
<polygon fill="none" stroke="#000000" points="293.4819,-50 124.355,-50 124.355,-14 293.4819,-14 293.4819,-50"/>
<text text-anchor="middle" x="208.9185" y="-27.8" font-family="Times,serif" font-size="14.00" fill="#000000"> | ... | &lt;f1&gt; eetop| ... | tid | ...</text>
<text text-anchor="middle" x="62.1934" y="-2.8" font-family="Times,serif" font-size="14.00" fill="#000000">oop(java.lang.Thread)</text>
</g>
<!-- B -->
<g id="node2" class="node">
<title>B</title>
<polygon fill="none" stroke="#000000" points="341.0486,-104 76.7883,-104 76.7883,-68 341.0486,-68 341.0486,-104"/>
<text text-anchor="middle" x="208.9185" y="-81.8" font-family="Times,serif" font-size="14.00" fill="#000000"> | &lt;f2&gt; _osthread | ... | &lt;f3&gt; _threadObj | |...| </text>
<text text-anchor="middle" x="44.3447" y="-56.8" font-family="Times,serif" font-size="14.00" fill="#000000">JavaThread</text>
</g>
<!-- C -->
<g id="node3" class="node">
<title>C</title>
<polygon fill="none" stroke="#000000" points="170.9839,-123 170.9839,-277 246.853,-277 246.853,-123 170.9839,-123"/>
<text text-anchor="middle" x="208.9185" y="-261.8" font-family="Times,serif" font-size="14.00" fill="#000000"> </text>
<polyline fill="none" stroke="#000000" points="170.9839,-255 246.853,-255 "/>
<text text-anchor="middle" x="208.9185" y="-239.8" font-family="Times,serif" font-size="14.00" fill="#000000">...</text>
<polyline fill="none" stroke="#000000" points="170.9839,-233 246.853,-233 "/>
<text text-anchor="middle" x="208.9185" y="-217.8" font-family="Times,serif" font-size="14.00" fill="#000000"> </text>
<polyline fill="none" stroke="#000000" points="170.9839,-211 246.853,-211 "/>
<text text-anchor="middle" x="208.9185" y="-195.8" font-family="Times,serif" font-size="14.00" fill="#000000">_thread_id</text>
<polyline fill="none" stroke="#000000" points="170.9839,-189 246.853,-189 "/>
<text text-anchor="middle" x="208.9185" y="-173.8" font-family="Times,serif" font-size="14.00" fill="#000000"> </text>
<polyline fill="none" stroke="#000000" points="170.9839,-167 246.853,-167 "/>
<text text-anchor="middle" x="208.9185" y="-151.8" font-family="Times,serif" font-size="14.00" fill="#000000">...</text>
<polyline fill="none" stroke="#000000" points="170.9839,-145 246.853,-145 "/>
<text text-anchor="middle" x="208.9185" y="-129.8" font-family="Times,serif" font-size="14.00" fill="#000000"> </text>
<text text-anchor="middle" x="142.2148" y="-111.3" font-family="Times,serif" font-size="14.00" fill="#000000">OSThread</text>
</g>
</g>
</svg>
