<?xml version="1.0" encoding="UTF-8" standalone="no"?>
<!DOCTYPE svg PUBLIC "-//W3C//DTD SVG 1.1//EN"
 "http://www.w3.org/Graphics/SVG/1.1/DTD/svg11.dtd">
<!-- Generated by graphviz version 2.40.1 (20161225.0304)
 -->
<!-- Title: atomic1 Pages: 1 -->
<svg width="837pt" height="362pt"
 viewBox="0.00 0.00 837.42 361.52" xmlns="http://www.w3.org/2000/svg" xmlns:xlink="http://www.w3.org/1999/xlink">
<g id="graph0" class="graph" transform="scale(1 1) rotate(0) translate(4 357.5161)">
<title>atomic1</title>
<polygon fill="#ffffff" stroke="transparent" points="-4,4 -4,-357.5161 833.4214,-357.5161 833.4214,4 -4,4"/>
<!-- t1 -->
<g id="node1" class="node">
<title>t1</title>
<ellipse fill="none" stroke="#000000" cx="326" cy="-334" rx="50.8235" ry="19.5322"/>
<text text-anchor="middle" x="326" y="-332.6" font-family="Times,serif" font-size="14.00" fill="#000000">医疗诊断</text>
</g>
<!-- t2 -->
<g id="node2" class="node">
<title>t2</title>
<ellipse fill="none" stroke="#000000" cx="326" cy="-259" rx="50.8235" ry="19.5322"/>
<text text-anchor="middle" x="326" y="-257.6" font-family="Times,serif" font-size="14.00" fill="#000000">症状信息</text>
</g>
<!-- t1&#45;&gt;t2 -->
<g id="edge1" class="edge">
<title>t1&#45;&gt;t2</title>
<path fill="none" stroke="#000000" d="M326,-314.101C326,-305.6949 326,-297.2887 326,-288.8826"/>
<polygon fill="#000000" stroke="#000000" points="329.5001,-288.6289 326,-278.6289 322.5001,-288.6289 329.5001,-288.6289"/>
</g>
<!-- t3 -->
<g id="node3" class="node">
<title>t3</title>
<ellipse fill="none" stroke="#000000" cx="326" cy="-184" rx="60.623" ry="19.5322"/>
<text text-anchor="middle" x="326" y="-182.6" font-family="Times,serif" font-size="14.00" fill="#000000">病人等价类</text>
</g>
<!-- t2&#45;&gt;t3 -->
<g id="edge2" class="edge">
<title>t2&#45;&gt;t3</title>
<path fill="none" stroke="#000000" d="M326,-239.101C326,-230.6949 326,-222.2887 326,-213.8826"/>
<polygon fill="#000000" stroke="#000000" points="329.5001,-213.6289 326,-203.6289 322.5001,-213.6289 329.5001,-213.6289"/>
</g>
<!-- r -->
<g id="node5" class="node">
<title>r</title>
<polygon fill="none" stroke="#000000" points="472,-171 472,-196 548,-196 548,-171 472,-171"/>
<text text-anchor="start" x="475" y="-181.8" font-family="Times,serif" font-size="14.00" fill="#000000">决策粗糙集</text>
<polygon fill="none" stroke="#000000" points="550,-171 550,-196 640,-196 640,-171 550,-171"/>
<text text-anchor="start" x="553" y="-181.8" font-family="Times,serif" font-size="14.00" fill="#000000">三支决策规则</text>
<polygon fill="none" stroke="#000000" points="469,-168.5 469,-199.5 643,-199.5 643,-168.5 469,-168.5"/>
</g>
<!-- t3&#45;&gt;r -->
<g id="edge3" class="edge">
<title>t3&#45;&gt;r</title>
<path fill="none" stroke="#000000" d="M387.0319,-184C406.5629,-184 428.7798,-184 450.5382,-184"/>
<polygon fill="#000000" stroke="#000000" points="450.8289,-187.5001 460.8289,-184 450.8289,-180.5001 450.8289,-187.5001"/>
</g>
<!-- c1 -->
<g id="node4" class="node">
<title>c1</title>
<polygon fill="none" stroke="#000000" points="411,-146 241,-146 241,-110 411,-110 411,-146"/>
<text text-anchor="middle" x="326" y="-126.6" font-family="Times,serif" font-size="14.00" fill="#000000">是否有决策成本损失信息</text>
</g>
<!-- c1&#45;&gt;r -->
<g id="edge4" class="edge">
<title>c1&#45;&gt;r</title>
<path fill="none" stroke="#000000" d="M400.0395,-146.027C420.9934,-151.1288 444.0342,-156.7388 465.8262,-162.0446"/>
<polygon fill="#000000" stroke="#000000" points="465.1946,-165.4931 475.7388,-164.4581 466.8507,-158.6917 465.1946,-165.4931"/>
<text text-anchor="middle" x="436" y="-164.3999" font-family="Times,serif" font-size="14.00" fill="#000000">是</text>
</g>
<!-- r3 -->
<g id="node7" class="node">
<title>r3</title>
<ellipse fill="none" stroke="#000000" cx="758.7107" cy="-242" rx="41.0244" ry="19.5322"/>
<text text-anchor="middle" x="758.7107" y="-240.6" font-family="Times,serif" font-size="14.00" fill="#000000">病患类</text>
</g>
<!-- r&#45;&gt;r3 -->
<g id="edge5" class="edge">
<title>r&#45;&gt;r3</title>
<path fill="none" stroke="#000000" d="M624.346,-203.5553C653.8006,-211.9829 687.4304,-221.6051 713.6772,-229.1149"/>
<polygon fill="#000000" stroke="#000000" points="712.7739,-232.4969 723.3509,-231.8828 714.6995,-225.7669 712.7739,-232.4969"/>
</g>
<!-- r4 -->
<g id="node8" class="node">
<title>r4</title>
<ellipse fill="none" stroke="#000000" cx="758.7107" cy="-185" rx="70.922" ry="19.5322"/>
<text text-anchor="middle" x="758.7107" y="-183.6" font-family="Times,serif" font-size="14.00" fill="#000000">进一步观察类</text>
</g>
<!-- r&#45;&gt;r4 -->
<g id="edge6" class="edge">
<title>r&#45;&gt;r4</title>
<path fill="none" stroke="#000000" d="M651.1231,-184.4693C659.9953,-184.513 668.9314,-184.5571 677.6582,-184.6002"/>
<polygon fill="#000000" stroke="#000000" points="677.7729,-188.1007 687.7901,-184.6501 677.8075,-181.1008 677.7729,-188.1007"/>
</g>
<!-- r5 -->
<g id="node9" class="node">
<title>r5</title>
<ellipse fill="none" stroke="#000000" cx="758.7107" cy="-128" rx="41.0244" ry="19.5322"/>
<text text-anchor="middle" x="758.7107" y="-126.6" font-family="Times,serif" font-size="14.00" fill="#000000">患病类</text>
</g>
<!-- r&#45;&gt;r5 -->
<g id="edge7" class="edge">
<title>r&#45;&gt;r5</title>
<path fill="none" stroke="#000000" d="M626.6138,-164.4925C655.3623,-156.5506 687.7554,-147.6018 713.2688,-140.5536"/>
<polygon fill="#000000" stroke="#000000" points="714.3338,-143.8905 723.0408,-137.854 712.4698,-137.1433 714.3338,-143.8905"/>
</g>
<!-- l -->
<g id="node6" class="node">
<title>l</title>
<polygon fill="none" stroke="#000000" points="11,-87 11,-112 129,-112 129,-87 11,-87"/>
<text text-anchor="start" x="14" y="-97.8" font-family="Times,serif" font-size="14.00" fill="#000000">临床数据管理系统</text>
<polygon fill="none" stroke="#000000" points="131,-87 131,-112 193,-112 193,-87 131,-87"/>
<text text-anchor="start" x="134" y="-97.8" font-family="Times,serif" font-size="14.00" fill="#000000">知识管理</text>
<polygon fill="none" stroke="#000000" points="8,-84.5 8,-115.5 196,-115.5 196,-84.5 8,-84.5"/>
</g>
<!-- l&#45;&gt;c1 -->
<g id="edge8" class="edge">
<title>l&#45;&gt;c1</title>
<path fill="none" stroke="#000000" d="M204.1675,-112.7709C212.9585,-113.8698 221.8309,-114.9789 230.5658,-116.0707"/>
<polygon fill="#000000" stroke="#000000" points="230.3867,-119.5755 240.7436,-117.343 231.255,-112.6295 230.3867,-119.5755"/>
</g>
<!-- l3 -->
<g id="node10" class="node">
<title>l3</title>
<polygon fill="none" stroke="#000000" points="383,-92 269,-92 269,-56 383,-56 383,-92"/>
<text text-anchor="middle" x="326" y="-72.6" font-family="Times,serif" font-size="14.00" fill="#000000">病人历史数据库</text>
</g>
<!-- l&#45;&gt;l3 -->
<g id="edge9" class="edge">
<title>l&#45;&gt;l3</title>
<path fill="none" stroke="#000000" d="M204.1675,-88.1413C222.7835,-85.9805 241.7645,-83.7773 259.0321,-81.7731"/>
<polygon fill="#000000" stroke="#000000" points="259.4556,-85.2475 268.9853,-80.6178 258.6484,-78.2942 259.4556,-85.2475"/>
</g>
<!-- l4 -->
<g id="node11" class="node">
<title>l4</title>
<polygon fill="none" stroke="#000000" points="634,-90 478,-90 478,-54 634,-54 634,-90"/>
<text text-anchor="middle" x="556" y="-70.6" font-family="Times,serif" font-size="14.00" fill="#000000">集成机器学习分类预测</text>
</g>
<!-- l3&#45;&gt;l4 -->
<g id="edge10" class="edge">
<title>l3&#45;&gt;l4</title>
<path fill="none" stroke="#000000" d="M383.1495,-73.503C408.6249,-73.2815 439.2218,-73.0155 467.5461,-72.7692"/>
<polygon fill="#000000" stroke="#000000" points="467.8957,-76.2664 477.8649,-72.6794 467.8348,-69.2666 467.8957,-76.2664"/>
</g>
<!-- l5 -->
<g id="node12" class="node">
<title>l5</title>
<polygon fill="none" stroke="#000000" points="787.7107,-90 729.7107,-90 729.7107,-54 787.7107,-54 787.7107,-90"/>
<text text-anchor="middle" x="758.7107" y="-70.6" font-family="Times,serif" font-size="14.00" fill="#000000">患病类</text>
</g>
<!-- l4&#45;&gt;l5 -->
<g id="edge11" class="edge">
<title>l4&#45;&gt;l5</title>
<path fill="none" stroke="#000000" d="M634.0833,-72C663.2297,-72 695.0904,-72 719.3015,-72"/>
<polygon fill="#000000" stroke="#000000" points="719.5138,-75.5001 729.5138,-72 719.5137,-68.5001 719.5138,-75.5001"/>
</g>
<!-- l6 -->
<g id="node13" class="node">
<title>l6</title>
<polygon fill="none" stroke="#000000" points="794.7107,-36 722.7107,-36 722.7107,0 794.7107,0 794.7107,-36"/>
<text text-anchor="middle" x="758.7107" y="-16.6" font-family="Times,serif" font-size="14.00" fill="#000000">未患病类</text>
</g>
<!-- l4&#45;&gt;l6 -->
<g id="edge12" class="edge">
<title>l4&#45;&gt;l6</title>
<path fill="none" stroke="#000000" d="M623.7815,-53.9437C653.0723,-46.141 686.5803,-37.2148 712.8768,-30.2097"/>
<polygon fill="#000000" stroke="#000000" points="713.8162,-33.5816 722.5783,-27.6253 712.0143,-26.8174 713.8162,-33.5816"/>
</g>
</g>
</svg>
