<?xml version="1.0" encoding="UTF-8" standalone="no"?>
<!DOCTYPE svg PUBLIC "-//W3C//DTD SVG 1.1//EN"
 "http://www.w3.org/Graphics/SVG/1.1/DTD/svg11.dtd">
<!-- Generated by graphviz version 2.40.1 (20161225.0304)
 -->
<!-- Title: atomic1 Pages: 1 -->
<svg width="1777pt" height="220pt"
 viewBox="0.00 0.00 1776.88 219.66" xmlns="http://www.w3.org/2000/svg" xmlns:xlink="http://www.w3.org/1999/xlink">
<g id="graph0" class="graph" transform="scale(1 1) rotate(0) translate(4 215.6643)">
<title>atomic1</title>
<polygon fill="#ffffff" stroke="transparent" points="-4,4 -4,-215.6643 1772.877,-215.6643 1772.877,4 -4,4"/>
<g id="clust2" class="cluster">
<title>clusterA</title>
<polygon fill="none" stroke="#000000" points="479.8112,-151.6643 479.8112,-203.6643 699.8112,-203.6643 699.8112,-151.6643 479.8112,-151.6643"/>
</g>
<!-- t1 -->
<g id="node1" class="node">
<title>t1</title>
<ellipse fill="none" stroke="#000000" cx="60.8112" cy="-177.6643" rx="50.8235" ry="19.5322"/>
<text text-anchor="middle" x="60.8112" y="-176.2642" font-family="Times,serif" font-size="14.00" fill="#000000">医疗诊断</text>
</g>
<!-- t2 -->
<g id="node2" class="node">
<title>t2</title>
<ellipse fill="none" stroke="#000000" cx="60.8112" cy="-94.5483" rx="50.8235" ry="19.5322"/>
<text text-anchor="middle" x="60.8112" y="-93.1482" font-family="Times,serif" font-size="14.00" fill="#000000">症状信息</text>
</g>
<!-- t1&#45;&gt;t2 -->
<g id="edge1" class="edge">
<title>t1&#45;&gt;t2</title>
<path fill="none" stroke="#000000" d="M60.8112,-157.9669C60.8112,-147.9264 60.8112,-135.5059 60.8112,-124.3255"/>
<polygon fill="#000000" stroke="#000000" points="64.3113,-124.1042 60.8112,-114.1042 57.3113,-124.1042 64.3113,-124.1042"/>
</g>
<!-- t3 -->
<g id="node3" class="node">
<title>t3</title>
<ellipse fill="none" stroke="#000000" cx="60.8112" cy="-19.5161" rx="60.623" ry="19.5322"/>
<text text-anchor="middle" x="60.8112" y="-18.116" font-family="Times,serif" font-size="14.00" fill="#000000">病人等价类</text>
</g>
<!-- t2&#45;&gt;t3 -->
<g id="edge2" class="edge">
<title>t2&#45;&gt;t3</title>
<path fill="none" stroke="#000000" d="M60.8112,-74.8344C60.8112,-66.9938 60.8112,-57.8027 60.8112,-49.1891"/>
<polygon fill="#000000" stroke="#000000" points="64.3113,-49.0982 60.8112,-39.0982 57.3113,-49.0983 64.3113,-49.0982"/>
</g>
<!-- c1 -->
<g id="node4" class="node">
<title>c1</title>
<polygon fill="none" stroke="#000000" points="299.8112,-205.3645 129.8112,-177.6643 299.8112,-149.9641 469.8112,-177.6643 299.8112,-205.3645"/>
<text text-anchor="middle" x="299.8112" y="-176.2642" font-family="Times,serif" font-size="14.00" fill="#000000">是否有决策成本损失信息</text>
</g>
<!-- r1 -->
<g id="node5" class="node">
<title>r1</title>
<polygon fill="none" stroke="#000000" points="691.8112,-195.6643 605.8112,-195.6643 605.8112,-159.6643 691.8112,-159.6643 691.8112,-195.6643"/>
<text text-anchor="middle" x="648.8112" y="-176.2642" font-family="Times,serif" font-size="14.00" fill="#000000">决策粗糙集</text>
</g>
<!-- r2 -->
<g id="node6" class="node">
<title>r2</title>
<polygon fill="none" stroke="#000000" points="587.8112,-195.6643 487.8112,-195.6643 487.8112,-159.6643 587.8112,-159.6643 587.8112,-195.6643"/>
<text text-anchor="middle" x="537.8112" y="-176.2642" font-family="Times,serif" font-size="14.00" fill="#000000">三支决策规则</text>
</g>
<!-- r3 -->
<g id="node7" class="node">
<title>r3</title>
<ellipse fill="none" stroke="#000000" cx="750.8112" cy="-177.6643" rx="41.0244" ry="19.5322"/>
<text text-anchor="middle" x="750.8112" y="-176.2642" font-family="Times,serif" font-size="14.00" fill="#000000">病患类</text>
</g>
<!-- r4 -->
<g id="node8" class="node">
<title>r4</title>
<ellipse fill="none" stroke="#000000" cx="880.8112" cy="-177.6643" rx="70.922" ry="19.5322"/>
<text text-anchor="middle" x="880.8112" y="-176.2642" font-family="Times,serif" font-size="14.00" fill="#000000">进一步观察类</text>
</g>
<!-- r5 -->
<g id="node9" class="node">
<title>r5</title>
<ellipse fill="none" stroke="#000000" cx="1010.8112" cy="-177.6643" rx="41.0244" ry="19.5322"/>
<text text-anchor="middle" x="1010.8112" y="-176.2642" font-family="Times,serif" font-size="14.00" fill="#000000">患病类</text>
</g>
<!-- l1 -->
<g id="node10" class="node">
<title>l1</title>
<polygon fill="none" stroke="#000000" points="1197.8112,-195.6643 1069.8112,-195.6643 1069.8112,-159.6643 1197.8112,-159.6643 1197.8112,-195.6643"/>
<text text-anchor="middle" x="1133.8112" y="-176.2642" font-family="Times,serif" font-size="14.00" fill="#000000">临床数据管理系统</text>
</g>
<!-- l2 -->
<g id="node11" class="node">
<title>l2</title>
<polygon fill="none" stroke="#000000" points="1287.8112,-195.6643 1215.8112,-195.6643 1215.8112,-159.6643 1287.8112,-159.6643 1287.8112,-195.6643"/>
<text text-anchor="middle" x="1251.8112" y="-176.2642" font-family="Times,serif" font-size="14.00" fill="#000000">知识管理</text>
</g>
<!-- l3 -->
<g id="node12" class="node">
<title>l3</title>
<polygon fill="none" stroke="#000000" points="1419.8112,-195.6643 1305.8112,-195.6643 1305.8112,-159.6643 1419.8112,-159.6643 1419.8112,-195.6643"/>
<text text-anchor="middle" x="1362.8112" y="-176.2642" font-family="Times,serif" font-size="14.00" fill="#000000">病人历史数据库</text>
</g>
<!-- l4 -->
<g id="node13" class="node">
<title>l4</title>
<polygon fill="none" stroke="#000000" points="1593.8112,-195.6643 1437.8112,-195.6643 1437.8112,-159.6643 1593.8112,-159.6643 1593.8112,-195.6643"/>
<text text-anchor="middle" x="1515.8112" y="-176.2642" font-family="Times,serif" font-size="14.00" fill="#000000">集成机器学习分类预测</text>
</g>
<!-- l5 -->
<g id="node14" class="node">
<title>l5</title>
<polygon fill="none" stroke="#000000" points="1683.8112,-195.6643 1611.8112,-195.6643 1611.8112,-159.6643 1683.8112,-159.6643 1683.8112,-195.6643"/>
<text text-anchor="middle" x="1647.8112" y="-176.2642" font-family="Times,serif" font-size="14.00" fill="#000000">未患病类</text>
</g>
<!-- T -->
<g id="node15" class="node">
<title>T</title>
<ellipse fill="none" stroke="#000000" cx="1728.8112" cy="-177.6643" rx="27" ry="18"/>
<text text-anchor="middle" x="1728.8112" y="-173.4643" font-family="Times,serif" font-size="14.00" fill="#000000">T</text>
</g>
<!-- clusterA -->
<g id="node16" class="node">
<title>clusterA</title>
<ellipse fill="none" stroke="#000000" cx="1728.8112" cy="-94.5483" rx="40.1317" ry="18"/>
<text text-anchor="middle" x="1728.8112" y="-90.3483" font-family="Times,serif" font-size="14.00" fill="#000000">clusterA</text>
</g>
<!-- T&#45;&gt;clusterA -->
<g id="edge3" class="edge">
<title>T&#45;&gt;clusterA</title>
<path fill="none" stroke="#000000" d="M1728.8112,-159.6293C1728.8112,-148.9204 1728.8112,-135.1043 1728.8112,-122.9585"/>
<polygon fill="#000000" stroke="#000000" points="1732.3113,-122.835 1728.8112,-112.835 1725.3113,-122.8351 1732.3113,-122.835"/>
</g>
</g>
</svg>
