<?xml version="1.0" encoding="UTF-8" standalone="no"?>
<!DOCTYPE svg PUBLIC "-//W3C//DTD SVG 1.1//EN"
 "http://www.w3.org/Graphics/SVG/1.1/DTD/svg11.dtd">
<!-- Generated by graphviz version 2.40.1 (20161225.0304)
 -->
<!-- Title: atomic1 Pages: 1 -->
<svg width="194pt" height="134pt"
 viewBox="0.00 0.00 193.67 134.03" xmlns="http://www.w3.org/2000/svg" xmlns:xlink="http://www.w3.org/1999/xlink">
<g id="graph0" class="graph" transform="scale(1 1) rotate(0) translate(4 130.0322)">
<title>atomic1</title>
<polygon fill="#ffffff" stroke="transparent" points="-4,4 -4,-130.0322 189.6694,-130.0322 189.6694,4 -4,4"/>
<!-- A -->
<g id="node1" class="node">
<title>A</title>
<ellipse fill="none" stroke="#000000" cx="59.6069" cy="-106.5161" rx="36.125" ry="19.5322"/>
<text text-anchor="middle" x="59.6069" y="-105.116" font-family="Times,serif" font-size="14.00" fill="#000000">线程1</text>
</g>
<!-- C -->
<g id="node3" class="node">
<title>C</title>
<polygon fill="none" stroke="#000000" points="28,-.5 28,-36.5 181.2139,-36.5 181.2139,-.5 28,-.5"/>
<text text-anchor="middle" x="37.75" y="-14.3" font-family="Times,serif" font-size="14.00" fill="#000000"> </text>
<polyline fill="none" stroke="#000000" points="47.5,-.5 47.5,-36.5 "/>
<text text-anchor="middle" x="60.75" y="-14.3" font-family="Times,serif" font-size="14.00" fill="#000000">...</text>
<polyline fill="none" stroke="#000000" points="74,-.5 74,-36.5 "/>
<text text-anchor="middle" x="83.75" y="-14.3" font-family="Times,serif" font-size="14.00" fill="#000000"> </text>
<polyline fill="none" stroke="#000000" points="93.5,-.5 93.5,-36.5 "/>
<text text-anchor="middle" x="104.6069" y="-14.3" font-family="Times,serif" font-size="14.00" fill="#000000">a</text>
<polyline fill="none" stroke="#000000" points="115.7139,-.5 115.7139,-36.5 "/>
<text text-anchor="middle" x="125.4639" y="-14.3" font-family="Times,serif" font-size="14.00" fill="#000000"> </text>
<polyline fill="none" stroke="#000000" points="135.2139,-.5 135.2139,-36.5 "/>
<text text-anchor="middle" x="148.4639" y="-14.3" font-family="Times,serif" font-size="14.00" fill="#000000">...</text>
<polyline fill="none" stroke="#000000" points="161.7139,-.5 161.7139,-36.5 "/>
<text text-anchor="middle" x="171.4639" y="-14.3" font-family="Times,serif" font-size="14.00" fill="#000000"> </text>
<text text-anchor="middle" x="14" y="-45.3999" font-family="Times,serif" font-size="14.00" fill="#000000">内存</text>
</g>
<!-- A&#45;&gt;C -->
<g id="edge1" class="edge">
<title>A&#45;&gt;C:f1</title>
<path fill="none" stroke="#000000" d="M78.17,-89.7116C88.532,-78.7415 100.044,-63.3674 103.5424,-46.5478"/>
<polygon fill="#000000" stroke="#000000" points="107.0338,-46.8131 104.6069,-36.5 100.0727,-46.0756 107.0338,-46.8131"/>
<text text-anchor="middle" x="112.1616" y="-57.8" font-family="Times,serif" font-size="14.00" fill="#000000">a=1</text>
</g>
<!-- B -->
<g id="node2" class="node">
<title>B</title>
<ellipse fill="none" stroke="#000000" cx="149.6069" cy="-106.5161" rx="36.125" ry="19.5322"/>
<text text-anchor="middle" x="149.6069" y="-105.116" font-family="Times,serif" font-size="14.00" fill="#000000">线程2</text>
</g>
<!-- B&#45;&gt;C -->
<g id="edge2" class="edge">
<title>B&#45;&gt;C:f1</title>
<path fill="none" stroke="#000000" d="M143.3979,-87.2877C139.5407,-77.0896 133.9161,-64.6998 126.6069,-55 121.8018,-48.6231 114.4093,-47.9812 109.5407,-45.2774"/>
<polygon fill="#000000" stroke="#000000" points="112.558,-43.5023 104.6069,-36.5 106.4559,-46.9323 112.558,-43.5023"/>
<text text-anchor="middle" x="145.1616" y="-57.8" font-family="Times,serif" font-size="14.00" fill="#000000">a=2</text>
</g>
</g>
</svg>
