<?xml version="1.0" encoding="UTF-8" standalone="no"?>
<!DOCTYPE svg PUBLIC "-//W3C//DTD SVG 1.1//EN"
 "http://www.w3.org/Graphics/SVG/1.1/DTD/svg11.dtd">
<!-- Generated by graphviz version 2.40.1 (20161225.0304)
 -->
<!-- Title: atomic1 Pages: 1 -->
<svg width="364pt" height="203pt"
 viewBox="0.00 0.00 364.04 203.00" xmlns="http://www.w3.org/2000/svg" xmlns:xlink="http://www.w3.org/1999/xlink">
<g id="graph0" class="graph" transform="scale(1 1) rotate(0) translate(4 199)">
<title>atomic1</title>
<polygon fill="#ffffff" stroke="transparent" points="-4,4 -4,-199 360.0435,-199 360.0435,4 -4,4"/>
<!-- A -->
<g id="node1" class="node">
<title>A</title>
<polygon fill="none" stroke="#000000" points="329.9124,-181 124.5447,-181 124.5447,-145 329.9124,-145 329.9124,-181"/>
<text text-anchor="middle" x="227.2285" y="-158.8" font-family="Times,serif" font-size="14.00" fill="#000000">name| ... | &lt;f1&gt; eetop | ... | tid | ... |</text>
<text text-anchor="middle" x="62.1934" y="-183.8" font-family="Times,serif" font-size="14.00" fill="#000000">oop(java.lang.Thread)</text>
</g>
<!-- B -->
<g id="node2" class="node">
<title>B</title>
<polygon fill="none" stroke="#000000" points="355.8587,-109 98.5984,-109 98.5984,-73 355.8587,-73 355.8587,-109"/>
<text text-anchor="middle" x="227.2285" y="-86.8" font-family="Times,serif" font-size="14.00" fill="#000000"> | &lt;f1&gt;_osthread | ... | &lt;f2&gt; _threadObj | |...|</text>
<text text-anchor="middle" x="66.1548" y="-111.8" font-family="Times,serif" font-size="14.00" fill="#000000">JavaThread</text>
</g>
<!-- A&#45;&gt;B -->
<g id="edge1" class="edge">
<title>A:f1&#45;&gt;B</title>
<path fill="none" stroke="#000000" d="M221.2761,-144.8314C220.5257,-137.131 220.3048,-127.9743 220.6134,-119.4166"/>
<polygon fill="#000000" stroke="#000000" points="224.1077,-119.6161 221.2525,-109.4133 217.122,-119.1697 224.1077,-119.6161"/>
</g>
<!-- B&#45;&gt;A -->
<g id="edge3" class="edge">
<title>B:f2&#45;&gt;A</title>
<path fill="none" stroke="#000000" d="M233.2045,-109.4133C233.9356,-117.0593 234.1488,-126.1084 233.844,-134.5726"/>
<polygon fill="#000000" stroke="#000000" points="230.3333,-134.6264 233.1809,-144.8314 237.3187,-135.078 230.3333,-134.6264"/>
</g>
<!-- C -->
<g id="node3" class="node">
<title>C</title>
<polygon fill="none" stroke="#000000" points="123.7939,-.5 123.7939,-36.5 330.6631,-36.5 330.6631,-.5 123.7939,-.5"/>
<text text-anchor="middle" x="133.5439" y="-14.3" font-family="Times,serif" font-size="14.00" fill="#000000"> </text>
<polyline fill="none" stroke="#000000" points="143.2939,-.5 143.2939,-36.5 "/>
<text text-anchor="middle" x="156.5439" y="-14.3" font-family="Times,serif" font-size="14.00" fill="#000000">...</text>
<polyline fill="none" stroke="#000000" points="169.7939,-.5 169.7939,-36.5 "/>
<text text-anchor="middle" x="179.5439" y="-14.3" font-family="Times,serif" font-size="14.00" fill="#000000"> </text>
<polyline fill="none" stroke="#000000" points="189.2939,-.5 189.2939,-36.5 "/>
<text text-anchor="middle" x="227.2285" y="-14.3" font-family="Times,serif" font-size="14.00" fill="#000000">_thread_id</text>
<polyline fill="none" stroke="#000000" points="265.1631,-.5 265.1631,-36.5 "/>
<text text-anchor="middle" x="274.9131" y="-14.3" font-family="Times,serif" font-size="14.00" fill="#000000"> </text>
<polyline fill="none" stroke="#000000" points="284.6631,-.5 284.6631,-36.5 "/>
<text text-anchor="middle" x="297.9131" y="-14.3" font-family="Times,serif" font-size="14.00" fill="#000000">...</text>
<polyline fill="none" stroke="#000000" points="311.1631,-.5 311.1631,-36.5 "/>
<text text-anchor="middle" x="320.9131" y="-14.3" font-family="Times,serif" font-size="14.00" fill="#000000"> </text>
<text text-anchor="middle" x="95.0249" y="-39.8" font-family="Times,serif" font-size="14.00" fill="#000000">OSThread</text>
</g>
<!-- B&#45;&gt;C -->
<g id="edge2" class="edge">
<title>B:f1&#45;&gt;C</title>
<path fill="none" stroke="#000000" d="M227.2285,-72.7052C227.2285,-64.832 227.2285,-55.4471 227.2285,-46.7167"/>
<polygon fill="#000000" stroke="#000000" points="230.7286,-46.5378 227.2285,-36.5378 223.7286,-46.5378 230.7286,-46.5378"/>
</g>
</g>
</svg>
