<?xml version="1.0" encoding="UTF-8" standalone="no"?>
<!DOCTYPE svg PUBLIC "-//W3C//DTD SVG 1.1//EN"
 "http://www.w3.org/Graphics/SVG/1.1/DTD/svg11.dtd">
<!-- Generated by graphviz version 2.40.1 (20161225.0304)
 -->
<!-- Title: atomic2 Pages: 1 -->
<svg width="96pt" height="177pt"
 viewBox="0.00 0.00 96.23 177.00" xmlns="http://www.w3.org/2000/svg" xmlns:xlink="http://www.w3.org/1999/xlink">
<g id="graph0" class="graph" transform="scale(1 1) rotate(0) translate(4 173)">
<title>atomic2</title>
<polygon fill="#ffffff" stroke="transparent" points="-4,4 -4,-173 92.2344,-173 92.2344,4 -4,4"/>
<!-- C -->
<g id="node1" class="node">
<title>C</title>
<polygon fill="none" stroke="#000000" points="34.2344,-14.5 34.2344,-168.5 88.2344,-168.5 88.2344,-14.5 34.2344,-14.5"/>
<text text-anchor="middle" x="61.2344" y="-153.3" font-family="Times,serif" font-size="14.00" fill="#000000"> </text>
<polyline fill="none" stroke="#000000" points="34.2344,-146.5 88.2344,-146.5 "/>
<text text-anchor="middle" x="61.2344" y="-131.3" font-family="Times,serif" font-size="14.00" fill="#000000">a=a+1</text>
<polyline fill="none" stroke="#000000" points="34.2344,-124.5 88.2344,-124.5 "/>
<text text-anchor="middle" x="61.2344" y="-109.3" font-family="Times,serif" font-size="14.00" fill="#000000"> </text>
<polyline fill="none" stroke="#000000" points="34.2344,-102.5 88.2344,-102.5 "/>
<text text-anchor="middle" x="61.2344" y="-87.3" font-family="Times,serif" font-size="14.00" fill="#000000">a</text>
<polyline fill="none" stroke="#000000" points="34.2344,-80.5 88.2344,-80.5 "/>
<text text-anchor="middle" x="61.2344" y="-65.3" font-family="Times,serif" font-size="14.00" fill="#000000"> </text>
<polyline fill="none" stroke="#000000" points="34.2344,-58.5 88.2344,-58.5 "/>
<text text-anchor="middle" x="61.2344" y="-43.3" font-family="Times,serif" font-size="14.00" fill="#000000">...</text>
<polyline fill="none" stroke="#000000" points="34.2344,-36.5 88.2344,-36.5 "/>
<text text-anchor="middle" x="61.2344" y="-21.3" font-family="Times,serif" font-size="14.00" fill="#000000"> </text>
<text text-anchor="middle" x="17.1172" y="-2.8" font-family="Times,serif" font-size="14.00" fill="#000000">CPU1</text>
</g>
</g>
</svg>
